/* XPM */
static char *e5ed7bd6079b4bf19fd6e4454fa10721[] = {
/* columns rows colors chars-per-pixel */
"64 91 256 2 ",
"   c black",
".  c gray100",
"X  c #A86840",
"o  c #905C34",
"O  c #885830",
"+  c #80502C",
"@  c #744C28",
"#  c #543C1C",
"$  c #28200C",
"%  c #111214",
"&  c #131416",
"*  c #191A1C",
"=  c #27282A",
"-  c #151719",
";  c #1C1D1E",
":  c #141617",
">  c #1D211C",
",  c #20271E",
"<  c #232A20",
"1  c #3A402F",
"2  c #414633",
"3  c #4A4C3A",
"4  c #1C1C18",
"5  c #191916",
"6  c #1A1A18",
"7  c #232321",
"8  c #20201F",
"9  c #292928",
"0  c #24231E",
"q  c #1E1A08",
"w  c #070602",
"e  c #6E684E",
"r  c #1F1E1A",
"t  c #70694F",
"y  c #706950",
"u  c #3F3B2D",
"i  c #716A51",
"p  c #625C47",
"a  c #645E49",
"s  c #746C52",
"d  c #726A51",
"f  c #736B52",
"g  c #68614A",
"h  c #756C53",
"j  c #7A7157",
"k  c #776E55",
"l  c #746B53",
"z  c #716951",
"x  c #2F2D27",
"c  c #21201D",
"v  c #201F1C",
"b  c #22211E",
"n  c #23221F",
"m  c #242320",
"M  c #29210C",
"N  c #453715",
"B  c #3E3215",
"V  c #353127",
"C  c #292722",
"Z  c #2A210D",
"A  c #473818",
"S  c #80755C",
"D  c #7E735B",
"F  c #2D230F",
"G  c #120E06",
"H  c #372B14",
"J  c #8C7E63",
"K  c #716650",
"L  c #6C624D",
"P  c #4A4335",
"I  c #383329",
"U  c #1D1C1A",
"Y  c #443416",
"T  c #392C14",
"R  c #2E2310",
"E  c #746852",
"W  c #4F4738",
"Q  c #4C4436",
"!  c #8E8066",
"~  c #8A7C63",
"^  c #6E634F",
"/  c #94856B",
"(  c #473516",
")  c #4B3819",
"_  c #302411",
"`  c #3D2F18",
"'  c #594F3F",
"]  c #776A55",
"[  c #544B3C",
"{  c #93836A",
"}  c #8B7C64",
"|  c #887A62",
" . c #645A49",
".. c #463F33",
"X. c #867862",
"o. c #82755F",
"O. c #887A64",
"+. c #665C4B",
"@. c #534C40",
"#. c #2D2A25",
"$. c #312E29",
"%. c #533D1B",
"&. c #4D3819",
"*. c #493518",
"=. c #573F1D",
"-. c #4A3619",
";. c #473418",
":. c #523C1C",
">. c #493619",
",. c #403018",
"<. c #3E2F18",
"1. c #8D7D65",
"2. c #6B5F4D",
"3. c #92826A",
"4. c #918169",
"5. c #9B8A71",
"6. c #695E4D",
"7. c #685D4C",
"8. c #A09078",
"9. c #564E42",
"0. c #22201D",
"q. c #262421",
"w. c #553D1C",
"e. c #402E15",
"r. c #50391B",
"t. c #4D381B",
"y. c #0D0A06",
"u. c #7B6C57",
"i. c #746653",
"p. c #99876F",
"a. c #94836B",
"s. c #8F7E68",
"d. c #80715D",
"f. c #6E6150",
"g. c #8A7A65",
"h. c #635849",
"j. c #A59681",
"k. c #988A77",
"l. c #A99A85",
"z. c #573C1B",
"x. c #5C411F",
"c. c #563D1D",
"v. c #50391C",
"b. c #97856E",
"n. c #887763",
"m. c #857561",
"M. c #8B7A66",
"N. c #8A7965",
"B. c #82725F",
"V. c #7C6D5B",
"C. c #8D7C68",
"Z. c #8C7B67",
"A. c #897965",
"S. c #8F7E6A",
"D. c #8E7D69",
"F. c #5E5346",
"G. c #36322D",
"H. c #5A3E1E",
"J. c #624421",
"K. c #624321",
"L. c #5F4120",
"P. c #664723",
"I. c #583D1E",
"U. c #716251",
"Y. c #605446",
"T. c #95826D",
"R. c #93816C",
"E. c #907E6A",
"W. c #8A7966",
"Q. c #5C5145",
"!. c #76695A",
"~. c #726557",
"^. c #524A41",
"/. c #504A43",
"(. c #664422",
"). c #6D4925",
"_. c #6F4A26",
"`. c #796856",
"'. c #726251",
"]. c #776655",
"[. c #736352",
"{. c #746453",
"}. c #716151",
"|. c #655749",
" X c #685A4C",
".X c #8D7B68",
"XX c #756759",
"oX c #524940",
"OX c #564D44",
"+X c #514941",
"@X c #524A42",
"#X c #524C46",
"$X c #413D39",
"%X c #222120",
"&X c #6A4624",
"*X c #654222",
"=X c #7E522B",
"-X c #82552D",
";X c #774E29",
":X c #754D29",
">X c #734C28",
",X c #6E5E4F",
"<X c #695B4E",
"1X c #544B43",
"2X c #794E29",
"3X c #784D29",
"4X c #754C28",
"5X c #7A4E2A",
"6X c #794E2A",
"7X c #895930",
"8X c #87572F",
"9X c #8A5931",
"0X c #774E2A",
"qX c #875730",
"wX c #875830",
"eX c #81532E",
"rX c #8B5A32",
"tX c #514942",
"yX c #514A44",
"uX c #554E48",
"iX c #47413C",
"pX c #58514B",
"aX c #89572F",
"sX c #86552E",
"dX c #81502C",
"fX c #82522D",
"gX c #82512D",
"hX c #7D4F2B",
"jX c #84542E",
"kX c #83532E",
"lX c #8D5A32",
"zX c #915C34",
"xX c #8E5B33",
"cX c #935E35",
"vX c #925D35",
"bX c #905B34",
"nX c #8B5932",
"mX c #8F5C34",
"MX c #804F2C",
"NX c #7F4F2C",
"BX c #895530",
"VX c #84522E",
"CX c #9D6138",
"ZX c #955C35",
"AX c #995F37",
"SX c #A2653D",
"DX c #AA6941",
"FX c #AC6A42",
"GX c #AB6A42",
"HX c #2C2C2C",
"JX c gray17",
"KX c gray15",
"LX c #202020",
"PX c gray12",
"IX c gray11",
"UX c None",
/* pixels */
"CXCXo O O @ + + O + SXO O CXX + CXO + + + + o + @ + O + + + + @ + @ @ O + CX+ O + + O o + + + ).+ @ + @ + @ + O CX+ o O + + CX@ ",
"sXsX0X>X).x.&X&X).&X=XP.P.hXbX_.sX>X&X&XJ.&X0X&Xx.K.).&X&X&X_.(.2X(.x.P.J._.&X).&XJ.).0XK.&X_.K.2X(.).x.&Xx.&X).hXK.>X).&X_.hXK.",
"H.x.t.v.-.A >.*.*.-.r.B B ) K.v.L.t.) -.B *.v.>.B B -.) >.*.v.>.L.) Y B B B ) ;.-.B *.v.B *.v.) K.-.:.B -.B -.>.t.B ;.) ;.v.t.) ",
"T ,.T ,.,.) <.T ,.,.A ,.,.T ,.T Y ,.A ,.H T ,.,.,.,.,.T <.T ,.T ,.,.A T T T T <.,.H ,.,.,.T ,.T Y <.A T ,.T ,.,.,.,.T ,.H ,.,.A ",
"Y t.;.t._ G *X;.I.>.x.-.H.# I.F y.*Xx.>.c.;.>.I.v.-._ y.*X;.>.Y I.t.) ;.Y R y.*X*.t.I.;.-.;.I.F y.*Xx.;.>.;.*.*.>.-.F y.*X;.I.x.",
"K._.K._.T w ZXK.=XK.=XK.=X=X=XT w ZX=XK.=XK.K.=X).K.T w ZXK.K.(.=X).(.K.(.T w ZX(.).=X(.K.K.=XT w ZX=XK.K.K.(.(.K.K.T w ZX(.=X=X",
":X9X:X9Xc.Z DX:XvX:XvX:XvXvXvXc.Z DXvX:XvX:X:XvXgX:Xc.Z DX:X:XgXvXgXgX:XgXc.Z DXgXgXvXgX:X:XvXc.Z DXvX:X:X:XgXgX:X:Xc.Z DXgXvXvX",
"4X7X4X7Xw.M DX4XzX4XzX4XzXzXzXw.M DXzX4XzX4X4XzXgX@ w.M DX4X4XdXzXdX3X@ dXw.M DX3XdXzXdX4X4XzXw.M DX9X4X4X@ + 8XhX@ w.M DX+ zX9X",
"@ O @ O # $ X @ o @ o @ zXo o # $ X o @ o @ @ o 5X5X# $ X @ @ + o + >X5XNX# $ X >X+ o + @ @ o # $ X O @ @ 5XkXlXjX5X# $ X kXo O ",
"@ O @ O # $ X @ o @ o @ xXo o # $ X o @ o @ @ o >XdX# $ X @ @ + o + @ dXgX# $ X @ + o + @ @ o # $ X 8X@ @ dX9XzX9XdX# $ X 9Xo 8X",
"@ O @ O # $ X @ o @ o @ O o o # $ X o @ o @ @ o @ + # $ X @ @ + o + @ + qX# $ X @ + o + @ @ o # $ X dX@ @ MXmXo mXMX# $ X mXo dX",
"@ O @ O # $ X @ o @ o @ O o o # $ X o @ o @ @ o @ + # $ X @ @ NXo dX@ + O # $ X @ dXo NX@ @ o # $ X dX@ @ jXzXo zXjX# $ X zXo NX",
"@ O @ O # $ X @ o @ o @ 8Xo o # $ X o @ o @ @ o @ + # $ X @ @ fXo hX@ + 9X# $ X @ hXo fX@ @ o # $ X hX@ >XrXo o o rX# $ X o o + ",
"@ O @ O # $ X @ o @ o @ + o o # $ X o @ o @ @ o @ + # $ X @ @ O o @ @ + o # $ X @ @ o O @ @ o # $ X @ @ @ o o o o o # $ X o o + ",
"@ O @ O # $ X @ o @ o >XdXo o # $ X o @ o @ @ zX@ + # $ X @ @ O 9X>X@ NXo # $ X @ >X9XO @ @ o # $ X >X@ hXo o o o o # $ X o zXdX",
"@ O @ O # $ X @ o @ o 6X5Xo o # $ X o @ o @ @ lX@ NX# $ X @ @ rXO @ @ kXo # $ X @ @ O rX@ @ o # $ X @ @ dXo o o o o # $ X o lX5X",
"@ O @ O # $ X @ o @ o dX>Xo o # $ X o @ o @ @ O @ dX# $ X @ @ zXqX@ @ O o # $ X @ @ qXzX@ @ o # $ X @ @ dXo o o o o # $ X o O >X",
"@ O @ O # $ X @ o @ o + @ o o # $ X o @ o @ @ O @ 8X# $ X @ @ o gX@ >XwXo # $ X >X@ gXo @ @ o # $ X @ @ 8Xo o o o o # $ X o O @ ",
"@ O @ O # $ X @ o @ o + @ o o # $ X o @ o @ @ 7X@ 7X# $ X @ @ o NX@ 5XrXo # $ X 5X@ NXo @ @ o # $ X @ @ O o o vXo o # $ X o 7X@ ",
"@ O @ O # $ X @ o @ o + @ o o # $ X o @ o @ @ 8X@ O # $ X @ @ o + @ dXzXo # $ X dX@ + o @ @ o # $ X @ @ 7Xo o lXo o # $ X o 8X@ ",
"@ O @ O # $ X @ o @ o + @ o o # $ X o @ o @ @ dX@ O # $ X @ @ o + @ + o o # $ X + @ + o @ @ o # $ X @ >XmXo zXgXzXo # $ X o dX@ ",
"@ O @ O # $ X @ o @ o + @ zXo # $ X o @ o @ @ dX@ xX# $ X @ @ o + @ + o o # $ X + @ + o @ @ o # $ X @ hXzXo sX;XsXzX# $ X o NX@ ",
">XO @ O # $ X @ o @ o + @ xXo # $ X o @ o @ @ hX>XzX# $ X @ @ o + @ + o o # $ X + @ + o @ @ o # $ X @ dXo zXhX>XNXxX# $ X o + @ ",
"@ O @ O # $ X @ o @ o + @ O o # $ X o @ o @ @ @ @ o # $ X @ @ o + @ + o o # $ X + @ + o @ @ o # $ X @ + o o + @ + O # $ X o + @ ",
"hXO @ O # $ X @ o @ o 8X@ O zX# $ X o @ o @ @ @ hXo # $ X @ @ o dX@ NXo zX# $ X NX@ dXo @ @ o # $ X @ NXo jXdX@ ;XfX# $ X zXdX@ ",
"dXO @ O # $ X @ o @ o 7X@ 7XlX# $ X o @ o @ @ @ dXo # $ X @ @ o 5X@ kXo lX# $ X kX@ 5Xo @ @ o # $ X @ kXo hX5X@ >XMX# $ X lX5X@ ",
"+ O @ O # $ X @ o @ o O @ qXwX# $ X o @ o @ @ @ + o # $ X @ @ o >X@ 7Xo wX# $ X 7X@ >Xo @ @ o # $ X @ 7Xo + >X@ @ + # $ X wX>X@ ",
"+ O @ O # $ X @ o @ o wX@ gXO # $ X o @ o @ @ @ + o # $ X @ @ o @ @ wXo 7X# $ X wX@ @ o @ @ o # $ X @ wXzXdX@ @ @ :X# $ X 7X@ @ ",
"+ O @ O # $ X @ o @ zXrX@ NXO # $ X zX@ o @ @ >XNXo # $ X @ @ o @ @ rXo jX# $ X rX@ @ o @ @ o # $ X @ rXrX6X@ @ @ >X# $ X jX@ @ ",
"+ O @ O # $ X @ o @ xXzX@ + O # $ X xX@ o @ @ ;XfXo # $ X @ @ o @ @ zXo NX# $ X zX@ @ o @ @ o # $ X @ zXwX>X@ @ @ @ # $ X NX@ @ ",
"+ O @ O # $ X @ o @ O o @ + O # $ X O @ o @ @ + O o # $ X @ @ o @ @ o o + # $ X o @ @ o @ @ o # $ X @ o O @ @ @ @ @ # $ X + @ @ ",
"NXkX@ O # $ X @ o @ O o hX3XkX# $ X O @ o @ @ dXO o # $ X @ @ o @ hXo 9X+ # $ X o hX@ o @ @ o # $ X @ o kX@ @ @ @ @ # $ X dX@ @ ",
"kXNX@ O # $ X @ o @ sXo dX>XNX# $ X sX@ o @ @ + 9Xo # $ X @ @ o @ dXo O dX# $ X o dX@ o @ @ o # $ X @ o NX@ @ @ @ @ # $ X hX@ @ ",
"O + @ O # $ X @ o @ + o + @ + # $ X + @ o @ @ + o o # $ X @ @ o @ + o O + # $ X o + @ o @ @ o # $ X @ o + @ @ @ @ @ # $ X @ @ @ ",
"wXdX@ O # $ X @ o @ + o + @ + # $ X + @ o @ @ NXo zX# $ X @ @ o @ + o fX;X# $ X o + @ o @ @ o # $ X >XzXdX@ @ @ @ @ # $ X @ @ >X",
"rX5X@ O # $ X @ o @ + o NX>XdX# $ X + @ o @ @ jXo rX# $ X @ @ o @ + o NX>X# $ X o + @ o @ @ o # $ X 5XrX5X@ @ >X>X@ # $ X @ @ 5X",
"zX>X@ O # $ X @ o @ + o gX:XhX# $ X + @ o @ @ 7Xo wX# $ X @ @ o @ + o + @ # $ X o + @ o @ @ o # $ X dXwX>X@ @ :X:X@ # $ X @ @ dX",
"o @ @ O # $ X @ o @ + o qX+ 4X# $ X + @ o @ @ O o O # $ X @ @ o @ NXo + @ # $ X o NX@ o @ @ o # $ X + O @ @ >X+ + >X# $ X @ @ + ",
"o @ @ O # $ X @ o @ dXo O dX>X# $ X dX@ o @ @ lXo kX# $ X @ @ o @ sXo dX>X# $ X o sX@ o @ @ o # $ X NXkX@ @ 5XMXMX5X# $ X @ @ NX",
"o @ @ O # $ X @ o @ hXo 9X+ >X# $ X hX@ o @ @ zXo NX# $ X @ @ o @ 7Xo hX;X# $ X o 7X@ o @ @ o # $ X fXNX@ @ dXfXfXdX# $ X @ @ fX",
"o @ @ O # $ X @ o @ @ o o + @ # $ X @ @ o @ @ o o + # $ X @ @ o @ O o @ + # $ X o O @ o @ @ o # $ X O + @ @ + O O + # $ X @ @ O ",
"zX@ >XO # $ X @ o @ >XzXo NXhX# $ X >X@ o @ @ o o + # $ X @ @ o @ xXzX>XdX# $ X zXxX@ o @ @ o # $ X O + @ @ NXxXxX+ # $ X @ >XO ",
"lX@ 6XO # $ X @ o @ @ lXo kXdX# $ X @ @ o @ @ o o + # $ X @ @ o @ zXlX@ NX# $ X lXzX@ o @ @ o # $ X O + @ @ kXzXzXNX# $ X @ 6XrX",
"O @ dXO # $ X @ o @ @ O o O + # $ X @ @ o @ @ o o + # $ X @ @ o @ o O @ dX# $ X O o @ o @ @ o # $ X O + @ @ O o o dX# $ X @ dXo ",
"7X@ + O # $ X @ o >X@ 7Xo wXNX# $ X @ >Xo @ @ o zXdX# $ X @ @ o @ o O @ 8X# $ X O o @ o @ @ o # $ X O + @ >XwXo o 8X# $ X >X+ o ",
"jX@ + O # $ X @ o 5X@ jXo rXjX# $ X @ 5Xo @ @ o rX5X# $ X @ @ o @ o 7X@ 7X# $ X 7Xo @ o @ @ o # $ X O dX@ 5XrXo o O # $ X 5XNXo ",
"NX@ + O # $ X @ o dX@ NXo zX7X# $ X @ dXo @ @ o wX>X# $ X @ @ o @ o 8X@ O # $ X 8Xo @ o @ @ o # $ X O hX@ dXzXo o 7X# $ X dXfXo ",
"+ @ + O # $ X @ o + @ + o o O # $ X @ + o @ @ o O @ # $ X @ @ o @ o dX@ O # $ X dXo @ o @ @ o # $ X O 4X@ + o o o mX# $ X + xXo ",
"dX@ NXO # $ X @ o + @ + o o lX# $ X @ + o @ @ o kX@ # $ X @ @ o @ o NX@ lX# $ X NXo @ o @ @ o # $ X O >X@ + o o o zX# $ X hXvXo ",
"hX@ fXO # $ X @ o + @ + o o zX# $ X @ + o @ @ o NX@ # $ X @ @ o @ o + @ zX# $ X + o @ o @ @ o # $ X O @ @ + o o o o # $ X jXo o ",
"@ @ O O # $ X @ o + @ + o o o # $ X @ + o @ @ o + @ # $ X @ @ o @ o + @ o # $ X + o @ o @ @ o # $ X O @ @ + o o o o # $ X o o o ",
">X@ wXO # $ X @ o + @ dXzXo o # $ X @ + o @ @ 9X+ @ # $ X @ @ o @ o + @ o # $ X + o @ o @ @ o # $ X O @ @ 8Xo o o o # $ X zXo 9X",
"@ @ rXO # $ X @ o NX@ 5XlXo o # $ X @ NXo @ @ O + @ # $ X @ @ o @ o + @ o # $ X + o @ o @ @ o # $ X O @ @ 7Xo o o o # $ X o o O ",
"@ @ zXO # $ X @ o dX@ >XO o o # $ X @ dXo @ @ qX+ @ # $ X @ @ o @ o + @ o # $ X + o @ o @ @ o # $ X O @ @ O o o o o # $ X o o qX",
"@ @ o 7X# $ X @ zX8X@ @ 7Xo o # $ X @ 8XzX@ @ gXdX@ # $ X @ @ o @ o dX>Xo # $ X dXo @ o @ @ o # $ X O @ >XwXo o zXo # $ X o o gX",
">X>XvXjXr.q FX@ rX7X_.>XkXvXvXr.q FX>X7XxX>X@ NX5X>Xr.q GX_.>Xo >XvX3X3XcX&.q DX3XzX@ vX>X>XvX) q GX8X_.5XrXzXvXlXvXr.q FXcXvXNX",
"3X3XxX+ x.T CX:X7XO + 3XfXxXxXK.e.SX3XqX-X;X:XdX@ 3Xx.T SX=X;XvX5XxX:XBXnX(.e.SX6Xo :XxX3X5XxXP.e.SXxXeXgXcXo xX8XxXL.e.SXnXxXkX",
"dXdXgXdX@ hX6X:X9XgXCXdX9XgXfXO lXVXdXgX).+ :XdX:XdX@ hXrXCXgXvX7XgXdXCX;XAXAXcXO 9X:XgXdX7XgXSX8XrXCXX gXCX9XgXgXfX+ lXVX;XfX9X",
"(.(.(.&X(.hXL.=.J.x.&X(.&X*Xx.).0XH.(.&XL.;XK.&XH.(.x.&XP.6Xx.).&X(.).0XL.8XaX_._.P.=.*X(.&X*X5XP.x.0XxX).fX_.K.(.x.&X0XK.=.x.&X",
"( -.( r.( x.) N B B T ( *.-.B *.&.B ( r.*.x.) %.B -.B -.*.&.B Y *.( r.&.&.z.H.) r.*.N -.( *.-.r.B B -.L.&.H.r.&.-.B ( &.-.Y B *.",
"H <.H <.H <.<.A H H H H <.<.H <.<.<.H <.H <.<.A H <.H <.<.<.<.H <.H <.<.A H <.H <.<.A <.H <.<.A <.<.H ` H <.<.A <.H H <.<.<.<.<.",
"m b c 0.c c b 0 c c n 0 q.q.C #.#.q.0 q.n c b 0 c b c b b 0.b m q.c 0.0.0 v c v 0.b q.q.0 q.#.#.#.q.0 m n c 0.0 b c c 0.b b b q.",
"pXuXuXuXuXuXuXuXuXuXiX$X$X$X= = = $X$X$XiXuXuX#XuX#XuXuXuXuXuXpXpXuX#X#XuX#X#X#XuXuXiX$X$X$X= = = $X$X$XiX#X#X#X#XyX#X#X#X#X/.uX",
"4.E.E.E.4.4.E.C.E.s.].f.f.Y.KXHXHXY.^ ^ `.E.4.T.4.T.4.s.E.4.4.E.E.E.T.a.4.a.b.T.4.E.`.^ ^ Y.KXHXHXY.i.^ u.a.a.a.a.p.b.T.a.T.p.R.",
"k ].f.`.k k f.|.f.2.Y.[.7.W %XHXHX1Xf y {.].k D.k s.k f.f.k k ].].].D.C.h C.b.s.j `.h f f W %XHXHX1XW.f N.Z.{ Z.Z.l.b./ C./ l.Z.",
"^ }. .2.2.K  .Y. .V.|.2.f.P PXHXHXtXi X.K K e j e V.i 2.+.E d K ^ K j D.D Z.S u.h.|.L ] E P PXHXHXtXS i E.s.8.s.4.8.D / Z.R.k.4.",
"`.[.6. .2.}.2.L 2.g.u.6.U.Q LXHXHX@Xj A.j s j k j ^ E {.+.,Xz d j d k X.E.Z.h ].Y.Q.6.,X[.Q LXHXHX@Xt j m.5.l.5.3.4.k 3.Z.m.A.a.",
"M.[.'.F.f 7.f f [.s M.f 7.Q LXHXHX@XM.l M.f M.M.{ d [.[.F.F.6.f M.[.Z.l Z.Z.M.Z.d +.[.F.[.Q LXHXHX@Xf M.f l.l.l.Z./ { Z.Z.l Z.C.",
"E.[.n.^ L f.s i.E K E.s 2.Q LXHXHX@XC.e C.f a.E.R.X.[.[.Q.h.OXO.E.n.j d j D.C.j ! m.[.+X{.Q LXHXHX@Xm.Z.o.l.l.l.8.s.R.Z.Z.d D.k ",
"o.K X.y +.i.E i.i [.o.i u.Q LXHXHX@XM.S C.f a.o.d.X.i.E h.f.Q.B.m.m.y E y o.M.e J X.i.F.f.Q LXHXHX@X3.s.R.8.l.l.l.A.d.C.C.f o.j ",
"d h d 7.7.U.[.f h [.d h S.Q LXHXHX@XC./ g.f N.d s d f d 6.[.+. .f.'.f [.f s C.h i f f i.7.Q LXHXHX@X/ / / N.j.j.j.D.s g.g.f s Z.",
"d g.t ,X .Q.[.[.n.K t X.j.Q LXHXHX@Xb.D.h f ].d g.d f 6.7.6.W @X1Xf ].E [.A.{ ! e X.i y  .Q LXHXHX@XD.E.b.M.T.p.b.j.! h k y A.h ",
"u.n.~ N.m.d.k u.5.! | T.j.Q LXHXHX1X| E.m.j ] j n.j j i.^ i.|.h.h.h <Xj u.| p.8.! b.| X.d.Q LXHXHX1XE.B.~ T.o.5.j.l.8.| j ~ ~ | ",
"|.Y.V.V.V.| g g o.X.d.B.d.Q LXHXHX^.g B.d.g g g |.a a |.Q.|. XF.F.Q.iXa a a V.o.X.V.d.m.m.Q LXHXHX^.B.6.a V.a o.k.D d.V.a V.p V.",
"7 n q.q.q.I V V I I 1 [ [ W LXHXHXW [ [ 1 V V V V 7 7 7 %X7 7 %X%X%X8 7 7 V I I I I 1 [ [ W LXHXHXW [ [ 1 I V I I q.q.q.7 q.n q.",
": : & & & 6 U U 6 6 > C C #.IXHXHX#.C C > U U U U : : : : : : : : : - : : U 4 6 6 4 > C C #.IXHXHX#.C C > 4 U 6 5 % % & : & : & ",
"PX; ; ; ; * * * * * * - - - * = = - - - * * * * * IX; ; ; ; PXPXPX; ; ; ; * * * * * * - - - * = = - - - * * * * * IX; ; ; ; PXPX",
"9 9 9 9 9 9 9 9 9 9 9 9 9 9 9 HXHX9 9 9 9 9 9 9 9 9 9 9 9 9 9 9 9 9 9 9 9 9 9 9 9 9 9 9 9 9 9 HXHX9 9 9 9 9 9 9 9 9 9 9 9 9 9 9 ",
"JXoX9.9.Q.XX~.~.~.~.~.~.~.~.XX!.~.~.~.XX!.!.XX!.XXXXF.@.@.oX9 JXJXoX@.9.Q.XXXXXXXX~.~.~.~.~.~.!.!.~.~.XXXXXXXX!.XX~.Q.9.@.oX9 JX",
"HXF.E E m.} p.T.p.a.a.T.5.p.1.1.b.b.p.} X.B.M.X.1.} u.V.V.Q.KXHXHXF.d.E m.M.1.1.1.5.p.p.T.p.b.~ 1.b.p.1.1.1.M.X.1.p.m.K d.Q.KXHX",
"HXtXs s M.l N.C./ S.S.C.4.A.i i g.Z.g.s +.Q.}.+.i l s s.D.P PXHXHXtXM.s M.}.z i i 4./ / C./ Z.s i Z.N.i i i }.+.y N.M.k b.P PXHX",
"HX@Xs s k n.].{ / j.j.{ k i.f s k D.k g.e  .[.e y n.f { C.Q LXHXHX@X^ f ].[.[.f f j / E.{ C.D.g.f D.`.f f f [.}.U.].k O.p.Q LXHX",
"HX@XE K K R.^ / / 8.8./ y d.i.L K D K o.m.2.2.m.d.D.y / D.Q LXHXHX@XQ.f K [.E i.s K 3.D 4.M.D o.s B.7.i.i.K E {.d.^ i D.S Q LXHX",
"HX@X,Xh.[.B.j 3./ 4.b.{ d A.}.6.}.y [.t A.`.6.A.D.Z.j / X.Q LXHXHX@Xh.f f [.z }.z }.X.i M..Xt y E <X6.}.[.`.d [.D.k f C.k Q LXHX",
"HX@XF.@X[.Y./ Z./ / l.{ d {.7.{.6.f f d s M.'.s Z.Z.{ / s Q LXHXHX@Xf f [.[.6.7.6.7.h s Z.C.d [.[.1Xf 7.s M.d d Z.g.f C.Z.Q LXHX",
"HX@X<XOXi.6.S D.s./ 8.j.X.K f.Q.Y.i.i.o.i D.K i D.Z.a.s.e Q LXHXHX@X .E E i.F.2.+.+.L L D.j o.K [.1Xi.f.L E.o.o.3.b.y `.] Q LXHX",
"HX@X].h.,Xk s | E.b.J l.Z.k ] F.h.].].T.k E.S k | E.X.D.D Q LXHXHX@X|.,XE f. Xh.2.U. X2.| h T.S ] 2.{.] f.| b.T.p.! S u.+.Q LXHX",
"HX@X'.7.Q.}.z y A.A.y n.y y y U.+.}.}.A.y A.N.z y A.y W.M.Q LXHXHX@X'.Q.+.Q.U.+X+.}.Q.+.y }.A.A.y z  .y }.y 4.A.A.y W.M.+.Q LXHX",
"HX[ ' ' 1 u u u ..G.x G.x $.$.$.x $.$.G.$.....u u ..2 Y.Y.W LXHXHX[ ' [ 2 I u I u $.9 x x $.G.G.$.$.#.$.$.u P ....u 3 Y.' W LXHX",
"HXI $.V < r r r 4 % & % & & & & : & & % & 4 4 r r 4 , x x G.PXHXHXI $.V < c r 0.v & - : & & % % & & : & & r 4 4 4 r , x V G.PXHX",
"HXIXIXIXIXIXIXIXIXIXIXIXIXIXIXIXIXIXIXIXIXIXIXIXIXIXIXIXIXIXIXHXHXIXIXIXIXIXIXIXIXIXIXIXIXIXIXIXIXIXIXIXIXIXIXIXIXIXIXIXIXIXIXHX"
};
