/* XPM */
static char *_58525bc48b0432df086b2bba10f7ad0[] = {
/* columns rows colors chars-per-pixel */
"64 91 256 2 ",
"   c black",
".  c gray100",
"X  c #FC0000",
"o  c #EC0000",
"O  c #E00000",
"+  c gainsboro",
"@  c #D40000",
"#  c #D0D0D0",
"$  c #C0C0C0",
"%  c #B4B4B4",
"&  c #885830",
"*  c gray11",
"=  c #040405",
"-  c #0A0A0B",
";  c #262628",
":  c #141415",
">  c #020306",
",  c #141518",
"<  c #07080A",
"1  c #161719",
"2  c #38393B",
"3  c #353638",
"4  c #323437",
"5  c #323539",
"6  c #0D0E0F",
"7  c #101112",
"8  c #1A1B1C",
"9  c #191A1B",
"0  c #303132",
"q  c #2D2E2F",
"w  c #343536",
"e  c #323334",
"r  c #373735",
"t  c #232322",
"y  c #30302F",
"u  c #E4D800",
"i  c #2C2B23",
"p  c #2B2A24",
"a  c #070602",
"s  c #2E2C24",
"d  c #2F2E2A",
"f  c #2E2B21",
"g  c #0A0802",
"h  c #29220F",
"j  c #251F0F",
"k  c #2B2514",
"l  c #2B271C",
"z  c #2D2A21",
"x  c #2E2B22",
"c  c #2A2822",
"v  c #2F2D27",
"b  c #1E1706",
"n  c #2A210B",
"m  c #211A09",
"M  c #2C230D",
"N  c #28200C",
"B  c #271F0C",
"V  c #2B230E",
"C  c #2A2311",
"Z  c #1F1A0D",
"A  c #221D10",
"S  c #282317",
"D  c #322D21",
"F  c #332F25",
"G  c #24221D",
"H  c #413F3A",
"J  c #0D0A03",
"K  c #281F0A",
"L  c #1A1407",
"P  c #120E05",
"I  c #251D0B",
"U  c #2E240E",
"Y  c #2B220D",
"T  c #2A210D",
"R  c #413417",
"E  c #2D2410",
"W  c #29210F",
"Q  c #41351B",
"!  c #483B1F",
"~  c #302817",
"^  c #2B2517",
"/  c #241F14",
"(  c #211D14",
")  c #2E291E",
"_  c #2D220B",
"`  c #423213",
"'  c #483818",
"]  c #302611",
"[  c #382C14",
"{  c #47381A",
"}  c #48391B",
"|  c #2F2613",
" . c #4B3D21",
".. c #342B19",
"X. c #362E1E",
"o. c #3E3729",
"O. c #4E4636",
"+. c #4A4335",
"@. c #4B4436",
"#. c #39342A",
"$. c #4A4438",
"%. c #393630",
"&. c #1B1A18",
"*. c #1C1B19",
"=. c #353432",
"-. c #3D3C3A",
";. c #453313",
":. c #4B3815",
">. c #463515",
",. c #392B11",
"<. c #483717",
"1. c #352811",
"2. c #2C220F",
"3. c #453518",
"4. c #2E2310",
"5. c #332712",
"6. c #352913",
"7. c #4C3B1D",
"8. c #45371E",
"9. c #42351E",
"0. c #372D1B",
"q. c #2E2617",
"w. c #4B3E26",
"e. c #3B311F",
"r. c #30281A",
"t. c #403623",
"y. c #4A3F2B",
"u. c #4C412E",
"i. c #3B3325",
"p. c #4C4333",
"a. c #494132",
"s. c #373126",
"d. c #4C4435",
"f. c #4F4738",
"g. c #4C4436",
"h. c #4D4639",
"j. c #4C463B",
"k. c #4E483D",
"l. c #3D2D13",
"z. c #453316",
"x. c #322510",
"c. c #4E3A19",
"v. c #332611",
"b. c #302410",
"n. c #3B2D15",
"m. c #3D2E16",
"M. c #372A14",
"N. c #302513",
"B. c #3F311A",
"V. c #41331C",
"C. c #302615",
"Z. c #463A27",
"A. c #4E4434",
"S. c #4E4536",
"D. c #1C1914",
"F. c #463F33",
"G. c #3D372D",
"H. c #4C4539",
"J. c #4E473B",
"K. c #474137",
"L. c #423D35",
"P. c #050300",
"I. c #4F3816",
"U. c #513A17",
"Y. c #412F14",
"T. c #523B1A",
"R. c #433218",
"E. c #403018",
"W. c #3C2F1B",
"Q. c #3E311E",
"!. c #4F4029",
"~. c #504330",
"^. c #453C2E",
"/. c #51483A",
"(. c #675C4C",
"). c #534A3D",
"_. c #35312B",
"`. c #353330",
"'. c #563C18",
"]. c #4B3516",
"[. c #543C1C",
"{. c #423017",
"}. c #513B1D",
"|. c #533C1E",
" X c #543E21",
".X c #4C3A22",
"XX c #53422C",
"oX c #574D40",
"OX c #201D19",
"+X c #3C3935",
"@X c #553B1A",
"#X c #5A3E1C",
"$X c #573D1D",
"%X c #4C361A",
"&X c #5A4123",
"*X c #564127",
"=X c #604B32",
"-X c #574836",
";X c #544634",
":X c #50483E",
">X c #4D4842",
",X c #5D401F",
"<X c #5C4020",
"1X c #5F462A",
"2X c #58452F",
"3X c #594A39",
"4X c #726352",
"5X c #5C5145",
"6X c #544B41",
"7X c #514940",
"8X c #554D44",
"9X c #684521",
"0X c #6C4824",
"qX c #030201",
"wX c #6F4A26",
"eX c #604F3E",
"rX c #5A4F44",
"tX c #60554A",
"yX c #524A42",
"uX c #534D47",
"iX c #45423F",
"pX c #9C4C00",
"aX c #744C28",
"sX c #5E5247",
"dX c #B45400",
"fX c #784F2C",
"gX c #534B44",
"hX c #80502C",
"jX c #905C34",
"kX c #9C6038",
"lX c #BC7848",
"zX c #B47044",
"xX c #DC8854",
"cX c #C87C4C",
"vX c #A86840",
"bX c #F0945C",
"nX c #D08050",
"mX c #FCC4A4",
"MX c #FCE0D0",
"NX c #C80000",
"BX c #BC0000",
"VX c #010000",
"CX c #FC4040",
"ZX c #FC5C5C",
"AX c #FC7C7C",
"SX c #FC9C9C",
"DX c gray66",
"FX c #989898",
"GX c gray22",
"HX c #343434",
"JX c #282828",
"KX c #202020",
"LX c #1B1B1B",
"PX c #181818",
"IX c #070707",
"UX c #020202",
/* pixels */
"  N N N N N b.b.[ [ b.b.b.E.E.[ b.E.x [ HXE.E.E.b.E.E.b.N N PX  N N b.b.b.E.b.E.E.[ E.E.E.b.b.N N     N N b.[ E.HXHXb.b.b.N     ",
"  N S S ,.,.R.t.R R F F ,.%XT.].t.Z.G.%X.XZ.T.].i.Z.Z.t.S Y 1   N Y z ,.t.Z.%XT.^.[.%X~.Z.o.M.S B 6   K ] z s.Z.Z.-.t.l.F S L   ",
"  N s.s. .c.$XJ.' <.-.3 W. X&X XJ.h.f.,X1X).,X*XoX:X:X).s.v.D.  N 5.r 8.).h.,X,XA.wX1X(.:X;X>._.M *.  C n.r -.h. X;X:X .-.s.M g ",
"  N +.+.+.[.[.g.' E.g.GXf g.d.d.g.g.g.,XsXsX,X5X(.5XsX5X+.E.b.  N E.@.d.sXg.[.,X|.wX5X(.sX,XT.+.[ N   x E.@.@.g.d.wXyXd.@.[.N B ",
"  5.rXtXrX~.~. .' Y.8.2 =.*XS.-.*X X*X$X1X1X9X4X(.(.5X(.oXa.x.  M :.S.H.).! :.~.9XwXsXtXsXXX~.J.n.n 7 W.^.&XS.7X>XwXsX:X+.!.[ Y ",
"  n.tX(.sXy.H z.3.i.m.G.2 ,XH 3 ,X'.,X[.#X*XwX4X3X4X(.4X(.tX4.  L t.d.XXa.! ! $.fX9XsX5XtX$.$.y.6.N LXY.;X1X@.7X-X9XoXrX).7XE.n ",
"* * * * * * * * * * * * * * * * * * * * * * * * * * * * * * * * * * * * * * * * * * * * * * * * * * * * * * * * * * * * * * * MX",
"u u u u u u u u u u u u u u u u u u u u u u u u u u u u u u u u u u u u u u u u u u u u u u u u u u u u u u u u u u u u     MXMX",
"pXpXpXpXpXpXpXpXpXpXpXpXpXpXpXpXpXpXpXpXpXpXpXpXpXpXpXpXpXpXpXpXpXpXpXpXpXpXpXpXpXpXpXpXpXpXpXpXpXpXpXpXpXpXpXpXpXpXpX    FXpXbX",
"                                                                                                                      [.FX    dX",
"GXGXJX*     * JXGXGXJX*     * JXGXGXJX*     * JXGXGXJX*     * JXGXGXJX*     * JXGXGXJX*     * JXGXGXJX*     * JXkXkX& aX% DX% $ ",
"GXGXJX*     * JXGXGXJX*     * JXGXGXJX*     * JXGXGXJX*     * JXGXGXJX*     * JXGXGXJX*     * JXGXGXJX*   <XaXvXlXcXvX$ % % $ # ",
"GXGXJX*     * JXGXGXJX*     * JXGXGXJX*     * JXGXGXJX*     * JXGXGXJX*     * JXGXGXJX*     * JXGXGX& aX<X& zXlXxXkX& $ % % $ # ",
"GXGXJX*     * JXGXGXJX*     * JXGXGXJX*     * JXGXGXJX*     * JXGXGXJX*     * JXGXGXJX*     aX& kXlXzXkXjXjXvXzXkXkX# $ % % $ # ",
"GXGXJX*     * JXGXGXJX*     * JXGXGXJX*     * JXGXGXJX*     * JXGXGXJX*     * JXGXGXJXaX0X0XjXzXnXnXlXvXjXjXkXvXkX+ # $ % % $ # ",
"GXGXJX*     * JXGXGXJX*     * JXGXGXJX*     * JXGXGXJX*     * JXGXGXJX*   <XaX& kXkXzXjX& jXvXlXnXnXlXvXjX& aX& + + # $ % % $ # ",
"GXGXJX*     * JXGXGXJX*     * JXGXGXJX*     * JXGXGXJX*     * JXGX' [.<X<XaXjXzXcXcXvX& 0X<XhXzXnXnXzXkXjXaXaX# + + # $ % % $ # ",
"GXGXJX*     * JXGXGXJX*     * JXGXGXJX*     * JXGXGXJX* N ' 0X& kXkX& aX[.[.<XaX& & & aXaX& kXzXlXvXhX<X<X<X$ # + + # $ % % $ # ",
"GXGXJX*     * JXGXGXJX*     * JXGXGXJXE.b.[.aX& zXlXzXvXjXjX0X& zXzXvXjX& & jXvXlXkX& 0X' [.aXjXzXvXzXjX<X% $ # + + # $ % % $ # ",
"GXGXJX*     * JX<XhX& hXaX& jXzXxXxXcXvXjXjXvXzXcXcXzXkX& ' <X& jXkX& aX<X<XaXjXzXlXvXjX& kXvXlXnXnXlXaX% % $ # + + # $ % % $ # ",
"GXGXJX*   ' & zXnXcXlXkXjXjXvXlXnXnXlXvXjXjX& & vXvX& aX<X<XaX& & & hX0X[.[.<XhX& & & hXaX& vXlXcXlX& $ % % $ # + + # $ % % $ # ",
"GXGXJX<X& jXvXlXnXnXlXvXjXjXvXlXnXnXlXvXjXjXkXlXxX& jXjX& & aX& zXzXvX& aX& jXzXcXcXzXkX& & & & kXkX# $ % % $ # + + # $ % % $ # ",
"GX& zXvXjXjXvXlXnXnXlXvXjXjXvXlXcXlXvXkX& & jXkX& & & 0X<X[.0XhX& & hX<XE.b.<XhX& & hX0X[.[.hXjXkX+ # $ % % $ # + + # $ % % $ # ",
"kXcXlXvXjXjXvXlXnXnXlXvXjXjXvXlXnXjX<XE.b.' 0X<XjXjXhX0X<X0X& vXzXzXvX& aX0XkXcXcXcXzXkXjX& jX& + + # $ % % $ # + + # $ % % $ # ",
"xXnXlXvXjXjXvXlXnXnXlXkX& & kXlXcXxXvX' E.' aXvXcXlX& <X<XaXjXvXzXkX& 0X' <XaXkXlXlXzXkX<X<X$ # + + # $ % % $ # + + # $ % % $ # ",
"nXnXlXvXjXjXvXlXnXnXvX0X' N <X& kXhXaX0X<X<XaXaX& vXjX& aX<XaXhXjXcXlXvXkX& jXjXjX& <XaX<X% $ # + + # $ % % $ # + + # $ % % $ # ",
"nXnXlXvXjXjXvXlXnXnXlXvXaX0X0XjXxXkXhXkX<X<XjX& & & kX& [.' 0X& lXcXcXzXkXjXkXzXzXzX& $ % % $ # + + # $ % % $ # + + # $ % % $ # ",
"nXnXlXjX<X<XaX& kX& hX0XE.0XkXvX& lXvXaX<X& hXhXzXlXvXvXjXjXkXvXlX& & aX0X& aX& + + # $ % % $ # + + # $ % % $ # + + # $ % % $ # ",
"nXnXlXkX& & jXkX& vXhXjX& aXaXzXlXjXvXjX& jXvXvX& & jXjX& & jXjXzXkX# $ % % $ # + + # $ % % $ # + + # $ % % $ # + + # $ % % $ # ",
"jXlXvXjX& aXaXaXkXkX& & <X<XjXvXcXzX& aX& 0XaXjXkX+ # $ % % $ # + + # $ % % $ # + + # $ % % $ # + + # $ % % $ # + + # $ % % $ # ",
"lXjXhX0X<XE.aXvX& cXzXvX& aX<X& zXkX# $ % % $ # + + # $ % % $ # + + # $ % % $ # + + # $ % % $ # + + # $ % % $ # + + # $ % % $ # ",
"nXnXlXvX& & jXlXcXaX& aX0X<XaX# + + # $ % % $ # + + # $ % % $ # + + # $ % % $ # + + # $ % % $ # + + # $ % % $ # + + # $ % % $ # ",
"cXnXlXvX& [.aXjXlXkX& aX% % $ # + + # $ % % $ # + + # $ % % $ # + + # $ % % $ # + + # $ % % $ # + + # $ % % $ # + + # $ % % $ # ",
"lXnXlXvX& & & & kXkX# $ % % $ # + + # $ % % $ # + + # $ % % $ # + + # $ % % $ # + + # $ % % $ # + + # $ % % $ # + + # $ % % $ # ",
"jXnXlXvX& <XkXkXkX+ # $ % % $ # + + # $ % % $ # + + # $ % % $ # + + # $ % % $ # + + # $ % % $ # + + # $ % % $ # + + # $ % % $ # ",
"& zXvXkXjXaXaXlXzXkX# $ % % $ # + + # $ % % $ # + + # $ % % $ # + + # $ % % $ # + + # $ % % $ # + + # $ % % $ # + + # $ % % $ # ",
"vX& aX0X& & aXjXcXzX& $ % % $ # + + # $ % % $ # + + # $ % % $ # + + # $ % % $ # + + # $ % % $ # + + # $ % % $ # + + # $ % % $ # ",
"zX& & & ' E.<X<XcXxX& aX<X% $ # + + # $ % % $ # + + # $ % % $ # + + # $ % % $ # + + # $ % % $ # + + # $ % % $ # + + # $ % % $ # ",
"kXkXaXzXjXaXaXcXnXnX& jX& <X$ # + + # $ % % $ # + + # $ % % $ # + + # $ % % $ # + + # $ % % $ # + + # $ % % $ # + + # $ % % $ # ",
"lXnX& hXjXjX& & cXnX& jX& [.aX# + + # $ % % $ # + + # $ % % $ # + + # $ % % $ # + + # $ % % $ # + + # $ % % $ # + + # $ % % $ # ",
"zXnXcXaX& jX& kX& & hX' <XjX& & + + # $ % % $ # + + # $ % % $ # + + # $ % % $ # + + # $ % % $ # + + # $ % % $ # + + # $ % % $ # ",
"zXlXhX<X0X& 0XkXvXcXkXjXaX<XkXzXkXkX# $ % % $ # + + # $ % % $ # + + # $ % % $ # + + # $ % % $ # + + # $ % % $ # + + # $ % % $ # ",
"0X0X' aX[.' hXzX& nXkX0X& & 0XvXcXlXjXaX% % $ # + + # $ % % $ # + + # $ % % $ # + + # $ % % $ # + + # $ % % $ # + + # $ % % $ # ",
"& aXjX& & & aXzXlXzXlXaX<X& kX& zXlXzXhX<X% $ # + + # $ % % $ # + + # $ % % $ # + + # $ % % $ # + + # $ % % $ # + + # $ % % $ # ",
"zXhXaX& & & jXkXcX& & vXaX<XkXlXlX& & aX<X% $ # + + # $ % % $ # + + # $ % % $ # + + # $ % % $ # + + # $ % % $ # + + # $ % % $ # ",
"& kX& aX<XE.0X& lXcX[.jXkXaXaXjX& kX& $ % % $ # + + # $ % % $ # + + # $ % % $ # + + # $ % % $ # + + # $ % % $ # + + # $ % % $ # ",
"kXX o O @ @ O & kXkX& aX<X<XaX& ZXSX# $ % % $ # + + # $ % % $ # + + # $ % % $ # + + # $ % % $ # + + # $ % % $ # + + # $ % % $ # ",
"X X o O @ @ O o X X o O @ @ O o X X CXSX% % $ # + + # $ % % $ # + + # $ % % $ # + + # $ % % $ # + + # $ % % $ # + + # $ % % $ # ",
"kXX o O @ @ O o X X o O @ @ O o X X o O CXAX$ # + + # $ % % $ # + + # $ % % $ # + + # $ % % $ # + + # $ % % $ # + + # $ % % $ # ",
"zXkXo O @ @ O o X X o O @ @ O o X X o O @ @ CXSX+ + # $ % % $ # + + # $ % % $ # + + # $ % % $ # + + # $ % % $ # + + # $ % % $ # ",
"lXkXo O @ @ O o X X o O @ @ O o X X o O @ @ O o ZXmX# $ % % $ # + + # $ % % $ # + + # $ % % $ # + + # $ % % $ # + + # $ % % $ # ",
"0XkXo O @ @ O o X X o O @ @ O o X X o O @ @ O o X X CXSX% % $ # + + # $ % % $ # + + # $ % % $ # + + # $ % % $ # + + # $ % % $ # ",
"X X & O @ @ O o X X o O @ @ O o X X o O @ @ O o X X o O CXAX$ # + + # $ % % $ # + + # $ % % $ # + + # $ % % $ # + + # $ % % $ # ",
"X kXlXaX@ @ O o X X o O @ @ O o X X o O @ @ O o X X o O @ @ CXSX+ + # $ % % $ # + + # $ % % $ # + + # $ % % $ # + + # $ % % $ # ",
"kXnXlXvX<X@ O o X X o O @ @ O o X X o O @ @ O o X X o O @ @ O o ZXSX# $ % % $ # + + # $ % % $ # + + # $ % % $ # + + # $ % % $ # ",
"cXnXlXvXjX<XO o X X o O @ @ O o X X o O @ @ O o X X o O @ @ O o X X CXSX% % $ # + + # $ % % $ # + + # $ % % $ # + + # $ % % $ # ",
"nXcX& vXjXjXaXo X X o O @ @ O o X X o O @ @ O o X X o O @ @ O o X X o O CXAX$ # + + # $ % % $ # + + # $ % % $ # + + # $ % % $ # ",
"cXkXo aX& jXvX& X X o O @ @ O o X X o O @ @ O o X X o O @ @ O o X X o O @ @ CXSX+ + # $ % % $ # + + # $ % % $ # + + # $ % % $ # ",
"jXX o O <XjXvXlXkXX o O @ @ O o X X o O @ @ O o X X o O @ @ O o X X o O @ @ O o ZXSX# $ % % $ # + + # $ % % $ # + + # $ % % $ # ",
"kXkXo O @ <XkX& X X o O @ @ O o X X o O @ @ O o X X o O @ @ O o X X o O @ @ O o X X CXSX% % $ # + + # $ % % $ # + + # $ % % $ # ",
"nXzX& O @ @ 0Xo X X o O @ @ O o X X o O @ @ O o X X o O @ @ O o X X o O @ @ O o X X o O CXAX$ # + + # $ % % $ # + + # $ % % $ # ",
"nXnXkXaX@ @ O o X X o O @ @ O o X X o O @ @ O o X X o O @ @ O o X X o O @ @ O o X X o O @ @ CXSX+ + # $ % % $ # + + # $ % % $ # ",
"nXnXlX& <X@ O o X X o O @ @ O o X X o O @ @ O o X X o O @ @ O o X X o O @ @ O o X X o O @ @ O o ZXmX# $ % % $ # + + # $ % % $ # ",
"nXnXlXaX@ @ O o X X o O @ @ O o X X o O @ @ O o X X o O @ @ O o X X o O @ @ O o X X o O @ @ O o X X CXSX% % $ # + + # $ % % $ # ",
"nXnX& O @ @ O o X X o O @ @ O o X X o O @ @ O o X X o O @ @ O o X X o O @ @ O o X X o O @ @ O o X X o O CXAX$ # + + # $ % % $ # ",
"nXkXo O @ @ O o X X o O @ @ O o X X o O @ @ O o X X o O @ @ O o X X o O @ @ O o X X o O @ @ O o X X o O @ @ CXSX+ + # $ % % $ # ",
"kXX o O @ @ O o X X o O @ @ O o X X o O @ @ O o X X o O @ @ O o X X o O @ @ O o X X o O @ @ O o X X o O @ @ O o ZXSX# $ % % $ # ",
"X X o O @ @ O o X X o O @ @ O o X X o O @ @ O o X X o O @ @ O o X X o O @ @ O o X X o O @ @ O o X X o O @ @ O o X X CXSX% % $ # ",
"X X o O @ @ O o X X o O @ @ O o X X o O @ @ O o X X o O @ @ O o X X o O @ @ O o X X o O @ @ O o X X o O @ @ O o X X o O CXAX$ # ",
"O O @ NXBXBXNX@ O O @ NXBXBXNX@ O O @ NXBXBXNX@ O O @ NXBXBXNX@ O O @ NXBXBXNX@ O O @ NXBXBXNX@ O O @ NXBXBXNX@ O O @ NXBXBXo AX",
"9Xe g.yX+.E.y b.    &.E E m.GXF M Y Y     qXM U U C C M &.qX      Y W Y Y h V h h Y T W h Y Y Y Y M M h V Y T T PX  PXx HX<.7X(.",
"G.s O./.GXx v _     j F.F.>.>Xj.` 4.n     I ` ].].y y ` C m       4.y ` ].^.^.y y ` [ y y ].].` ].].].F.^.].n.n.j   = s w R.GX-.",
"q d +XG.y s ~ (     M !.XXw.uXtXw.1.N   P r.!.=X2XuXuX2X,.U     P M.Z.w.=X2Xf.iX>Xw.T.uX>X2XXX~.=X=X2XXXJ.=X%Xz.M P   q.y X.d d ",
") d d c c c 2.:     b.} |.:X/.eXJ.n.n   M D H.sXuX(.(.tX9.v.=   W E. XJ.sX&Xh.8XsXJ.1X(.sXyX$.gXtXsXgX@Xg.sX X! b.W   j ) ) l l ",
"5.C 5.V LXLX&.UX    b.+.p.5X|. XyXm.4.  N 3.H.h.sXtX8XtXp.m.,   PXE.d.yX8X6XyXgXgXgX6X8XgXg.g.S.sXgXO.[.S.8Xp.p.b.PX  &.V n n n ",
"J g J g = < <       6.*Xj.rX@Xc.k.y.l.  N >. X X2X).w.2X7Xy.j   A {.*X:Xw.*X2XH XX!.y.j.:X:Xg.H.)./.+Xz.9.w.j.J.6.A   < J ( D.D.",
"> > > > =           M..Xu.:XT.3.u.J.W.  N e..XI.I.+.:.U.7Xf.j   j W.I.y.;..X#X+XI.Q :.~.y.7XS.u.L.L.0 9.V.Q u.y.M.j       6 1 1 ",
"PXPXPXPXPX          b.HX' g.' E.[.g.x   N HXGXE.' g.[.[.g.g.PX  PXx E.' E.GX[.g.E.HX,X,XE.g.g.' HXy y g.g.HX' E.b.PX        PXPX",
"m Z Z Z A 7         n 4 `.H.`.) @X8.s   N 4 5 `.T.H.~.[.S.+X>   > z _.:.f w #.f._.e 9X#X{.+X+X>.e q s f.f.4 :.>.K >       6 Z Z ",
"e.0.W.Y.,.KX7 <     n o.#.y.G.#.c.l.l   N o.i.o.%Xw.H c.L.e J   J v 4 t.X.HX-.L.3 L.=X8.r.t d w.HX0 v L.L.o.t.t.k P   - P ^ l.;.",
"8X/.h.&X XF F *.    N.{ { >.@XA.<.M.K   N <.{ { W.3.e } `.HXW   Y 0 HX=.} HXa.q 0 a.L.c 8 *.x $.HXr GXe e T.2 4 i B   9 V V.&XwX",
"8XsX-.%.d.a.m.2.    ) `.`.` :.7.:.] N   N {.=.=.=.=.4 p.8.HX&.  M y 3 { %.e t 1 8 *.= 1 * F.F.GXw K.7XGXHXz.w HX*.a   PX) `.;XoX",
"iXoX3 4 XX/.w.r.    s H H _.#.i.o.4.N 6 N E.#.t.i.i.Z.y.>.HX(   J 0 K.Z.y t Z v L.`.G _.%.y.J.L.iXh.iX3 4 s.w HX1     PXy H -.H ",
"%.^.-.-.U.K.$.f     ) u.u.%.`.`.`.b.N 9 N E.Y.{ B.B.'.>.e.HXn   P._.+.3 c D.h /.5X7Xf.A.~.Y.~.O.6X~._.#.`.e e HXPX    PXy +.e 0 ",
"B.B.g.g.{.HXHX]     ] E.E.{ B.B.E.b.n PXN E.{.HXy =.' E.HXHXn   N B.r s PXI z S.e s s E.' ' |.S.S.|.{ ' E.s s 0 PX    1 x HXHXHX",
"Y.z.+X+X_.e v n     ( ....i.Y.{.X._ ( PXN E.D d v y X.{.i.HX(   P 1.t OXG ` .Xt.p c n.Y.#.z.].t.+X>.:.o.s.OXG r.PX    A f e t.t.",
"e.:.e e 5 w f n     1 d d q 3.E.) A 6 PXn E.i z f l c W.l.w 6     L - , _.9X9XY.v X.Q.i.4 i.e.` 4 E.3.4 0 , 6 j PX    M f w U.U.",
"HX{ HXHXHXHXf B     PXy y f <.E.b.PX  PXN E.f x f N N x b.HXVX      VXPXHXwX,XE.HXE.HXHXHXHXHX' HXE.E.HXy PXVXPXPX    b.x HX[.[.",
"3 G.3 3 _.0.| g     LX..~ C.6.1.n 9 : IX*.1.C.F C.N M C.1.0.m       m j d }.%X1.d D d r.d r.r.3...[ R.3 0 j b W LX    1.y r.E.s.",
"x ; x x D.L P       6 L j _ T Y N 6 7   6 / _ D._ N L _ L L L       L n ^ ] 5.Y ^ l ^ _ ^ _ _ 6.j L q.x x n / L 6     L ; _ E S ",
"N PXN N                 PXN N N N         PXN   N N   N               N N N N N N N N N N N N N PX  PXN b.N PX          PXN N N "
};
