/* XPM */
static char *Free_Converter_com_grasswalld_60623845[] = {
/* columns rows colors chars-per-pixel */
"64 91 256 2 ",
"   c black",
".  c gray100",
"X  c #484749",
"o  c #434147",
"O  c #080809",
"+  c #1C1C1D",
"@  c #404041",
"#  c #040507",
"$  c #252628",
"%  c #000205",
"&  c #0D0E0F",
"*  c #303336",
"=  c #070808",
"-  c #212921",
";  c #3D4B3D",
":  c #384138",
">  c #535C53",
",  c #2B2D2B",
"<  c #046400",
"1  c #035700",
"2  c #034700",
"3  c #21481F",
"4  c #11570C",
"5  c #0F4C0B",
"6  c #22521C",
"7  c #13410C",
"8  c #103609",
"9  c #5A6D53",
"0  c #405039",
"q  c #334F25",
"w  c #475341",
"e  c #31392B",
"r  c #284B09",
"t  c #293122",
"y  c #535A4C",
"u  c #283F0A",
"i  c #252A1A",
"p  c #474C3C",
"a  c #22241C",
"s  c #5D604E",
"d  c #434533",
"f  c #4D4E3D",
"g  c #525242",
"h  c #0C0C0B",
"j  c #292926",
"k  c #393938",
"l  c #5D5A43",
"z  c #454335",
"x  c #2B2A23",
"c  c #54513E",
"v  c #555348",
"b  c #403813",
"n  c #2E2B20",
"m  c #2C2A23",
"M  c #2D2A20",
"N  c #080600",
"B  c #090805",
"V  c #302C21",
"C  c #2E2B22",
"Z  c #2B2820",
"A  c #3D392E",
"S  c #2F2C24",
"D  c #292721",
"F  c #2D2B25",
"G  c #37301F",
"H  c #342E1F",
"J  c #2B261A",
"K  c #2E291C",
"L  c #312D23",
"P  c #373329",
"I  c #3A362C",
"U  c #433516",
"Y  c #453719",
"T  c #3A301A",
"R  c #3D331C",
"E  c #3E341E",
"W  c #2F2818",
"Q  c #2F2B22",
"!  c #332F26",
"~  c #403B30",
"^  c #302D26",
"/  c #34312A",
"(  c #413E37",
")  c #483612",
"_  c #473613",
"`  c #413112",
"'  c #443413",
"]  c #4A3815",
"[  c #493815",
"{  c #4C3A16",
"}  c #483715",
"|  c #3F3013",
" . c #4B3A17",
".. c #4D3B18",
"X. c #4A3917",
"o. c #463616",
"O. c #483817",
"+. c #29200D",
"@. c #413215",
"#. c #493918",
"$. c #483818",
"%. c #503E1B",
"&. c #4A3A19",
"*. c #473819",
"=. c #48391A",
"-. c #4A3A1B",
";. c #403318",
":. c #493A1C",
">. c #42351A",
",. c #493A1D",
"<. c #4B3C1E",
"1. c #3D3119",
"2. c #4C3D20",
"3. c #493B1F",
"4. c #40341B",
"5. c #4C3E22",
"6. c #41351D",
"7. c #493C22",
"8. c #352C19",
"9. c #1D180E",
"0. c #372E1C",
"q. c #4A3E26",
"w. c #3A311E",
"e. c #322C20",
"r. c #1D1A14",
"t. c #4B4436",
"y. c #120C01",
"u. c #382A11",
"i. c #483717",
"p. c #3C2D13",
"a. c #322610",
"s. c #312510",
"d. c #302512",
"f. c #2F2615",
"g. c #493B21",
"h. c #2C2415",
"j. c #4F4026",
"k. c #4D3F25",
"l. c #524329",
"z. c #4E4129",
"x. c #4A3F2A",
"c. c #4B402B",
"v. c #4D422E",
"b. c #4B412E",
"n. c #4B4231",
"m. c #4C4435",
"M. c #4A4234",
"N. c #4B4335",
"B. c #4F4738",
"V. c #4C4436",
"C. c #4D4537",
"Z. c #4E4638",
"A. c #4C4538",
"S. c #433D32",
"D. c #484237",
"F. c #33250E",
"G. c #352710",
"H. c #302410",
"J. c #352812",
"K. c #433723",
"L. c #453B2A",
"P. c #4F4432",
"I. c #241F17",
"U. c #4D4332",
"Y. c #4C4334",
"T. c #504738",
"R. c #463E31",
"E. c #514839",
"W. c #494134",
"Q. c #564D3E",
"!. c #4E4639",
"~. c #4A4337",
"^. c #4B4438",
"/. c #4D463B",
"(. c #2F220E",
"). c #403018",
"_. c #42331D",
"`. c #54452E",
"'. c #564833",
"]. c #594B37",
"[. c #4F4536",
"{. c #534A3C",
"}. c #685D4C",
"|. c #4D4539",
" X c #4F473B",
".X c #2D2923",
"XX c #514A40",
"oX c #564A3A",
"OX c #5C5142",
"+X c #554B3D",
"@X c #6E6150",
"#X c #584E40",
"$X c #51483C",
"%X c #5E5446",
"&X c #50483D",
"*X c #524A3F",
"=X c #48423A",
"-X c #474440",
";X c #5B4D3B",
":X c #6D5C47",
">X c #847461",
",X c #665A4B",
"<X c #463E34",
"1X c #63584A",
"2X c #5B5247",
"3X c #51493F",
"4X c #4E473E",
"5X c #4B4640",
"6X c #4F381F",
"7X c #4A351D",
"8X c #7C6B58",
"9X c #493F34",
"0X c #5F5244",
"qX c #93816C",
"wX c #5A4F43",
"eX c #52483D",
"rX c #5C5145",
"tX c #564C41",
"yX c #524A41",
"uX c #514940",
"iX c #523F2C",
"pX c #5E5246",
"aX c #605448",
"sX c #62564A",
"dX c #5D5247",
"fX c #5A5046",
"gX c #4B433B",
"hX c #504840",
"jX c #534B43",
"kX c #524A42",
"lX c #504A44",
"zX c #3E3C3A",
"xX c #42382F",
"cX c #5E5145",
"vX c #5D5146",
"bX c #594E44",
"nX c #524941",
"mX c #564D45",
"MX c #514942",
"NX c #534B44",
"BX c #4D3522",
"VX c #524236",
"CX c #524942",
"ZX c #584F48",
"AX c #45403C",
"SX c #524C48",
"DX c #5E534C",
"FX c #705D52",
"GX c #6A5B53",
"HX c #66544D",
"JX c #554D4A",
"KX c #5F4E4A",
"LX c #504645",
"PX c #4C4141",
"IX c gray13",
"UX c #191919",
/* pixels */
"eXeXeXeXeX9X<X<X<XeX$XeX$X<X<X<X<X<X<XxXxXxXxX<X<X<XeXeXeXeXeX<X<XxXxX<X<X<XeXeX9XxXxX<X9X+X+X{.eXeX<X<XxXxX<X9XeX+X+X<X<XxX<X<X",
"qXqXqXqXqX>X>X>X>XqXqXqXqX>X>X>X>X>X>X8X8X8X8X>X>X>XqXqXqXqXqX>X>X8X8X>X>X>XqXqX>X8X8X>X>XqXqXqXqXqX>X>X8X8X>X>XqXqXqX>X>X8X>X>X",
"@X@X@X@X@XsX@X@X@X@X8X@X8X@X@X@X@X@X@X}.}.}.@X@X@X@X@X@X@X@X@X@X@X@X@X@X@X@X@X@XsX}.@X@XsXZXZX1X@X@X@X@X}.}.@XmX@XZXZX@X@X@X@X@X",
"fX+X+X+X+X$X2XQ.Q.+X,XaX%XQ.Q.Q.Q.Q.Q.2X2X2X#X2XQ.Q.+X+X+X+X+XQ.Q.Q.#XQ.Q.Q.fX+X$X2X#XQ.$X~.~. X#X+XQ.Q.2X1XQ./.+X~.~.Q.#X#XQ.Q.",
"4XW.W.W.W.N.4XW.W.W.bXfXhXW.~.W.W.W.W.4X4X4XW.4XW.W.W.W.~.W.W.W.~.~.W.W.W.W.4XW.M.4XW.~.M.V.N.M.L.W.W.W.4XwXW.x.W.N.V.W.L.W.W.W.",
"V.V.V.V.V.C.V.V.V.m.jXjXkXV.yXm.m.V.V.V.V.V.V.V.V.V.m.m.yXV.V.V.kXyXV.V.V.m.V.V.m.V.V.kXV.C.V.m.).V.V.V.V.kXV.).V.V.C.V.).V.V.V.",
"m.V.V.V.V.K.m.V.V.hX/./.jXN.kX&XhXV.V.m.m.m.V.m.V.N.&X4XkXN.V.V. XNXN.V.N.&Xm.V.hXm.V. XV.K.V.hXL.V.V.V.m.kXN.L.V.V.K.!.L.V.V.V.",
"C.V.V.C.C.p.V.V.V.uXN.N.3X!.kXNXuXV.V.V.V.V.V.V.V.!.NXmXmX!.V.V.N.3X!.V.!.NXV.V.uXV.V.N.V._.V.uX!.V.V.V.V.3X!.!.V.V.p.b.!.V.V.V.",
"C.V.V.C.C.).V.V.V.V.V.V.V.kXkXkXV.V.V.V.V.V.V.V.V.kXkXpXpXkXV.V.V.V.kXV.kXkXV.V.V.V.V.V.V.N.V.V.V.V.V.V.V.V.kXV.V.V.).).V.V.V.V.",
"K.V.V.6.K.b.V.V.V.m.!.!.m. X!.!.m.V.V.V.V.V.N.V.V. X!.mX{. XV.V.V.m. XhX X!.!.V.m.V.V.V.V.C.V.m.V.V.V.V.V.m. XV.V.V.x.L.V.V.V.V.",
"p.V.V._.p.b.V.V.V.V.x.x.V.N.N.N.V.V.V.V.V.V.!.m.m.N.N.MXM.N.m.V.V.V.N.uXN.N.x.V.V.V.V.V.V.V.V.V.V.V.V.V.V.V.N.V.V.V.!.!.V.V.m.m.",
").V.V.m.).).V.V.V.V.).).V.V.V.V.V.V.V.V.V.V.kXV.V.V.V.kXV.V.V.V.V.V.V.V.V.V.).V.V.V.V.V.V.V.V.V.V.V.V.V.V.V.V.V.V.V.V.V.V.V.V.V.",
"v.E.E.{.v.v.E.B.A.[.x.x.T.T. XB.B.E.E.E.E.E.ZXtXjXE.E.$XB.B.tXE.E.E.E.T.T.E.c.E.E.T.B.[.[.B.E.E.T.T.T.T.B.A.B.T.T.E.E.T.E.E.tXtX",
"~ A A A ~ ~ ~ R.v.D.z W.S.S.L.R.R.~ A A A A AXAXN.~ ~ R.R.R.( A ~ A ~ ~ <X~ ( A ~ <XR.z D.R.~ ~ <X<X<X<XR.v.R.<XS.~ ~ S.~ A AXAX",
"UXUXUXUXUXUXIXS #.k , S j j s.Q Q IXUXUXUXUXIXIXs.IXIXS S S UXUXIXUXIXIXj IXIXUXIXj Q e k S IXIXj j , , S #.S j j IXIXj IXUXIXIX",
"% % # % % # UXO I.IX+ h + + r.UX+ # % % % % # # N # # O O h # % # # O O h # O % # = + + IXO O # O h & + O I.O O + UX+ + O % %   ",
"N N   N N   9.N UX9.9.  & r.r.UXr.B N N N N N N = N B N N     N N         N   N N B r.r.UXN   N N     9.N r.N N 9.r.& h   N y.& ",
"H.H.  +.+.  +.H.H.+.H.    +.H.C H.C H.+.+.+.+.+.C H.C +.+.    +.+.        +.  +.H.C H.H.C H.  +.+.    H.+.H.H.+.+.+.      +.$.@ ",
"` L.! K Z a.R.L.@.` L.r.9.` L.gX@.<Xc.E.R.@.@.L.=XL.gXL.' I.9.a.H.& G.9.I.K 9.(.U <XK ` S.e.9.(.Z 9.+ L.@.L.' ` L.| r.r.! L.;XsX",
"l. XbX^ G %.mX XX.5.tXA 8.k.P.E.X.v.<X;XR.....*XfX!.jXP.6.! J.h.s.I.3.J.H S 8.W ..v.G l.*XS 8.f.w.| E  X . X5.5. X..! ! +X$XsX@X",
"pXm.yXC $.$.m.m.$.V.pXV.C V.O.O.$.O.C O.H.$.$.kXpXV.m.$.C C H.UXH.H.C H.H.C C C $.O.$.pXyXC C C $.$.$.m.$.V.V.V.V.$.C C V.m.pX}.",
"mXg.k.d.#.$.2.,.b./.ZX!.S 7.i.) c.i.D } +.e.H DXaX#X3.H F + F.UX(.(.f.H.(.S f.f.H i.#.*Xk.x ;.>.G ..{ g.n.A.C./.B. .C C V.g.$XaX",
"uX} 1.f.} $.1.3./.x.U.c.K } } q.&X$.0.} u.H j '.#XaX_ D J r.I.r.f.u.(.(.W K (.f.J $.X.x.1.G 5.>.J | R } v.c.A.c.~ R C m A._ M.rX",
"kX$.C Q $.$.C V.m.$.O.O.H.$.=.jXkX$.#.$.#.#.Q $.V.pX#.S s.s.UXs.Q #.s.s.C H.H.C s.$.$.$.C #.V.C H.H.C $.i.i.m.i.n C C Q m.$.V.pX",
"wX$.4.;.n.$.;./.3.b.X.i.K } T.sX!.} [.b.v.) >.n.N.%XoX=X' s.+.' ;.[.R.' f.(.J x ` $.H e.;.{ 2.m K M 4.$.K K 2.H >.>.C Y 3.b.V.pX",
"1X} [ 5.v.$.k.x.) A.| } S 7.lXgXM.7.ZXA.A.q. .v.V.bX,XmXE H.f.K.5.ZXz 6.(.p.I w.k.X.x H 5.R 1.C S K  .X.I I 1.j ;.4.C >.} A.V.pX",
"}.=.=.C.i.$.t.$.=.V.H.=.C C.Y.M C.C.pXV.V.NX$.o.V.kX}.kXC H.S k V.pXe M H.$.V.O.V.$.C #.C.C m C n H.$.*.m.m.C Q C C C m $.V.V.pX",
"fXT.;XB.H } / c.$XA.` P.C /.3.@.wXrXaXNXuXdX$.e.N.rXaXkX4.K R.<XN.B.d.h.H.u.P u.2.H x v./.4.x C f.K } e.,.3.4.>.S.4.C F $.A.A.aX",
"/.lXbXA j q.0.XXT.q.k.xXm q.' 5.%X#XtXU.hX#X$.H /.aX1XNX{ S B.$X+X{.w.u.H.(.J (.T D G /.x. .G m (.F q.H g._ ] ] B. .C K X.z.x.tX",
"V.jXt.n V m.$.hXo.$.A.H.V =.-.!.%XV.N.$.m.N.$.&.kXrX}.3XY C V.kXpXpXC.#.H.H.H.H.C S X.Y.} $.X.V a.V A.&.A.=.=.=.V.$.C H.Y o.} N.",
"uX,XuX@.>.<.e./ a.b.V.@.>.T.:XwX}.wXt.x.M.M._ v.MXT.{.7.V x V.!.E.E.A { (.Z (.Z ;.<X{ 3.O.$.#.>.U >.V.b.V.b.b.b.3X$.C (.H e.O.A.",
"&X,XXXj. .T 0.8.u.A.V.X.] NXGXfXsX#XV.tX+X+Xc.^.mXW.W.) G w.A.N.M.Y.e R W w.p.w.k.z.w.) } $.$. .....A.tXV.A.hX/.SXX.C W j G $.x.",
"m.pXM.~.$.S &.X.#.V.V.=.=.jXhXMXhXN.V.pXpXpXNXC.pXC.C.=.X.X.Y.V.V.~.e m C X.*.X.A.} n =.=.$.$.$.Y o.Y.pXV.V.kXY.&XY C C V X.$.} ",
"V.aX! / $.R.P. .} V.A.Y.n.vXhXuXV.t.B.ZX$X XkX#XvXwXwXn.#.#.=.V.[.zXe C x } H #.V._ @.b.Y. . . .L J.,.mXV.A. X=.,.n x C Y  . .{ ",
"A.`.D h.$.E.~ R q.V.x.c.A.fXmXbX XV.A b.7.M.bX}.1XaXaXA.} $.7.V.( e K C R q.j } N.q.`.MXz.R w.w.J +.]  XV.x.q.g.7.I R S | w.R R ",
"Y.$.V H.$.W.Z M m.V.} } V.MX%XrXkXV.n } $.C.pX@X}.pXpXV.=.$.A.V.k e J.C $.A.V =.C.A.dX3Xo.m Q Q F.a.Y m.V.} $.!.A.m.$.n (.Q m m ",
"=.n.>.Z  .! H.d.,.V.O.O.V.kXpXB.C.A.>.O.n.yXjX,XsXpXaXV.n.} V.N.5X4XgXZ n V.>.b.uXV. X3.V x U >.' ' V V.V.} b.wX|.-.H d.(.>.x D ",
"7.x. .R R D h.h.] A.$.X.V.jX%X/.N.k.{ $.A.&XmXS.$XrX{.N.^.q.V./.bXmXNXI I *X .hXNXV.M.) 0.w.k.] z.z.w.N.N.q.4XaXq.k.x (.W  .R <X",
"|.$.$.$.m V L L Y n.$.Y V.uXvXkXV.o.Y $.V.V.%XC Z.%XC.C.Z.|.V.jXaXnXn.Z.Z.4XO.kXuXV.V.=.-.X.|.:.m.D.o.Z.Z.A.NXpX} D.n H.n $.*.0X",
"B.n.$.e.F Y Y Y e.=.$.V N.C.jXC.A.e.V $.V.uXaXM.,X}.rXNXdXB.A.pX@X!.-.!.!.! _ MXC.N.4Xn.Y.&.B.Y.<.! a.wXwXV.pXaXO.! d.H.d.X.L 2.",
"A A.$.m W w.w.R j 7.$.0. XN.uXN.q.m G X.A.uX`.A %X,XfXv.'.I k.fX0XA T 7.q.0.v.fXN.uX%X4Xz.p.I q.u.D u.,XaXV.Q.+XX.x (.H.J w.J 8.",
"Z V.$.C H.V V x e./.$.-.NXC.jXC.} C X.Y n.n._ n b.#XuX} _ n U  XM.e ^ :.=.X.NXrXV.$X}.mXU (.n =.s.e.<.,XwXV.N.N.Y n H.H.L m a.^ ",
"Z V.$.C n Y Y x U kXX.m.NXuXrXuXO.m $.V :.:.O.U :.<./.X.X.Y V =.uXW.W.3Xn.} C.Z.N.=.}.DXL (.Y Y.U Y U.E.B.V.A.A.e.H.(.(.Y C ' W.",
"I M.$.S x X.] T k.uXw.z.v.kX,XjX$.R $.w.] } } z.} T q.w.w.| 0.7.&XeXT.U./.x.N./.tXv.@X'.J p.] x.X.X./.M.W.M.q.q.x W K W { m z. X",
"{.B.$.n e.$.,.-./.n.m U _ jX}.kX$.Y $.X.>.O.,.Y.#.m } x Z h.-.A.N.jXD._ n.Y.V.kXpX5X%X` F.2.,.} ,.$.n.V.B.B.} } n S n S Y e.D.n.",
"pXrX$.d.Y $.m.U.kX-.S e.O.pX%XkX$.V $.} Q } U.-.X.S $.Z (.M n.V.V.jXk O.-.:.A.B.$X! ! s.' *Xm.X.U.$.-.V.rXrX} $.a.C d.S V $.^ $.",
"tX+X$.(.X.$.x. XuX0.J j } +XwX X$.w.$.c.w.c./.T 0.J } A L.E tXV.M.|.e $.u.} q.I w.h.T p.v.hXx.w.A. .0.V.Q.Q.q.&.r.x (.W m R 1.x.",
"b.t.#.H.O.$.} <Xb.V G.H ,.t.aXN.O. .$.Y.X.Y.n.x ! G.3.T.ZXY pXV.T.T.e #.h.O.} Z F.(.Y &.Y.m.} x C.>.V V.M.N.A.U UXe.J.(.C x Y Y.",
"$.yXX.H.} $.$.S $.o.o.o.n.uX@XV.} $.$.=.} =.&.m D.o.[.Z.NXV jXm.rX0X~.&.M } X.C o.(.Q $.=.Z.X.C Z.V o.V.V.A.V.s.(.Y } H.C C L -.",
"'.hXw.J c. .$.T q.z.v.z.uXkX}.V.x.$.$.q.U.) 8.R z...A I k.j |.&X+X-Xk.p.R c.w.f.] p.T } ) I p.C I j z.A.A.q.A.p.` { w.H.C C J T ",
"dXb.x H Y.>.#. ./.A.Y.<XuXjXfXC./.#.#.A.NX3.!  .' >.J J *.H C.jXV.zX} (.<.Y.x d.3.<.<.,.,.Z h.C Z H n.n.n.} n.&.Y >.Z H.C C (.x ",
"Z.=.C $.=.V X.X.A.V.&.S C.vXNXZ.!.#.X.V.C.m.~.X.a.V H.H.n.Y uXkXkXvXX.(.Y.=.M M m.Y.n.M.Y.m M m m Y $.=.=.$.=.$.V V d.H.C C H.C ",
"Z.} C w.) h.G p.q.A.T A m.aXz.I G u.w.V.m.q.k.w.(.J H.W #XX.NXjX/.5X0.K.uX) A 1.7.V.tXtX/.R E 4.4.X.q.} ) $.]  .F m (.(.f.f.K C ",
"R.$.C x 3.d.e.(.} b.x B.V.rX@.J F.h.x V.V._ } Z f.(.H.F dX$.3XhXB.* ! &XkX7. X<.<.|.sXaXb. .{ Y Y $.A.$.3.#.>.>.K C f.f.d.d.M C ",
"S $.m m V.n $.H.$.$.C A.V.jXC (.o.C C V.V.} $.H.C H.H.m jX$.V.t.rXk ~.kXC.3XyXY.OXyX}.pX=.$.X.V V $.V.$.V.#.V V H.C M n n n H.m ",
"1.$.R R k.S w.J } P.C q.V./.T R.`.W x A.A.x. .W f.(.H.6.4X} M.#X@X5X5.*X7.ZXkXA.aXkX@XtX}  .G F F $.V. .q.H m m (.f.6.S C C | R ",
"] }  . .;.K x H 3.$Xm } V.V.2.4X~ +.H b.b.A.>.m d.f.H.o.b.3.$XrX@X4X:.S._ aXkXN.aXtX@XjX$.>.x K K } V.>.} e.m m f.d.o.D M M &.{ ",
"} } $.$.V H.M $.m.=.m $.V.V.V.S UXUX$.=.$.N.n M M n H.s.=.m.pXC.aXk Y.C } }.kXN.}.pX@XpX$.Q m H.H.} V.Q $.*.m m m n s.IXM M O.O.",
"'.P.$._ m W ~ w.I } 1.$.A.7.7.h.9.I.X.] x.#XA ~ E C (.+.) A.j.3.B.-X/.1.'.@XbX#X1XmX,XbX$.j R (.| [.k.j $.X.R R 6.C +.I.S.~ b.x.",
"1XkXi.q.C S  XD K $.2.$.b._ ,.u.T u.$.4./.sX$X$X .C f.u.q.C.=.,.T.*Xb. .sX@X1XdX#XuXtX4X$.H { f...$X` H i.i. . .Y m J.u.<XB.n./.",
"}.V.O.kXC C V.M i.$.V.$.$.i.m.$.t.$.$.C V.%XkXkX$.C C O.kXV.m.m.pXV.$.$.%XaX}.jXC.kXV.V.$.$.#.n #.=.s.$.O.O.$.$.Q C i.O.C V.$.V.",
"1X&Xb.x.C S 5.S.v.$.5.] b.P./.&.q.&. .R 5.z.&Xz.$.f.W w.z.3.A.zX{.#Xx.$.j.k.#XP ,.bX+X&X} [ J.Z G u.(.X.c.c.$.$.j 1.v.w.1.V.) 7.",
"#XNXU.) Q K ` U.n.X.;.K.b.SXb.$._ i.4.] ;.' x.p.} f.(.x @.,.m.k M.aXA.} 3.,.x.L 2.1X,XuXg.g.J.P D (.f.$././.$.$.H 2.n.x  .V.q.[ ",
"V.kX#.$.C H.H.$.=.#.C k $.kX$.$.O.O.n O.C O.$.H.O.C H.C C m.V.V.V.pXV.O.yXV.$.N.yX}.@XV.m.m.$.t.C H.C $.V.V.$.$.i.V.=.C $.V.kX$.",
"A.|.8.H + I.K } F.D D AXb.4X]  .x.n.~ c.4.E.T.S.].>.K C m uXkX*X#XmXV.[.hXq._ *XhX2X1XM.V./.G E.R.' C  .2.7.} $.T.k.u.C  .V.j.H ",
"b././ H + IXS $.8.D A [.n.c.R 4.3XU.E./.>.<XAXZXDX>.F C C yX[.uXrX4Xm.kXx.[ 7.NXc.4X%X$X!.b.Z ~ <X>.C 4.1._ 7.X.E.` h.m 4.C.| e.",
"$.kXV.$.C C C $.V.$.pXV.$.$.C C kX$.V.V.C H.C pXkXC C C C V.$.V.kXV.V.V.$.$.V.kX$.V.}.pXkX$.H.C C C C C C $.V.$.$.H.C C C V.C $.",
"_ 5.C.[ 6.>.x } Z.X.{.V.) } S.6.I G.! ,.1.xXA }.|.1.;.f.x / ) M.fX4X&Xm.c.H 3.!.0.hX@XaXSX} (.;.f.F h.h.~ c.3.H H J 4.>.>.P ~ ].",
"q.,./.7.]  .G 7.N.} M.m.q.} v.@.J G.! 7.2.DX#X1XM.l.5.f.0.8.L.{.aXbXjXV./.H 3.V.x 3X@X#XP.$.u.>.(.K u.u.eXhX3.H H G { >.6.D Q.DX",
"V.V.kXV.$.$.$.V.V.$.V.V.kX$.$.H.H.#.C.kXV.}.}.kXV.pXV.C #.#.@ pXpXpXkXV.m.$.V.m.C V.pXV.O.$.$.C H.H.=.$.kXyXV.$.$.$.$.C , j pXuX",
"7.C.4XC.P.$.#.C.wX;XA.hXNXb.b.' H.[.rX2XhX@X8XrX1X*X,.;.c.b.=X{.C.T.MXV.g.G 7.g.4.m.mXN.} } [ D Z ` b._ 4Xq.C.J.J.H e.m j E *X/ ",
"} A.q.V.A X. .V.wX2Xx.NXkXA.b.6.(.ZX#XfXmX%X,X#X1Xq.7.2.4XA.m.M.#X!.mXA._ D _ }  .A.&XA.$.7.7.P G 5.4Xl.x._ m.G.J.H H m T ] x.8.",
"$.m.$.V.IX$.$.V.t.N.$.kXkXV.O.C s.pXV.kXpXN.N.V.kX$.jXC.kXV.V.V.@X%XpXm.$.S $.$.$.m.V.m.$.V.V.C.#.C.kXpXO.$.V.#.#.#.#.Q $.$.O.#.",
"$.,.c.N.T S D M.M.3.b.!.C.V.{ ;.L.mXfXrXpX^.^.&XrX XdX2XSXm.m.V.1X@XE.,.b.S.b. .$.,.N.,.$.C./.C.U.*XdXXX_ _ uXU.#.#.#.>.Q c.) b.",
"} 3.&X&X{ $ Z +XQ.]  XN.!.V.1.2.kXhX].fX%Xc.x.NXwXT.wX].U.=X=XV.rX,XM.3.A.B.A.R } 3./.3.} V.x.V.c.lX#Xq.7.l.uXb.X.$.}  .* 5Xx./.",
"=.C.kXuX$.V X.pXrXY M.V.kXV.C C.uXY.} kXpXi.O.uXM.o.N.o.} @ @ V.pXN.V.V.V.V.V.C =.C.kXA.=.V.$.V.$.X N.$.A.pXY.O.$.$.=.$.@ X kXY.",
"oXmXSX5.$.Y X.-XI a D M.C.M.S.wX5.:.' rXmXH { 3.! F.3.e.} =X=XV.%XN.N.V.3XhXM.;.b.B.SXkXb.V.n.A.n./.N.b.uX$X:.O.H $.n.} 7.5X/.:.",
"zXzXv.p.} 4.$.@ 8.i $ {.|.{.$XfXT 3.l.2XU.D 1.3.8.0.} H } Y.m.N.bXN. X XkXbX{.5. X~ b.&XA.V.x.q.c.( A. XmXM.7.} D } x.q.[ j.N.g.",
"+ j $.S =.C $.Y.$.X.k %XjX%XjXkXC !.dX3X} L S C.&.!.$.X.=.C.V.C.kXC.kXkXjXpXpXC.M.M #.C.V.V.$.#.$.k Y.M.hXV.m.=.S =.#.C.$.o.V.C.",
"Z 4.v.k Y.>.$.3.e.[ @ aXdXaXdXkX>.wXJX7._ R.S.V.;XyX} } b.rX*XrXrXwX!.!.vXmXtXV.! Z ;XwXuXM.V.;Xb.K.3.! / V.:.b.gX-XE.V.$.e.A.V.",
"D { ( -Xx.] } ) 0.q.@ Q.Q.+XQ.kX{ 2Xb._ 7.eX*XV.2XNXq.q./.wXlX#XcXaXN.N.fX/.MXV.8.A sXfX&X{.,XsXA.] } 0.8.V.7.hX*XX X A.$.G z.Z.",
"IX$.k Y.*.=.:.=.&.A.@ t.t.V.t.kXY uX$.$.|.kXkXV.MXuXm.m.Y.M.X t.aXvXC.V.MXC.kXV.&.mXpXkXC.%X@XrXV.$.$.X.&.V.A.kXC.jX@ Y.$.$.o.M.",
"Z $.@ &.( v.&XP.Y.V.gXkXhXrXkXmXH V.T.} kXjXV.W.hXC.:.:.#.,.o hX@XjXuXhXuXwXjXV.n.pXaXjXOXpXSX-XV._ } #.P.V.V.C.rXpX3.=.$.H e.! ",
"m [ L.K.@ -XP.A q.V.x.v.bX#XU.S.j !.SXq.&X5X+XOX2X!.7.7.x.) L.bX}.bXjXbXbXfX$Xm.A.fXQ.-XJX1XlX@ N.v.q.$.A N.N.|.Q.NX[ q.$.D 0.D ",
"V =.=.@ @ @ U n =.V.} =.pX~._ Z V kXuXA.m.@ rX}.}.lXA.|.X =.#.%XrXrXMXpXvXkX~.t.V.MXN.@ X }.%XX Z.nXm.$.S Z.Z.jXC.@ $.m.$.L =.V ",
"U ( -XX X ^..XY &XA.} !.jXX ) Z U MXV.V.[.@ [.E.aXX V.uXo ( v.%XpXT.X cXuXrX@ @ m.CXm.~.wX%XpXdXcX7.&.} R.wXwXrXOX@ [ &.[ R.A U ",
"`.X w w w d , R VXiXiXDXbXSX9Xk iXbX$XA.( ; f tXHXSXp v L.o PXKXHXVX> s sX%X@ o LXg d PXGXFXHXg g ) L.q.f HXGXaXJXPXR.L.L.f : b.",
"f ; 0 0 0 ; e Q b b d c dX%X; : d aXhXY.e ; y c c aX0 y &.: : p c d 9 9 @X%X@ : ; p ; : > }.c 0 ; ,.: A.w c l 2X: d @ @ @ 0 ; : ",
"4 5 e , w ; k 7X8 8 7 7 SXsX5 5 7 HXk 6X7X; HX7 7 FX; 0 VX7 5 5 5 5 e 9 s 1XX 5 5 , y 5 5 7 7 ; ; AX5 ; w 7 7 JX5 5 BX; w e w 5 ",
"1 2 8 8 P e , u 2 2 2 2 k z 2 2 2 q 7 u r 3 q 2 2 q 3 e 3 2 2 8 8 2 i 0 : L.A 2 2 8 q 2 1 2 2 3 3 3 2 3 6 2 2 3 1 1 r 6 : 8 6 1 ",
"2 2 2 2 +.- - 2 2 1 1 1 t t 2 2 1 2 2 2 1 2 2 2 2 2 2 - 2 2 2 +.+.2 t t - +.H.2 2 2 2 2 1 1 1 2 2 2 2 2 1 1 2 2 1 1 < 1 t 2 2 1 "
};
