/* XPM */
static char *Free_Converter_com_snowwallshrubs2d_33253845[] = {
/* columns rows colors chars-per-pixel */
"64 91 256 2 ",
"   c black",
".  c gray100",
"X  c #201E20",
"o  c #413F41",
"O  c #282728",
"+  c #747274",
"@  c #555455",
"#  c #636263",
"$  c #818081",
"%  c #3C363D",
"&  c #2B262C",
"*  c #5C5B5D",
"=  c #505051",
"-  c #242525",
";  c #363737",
":  c #2A2C2B",
">  c #303931",
",  c #172117",
"<  c #1D261D",
"1  c #202920",
"2  c #2A322A",
"3  c #2B302B",
"4  c #323432",
"5  c #1B1C1B",
"6  c #202120",
"7  c #414241",
"8  c #A8A9A8",
"9  c #024D00",
"0  c #024200",
"q  c #035801",
"w  c #056802",
"e  c #034700",
"r  c #224920",
"t  c #142A13",
"y  c #043F00",
"u  c #074803",
"i  c #0A4D06",
"p  c #0A4006",
"a  c #0E5B09",
"s  c #093906",
"d  c #104E0C",
"f  c #0F450B",
"g  c #195C14",
"h  c #1F6819",
"j  c #1D5219",
"k  c #253324",
"l  c #394A38",
"z  c #364535",
"x  c #3D4B3C",
"c  c #344033",
"v  c #465245",
"b  c #174A12",
"n  c #10300D",
"m  c #2E6E28",
"M  c #10390B",
"N  c #184113",
"B  c #163712",
"V  c #285B22",
"C  c #4F754A",
"Z  c #223C1E",
"A  c #5B8754",
"S  c #282F27",
"D  c #242A23",
"F  c #343B33",
"G  c #2E5028",
"H  c #3F6A37",
"J  c #1E3619",
"K  c #33582B",
"L  c #405A3A",
"P  c #445540",
"I  c #485944",
"U  c #4E5E49",
"Y  c #444B42",
"T  c #546B4C",
"R  c #78916F",
"E  c #7B9473",
"W  c #849D7B",
"Q  c #819979",
"!  c #91A58A",
"~  c #8D9B88",
"^  c #657B5D",
"/  c #738B6A",
"(  c #758D6C",
")  c #7F9776",
"_  c #72866A",
"`  c #89A080",
"'  c #83907E",
"]  c #687264",
"[  c #3D5334",
"{  c #3F4F38",
"}  c #708866",
"|  c #596B51",
" . c #5C6E54",
".. c #63755B",
"X. c #7A8C72",
"o. c #7F867C",
"O. c #415239",
"+. c #697F5F",
"@. c #54654C",
"#. c #6D8363",
"$. c #5F7156",
"%. c #5B6C53",
"&. c #57674F",
"*. c #6A7B62",
"=. c #61675E",
"-. c #70766D",
";. c #4F534D",
":. c #929491",
">. c #4E6044",
",. c #3B4635",
"<. c #5C6955",
"1. c #43533A",
"2. c #495A3F",
"3. c #4C5D42",
"4. c #6F7F66",
"5. c #3B4038",
"6. c #547141",
"7. c #3D4D33",
"8. c #44543A",
"9. c #47573D",
"0. c #46543D",
"q. c #526248",
"w. c #45513D",
"e. c #444D3E",
"r. c #495540",
"t. c #56624D",
"y. c #485241",
"u. c #5E6B55",
"i. c #5A6453",
"p. c #778170",
"a. c #737A6E",
"s. c #38432F",
"d. c #333D2B",
"f. c #2A3223",
"g. c #2F3728",
"h. c #697B5A",
"j. c #31392A",
"k. c #505948",
"l. c #636D5A",
"z. c #667756",
"x. c #28450A",
"c. c #282F21",
"v. c #617151",
"b. c #637353",
"n. c #5C6B4D",
"m. c #5F6E50",
"M. c #69755C",
"N. c #4D5545",
"B. c #545C4C",
"V. c #5E6656",
"C. c #585D53",
"Z. c #585957",
"A. c #494F42",
"S. c #414936",
"D. c #5B634E",
"F. c #6E7857",
"G. c #5E5F5B",
"H. c #606745",
"J. c #4D4E3D",
"K. c #070705",
"L. c #444434",
"P. c #0D0D0C",
"I. c #292927",
"U. c #4C4C4B",
"Y. c #7B7B7A",
"T. c #8B8B8A",
"R. c #3B3A2F",
"E. c #313027",
"W. c #2B2A23",
"Q. c #43423B",
"!. c #6D6955",
"~. c #585239",
"^. c #2E2B20",
"/. c #2C2A23",
"(. c #2E2B22",
"). c #2F2C24",
"_. c #2D2B25",
"`. c #2E291C",
"'. c #39352B",
"]. c #968E7A",
"[. c #453719",
"{. c #41351B",
"}. c #514427",
"|. c #2D2617",
" X c #352E1E",
".X c #554A32",
"XX c #312C21",
"oX c #483715",
"OX c #433314",
"+X c #4D3B18",
"@X c #483818",
"#X c #4A3A19",
"$X c #48391A",
"%X c #493A1C",
"&X c #493B20",
"*X c #4B402A",
"=X c #1D1911",
"-X c #494337",
";X c #2A2721",
":X c #4B3917",
">X c #3D2E13",
",X c #362911",
"<X c #4A391B",
"1X c #4D3E23",
"2X c #3C311C",
"3X c #483D28",
"4X c #4C422F",
"5X c #4C4435",
"6X c #4B4335",
"7X c #4F4738",
"8X c #4C4436",
"9X c #4C4538",
"0X c #4D4639",
"qX c #2D210D",
"wX c #302410",
"eX c #493719",
"rX c #4D4332",
"tX c #494134",
"yX c #4E4639",
"uX c #443D32",
"iX c #4D463B",
"pX c #241E15",
"aX c #51483B",
"sX c #4F473B",
"dX c #5A4C39",
"fX c #564C3E",
"gX c #6E6150",
"hX c #847461",
"jX c #685C4D",
"kX c #4B4640",
"lX c #7C6B58",
"zX c #93816C",
"xX c #5D5246",
"cX c #61564A",
"vX c #50483F",
"bX c #4B443C",
"nX c #514437",
"mX c #584E44",
"MX c #524A42",
"NX c #4D3522",
"BX c #574444",
"VX c #BBBBBB",
"CX c gray70",
"ZX c gray63",
"AX c gray60",
"SX c gray43",
"DX c #676767",
"FX c #4E4E4E",
"GX c #494949",
"HX c #464646",
"JX c #444444",
"KX c #3E3E3E",
"LX c #3A3A3A",
"PX c gray19",
"IX c #2D2D2D",
"UX c #282828",
/* pixels */
"b.aXaXb.aXtXuXuXuXaXaXaXaXuXuXuXuXuXuXuXuXuXuXuXuXuXaXaXaXaXaXuXuXuXuXuXuXuXaXaXtXuXuXuXtXfXfXaXaXaXuXuXuXuXuXtXaXfXfXuXuXuXuXuX",
"R x JX/ c hXhXhXd.zXzXzXzXhXhXhXhXhXhXlXlXlXlXhXhXhXzXzXzXzXzXhXhXlXlXhXhXhXzXzXhXlXlXhXhXzXzXzXzXzXhXhXlXlXhXhXzXzXzXhXhXlXhXhX",
"E E $ ` X.cXgXgXh.gXlXgXlXgXgXgXgXgXgXjXjXjXgXgXgXgXgXgXgXgXgXgXgXgXgXgXgXgXgXgXcXjXgXgXcXmXmXcXgXgXgXgXjXjXgXmXgXmXmXgXgXgXgXgX",
"B.b.SXW W DXn.s.| +.E cXxXfXfXfXfXfXfXxXxXxXfXxXfXfXfXfXfXfXfXfXfXfXfXfXfXfXmXfXaXxXfXfXaX-X-XsXfXfXfXfXxXcXfXiXfX-X-XfXfXfXfXfX",
"^ } :.) _ M.>.#.#.W z.d.vXtX-XtXtXtXtXvXvXvXtXvXtXtXtXtX-XtXtXtX-X-XtXtXtXtXvXtXtXvXtX-XtX8X6XtX3XtXtXtXvXmXtX*XtX6X8XtX3XtXtXtX",
"! ! CX! 4._ B.! +.! w.X.MX8XMX5X5X8X8X8X8X8X8X8X8X8X5X5XMX8X8X8XMXMX8X8X8X5X8X8X5X8X8XMX8X9X8X5X2X8X8X8X8XMX8X2X8X8X9X8X2X8X8X8X",
"8 8 CXCXQ 8 :.` O.8 SXAX` 6XMXvXvX8X8X5X5X5X8X5X8X6XvXvXMX6X8X8XsXMX6X8X6XvX5X8XvX5X8XsX8X&X8XvX3X8X8X8X5XMX6X3X8X8X&XyX3X8X8X8X",
"ZXp.AX=.ZX' 8 m } 8 X.T.W yXMXMXvX8X8X8X8X8X8X8X8XyXMXmXmXyX8X8X6XvXyX8XyXMX8X8XvX8X8X6X8X{.8XvXyX8X8X8X8XvXyXyX8X8X>X4XyX8X8X8X",
":.z.:.{ CX4.ZXa X.Y.#.H p.MXMXMX8X8X8X8X8X8X8X8X8XMXMXxXxXMX8X8X8X8XMX8XMXMX8X8X8X8X8X8X8X6X8X8X8X8X8X8X8X8XMX8X8X8X2X2X8X8X8X8X",
"AXW 8 ( CXT.W b.k.l | 9 HX/ yXyX5X8X8X8X8X8X6X8X8XsXyXmXaXsX8X8X8X5XsXvXsXyXyX8X5X8X8X8X8X9X8X5X8X8X8X8X8X5XsX8X8X8X*X3X8X8X8X8X",
"ZXW 4.:.CXAX#.E v.* 7.A a 2.6X6X] ] 8X8XX.8XyX6.] 6X6XMXtX6X5X8X8X8X6XvX6X6X*X8X8X8X8X8X8X8X8X8X8X8X8X8X8X8X6X8X8X8XyXyX8X8X5X5X",
"8 ~ 4.AXCX:.o.~ q.L ] ! g 9.8X8X[ L 8X8Xb.ZXCX].2.8X8XMX8X8X8X8X8X8X8X8X8X8X2X8X8X8X8X8X8X8X8X8X8X8X8X8X8X8X8X8X8X8X8X8X8X8X8X8X",
"8 AX8 AX8 T.AXT.; 9 8 Q N.z.M.M.b.( } *.W } Q Q / $ aXaX7X7XfXaXaXaXaX7X7XaX*XaXaX7X7XnXnX7XaXaX7X7X7X7X7X9X7X7X7XaXaX7XaXaXfXfX",
"AXVXCXVXX.Q C.ZXe.A ' >.m.4.z.*.9./ T #.R } / ;.3.+ uXuXuXuXuXR.uXR.uXuXuXuXuXR.uXuXuXL.-XuXuXuXuXuXuXuXuX4XuXuXuXuXuXuXuXR.Q.Q.",
"AXVXCXVX' ~ 8.C a.ZXm 9.n.k.q...>.E a.' } E ' i.9.p.+.Y.).).5 5 6 5 6 6 I.6 6 5 6 I.(.j.LX).6 6 I.I.: : ).@X).I.I.6 6 I.6 5 6 6 ",
"AXCX8 CX8 AXh.a AX8 w z.B.d.1.| v.W AXAX( W AX` h.` b.Y.K.P.K.  K.K.K.K.P.K.K.  K.K.5 5 6 K.K.K.K.P.P.5 K.pXK.K.5 5 5 5 K.      ",
"T.VXVX8 8 AX8 ' $ AXC / } $.v.m.HXW ` $ :.W W AXQ AX4.M.DX    K.K.        K.  K.K.K.=X=X5 K.  K.K.    =XK.=XK.K.=X=XP.P.  K.P.P.",
"ZX' VXZXCXT.8 $ X.ZX' _ #._ q.#.] W #.-.8 ~ ~ :.} o.U n.U.KXK LXqX        qX  qXwX(.wXwX(.wX  qXqX    wXqXwXwXqXqXqX      qX@Xo ",
"ZXh.CXAX8 Y.T. .W ZXQ *.b.*.8.} W W M.*.8 AXAX) z.q.x  .pXE.a P.wXP.,X=XpX`.=XqXOXuX`.OXuXXX=XqX;X=X5 3XOX3XOXOX3X>X=X=XE.3XdXcX",
"z.VX8 AXp.4.` ) T.$ z.( } %.v.%.4.W :./ ` W ` / Q 8.#.}   n.6.  wXpX&X,X X). X|.+X4X X}.vX). X|.2X>X2XsX:XsX1X1XsX+XE.E.fXaXcXgX",
"p.8 ! ~ ..&.} ` ~ p.h.^ R n.3.^ E ! ~ R W W R R X.s._ ) x z.z.< M wX(.wXwX(.(.(.@X@X@XxXMX(.(.(.@X@X@X5X@X8X8X8X8X@X(.(.8X5XxXjX",
"AXQ W W 4.e.n.Q E #.X.&.#.h.>./ R } ^ +.) W / ~ *.>.*.` R h.z.x qXqX|.wXqX).|.|. X@X@XvX1XW.{.{. X+X:X&X4X9X9XiX7X:X(.(.8X&XaXcX",
"W AX` W / { | ( b.B.Y.%.| / Q *.9.a x 8.4.W ( AX/ ) / W %.( *.; u ,XqXqX|.`.qX|.|.@X:X*X2X X1X{.|.>X2XoX4X*X9X*XuX2X(./.9XoXtXxX",
"W AX@.R ) q.#.h._ D.DXk._ ..( E { 9 z U $.#.h.a.Q ` R #...<.p.U.q ~.wXwX(.wXwX(.wX@X@X@X(.@X8X(.wXwX(.@X@X@X5X@X^.(.(.(.5X@X8XxX",
"W :.>.X.W z.} m.A b.C.u.` $._ E 7.g 3.&.| v.z.| Q Q #.z.*.G C L h !.uXOX|.qX|.W.OX@X XXX{.:X1X/.`.^.{.@X`.`.1X X{.{.(.[.&X4X8XxX",
"W W W AXW b.%.%.w | v.W W / W %.j.| b.O.%.b./ *.4.( %./ b.w q q !.gXL.{.qX>X'.2X1X:XW. X1X2X2X(.).`.:X:X'.'.2XI.{.{.(.{.oX9X8XxX",
"E W *.' E 2.t.P j ] a.' ( 4.| =.GXi.I N.2.Y ^ U V _ b.^ m.K H K l.g $X^.wX@X8X@X8X@X(.@X9X(./.(.^.wX@X@X5X5X(.(.(.(.(./.@X8X8XxX",
"+.) $.} #.2.e.3.i.+ o.SXV._ 7.* @ A.z k.{ J q.c 9 t.n.B.| G <.U.b.g 1X|.wX,X'.,X1X XW.4XiX{.W.(.|.`.oXXX%X&X{.{.uX{.(._.@X9X9XcX",
"b./ / *.| | j.b./ SX/ %.HXW O.U.GXo l O.O.9 O.> 9 g.O.y.| q O.j.hX%.xX,XwXqX|.qX2X;X XiX*X:X X/.qX_.3X X&XoXoXoX7X:X(.`.:X*X*XfX",
"#.*.h.2.c 9.c >.>.C.R R HX^ d.@ KX;.N.O.1.G i E.K c 7.{ v.G 2 mXM.jXaX@XwXwXwXwX(.).:X5XoX@X:XXXwXXX9X#X9X$X$X$X8X@X(.wX[.oXoX6X",
"R 4.m.9.x 3.e.s.3.@...) * V.5.;.HXk.B.0.{ w.b B ,.x B.3.b.B.F !.t.K R.:XqX;XqX;X{.uX:X&X@X@X@X{.OX{.8X4X8X4X4X4XvX@X(.qX XXX@X9X",
"/ ( | %.%.v.[ j.*.v.{ *.SX# @ l @ { A.A.l l w.i 2 l # %.&.| [ T xXw j.2X|.2X>X2X1X*X2XoXoX@X@X:X+X+X9XfX8X9XvXiXMX:X(.|.I. X@X*X",
"..W n. .9.9.i e.DX5.7.DXr.x 0.x * g.: PXx x 8.[ JXd F B.d.2.q a xX[ j./.(.:X@X:X9XoX^.$X$X@X@X@X[.oX5XxX8X8XMX5XvX[.(.(.XX:X@XoX",
"I R } U 2.B.j r.HXo @.# C.U 0.r C.c.; - > > e.7 KXe D C.S.7.V h D.BXj.(.W.oX X@X8XoXOX4X5X:X:X:XXX,X%XmX8X9XsX$X%X^.W.(.[.:X:X:X",
"l n.` { %.+ C.O.IX# 4.# SX*.e.9 7.S U.UXUXO KXPX2 y 4 DX .0.# M.%.7X`.(.2X3XI.oX6X3X.XMX*X2X2X2X|.qXoXsX8X*X3X&X&X'.2X).>X2X2X2X",
"{ 1.` { &.+ * l 4 Y.$.# Y 3.g.0 p 1 4 UXLXPXLX; LXy z DX .Z.# *.jXcX,X(.@X9XXX$X9X9XxXvXoX/.(.(.wXwX[.5X8XoX@XyX9X5X@X^.qX(././.",
"{ 3.X.q.+.] # Y FX+ P _ { d.M B M c - - x LXLXJX= r { =.3.G.V.4.!.gXbX;X^.8X{.4XvX8XsX&XXXW.OX{.OXOXXX8X8XoX4XmX0X<X XwXqX{.W.;X",
"9.h.*.z.( v.# * Z.# x #.A.c p E.f.y.IXIXz JXJXJXG.r.1.| 9.$.$...b.jX4X'.'.vX:XvXMX8XtXoX X2X1XoX*X*X2X6X6X3XvXcX3X1XW.qX|.:X2XuX",
"| ( *.4.4.%.<.SXLXDXZ.KXLX&.> g.g.j.HXJX4 GXU.f.k.&.1.| M./ } 9.b.xXeXnXyXvX@XMXvX8X8X$X<X:X0X%X5X-XoXyXyX9XMXxXoX-X^.wX^.@X@XxX",
"3.| ..&.U | $.DXKX@ ] > ; i.o '.,.S.o FX; = 7 f.G.*.s.v.4._ W z n.D.3Xb &XE.oXMX9X6XvX4X5X#X7X5X&XE.wXmXmX8XxXcX@XE.wXwXwX:XXX1X",
"9.7.@.s.z  .U DXFXo +.P HX@ U.Z 8.A.PXo ; @ ; F # ..j.v.M.M.) x $.@.I g $XoX4XmX6XvXxXvX*X>X'.3X,X;X,XjXcX8XfXfX:XW.qXwX|.2X|. X",
"| O.N.g.{ *.j.+ = ; b.v.* * k.9 1.LX3 UX4 @ o KX@ x { %.| b.z.&./ O.| ^ 6XoXMXxX8XaXjXmXOXqX^.$XwXXX&XjXmX8X6X6X[.^.wXwXXX/.wX).",
"B.{ x t.@.( 0.* 4.* D.$.Z.=.k.N z B s > o HXg.B.B.I >.&.+.#.9.b./ $. .p.A.cX9XyX6X$XjXcXXXqX[.5XOX[.rXaX7X8X9X9XXXwXqXqX[.(.OXtX",
"e.r.z 4.&.*.] JX#.] N. .@ H G 5.2 0 f x U.JXg. .N.M.*...R R 9.b.R ) i...i.Y.cXiXfX4XgX.X|.>XoX*X:X:XiXtXtXtX3X3XW.|.`.|.:X/.*XsX",
"l k.j.b.U.GXSXLXB.1.1.%.@ q 9 y.2 y l l U.@ y.| O.*.W / / / b.b.W W * | *./ T.6XxXkXxXOXwX1X%XoX%X@X4X8X7X7XoXoX^.).^.).[.XX-X4X",
"z s.p $.DXB.# S N.8.j.,.> N K LXJXc 4 > Y <.G.=.i.h p.^ z.$. .C.o.~ + SX} ) p...aXE.E.wXOXvX5X:XrX@X<X8XxXxXoX@XwX(.wX).XX@X).@X",
"v ,.j U DX$.Z.g.e.c : n < 5.G.KXJX% - D r @.= =.H a H k.h.$...SXY.T.' o.' ~ _ W 2X|.2X>X4XvX*X2X9X:X X8XfXfX3X#X=XW.qX|./.2X2X*X",
"DX .B.l GX| k.1.l X PXy 1 O.* @ PXO 6 6 y O.> | w 1.w l / / *.T./ Y.W W AXAXW Q @XqX[.#X5X5XoXW.9X{.XX8XtX6X9XOX5 XX,XqX(.W.[.5X",
"l._ v.y.* ;.0.e.x PXPXJ s g.j.Z.HX- X X J c 7.v.H &.G d 4.4.3.SX<.*.4.W ZXQ $.I u >X(.@X$XyX:X(.yXXXoX8X8X9X8XwXqX[.oXwX(.(.XX<X",
"v.#.b.l.DXJXO.r r F 3 E.M 4 j.GXHXPX- I.3 2 0.v.DX&.k.w 4.4.S.JXw.( _ ' +  .a.U j ~.&XoXoX'.>X(.'.I.*X9X9X3X9X>XOX:X2XwX(.(.|.2X",
"| b.| *.# GX{ y e g.S j.3 GXFXPX4 ; IX> f.f.[ %.# B.%.w / *.GX> 1.Q W Y.GXKXAX( $._ sX0X9XXX|.(.;X X4X4X4XoX4X#X[.{.;XwX(.(.qXW.",
"l.+.B.x C.= j.0 J IXUX4 D Y JXUXKX4 D IXg.z a *.* G.&.6...2.* U @.h.#.W Y.LXY.$.*.AXn.mX0X>X^././.[.@X$X$X@X$X@XXXXXwXwX(.(.wX(.",
"V =.N.g.S.# ,.0 o % IXO 6 r LX- KXPXD : LXl q *.DXSX^ M.>.3.] ^ &.h.a./ ~ = -.$._ SXb.cX*XH.2X{.{.:X3XoXoX@XoX:X_./.qXqX|.|.`.(.",
"q @ B.x j.G.B.p 1.5.4 6 X y > UX; PXIXIXo x q m.SXSX/ m.7.| v.*.k./ Y.@.Q # ..*./ IXz.xXoX} [.[.[.@X9X@X&X@X{.{.`.(.|.|.wXwX^.(.",
"k.SX..&.O.d.B.< f p > - 6 1 f.PXPXPX: PXKX@.q 8.B.B.z.{ j.9.%.$.B.h.4.0.R B.9.*.z.,.} MX@X}.|._.XX@X8X@X8X@XXXXXwX(.^.^.^.^.wX/.",
"+ ] o.t.s.0.S.D n N LXIX6 B D : 4 LX4 ,.@ #.j 3.t.V.m.A.s.O. .q.S.3.@.O.+.C.B.h.v.| R vX@XqX&.qX3.@X8X:X3X X/./.qX|.{.).(.(.>X2X",
"Y.q.T.C.J &.f.> IXY 7 k 6 0 1 : 4 KXHX0.G.} v h.&.6.&.2.0.O.&.e.f.l { { B.* # n.b.4._ jX@XQ.! {.Q oX8X{.oXXX/./.|.wXoX;X^.^.#X:X",
"# KX4.SXe c I.= = GX7 p , y 1 ; UXPX@ = l | *.( 1.w 9.a 0.x 8.f.f.w.8.d.5.Z.= U.DX4.+ ) @X8 AXR AXoX8X(.@X@X/././.^.wX6 ^.^.@X@X",
"Z.4 I ] N 4 O @ @ o 5.0 , 0 1 LXIXIXGX* ^ ( ..@.3.m d.9 b d O.c.s b j.D M F 5.LX* C.U.) @XVX~ ` cX&X1XI.@X:X2X2X{.(.qXpXuXuX4X*X",
"U.g.l @.R.Z I.GXHXZ 2 s 5 s 1 ; 7 HX= ] ` E &.2.$.l.j.b d a { J f y < X s < f.: ;.U.5./ OXY.W W }..XU  X@X@X:X:X[./.,X,XuX7X4XiX",
"> c.B.x x y 2 7 d.y 1 , 6 6 1 PX* SXSX/ $ B.| / *.| { N.k.T l y y.1 1 1 6 UX1 UXN.| &.( OX<XW W ) T.SX@X@X@X@X@X(.(.@X@X(.8X@X8X",
"x c s.N b Z g.LXp J S s 1 X PX; * Y.+ ( =.S.( _ / v. .l.* DX;.e j - ,.c & UXUX3 5.&.$.^ F.H.R R ` ' k.:X*X*X@X@XI.2X4X2X2X8XoX&X",
"A.l 1 0 9 ; d.2 s IX3 s D 6 o U.G.Y.-./ $.>.W *.#.u.4.n.Z.G.# j d 1 G z UX- IXF J A.q.U ! E R / E ( >.$XiXiX@X@X X1X4XW.:X8X3XoX",
"j.j.c.y 9 2 > 1 UXUXUX6 UXUXGX* # SX/ / / / / *.| * *.O.k.O.* U.O.1 y 1 6 6 UX> y > O.O.W / W / *./ / O.@X8X@X@X@X8X$X(.@X8XMX@X",
"M M ).y 0 D IX6 & 6 UXX IX- LX= DXSX) Q Q ( ..Q #.+ / q.# l HX; b 6 0 1 O - 6 4 J z @.@.E h.` _ z.>.U  .L.q.oX@X7X1X,X(.:X8X1X X",
"0 0 B 0 y 1 - X UXX UX6 PXPXLXY =.p.W ) ` E U ( / -.#.&.Z.l HX2 s n N D PXB 6 IXS ,.q.@.+.v./ %.m.9.,.o.P t.&X:XaXOX|./.{.9X>XXX",
"y y y y y 1 6 6 UX6 UX6 IXo GXO.| W W / Q W N.| *.k.| B.l 1.G.x F y j.IXS y UX2 1 g.l O.| b.| O.| | B.T.O.8X8X@X@XwX(.(.(.8X(.@X",
"y 0 t t 0 5 s 5 UX6 & X : LXF [ x R ` ( >.h.l.#.z.1.| *.>.@.4.Z.GXJ I.D p J 1 _.- p { 1.9.$.*.{ | O.M.] a BX&X X X|.{.{.{.'.uXdX",
"y n t O n n s n UX6 J - 3 5.7 B.P / _ +.2.b._ E m.7.n.| -.b.q.= U.S B 1 s E.D N B s { ,.w.t.<.O.m.x *.>.h V &X X X X:X{.{.;XfXcX",
"y 5 0 UX5 0 5 0 UX6 0 2 > l @ # z./ &.b.v.4./ } %.9.z.1.Y.v.g.> KX1 0 1 D ; 2 q 9 E.l j.[ [ z O.b.B.&.{ M.w 8X@X@X@X@X(.: I.xXvX",
"y 5 0 D 5 0 5 0 - X 0 ; 4 f.KXY b.$.v.M.9./ z.2.l.#.Q ....N.N.I.: 5 0 - 4 KX; K q A.{ z a q g.O.b.M.9.; 4.C 9X,X,X XXX/.I.2XvXE.",
"0 n 0 < n y n B B 6 B KXHXc.b x b.t.v._ >.#.z.0.m } ( *.3.j JX- PXn B B PXo 4 w.m ] r.{ q j s.{ v...7.F U .X5X,X,X X X/.2XoX*X X",
"s y s , 0 y y - 0 D PXKX@ d.q [ @.k.| / z.v.4...w v.v.@.{ a k 1 7 e k e < 7 d.1.<.^ B.O.q [ { 9.&.%.9.2.P }.8X@X@X@X@X(.@X@X@X@X",
", t , , y y , 6 0 3 ; ; x O.G w x O.| h. .b.a.) $.| *.0.l T q c.x 9 u q y N.k.k.0.w m.{ w w g.| N.*.m...E :.0XrX@X@X@X{.(.*XoX4X",
"n 5 n , y y - - B B KX; l s.5.m v q.| S.3.v.m ` ] b.*.e.l A.V s.> N B r N l.x ;.3.m #.@.m m r.I k.=.*.a.p.a.%XOX:X@XoX:X4 kX*XiX",
"0 , 0 , y y 2 PXE.0 KXJX9.5.; SXN.&.%.s.k.z.w A | m.n.K l j.[ O.2 IX& o R.4.F 7  .V./ v.M.M.| x ..@ *.SX* 7.1X1X@X@X$X@Xo GXMX5X",
"0 , y , y y 2 ; > 0 ; U.| # o DXR.1.b.*.SX/ T w u.r.r.w 1.w.i d.j.- 3 ; HXz.N.4 | y.$.8.%.b.1.<.( # z.# + k.# k.4 @X4XoX&XkXiX%X",
"t < 0 5 0 0 1 ; 3 Z KX7 =.G.b j i q.$.&.C.+.M.w h g j q s.j B c.N M M A.C.2.b.%.*.a 9.{ l.4.k.h T l.>.HXFXr.] v kXoX*X3XoX1X6X&X",
"X 1 s t s s S LXO % LX; Z.B.d d h | @.{ z U n.a w w q q g.9 < 1 9 9 f B.T y.&.( ..h 9.O.H C L a { >.,.4 3 { U l bX$X@X9X@XoX8X9X",
"6 6 , y , 1 KXKXPXIXIX; 1.| k.| | N.1.w.w.l 0.l O.w q q j.0 y 1 9 9 l GXO.# >  .x | | O.q w q | B.d.> j.l O.; l I.MXaX8X@XXX9X8X",
"- X X n n S JXGXGX; 7 ; d.3.KXu.k.Y { g g x b 3 5.q 9 B M n n M n 0 > KXB.k.Q.k.b h k.O.G V q V.Q.f.,.S.@.C.o j.- cXGX9X@X X*XyX",
"& 6 6 5 0 4 LXU.@ JXGXKX5.{ 5.u.O.G w.w w G 9 6 Z e 9 X 0 5 5 0 5 y 2 4 * 2.K G 9 a V w.K A.w A.J D w.K U = 7 B < 7.oX5X@X@XoXtX",
"UX6 6 6 y ; IXGXGXGXo GX* O.k.| O.q O.w w 9 9 1 9 9 9 , y 6 , y , y > 2 U.| q q 9 O.w O.w O.w > y 1 l q j.2 2 y , y @X$X@X XXXE.",
"p 6 6 X 1 O UXU.@ * SX= o N.g g > 9 d w q t 9 p J 9 9 p t 1 s t X < : g.> s.e e q 0.K b J g q IXJ c d G 7.c.Y J 6 r S.3X@X;X X;X",
"s 6 X - & 5 UXLXHXFX$ C.: D.g p : n f 9 N t 9 s J e p 9 X 1 s 6 t X B j.2 g.N M j O.G 9 J q e N PXx f G l c.G - F 5.z 5X@XXX$XXX",
"X 6 6 UX1 6 UXIXIX4 SX%.S | A.j.S 1 2 9 c.0 9 , 0 y , y 6 6 X 1 y , y S > l x 3 x l 9 q q e 9 q j.l j.9 S D y 5 O.c.S #XoXuXR.OX",
"X 6 - 3 s S UXU.7 JX# z.f v R.,.f i f 0 M e 9 p e t X , 6 6 X 6 t K.t M E.2 x 4 R.> 9 9 w 0 0 9 f.R.f 9 1 ; t o j.I.OX-X3XJ.5.4X",
"X X - 1 0 S D = HX; B.9.9 N d.l 9 q 9 y 0 9 9 q 9 5 X X 5 5 5 e.fXL.%.%.B 5 c N B 1 9 9 w y 0 9 < B q N 2 HX6 KX: L.o o o { x 5.",
"a d j.: y.x LXKXJX> B.c.d i 0.x i a u f y u u u i - 6 - nXf d d d d j.%.D.cXGX9 f D u u i p y i < p q R.x GXS UXd d NXx y.j.y.d ",
"q e M M '.j.: x.e e e e LXL.e e z I , ] , 2 1 k e G r j.r e e M M e 1 { 5.3XR.e e M , , d.c < x GXc 1 KX;.e e r q q x.j 5.M j q ",
"e e e e qX1 1 e e q q q f.f.e e q e e e q e e e e e e 1 e e e qXqXe f.f.1 qXwXe e e e e q q q e e e e e q q e e q q w q f.e e q "
};
