/* XPM */
static char *Free_Converter_com_snowwallshrubs1d_9693845[] = {
/* columns rows colors chars-per-pixel */
"64 91 256 2 ",
"   c black",
".  c gray100",
"X  c #6B696A",
"o  c #0E0D0E",
"O  c #1F1E1F",
"+  c #525052",
"@  c #D3D1D3",
"#  c #787778",
"$  c #636263",
"%  c #C1C0C1",
"&  c #9E9D9E",
"*  c #2B262C",
"=  c #242525",
"-  c #132813",
";  c #172017",
":  c #232923",
">  c #323932",
",  c #2B2D2B",
"<  c #202120",
"1  c #282928",
"2  c #393A39",
"3  c #373837",
"4  c #666766",
"5  c #979897",
"6  c #8C8D8C",
"7  c #024800",
"8  c #014400",
"9  c #024100",
"0  c #A7C9A6",
"q  c #035800",
"w  c #034D00",
"e  c #043F01",
"r  c #066402",
"t  c #0A4906",
"y  c #0E5709",
"u  c #0C4E08",
"i  c #0B4307",
"p  c #0A3A06",
"a  c #124E0E",
"s  c #165811",
"d  c #0F350C",
"f  c #1D6517",
"g  c #0D2B0B",
"h  c #183016",
"j  c #374836",
"k  c #3A4B39",
"l  c #3E4C3D",
"z  c #123C0E",
"x  c #154310",
"c  c #1D4B19",
"v  c #2A4C27",
"b  c #202A1F",
"n  c #21571A",
"m  c #20411C",
"M  c #566D53",
"N  c #425240",
"B  c #2B332A",
"V  c #2B5B23",
"C  c #1D3919",
"Z  c #3B6934",
"A  c #53824C",
"S  c #282E27",
"D  c #34562D",
"F  c #43693C",
"G  c #4C6745",
"H  c #485844",
"J  c #343F31",
"K  c #21341B",
"L  c #4B7140",
"P  c #42563C",
"I  c #76906E",
"U  c #748D6D",
"Y  c #465442",
"T  c #708967",
"R  c #738C6A",
"E  c #7A9371",
"W  c #758E6D",
"Q  c #7A8B74",
"!  c #82917D",
"~  c #909C8C",
"^  c #7B8478",
"/  c #8A9387",
"(  c #3C5433",
")  c #56764A",
"_  c #6D8464",
"`  c #728A69",
"'  c #7F9975",
"]  c #849C7B",
"[  c #88A07F",
"{  c #6A8160",
"}  c #708667",
"|  c #5F7157",
" . c #74896B",
".. c #5B6B54",
"X. c #95A68E",
"o. c #46573E",
"O. c #4C5D44",
"+. c #5A6C51",
"@. c #56674E",
"#. c #53634B",
"$. c #596A51",
"%. c #5B6C53",
"&. c #66785D",
"*. c #5D6D55",
"=. c #64745C",
"-. c #708168",
";. c #75856D",
":. c #30362D",
">. c #6A7465",
",. c #3E443B",
"<. c #737970",
"1. c #ADAFAC",
"2. c #44553B",
"3. c #404F38",
"4. c #495A40",
"5. c #506147",
"6. c #394234",
"7. c #6C7B64",
"8. c #556F45",
"9. c #2D3926",
"0. c #3C4B33",
"q. c #415138",
"w. c #425239",
"e. c #43533A",
"r. c #5F6C57",
"t. c #272F22",
"y. c #697D5C",
"u. c #505E47",
"i. c #46523E",
"p. c #636E5C",
"a. c #5A6D4C",
"s. c #444F3C",
"d. c #5B6554",
"f. c #5D6E50",
"g. c #4A5740",
"h. c #495440",
"j. c #58634F",
"k. c #555E4E",
"l. c #667856",
"z. c #4F5847",
"x. c #4C5445",
"c. c #60665B",
"v. c #607051",
"b. c #344325",
"n. c #2A3222",
"m. c #596949",
"M. c #637352",
"N. c #657554",
"B. c #323A2A",
"V. c #485040",
"C. c #525A4A",
"Z. c #919290",
"A. c #454B3E",
"S. c #5E6A4F",
"D. c #5F6D4B",
"F. c #404638",
"G. c #52564C",
"H. c #2E400D",
"J. c #424340",
"K. c #4F504D",
"L. c #5D6745",
"P. c #2B2B24",
"I. c #31312F",
"U. c #3D3D3C",
"Y. c #343433",
"T. c #484847",
"R. c #7D7D7C",
"E. c #403813",
"W. c #545142",
"Q. c #38362D",
"!. c #2A2821",
"~. c #2C2A23",
"^. c #2E2B22",
"/. c #2F2C24",
"(. c #2D2718",
"). c #322D21",
"_. c #453719",
"`. c #3A311C",
"'. c #483714",
"]. c #4C3A17",
"[. c #4A3917",
"{. c #4B3A18",
"}. c #29200D",
"|. c #483818",
" X c #423316",
".X c #503E1B",
"XX c #48391A",
"oX c #493A1C",
"OX c #4C3E21",
"+X c #483D27",
"@X c #070604",
"#X c #4B412C",
"$X c #1D1911",
"%X c #4B4436",
"&X c #423111",
"*X c #362A14",
"=X c #42351D",
"-X c #493B21",
";X c #4D3F26",
":X c #4B4231",
">X c #4C4435",
",X c #4B4335",
"<X c #4C4436",
"1X c #302410",
"2X c #3F2F16",
"3X c #54452D",
"4X c #4F4432",
"5X c #241F17",
"6X c #4D4332",
"7X c #504738",
"8X c #494134",
"9X c #4D4538",
"0X c #453E33",
"qX c #3F392F",
"wX c #4B4438",
"eX c #4E473C",
"rX c #564833",
"tX c #4F4536",
"yX c #564D3F",
"uX c #514A40",
"iX c #554B3D",
"pX c #6E6150",
"aX c #5B4D3B",
"sX c #847461",
"dX c #675B4C",
"fX c #51483D",
"gX c #7C6B58",
"hX c #93816C",
"jX c #594E42",
"kX c #5D5246",
"lX c #524A41",
"zX c #514940",
"xX c #605448",
"cX c #534B43",
"vX c #524A42",
"bX c #49433D",
"nX c #585756",
"mX c #564D45",
"MX c #49321E",
"NX c #514943",
"BX c #5A4F47",
"VX c #524C48",
"CX c #534339",
"ZX c #544842",
"AX c #563F37",
"SX c #5B4842",
"DX c #848383",
"FX c gray71",
"GX c #A7A7A7",
"HX c #717171",
"JX c gray43",
"KX c gray36",
"LX c #4C4C4C",
"PX c gray25",
"IX c gray18",
"UX c gray10",
/* pixels */
"fXfXfXfXfX8X0X0X0XfXfXfXfX0X0X0X0X0X0XqXqXqXqX0X0X0XfXfXfXfXfX0X0XqXqX0X0X0XfXfX8XqXqX0X8XiX] iXfXfX0X0XqX] ] % ] R ] GXGXR 7.] ",
"hXhXhXhXhXsXsXsXsXhXhXhXhXsXsXsXsXsXsXgXgXgXgXsXsXsXhXhXhXhXhXsXsXgXgXsXsXsXhXhXsXgXgXsXJ | X.nX..hXsXsX$.[ ] X.[ ' / FXGXGX1.GX",
"pXpXpXpXpXxXpXpXpXpXgXpXgXpXpXpXpXpXpXdXdXdXpXpXpXpXpXpXpXpXpXpXpXpXpXpXpXpXpXpXxXdXpXpXk.E E R.[ 2 t.B X.] ' [ X.X.GX% FX@ % & ",
"BXiXiXiXiXfXkXyXyXiXdXxXkXyXyXyXyXyXyXkXkXkXjXkXyXyXiXiXiXiXiXyXyXyXjXyXyXyXBXiXfXkXq q z.w.7.C.R % ' ] ] ] ] GXFXFX% @ @ @ FX] ",
"eX8X8X8X8X,XeX8X8X8XjXBXzX8X%X8X8X8X8XeXeXeX8XeX8X8X8X8X%X8X8X8X%X%X8X8X8X8XeX8X8XeX0 A 5 <.{ r.T % X.f.FX& 1.! % FX% FX% FX% GX",
"<X<X<X<X<X9X<X<X<X>XcXcXvX<XlX>X>X<X<X<X<X<X<X<X<X<X>X>XlX<X<X<XvXlX<X<X<X>X<X<X>X% @ Q FXGX[ -.Q & & 4.FX1.1.! % FX1.1.% GX% 1.",
">X<X<X<X<X=X>X<X<XzXeXeXcX,XvXfXzX<X<X>X>X>X<X>X<X,XfXeXvX,X<X<XeXcX,X<X,XfX>X<Xr Z.6 7.5 FXFXR 6 ] GX` ] GX] GXGXFXGX@ % GXFX] ",
"9X<X<X9X9X2X<X<X<XzX,X,XzX9XvXcXzX<X<X<X<X<X<X<X<X9XcXmXmX9X<X<X,XzX9X<X9XcX<X<X[ >.DXE c.FXHXR 6 ~ ~ ' ' 1.~ X.~ 1.FXFX& 1.FXW ",
"9X<X<X9X9X2X<X<X<X<X<X<X<XvXvXvX<X<X<X<X<X<X<X<X<XvXvXkXkXvX<X<X<X<XvX<XvXvX<X<X<XO./ [ c.FXc.I / Z.l.~ ~ & 5 ' ' GX% 1.& & FXI ",
"=X<X<X=X=X#X<X<X<X>X9X9X>XeX9X9X>X<X<X<X<X<X,X<X<XeX9XmXiXeX<X<X<X>XeXzXeX9XR.<X>Xq.] ] GXGXGX] ] R z.GXGXR.] U ] 5 % % % U GX] ",
"2X<X<X=X2X#X<X<X<X<X#X#X<X,X,X,X<X<X<X<X<X<X9X>X>X,X,XNX8X,X>X<X<X<X,XzX,X~ -.& ! &.5 ' X.X.& [ ~ / 6 1.X.>.' y.1.! ~ 1.@ _ ~ { ",
"2X<X<X>X2X2X<X<X<X<X2X2X<X<X<X<X<X<X<X<X<X<XvX<X<X<X<XvX<X<X<X<X<X<X<X<X<XT R JXa.{ Z.&.W E DX' 5 5 GX& I _ &.S.GXT { GX1.! ' M.",
"#X7X7XiX#X#X7X7X9XtX#X#X7X7XeX7X7X7X7X7X7X7XBXyXcX7X7XfX7X7XyX7X7X7X7X7XGX] R JX` e.7.w.%.7.R.R ] ] I 6 N.R e.C.l.R 7.FXI GX] ` ",
"qXqXqXqXqXqXqX0X#X8X8X8X0X0X+X0X0XqXqXqXqXqXbXbX,XqXqX0X0X0X0XqXqXqXqXqXGX5 E Z.R @.7.&._ } # ] E [ { Q D.>.O.k.m.I | FXE & ~ / ",
"UXUXUXUXUXUX< /.[.2 , /.1 1 1X^.^.< UXUXUXUX< < 1X< < /././.UXUX< UX< I 6 Z.[ 1.Q -.&._ { } X  ._ E 7.T l.KX*.=.{ } +.1.' 5 5 5 ",
"    @X    @XUX@X5X< O o O O $XUXO @X        @X@X@X@X@X@X@Xo @X  @X@X@XI 7.U 5 GX6 7.$.e.2.*...2.*.*.7.R ` nX%.` ] N.M.GXR 5 ] [ ",
"@X@X  @X@X  $X@XUX$X$X  o $X$XUX$X@X@X@X@X@X@X@X@X@X@X@X@X    @X@X      _ E 5 5 / c.y.$.h...$.j.r.@.5.^ ^ Y k.W &.v.M.GX/ 5 E _ ",
"1X1X  }.}.  }.1X1X}.1X    }.1X^.1X^.1X}.}.}.}.}.^.1X^.}.}.    }.}.      R ] 5 DX' KXI &.G.@.*.L F *.e.R.# q.C.U x.k.M.GX& & } m.",
"&X+X/.(.!.1X0X+X X&X+X$X$X&X+XbX X0X#X7X0X X X+XbX+XbX+X X5X$X1X1Xo *X$X7.I 6 HXW JXR k.J.2.r.q q r.$.R.HXw.$.W z.T.v.Z.& FX7.z.",
"3XeXjX/.`..XmXeX[.OXyXqX*X;X4X7X[.#X0XaX0X].].uXBX9XcX4X=X/.*X(.1X5X-XB k.l.Z.$ >.Q ^ #.> 0.f z Z f *.<.X k N.>.JXc.I 7.<.X.Q -.",
"kX>XlX^.|.|.>X>X|.<XkX<X^.<X|.|.|.|.^.|.1X|.|.vXkX<X>X|.^.^.1XUX1X1Xo d.d.y.R.KX$ { # r.6.o.y ,.;.w *.>.$ k a.nXR.7.! M.+.' [ ] ",
"mX-X;X1X[.|.OXoX#XeXBX9X/.-X|.'.#X|.!.'.}.).).xXxXjX-X).P.O 1XUX1X1Xx.$.' ] e.&.JX2.l.4 KX+.@.@.7.9.r.4 *.e.l k.# KX4 # T ] ] W ",
"zX'.2X(.'.|.2X-XeX#X6X#X(.'.'.+XfX|.`.'.*X).1 rXjXxX'.!.(.$X5X$X(.*Xu.v.] | p./ # G.x.KX+ C.=.p.<.F.n J.0.F.j ,.+ KXc.! / ~ [ ^ ",
"vX|.^.^.|.|.^.<X>X|.|.|.1X|.XXcXvX|.[.|.[.[.^.|.<XkX[./.1X1X1X1X^.M w.N.{ q.Z.5 # KX2 + U.v v.$ # 3.t J b K l Y.I.nXM.] DX5 E # ",
"jX|.=X X:X|. XeX-X#X[.|.(.'.7XxX9X'.tX#X#X'.=X:X,XkXiXbX X1X!. X XtXi.N.k.v.6 R.4 LX2 nX3 w +.KX4 B.j @.b e + PXIXK.N.I p.[ | 4 ",
"dX'.'.OX#X|.;X#X'.9X2X'./.-XNXbX8X-XBX9X9X+X].#X<XjXdXmX=X1X(.=XOXBXs O.x.p.# HX>.3 I.U.x c 4 4 k.n.6.d.= 8 G.U.S V.#.&.2.E o.>.",
"dXXXXX9X|.|.%X|.XX<X1XXX^.9X>X^.9X9XkX<X<XcX|.'.<XvXdXvX^.1X/.2 <XkXy 2.k.4 <.HX=.B.6.S u l HXJXk.6.9.z.b p V.3 B 0.A.j.o._ 2.=.",
"BX7XaX7X).'.I.#XfX9X&X4X^.eX-X XjXkXxXcXzXkX|.).,XkXxXvX=X^.0X0Xk r G D...JX] R.o.0.@.I.e.2.HX$ 4 $.t.x.e b J.B.:.B.k C.&.*.@.g.",
"eXNXjXqX1 +X`.uX7X+X;XqX~.+X XOXkXjXyX6XzXjX|.).eXxXdXcX].~.7XfXA.r 7.{ O.# _ JX0.#.=.LXG.B.c.+ T.o.J x.8 IXPXn.j B A.j.=.r.*.s ",
"<XcX%X^.).>X|.zX'.|.9X1X).XXoX9XkX<X,X|.>X,X|.{.vXkXdXzX_.^.<XvXdXs E E e.^ $.$ 4.@.#.KXh.n.C.T.9.B w.A.p > U.n.j B.D @.+.G $.r ",
"zXdXzX X=XoX).I.1X#X<X X=X7XdXjXdXjX%X#X8X8X'.#XNX7XiX-X).~.<Xr } 4.] 5 #.` &.7.7.e.J C.2.A.KXl s.3 J :.b Y.3 > , 3.r e.M.r $.) ",
"fXdXuX;X].`.`.*X*X9X<X[.[.cXdXBXxXjX<XyXiXiX#XwXmX8X8X'.`.`.9XV U nX[ &  .! Q 7.#.5.B.#.6.C.T.c n Y.IXd = C S B J 2.n u.N.Z -.>.",
">XkX8X%X|./.{.[.[.<X<XXXXXcXzXNXzX,X<XkXkXkXcX9XkX9X9XXX[.[.>X<X=.C.E 5 ] Z.[ 7.k N.N *.> z.:.w q J K e : 9 b n.2.w.s.$.v.>.{ G ",
"<XxX/.I.|.0X4X].'.<X9X>X:XkXzXzX<X%X7XBXfXeXvXjXkXjXjX:X[.[.XX<XuXx.| [ I 5 ] | v.%.@.N.A.w.3 q ( V.e 9.S 9 < B.l w.j e.C.o.y y ",
"9X3X!.(.|.7XqX`.+X<X#X#X9XBXmXjXeX<XqX#X-X8XjXdXdXxXxX9X'.|.x nXJX-.m.E { ~ E N 5.+.=.O.#.5.3 n i.h.x Y.B 9 O S c i.k.k.k.O.V q ",
">X|.).1X|.8X!.^.>X<X'.'.<XNXkXkXvX<X^.'.|.9XkXpXdXkXkX<XXX|.s KX6 ] l. .-.] W l o.l.-.l ..j.:.i.e.q.Q.t.B p < O e ( G $ %.$.p.q ",
"XX:X=X!.]./.1X1XoX<X|.|.<XvXkX7X9X9X=X|.:XlXcXdXxXkXxX<X:X0.^ KX=.-.T R.' 6 ] =._ W W f.k.Y.B 2.i.k B.t B : , O b y y x.| g.*.q ",
"-X#X].`.`.!.(.(.[.9X|.[.<XcXkXeX,X;X].|.9XfXmX0XjXkXtXX 4 M DXc.4.=.Q <.! ! -.=.{ M &.&.h.2 1 J c 6.:.w : = C < h q z n i.c k.r ",
"9X|.|.|.~.).).)._.:X|._.<XzXkXvX<X'._.|.<X<XkX^.dXpXdX6 Z.E M.M.3.@.# 7.# ` +.*.*.j x.G q.T.1 B e 9.K p O O 9 b 9 q 9.q n.w 0.r ",
"7X:X|.).P._._._.).XX|.).,X9XcX9X9X).).|.<XzXxX/.>X' DX-.5 Z.` v.3.o.nXHX7.<.T T R s.h.a w.A.t.j 9.t p - < < 9 ; 9 w t w /.w u q ",
"qX9X|.~.(.`.`.`.1 -X|.`.eX,XzX,X+X~.`.[.9XzX'.*XKX' / T & & _ ` O.0.KX<.y.$ } ;.| n n 7 w.c B k m w 9 UXO O e UX9 w w 7 z 7 7 q ",
"!.<X|.^.1X).).~.).eX|.oXcX9XcX9X'.^.[._.:X:X|.OXDXU [ [ 5 5 v.] r.o.HX&.f.z.S.8.3.w q u w.w > j w w e ; < - 9 - e q w u u p u y ",
"!.<X|.^.^._._.~. XvX[.>XcXzXkXzX|.~.|.).oXoX'.L.DXZ.GXGX[ ] D.W JX=.X 4.g.o.l r z.b 8 ( q.D B J 8 8 e UXp e 8 e b w q j P K G D ",
"Q.8X|./.~.[.[.`.;XzX`.;X#XvXdXcX|.`.|.`.[.'.+XR >.& 1.~ ] ~ ^ E <.{ G.0.c b.l V Y d e F.x.V.I.B d d e d 8 d g d = x V l d.PX>.3.",
"iX7X|.^.).|.oXoXeX:X~. X'.cXdXvX|._.|.[.=XoX9X_ +.5 6 R ] 5 & ] &.v.j k w t.( z.k u i > s.j 9.S = = 9 w e ; UX= : 3 z.j l.KX7.g.",
"kXkX|.1X_.|.>X6XvXoX/.).|.kXkXvX|.).|.'.^.6X9X6.{ ] H Z.' 5 & 6 LXG.0.j v S u s q.q.( ,.x i t B 1 < 7 8 e p 1 1 , 3.u 9.` DXM.<.",
"yXiX|.1X[.|.#XeXzX`.(.1 '.iXjXeX|.`.|.#X'.;X-X$X~ X.a.GXX.~ / DXK.$ 5.O.6.J x q w.J.6.c 9 9 7 B * O w e e 8 :.I.3 w.n h._ 5 { # ",
"#X%X[.1X|.|.'.0X#X).*X).oX%XxX,X|.].|.>XoX_.oXQ.GXGX[ GXGX] T R.4 JXM.+.B.k B.q j S < e e e e S : UXt e 9 e 9.B.3 j r.M.v.5  .$ ",
"|.lX[.1X'.|.|./.|.'.'.'.:XzXpX<X'.|.|.XXSX6.D.DX;.DX] [ & ] R U # k.z.2.J.3 > K 9.b O - 8 h - = p UXb e w 9 i i B Y.nXN c.Z.JXKX",
"rXzX`.(.#X].|.`.+X;X#X;XzXvXdX<X#X|.|.9Xv x.@.~ ^ DX[ ' ~ / U } ! $.z.k.T.Y.> O : = * = d = O d p d h e x d p z S LX+ j T.DX+ d.",
"kX#X~.).>X=X[.].eX9X>X0XzXcXBX9XeX[.[.<Xw O.j R 5 5 ' ] ' 6 ` a.] 7.%.HX3 3 Y.< b : B IX* b < e : e e 9 , : : B IX$ nXe.9.R.PX..",
"9XXX^.|.XX).[.[.9X<X{./.9XkXcX9X9X[.[.<Xb.y s.I JX# | ] E Q l.y DXKX| X S B 1 S p p z B , i b h 1 h K 7 S S I.> 3 LX4 C.J R.#.JX",
"9X'.^.`.'.(.`.2X+X9X`.qX>XxX;XQ.`.*X`.8XCXs n | 4 JX| ' { { m.x X T.i.$ 3 3.I.S 9 8 8 , B w : 1 = * IXc B J x S I.3 K.Y k.# | HX",
"0X|.^.~.-X1X).1X'.#X~.7X<XkX X(.1X(.~.9X<Xi.q q.JXJX&.T v.v.C.h.+ LXB.KXK.*.J.: e e e S S t Y.3 , U.U.l > j w : 1 3 > k HX$ $.JX",
"/.|.~.~.<X^.|.1X|.|.^.9X<XcX^.1X'.^.^.j.T.z.v @.p.p.Y d.x.$.@.p.PX_ nXKXv.4 LX:.e - e i b 9.+ LXA.KXC.#.0.t.v J.J.PXnXnXk.J.G.JX",
"2X|.`.`.;X/.`.(.'.4X^.+X<XeX`.0X3X(.~.#.PXG.U.#.j.u.j x.z.| |  .G.{ T.J.v.KXT.> 7 O 9 w : PXc.d.S.>.y.%.5.0.nXJ.U.> + nX6.IXPX+ ",
"[.'.].]. X(.~.).-XfX~.'.<X<XOXeXqX}.).3.> LX9.3.O.( w.V.%.7.7.R 7.z.n.S z.T.PX> w : e w Y.K.+.%.M.7.W *.N.l.$ B.B n.3 T.IXS IX, ",
"'.'.|.|.).1X^.|.>XXX~.|.<X<X<X/.UXUX|.OXG.,.u B.f r 3.k ..7.U &.c.l K.2 Y.3 2 Q.h , K w x.j.$.f.$.M.' _ R 7.Y J O.2 Y.T.1 :.B p ",
"rX4X|.'.~.(.qX`.Q.'.2X|.9X-X-X(.$X5X[.2XD H r B.r s O.j v.7._ H $ B.KX2 I.3 I.m = Y.> x C.| | ` =.{ ~ U _ =.o.l | PXIXPX1 C : 8 ",
"dXvX|.+X^./.eX!.(.|.OX|.#X'.oX*X`.*X|.~.w +.r k q i.%.2.M.7.$.k $ n.LXI.PXPX1 w b 2 k B.x.7.7.] U ` 5 U $.%.l.x.+.PX1 Y.B e ; e ",
"dX<X|.vX^.^.<X^.|.|.<X|.|.|.>X|.%X|.'.i G l D 0.v x.$.@.#.*.i.*.T.PXJ.U.U.3 1 C i A.q.A.c.# } 5.W 4.5 ] @._ DXm.$.3.J t.J h p K ",
"dXfX#X#X^./.OX0X#X|.OX[.#X4XeX{.+X'.+Xa F i.A.@.K.d.| #.nXd.d. .,.LX,.2 Y.Y.IX1 w V s.V Z ^ E O.} $.& ] | ;.DX7.| o.l 9.N :.8 I.",
"jXcX6X'.^.(.&X6X:X[. X=X#XVX#X|.|.|.k l q N.2.U 4 7.7.w.$ 4 R.R w.T.j t.S IX, : w q x.q r R ] W 7.] 5 ` 7.HX$ R.7.C.PXk C.k e 2 ",
"<XvX[.|.^.1X1X|.XX[.^.2 |.vX|.|.#X+XV.#.v T ` } 7.R.| #.z.>.DX<.q.:.9.n.1 = 1 3 9 m v.D D ' I Z.} y.7.4.7.;.r.HX=.C.+ j j.KXv T.",
"9X9X*X).O 5X(.'.1X!.!.bX#XeX[.].ZXG.v *.d.` [ =.&.# +.| G.y.# X h.J n.t.= O = T.9 Y.m.s.V ' ! 5 E l.N.5.-.{ M.K.H G.T.Y | $ J J.",
"#XeXI.).O < /.|.*X!.qXtX:X#X`.^.uX$ w +.7.7.] +.$.7.M.M.$ M.$ KXC.C.B.: < < 1 T.e B.w.e.r R 5 ] ] U U U R +.$.> k nX2 %.7.KXn.> ",
"|.vX<X|.^.^.^.|.<X|.kX<X|.|.0XMXx T.Z *.H } & &.k | l.7.k.f.G.x.z.z.> < S p 2 3 h V.5.| V W ^ y.[ W ^ =.y._ N V.p.$ d.%.7.# V.0.",
"'.OX9X'.=X=X~.'.9X[.iX<X'.'.#XH.7 T.>.u.k U GX&.O.@.#.&.#.r.V.x.,.v Y.< B p PXJ PXd.&.7.A.{ N.O.! } <.f.f._ j k.| d.;.*.>.X x.2.",
"+XoXeX-X[.].`.-X,X'.8X>X+X'.|.w q C.7.w.%.R 5 M.U +.k +.M.$.q.C.IXe S b n.: 3 e.4 $.7.$.w.+.M.w.R.7.M.M.+.$.w.C.w.q.7.$.$ PXk w.",
"<X<XvX<X|.|.|.<X<X|.<X<XvX|.:XH.D a 7.&.E ` [ T U =.#.$.v.f s Y.= g z 1 I.2 T.f.p.6.O.s d.M.4 @.Q -.p.o.*...h.nXd.J s l $ 2 | J ",
"-X9XeX9X4X|.[.9XjXaX9XzXcX#X:XMXD s &.E ] E [ _ E -.@.+.d.w q < O UX8 1 IXPXLXm.5.,.w.u Z m.KXj.} r.Z j j.#.v D Z C a H X LX&.:.",
"'.9X+X<XqX[.].<XjXkX#XcXvX<X|.^.r +.M.R R ] ] +.] R w.+.C.w w b < ; e b 1 3 LXw.w.+.C.k r w.w.k $.k q k w.w.w w q w C.7.HXKXC.> ",
"|.>X|.<X< |.|.<X%X,X|.vXvXCX&Xz V r._ R T I #.$.[ E h.j.s w v b O p K P.Y.2 G.#.5.6.x.u.Z 5.q.s s a r V.s k C v z v G.O.c.nXK.3.",
"|.oX#X,X`./.!.8X8X-X#X9X9Xb.rXq F.f.I U E E q.+.U &.j.x.t w v : < 8 C C m T.g.#.*.F.z.=.>.| 3.q y r f V q l J.J.:.i.V.j g.nXJ.k ",
"'.-XfXfX].= !.iXyX[.eX,X9Xe $ q > M.R R ] ] +.+.+.w.+.k n.w w n.b e w w e C.w.w.+.7.+.7.R M.k w w.r w.q q w.C.3 k k k k w.C.I.I.",
"XX9XvXzX|.).[.kXkX_.8X<XvXb.U.C x.l.I l.Q @._ f.v.0.o.s i v v i < h C m C l c.c.&.I %.-.} %.#.v i.c c D ( c 6.z B J a 6.6.6.2 Y.",
"iXmXVXOX|._.[.bXQ.< !.8X9XSXI.P.V.m.} M...q.U y.m.4.g.q a x.A.t < = IX3 F.N nXJX7._ r.*.&.%.@.,.0.Y.7 nXK.w 6.8 < > 7 m C : PX2 ",
"U.U.#X2X'.=X|.PX*Xb = iX9XkXvXB B.w.M.7.k +.7.R w.+...q q.C.w.B.: < B > C.+.3 KX7.+.M.w.+.M.w.B.B.> w LX> w C.e b > e w e b > Y.",
"O 1 |./.XX^.|.>X|.[.2 kXkXc c J u.u.2.7.J M.| @.j.p.f w g.z.l > i z p B.J O.x.d._ @.f 5.4.M.k a 9.:.v Y.: h g.h 1 B.K 8 - O z = ",
"!.=X#X2 >X=X|.-X).'.PXxXW.t u 5.l.| O.7.Y M.+.0.F F y w j v j > w w p 9.n.0.N.%.E | f r.3.v.k q J J ,.:.B h w.b = B K 9 - - p g ",
"!.].0XbX#X[.'.'.`.+XPXyXk j k 7.+.M.R 7...%.%.k r r w.w B w B.> w w b B q.j M.%.] R M...q.+.q.w k k B.w.w.w h.e < b 9 9 e e ; e ",
"< |.2 >X|.XXoXXX{.9XPX%XA.mX6.=.f.M. .| f 4.x.B q q n h J m t.z d 8 S 3 u.5.O.Y { I =.f #.p.d.D a B i a c v K.9 B P.- - 9 9 o g ",
"!.|.PX{.0X#XfX4X>X<XbXvXmXkXP.$.y.M.p.+.r 3.v < w w q 1 j Y.: 8 UX9 , Y.x.*.3.j @. .#.r *.F L nXu < a u 7 U.PX9 > K o UXe 9   UX",
"~.'.+X=XPXbX4XqX+X<X#X|.kXw.UX+.R %.2.M.q.w.q : w q q B.B.I.: 9 ; 9 1 : 2 C.w.w.+.7.e.w.+.r r C.j : k k e : : 9 B e   ; e 9   UX",
").XXXXPXPXPX X^.XX<X'.AXxXk e +.<.N s f.s.k w p C q q x B B p g O h 1 p 1 J.k o.j.5.l s v.q q J.A.p a c 9 p ; C 1 9 g d 8 - o O ",
" X0XbXT.T.wX~._.fX#X-X( 0.l y $.nXk u *.2.k w p K 7 i w S S p O h O h p b K k 6.V.0.v y N.q 7 C v p i w z p ; UXh 9 i 8 p - h < ",
"3XT.Y Y Y F., `.CXXX>Xr w s.9.$.PXC.:.*.x.k w ; e 9 ; 9 < < < b e ; e n.n.e k : > k q w.*.q w w w b B.w B b ;   e 9 ; 9 ; e e ; ",
"V.l 3.3.3.l B.^.E.E.%Xw c s G.;.c.c.F.n F.s w d 7 g O - O O O < g @Xg z z h > d :.l n f f w w v m z x w : O UXo g g O - = h g d ",
"y u B., Y l 2 MXd d x z l y F A ) F 2.7 K q w w w UXO O O O O O UX@XUX9 8 = S 9 C J l r r w t v :.w w w ; UXUXUXUXUXO O 1 * O 8 ",
"q 7 d d Q.B., H.7 7 7 7 3.( q q q q 2.j e q w w w O O O O O O O ; e ; e 9 ; n.e e b k w r w 9.w S 9 w w ; ; ; UXUXO O O 1 1 < 9 ",
"7 7 7 7 }.b b 7 7 q q q c.nXD v m D b 4 g m h C v IX< IXPX3 T.T.J.g o 8 K p p 9 O.3 : g m m 1 v J.9.h m 2 2 J.IXI.Y.PXI.3 1 UXK "
};
