/* XPM */
static char *Free_Converter_com_snowshrubs2_98913845[] = {
/* columns rows colors chars-per-pixel */
"64 91 256 2 ",
"   c black",
".  c gray100",
"X  c #383537",
"o  c #231D23",
"O  c #1D1B1D",
"+  c #242224",
"@  c #262426",
"#  c #6B666B",
"$  c #393739",
"%  c #494749",
"&  c #464446",
"*  c #212021",
"=  c #545254",
"-  c #2B2A2B",
";  c #7F7D7F",
":  c #4F4E4F",
">  c #4D4C4D",
",  c #403F40",
"<  c #787778",
"1  c #616061",
"2  c #565556",
"3  c #C3C2C3",
"4  c #BDBCBD",
"5  c #B7B6B7",
"6  c #B0AFB0",
"7  c #ABAAAB",
"8  c #9C9B9C",
"9  c #272128",
"0  c #342F35",
"q  c #2A262B",
"w  c #2D2A2E",
"e  c #3D3A3E",
"r  c #443F46",
"t  c #444245",
"y  c #A7A6A8",
"u  c #A1A0A2",
"i  c #9E9D9F",
"p  c #CECDCF",
"a  c #B3B2B4",
"s  c #A3A3A4",
"d  c #2B2D2C",
"f  c #004000",
"g  c #152515",
"h  c #182118",
"j  c #1E271E",
"k  c #232A23",
"l  c #1B201B",
"z  c #262C26",
"x  c #212621",
"c  c #292F29",
"v  c #1F231F",
"b  c #464846",
"n  c #232423",
"m  c #272827",
"M  c #323332",
"N  c #363736",
"B  c #818381",
"V  c #989998",
"C  c #025A00",
"Z  c #025600",
"A  c #015000",
"S  c #014A00",
"D  c #014500",
"F  c #014300",
"G  c #024300",
"H  c #046601",
"J  c #023D01",
"K  c #044D00",
"L  c #044A00",
"P  c #034100",
"I  c #044202",
"U  c #043602",
"Y  c #063D03",
"T  c #074E04",
"R  c #0A6406",
"E  c #095305",
"W  c #0A5806",
"Q  c #084805",
"!  c #0D7609",
"~  c #084005",
"^  c #0F6E0A",
"/  c #0C5D09",
"(  c #0A4307",
")  c #0C4D09",
"_  c #0A3708",
"`  c #13630F",
"'  c #1F7B1A",
"]  c #102D0F",
"[  c #132812",
"{  c #344A33",
"}  c #044000",
"|  c #054601",
" . c #093B06",
".. c #0E460A",
"X. c #11560D",
"o. c #0C3309",
"O. c #10420C",
"+. c #14500F",
"@. c #134B0F",
"#. c #1C6917",
"$. c #1A5516",
"%. c #174713",
"&. c #0F300D",
"*. c #1D491A",
"=. c #173015",
"-. c #274B24",
";. c #1C2C1B",
":. c #394A38",
">. c #21631B",
",. c #12350F",
"<. c #21501D",
"1. c #518B4B",
"2. c #2F4C2C",
"3. c #143D0F",
"4. c #265820",
"5. c #183714",
"6. c #326D2B",
"7. c #1D3F19",
"8. c #3D4C3B",
"9. c #212920",
"0. c #30562A",
"q. c #2B322A",
"w. c #2F352E",
"e. c #42693B",
"r. c #496D42",
"t. c #1E3519",
"y. c #557B4C",
"u. c #395233",
"i. c #253C1F",
"p. c #3F5938",
"a. c #64855B",
"s. c #5F7E57",
"d. c #191D18",
"f. c #527249",
"g. c #354231",
"h. c #748F6C",
"j. c #444B42",
"k. c #939A91",
"l. c #ABB2A9",
"z. c #2D3C28",
"x. c #718D68",
"c. c #6F8866",
"v. c #738C6B",
"b. c #788F70",
"n. c #809778",
"m. c #8FA388",
"M. c #40493D",
"N. c #242723",
"B. c #A6AFA3",
"V. c #A6A9A5",
"C. c #2B3826",
"Z. c #6D8564",
"A. c #728A69",
"S. c #333D2F",
"D. c #7B9372",
"F. c #72866A",
"G. c #849B7B",
"H. c #899E81",
"J. c #7B8D74",
"K. c #383D36",
"L. c #8D9889",
"P. c #B1B6AF",
"I. c #394534",
"U. c #778A6F",
"Y. c #99A793",
"T. c #25321F",
"R. c #44543C",
"E. c #5F7156",
"W. c #63745B",
"Q. c #708267",
"!. c #434E3E",
"~. c #6B7B63",
"^. c #818E7B",
"/. c #798573",
"(. c #3E443B",
"). c #798175",
"_. c #343633",
"`. c #8F918E",
"'. c #8B8D8A",
"]. c #868885",
"[. c #415039",
"{. c #4D5E44",
"}. c #6B8060",
"|. c #58694F",
" X c #5B6C52",
".X c #68795F",
"XX c #6F7E67",
"oX c #6A7365",
"OX c #70796B",
"+X c #4A5A41",
"@X c #757C71",
"#X c #9A9F97",
"$X c #3E4A36",
"%X c #526248",
"&X c #56624E",
"*X c #5A6652",
"=X c #5F6B57",
"-X c #6E746A",
";X c #56664B",
":X c #697C5C",
">X c #31392B",
",X c #475140",
"<X c #667758",
"1X c #4A5442",
"2X c #636E5A",
"3X c #505849",
"4X c #68725F",
"5X c #607051",
"6X c #6A775E",
"7X c #2A3123",
"8X c #647454",
"9X c #535B4B",
"0X c #4E5547",
"qX c #5E6359",
"wX c #656961",
"eX c #444642",
"rX c #6B6E68",
"tX c #565D4E",
"yX c #4C5146",
"uX c #4A4E45",
"iX c #55594F",
"pX c #51544C",
"aX c #5B5E55",
"sX c #2B2E24",
"dX c #5E5F5A",
"fX c #2E2E27",
"gX c #30302F",
"hX c #3D3D3C",
"jX c #515150",
"kX c #434342",
"lX c #686867",
"zX c #666665",
"xX c #636362",
"cX c #302E2B",
"vX c #2C2A28",
"bX c #2B2726",
"nX c #6F6E6E",
"mX c #6C6B6B",
"MX c gray66",
"NX c #979797",
"BX c gray58",
"VX c #7B7B7B",
"CX c #747474",
"ZX c #717171",
"AX c gray37",
"SX c #5B5B5B",
"DX c gray35",
"FX c gray29",
"GX c gray25",
"HX c #3A3A3A",
"JX c gray18",
"KX c gray16",
"LX c gray15",
"PX c gray13",
"IX c #202020",
"UX c gray12",
/* pixels */
"J.XXH.V I.n.k F.F.3Xv.` ~.G.G.4 6 4 W.4 b.k.! m.H.y D.8X Xh [.c.b.P.4 P.MXG.D.b.8 #.a D.+X5XtX:XXXH.H.G.4 P.p 4 5 H.8 V MXH.8 V ",
"s k.Y.8 CXb.[.H.H.+X Xy.G.D.n.Y.3 4 `.3 c.^.1.P.`.^.m.v.iXg.+X:XA.m.y 3 4 l.Y.k.@Xm.Y.E. X5X}.Q.BXB.L.#XH.5 Y.p 5 B.a a 6 Y.8 a ",
"6 6 6 u 7 F./.m.m.4XoXn.D.D.E.H.y 7 a P.v.J.G.3 k.D.n.F.4.%XR./.v.Y.u 3 5 4 3 4 :X3 D.%XQ.:Xc.y.L.`.s s /.4 n.p a p 4 4 '.s 6 5 ",
"i 6 5 5 V.G.NX7 MXVX'.H.b.n.[.`.i V 4 G.v.#X5XV.G.MXn.~.H 5X XV.A.4 P.3 7 P.3 4 U.8 H.G.5X.X8X/ m.=Xa 5 BX3 V 3 V.p 7 l.XXNXa a ",
"6 s 5 3 H.b.L.a 7 BXL.BX8 %X+X-X5 L.4 Z.D.y  XJ.n.5 L.D.D 5XJ.s x.Y.m.3 a m.a Y.k.G.7 H.S.+X X<.l.<X6 a L.MXy 3 H.7 7 U.#XMXi s ",
"B.s.a 3 H.h.m.B.7 s G.`.#X{.Z. XP.v.F.%Xm.7 }.G.m.6 u m.4.W.H.NXH.n.m.4 6 H.L.n.V n.V.n.>X+X{.j.8 n.i L.m.).Y.a H.BX4 ^.5 3 s L.",
"n.W P.6 MXG.V.G.a MXG.v.x.x.G.x.G.5XE 8.V.V.H.a MX7 MXBXh.b.G.V s NX4 5 '.MXv.n.G.A.A.v.9X~.R.:.E.G.`.h.V. XH.V V V 3 3 7 p 3 h.",
"Q.h.m.F.7 G.i L.6 i b.V x.:XD.v.k.}.y.}.7 m.5 5 a 3 MX^.#Xk.G.8 m.8 5 6 6.s ).<XXX8X&X=XuX*XxXW.:XG.H.D.u L.P.s ^.BX6 4 5 MX5 x.",
"U.5 H.XXu G.BX8 #XL.h.6 A.}.A.^.k.n.Y.Y.MXH.4 4 a p 7 n.L.].Y.L.H.`.i NXH @XrX=XF.:XtX-.$.3XnX^.n.G.n.L.].6 B.s }.i MXa k.V L.v.",
"n.NX7 7 V G.V NXc.G.G.y ~.G.v.NXG.G.G.V MXMXMX4 MX4 a 7 v. Xy A.NXVX'.VXH [.9X; G.v.~.H H  XSX'.G.G.VX'..XMX~.G. XMXV.a  XMXv.A.",
"' V 5 u V n.s H.+Xb.; V 8XH.c.oXH.%Xk.u 6 m.6 y a a 6 6 x.; B qXB ; ZX4X4.;XZX'.Z.W.E.y.a.6XlXH.D.b.oXJ.5X7 ].c.3XMXD.i Z.i 8 <X",
"6.i u V k.m.s D.R.v.< ).8Xn.^.|..X+X].< i G.L.L.B.k.s #X/.^.AXzX).ZXaX%X0X6X-X; yXE.E.aX1.XXOXv.XXb.@Xx.}.u y m.=X5 J.i c.k.W.:X",
"'.BX; V G.MXNX~. Xv.6X5X~.v.V ~.:.h.~.,XVXG.|.v.G.A.NXG.nX5X> VXv.3X3Xp. X*X9XxX, ~.~.>XH 6X~. XnXG.'.v.G.V V.3 h.3 V MX5XG.} v.",
"^.wX'.m.F.m.H. X.X:XtX XVXA.^.'.W.H.'.:XqXF.+XtXB v.J.].2 pX1X< F.R 0X+. XW ZXxX%X1 ~.;X1.R.8X%XB G.H.oXB 7 Q.a ].Y.u m.8Xx.s.~.",
"x.+X).x.<XD.n.W.Z.5X$.|.; D.x.V b.F.V v.yXXXlX&X< F.h.nXr % S.wX2X$.$.Z ;X>.< xXZ.SX~.;X-X{.}.}.`.n.n.SX; #X4XMXxXA.'.G. XG.^.U.",
"v.E.~.~.8Xx.G.A.v.|.H 8X; G.x.G.h.9XVX~.9X.X'..XZX~.A.!._.% 7X,X8.0XR W 9X~.ZXzXv.zXXX0XFX~.c.G.'.h.v.FXVX~.< BXeX XnXn. XBXXXn.",
"x.`.'.`.Z.:XNXx.).[.f.B XXL.~.b./.|.M.E..X+XXX<XXX4X%X( Q M.gXS.3.iXe.p.1 U.< mXwX~.CXW._.XX{.U.U.:Xv.:..X9XlXCXW. X8X:X}.~.Z..X",
"^.'.i '.F.@XL.^.@X;XwX1 oXB Q.&Xe.tXq. X2XS.5X}.oXu.(.@.+.S.kXq.F 1X1 3XdXF./.@XZXE.qX4Xw..X+X<XU. XF.!.R.(.0.iX2X&X4X2Xn.a.h.|.",
"'.OXV ~.XX'.G.'.~.A.iX& OX1 .X>XQ { C.|.1XC.|..X+XQ z.{ 8.7X> ;.S R.1 0X9XZXU.A.< ,XyXAXkX X|.<X< 9X~.9Xk _.Q I.eX& 1 nX'.n.A. X",
"/.B n.Z.F.H.L./.XXF.;XCXF.yXM.I.D E ~ +X[.I.+XM...S .._.> >Xt U C *XoX=X|.-XOXoXjXN jXmXzX+X3X-X1 j.E.0X9._.t.q.hXe hX-XnX`.~.qX",
"|.B  Xx.x.n.].|.=X<X}.`.v.{.M R.<.>.>.S.,X;X[.w.O.$.Z gXkX7.% *.H 6..XF.:X<XnX1 GXhX: nXZX[.0X1 > *.9X4.w.i.KXm t 0Xg.Z.mX'.F.CX",
"0XE.R.b.b.A.nXaX9X8Xb.VX.X|.: 1X3X|.5X7Xu. X!.: [.[.X.GX$ Y R.9X/ R 5Xh.v.5XnXCXAXb FXzXaXR.3X, 2.~ { L M | N.w.% |.|.c.< G.G.].",
"=X5X%Xk.'.}.tXCX|..X/.6X3X XxXpXSXDX&X(.@.$XK.xXjXeXp.> _.=.X.aX2.e.5Xh.G.-XzX'.< M.2 DX!.0Xb d W i...5.z A q.kXpX+X@XOX2XG.H.b.",
"~.<X<X'.].Q.&XlX<X.Xe.%X!.5X2 = jXr !.9X+.I.7.: HX, GXb 7.;.~ j.K.6X{.v.G.`.CX; @X1XdX% S.0.N z Q i.S vX=.O.K.j.iX[.'.; 4XH.b.J.",
"8X~.8X~.W.v.8X8.5X*XZ [.R.8XGX% % $ { 9Xu.tXP q.gX% T._.L G c q.7X8X:.A.n.7 '.xX8X8X0XM z S c w x P P 9.P w.t 8.SXiX8 V `.'.~.'.",
"5X<X6X8XI.:X}.{.+X!.S ,X[.;X% e kXN ..j.%.,Xf $XFXSXS.k t.S d z I.6X*X}.XXs H.1 5X<X>XN.N.D z q UXF J k F e DX%XxX; 8 i 8 J.Z.J.",
":X6X.X;Xz.6..X}.,X<.A M.[.eXFX7.GXi.U >XO.*.f !.> AXj.9.w.K S.7.+XQ.].).F.B H.rX6. X7X9.,.&.@ n ] ,.5.w.7., DX=XmXBX].BX].x.h.x.",
"4X.X X,XR.H  Xv.9XR W w.:.$ :.K :.G l x >XI ( _.HXjX> gXz.Q [.C u.v.].'.H..X]..XH 0X:.T.} h IXg } x q.HXe eXFXAXCX'..X'.~.A.A.A.",
"K.#. X!.|.f..XrXrXr.u.GX:._.:.i.:.F + - ) u.p.: yXS.> , 3.t.[.H X.Q.&X@XH.-XqX&X2.HXw.( [ _ v  .L N.3.S.FX XDX4XCXU.F.H.`.XX:X:X",
"3.>.&X3XZ.mX4XqX< dX0.j.(.7.S.K.S.,.w M ~ : uXFXtX5.K.$ f m yX>.+.oXR.:XD.-X;X,X2.%.5.A PXG k S K j F C.b {.AX@XDX}.h.XXL.Q.5X=X",
"H =X9X XA.= SX XnXFXC :.GXS 9.:.7XN.M N q b d KXb P 9.9.} c = 9XM.|. XU.A.5X~.[.S H C K 7X} 7XK K h } c w.>XSXVX:.~.v.,X.Xv.8X|.",
"H aX5X~.*X1 nXc.lXb 0.: & D N.3X1Xd b GX_.eXhXLXq.} M N.f fX& aXiX^ +X'.b.I.<XX.S 2.C L fXG k K K l F g.N !.1 <  Xv.b.kX3X:X8X` ",
"$.& 8X=X9XqX1 Q.1 : 3XiXuX5.,.j.tXw hX$ (.N HXgXj | , ] ,.%.(.u.0.#.{ B W.z *X~ <.-.C A 5._ v S K &.5.M.N (.> DX/.Z.E.iX$X{.8XX.",
":.C. X9X X X> DXSXAX X,X1XT.} w.,X9.m JX:.m gX_.9.K I.~ >XH :.T H 3X8.~.tX_.9X7X[.H E Z J h IXY L } 9.{ gXgXK.GXVX5X9X~.R.:.5XR.",
"uXZ  X< .Xc.W.: DXzXDXHX9X| t.b +.U n HXGXLXN  .j Z W C.:.H j.C u.yX1 A.nX;X XyX@.2.;.| P O * g G ;._ ) w.- ;X2 xX8X; Q.SX;XtX;X",
"4.#.0XOXXX/..X: FXAX: 7.{.*.q.2.D *.N kXe JXHX_ LX$.$.<.R.H 4.6.mX%XSXXXiX3X:X{.A M.5.} } ] l [ } 5.G @.hXd 6XDX0.E.f.=XiX&XtX4X",
"T  XkX=X~.mX X2 % > { C [.kXJXT f uX> , $ _.HXc d 8.:.R [.H R ;X.X|.GXAX>XHX~.R.Z 8.T } } I h I } L P w., c ;XyXQ |.` u.R.u.+Xf.",
"C aX= <X:X& 3XAXAXkX) C C.eXJXG F FX: gXgXX e t HXj.!.H >XH 0.>.#.%XN jXI.& 4X,XC 8.C } } P h D } A } @ JXv %.1XA 0XC ) ,X( ) / ",
"*.0XqX6.1X3XI.uXwX$ %.$.M *.5.f ,.j.(.w LXq.7.uXjX<.$X>.$XH uX~ O.dX0 4.R.j.0.4.A _.K F F } l ,.F S } l ] o.f <.%.4.A O.<._ +.4.",
"C.tXE.W >X.XS.K.3X_.:.,XkXT L ~ c :.>XT.z q.~ R.1XE 1X|.E.^ u.z.w.xXz.T ,X:.T Q J ;.G Y Y } g k Y Y P h J Y J K C.E L S.Q C.9X+X",
".. X.X-.!.wXkXeXz.g.8.: FX-.D C.X S.9.~ c HXi.[.+.0.W.aX6Xe.` yXcX9X) t.M.:.S [ J T P ;.;.} _ q ;.;.P h F ;.[ t.z i.Z !.2.& 1 $.",
"$.+X=X*XxXjXyX-.T.[.g.X K.b 5.$ _.sXv _ 5.& X g.Z *XXX9X6.wXH &Xk I.A t.-.I.K =.| +.o.=.=.} G c LX+ o.&.} =.v q k i.Z <.iXkXjXQ ",
"=X!.1XQ.CX+XyXE d 1X7XC.x { _.M d * IXh P u.e _.H ~.f.2X^ +XC pX- q.) L K >XK C L 7Xh I I G G q.q * h P } I N.o c S ) L 9XhX1XS.",
"; rX0XQ.CX;X> -.m b N.$Xv O.gXn PXIXIX* F R M.j.H W.` XXe.X.Z K.hXd i.A D k D C G LXl F F G P c q * O G P F N.o - A 2.-.9X= W.2 ",
"@X'.9X|.lXaX2.hX=.X @ g.,.O.5.v PXIXIX* 5.T 4.,XC 9X/ e.u.X.A %.hXgXvXL o.v o._ P j h o.P ,.o.z =.UXv | D G ,.] N.3.HXFXpXDXOX1 ",
"5X'.9XI.lX2 S c P T.d j } M.} k KXIXPXv T.n E :.Q ,X+XS L R.A H i.T.h Y l * h l Y * + l ~ @ h ;.I g ;.S Q  .Y I j q.M DX& % 1 +X",
"5XJ.W.g.< = G C.G ~ t 9.t.t t.gXd IXm 9. .+ i.:.C.R.5XC -.,XC C E  ._ [ @ x * * g * d @ t.d * U t.Y | K t.;.;.t.m X DXQ.S.2 xX` ",
"5X~./.&XrX: 7.7.3.3.GXS.$ z.JXd - IXLXx O.3.K.$.K.!.|.>.pX$.@.L ..O.D l @ =.* * ] =.7.d 0 7.v _ fX3.%.*.gXLX=.JXHXkXlXv.(.1 OX>.",
"<XxX'.; tXFX:.} q.e d , GXF c j m IXUX* d T 8.H :.% yX9X9XZ 7X} sXsX} 9.UXG IXIXP G P c HXC k z - 0 _.8.$ q.A c b > : ~.1 SXZ.# ",
"v.1 b.nXQ.*X) i.gX% hXM K.F v IXm IXIXKXm 2.,Xe.w.jX*X` !.2._ } vXsXP k d.D IXIXP F P q.!.C GXGX- hXN M.uX!.C k N b $ .XB SX$XzX",
"=XnXx.9XE.R.O.q.5.(.HXn c 5.&.N.m LXn - gXuX4.wX!.AXp.C w.K.D } + 5.&.v &.o.IX* } 3.f S.tX<.FXjXS.% b K.I.!.4.GXN N hX-XV SXK.nX",
"GX; v.[.[.S.>Xk ~ >Xm IX9.c I c KXM JXKX, p.H +X X&XL Y ;.T.} } g } h IXG l IXIXG 7X~ :.SXSXFX2 R.2 {.z.C.:.uX= GXgX2 ZXV zX1 ; ",
"AXD.].iX|.zXg.gXM.$Xd q PX .;.d d N _.w.:.H p.@.dX` Z T. . .h } Y g Y h D IXIXO A 9.2.M.& nX&XlX1X*X) L %X|.>Xw.hXg.2 ZX'.VXxXB ",
"2 E.r.kX%X1 3X> & ,XN t.l f N.d M JXkXK.:.4.-.S 0.C Z 5.D f ] } _ ] _ l &.* IX,.O.c 8.$.uX-X8XpX[. X<.%.*X;X$Xc > (.: nXSX).mXnX",
"GXI.W S.[.hXzXSXe : GXI h P k d N JX% , :.9XW K W C ) S ~ P I } h I h IX* IXIXA x _.:./ 3X|.8X>XR. X:.8.u.yX!.w.0XkX: AXN ~.-X8.",
"& w.Z M.1XHXSX& % : hXD h F c d hXhXHXN 7X=Xf.K C C 2.A t.} D } h D UXIX* IXIXA @ gXq.p.hX1X XI.W.E.@.=X/ yX>X>XS.uXSXt HX<XW.( ",
"& I.0.;XdXcX% GX2.-.q.,.l ,.gXKXGXN gX% (.: 0.A Z O.M.7.k S o.} v ,.o o IXIXIX_ 5.hX>XpX& SXqXS.:X{.C 0.H 5XuX!.[.9XjXj.> |.[._ ",
"kXR.+X XzX7Xi.hX~ I 9.;.UXPXJXm kXKXKX1X{.z.) X.Q z :.i.9.( h P j v j j IXPXIXh T { 8.yXpXSXR.g.<XR.R ) Z 5XAX0X X0XN 9X= $X7XS.",
"& 1X+.{.aXg.J z f t.N. .IXo m - b KXx +.$.W 2.{ i.g.S...z T.UXG  .l  . .IXLXIXv A ) M.3X[.K./ &XOX%X0.2.K g., N &X>X9.yXj.c g.& ",
"FXuXO.*.M.(.7.c 7.cX- o.n n M HXhX- S.S Z H 4.-.g.j._.A 7X5.IXo.G h F _ IXLXIX9.|  .$.1X{.R.#.%X6.<XjX4.A M S., 0X>Xz r <.S.(.b ",
"{ g.S.J i.HX, N _.- d UXm m hXFXX @ u.L X.X.H W 8., z.) 7XP PXv f l G l IXo IXN.P k W R.=Xb.E.1X^ 2X{.H Z { R.= u.I.- C.Z :.C., ",
"( Q j.D Y , e gXgX+ KXo KXKXM FXt z ..L u.{ H C 8.M ) z.c f z bXf l P * IXo IXKXP gX0.;X9Xn.6X Xe.+X^ H Z ` R.GX..q.v  .A S. .N ",
"F $.$X<.*.HXgX@ KXUXm IXn k N b yXM.7.Z (.-.%.C S.5.A e c G w.,.3.&.o.* + ,.v 9 ,.S.4.*X-.&X+X6.aX*.$.<.C C 4.>XF l ] S S k f 7.",
"+.+X>X[.{ KX;.IXm IXKXIXIXk GX2.R.iX{ Z t.Z N C t.G L 2.S.K K...7XD l IX;.~ 9.l j i.A iXF w.w.C I.A I.{ H L A >XK g P K Y x P F ",
"+XiX,XK.O.l  .d.m IXm PX@ 9.N Q 8.(.$.K | A (.C T A L / ,XZ :.{ q.F d.IX .t.k _ x ~ 5.,XS I.I.p.w.C +.+.C L A k Z ( S G g IX} F ",
"u.(.aX(.U &.o.&.m IX=.N.JX,.z  .*.3.H C @.L 4.H $.Z C >.9XH *.$ k &.&.v O.cX9.S w.3._.<.4.&X*XdXg.%.Z Z C A K ,.Z A | } O IX} 3.",
"} c 1XFXm G UXD KXIXF q.HXG k n C A R H >XK H H :.) H u.3XH ) j * KXA k d JXj ) { _.:.S iXf.1 +XR.fXL L H C K A K } P } IXIXP fX",
"2.M.3.K.M P z G 7XIXD _.GXP I.KX0.S u.H ( L H H @.u.H E 8.A R.N.KXI.A d KXm j { E sX>Xf tX#.K.X.8.w.L L H Z S A K } P } d.* P sX",
"!.1Xf S.7.} 3.,.3.v ,.w.K.} <.(.9X5.0.H C K H C Z 4.C >.{.A 0Xq q.-.3.7._., q.-.$.S.I.L 9XH >XC *.%.Z Z C A 3.3.S } &.P &.UXo.3.",
"{ :.Y :.G } } N.G 9.q - z } W R.0X7XA H H C H C W Z L 2X8XW 8.M g.A 7XA { = 8.C :.R.R.C 3XH [.Z K C C C L L 7XN.Y } h Y G g l } ",
"z S.;.K.L } [ IXF N.- KX9.F 0./ K.Z C A C H H C { { A 6X&X+X|.;X3XC I.C Y M :.A T [.T K R.0.q.D { C K Z A G c q ;.G Y g P Y IXk ",
"&.q.=.k | } PXn o.5.c N.fX&.K.Y 5.$.C G O.H H H <.M.*.6.,Xj.%X9XuX4.(.4.4.3.j.5.<.+X<.A +X9X>X7.M.<.L 3.3.} c 5.+ &.G ] } o.* 9 ",
"F T.F h } } KXKXl F c 9.>Xx w KXF R.C } N.H H H A :.C.C { K.R.0Xb : t > =XA : GXqXE.9X^  XE.R.> :.(.K k sXP 7XF IXd.P P P l * IX",
"D h P h } } KXKXIXD gXIXI j JX!.L yXC } >XH H H L M.) C [.SX Xc.lXr SX> DXS = ZXn.Z.3Xa.~.5X;X= j.g.K 9.KXG sXF IXl G P G h o IX",
"] j G l G D + + IX,.JXIX7.N 3.,XZ $.C } w.H C C C <.A <.,X6.+X6X-X<.0XuXuX-.3XXXG.G.E.J.:X.XxX=X$.w.D LX+ ] 3.] N.o.] } ] l ,.O ",
"* N. .[  .Y PXIXPXk - PX>XI.K :.W E E P i./ C Z H R | u.&XR 8.1  XC :.0X+XaXtX8XA.n.h.W.5XoXlX XE t. .;.g g Y h k Y g P h g Y [ ",
"* PXg Y g h LXIXLXm LXLX) O.D S.{ i.z.L / z.C A H H i./  Xr.9XZX+XC !.SX<XZXmX.X<XQ.b.[.5X9X4XI.i.~ j  .Y Y [ _ l g Y G _  .[ Y ",
"n IXUX_ ] @ @ IXKX@ JXLXO.D &.%.<.cX7.C H 3.A <.C C hX..iX1 $Xp.S.4.aXDXoXxXZX.X%X5X:X X6X<.6.7X,.o.5.L P o.h G h ] o.o.G P O _ ",
"q IX* h I KX* IXLXl gXd 9.A c C C T.C H X.) ..(.S K 2.N.2.2 d ~ 9.tXzX> lX&Xr.|.1X~.<Xv.~.C R 7X( h T K } l h G h I l l } G d.h ",
"q IX* UXD KXIXIX* j KXN n A hXC C  .C H 2.2.{ d f L X.bXQ t w.J j tXSXe lX8XR !.*X'.c.:XE.C C w.2.v C K } d.UXG h P d.d.} G d.O ",
",.IXIXIX,.n UXn n K.KXw v *.$.7.*.D Z C 7.X *.o.5.A A %.%.M %.7.JXyXt 3.b 1X+.z.*X@XF.&X8.C A w.FXq.Z K F o.UX,.l } o.&.G ] O UX",
"Y IXIXPXN.IXn m m FXd gXgX!.W C._._ ( @...;.) Y t.) ) C _.z | K.eX% K.) c M !.sXpX3Xf.9XK.X.A K.> M ..K ~ Y [ x [ P Y G Y [ g * ",
"g IXIXLXo IXm n KXt d j.% iX0.@.N z T.{ 0.I 0.t.Q 2.2.A gX9.=.& 9XGX$Xu.$ M.9X7XFX0X`  XuX2.E 8.!.z C.K T.[ Y v Y P [ D [ Y Y l ",
"o IXn d ] IXn UXM M z <.hX9X,XZ w.7.5.-.2.A 0.(.4.K.eX7.c c X : j.HX1XpX> yXuXO.M.dXC 6X4.hX4.4.S.&.7.K x O _ h _ o.O ] PX,._ o.",
"IXIXm c F UX* IXN JXw.( 7XM.u.W t.C A J f ) A &X[.q.kXN KX_.hXkXJXhX& u.p.% r ) g.xXH f.H i.u.C 9.f A S d.d.d.O d.d.UXo KXq l G ",
"@ @ JXw I j m @ JX& = p.M.>X:.2.| Z A  .f u.Z &XX.HXb $ m N - - @ uXJX( E GXb 2.T.tXC ` H | +.T h J A P d.UXd.O O O n @ - - j G ",
"JXgXkXFX2.hXgXJX% xXnX= xXj.pX> *.0.o.+X] hX3.(.*.GXHXHX, kXGX, kXw.d.f 3.7.-.*.yXyXo.Y <.*._ -.N 7.,.7.K.HXkXgXM 0 GX_.N d v 5.",
"hXhXDXlXxXDXN hXlXZXmX, nXmXmXSX= # w ; q X w KX> t $ % DXjXmXnXnXw LX+.0 Y Y Y ZXb q r 1 1 0 = SXt 0 2 nXAXnX1 nXmXlXt GXd + 0 ",
"jXFXSXxXmX1 FX> AXDX: & DXnXVXCX< ].VXZXjXjX& M FXzXmXlX2 1 VX].].B < aXkXS.K.K.jX: DX8 3 u AX2 xX: = B u < VX7 3 5 ].jXHXM , r ",
"> : nX].`.].B CXzXjX, : AX< `.].B NXy B CXVXlXFXxX`.i '.DXlX`.i s 5 y ; xX2 FXr 2 CXnX'.MX'.AX2 VXmXmX'.BXnXCXs a 7 '.2 N FXlXjX",
"GXFXVXMXMXMXMX'.ZX= GX= ZXVXV '.VXV MXV VX'.VX= VXMXa V SXxXV MXa a MX'.VXxXb HXxX'.xX= xXSXb = '.VXZXVXZXSXZXVXVXVXVX= HXSXVX= "
};
