/* XPM */
static char *Free_Converter_com_brownbrickd_48483844[] = {
/* columns rows colors chars-per-pixel */
"64 91 256 2 ",
"   c black",
".  c gray100",
"X  c #543C1C",
"o  c #382C14",
"O  c #28200C",
"+  c #010100",
"@  c #030301",
"#  c #020201",
"$  c #0A0903",
"%  c #100E04",
"&  c #080702",
"*  c #191607",
"=  c #060501",
"-  c #151206",
";  c #070602",
":  c #0F0D05",
">  c #0C0A03",
",  c #131005",
"<  c #231D0A",
"1  c #050401",
"2  c #1E1808",
"3  c #1A1507",
"4  c #161206",
"5  c #241D0A",
"6  c #1C1708",
"7  c #261F0B",
"8  c #1F1909",
"9  c #2C240D",
"0  c #1B1608",
"q  c #251E0B",
"w  c #171307",
"e  c #27200C",
"r  c #201A0A",
"t  c #312810",
"y  c #060502",
"u  c #26200E",
"i  c #130F05",
"p  c #191407",
"a  c #29210C",
"s  c #2C230D",
"d  c #221B0A",
"f  c #141006",
"g  c #31270F",
"h  c #271F0C",
"j  c #2D240E",
"k  c #2F260F",
"l  c #2E250F",
"z  c #201909",
"x  c #0E0B04",
"c  c #29200C",
"v  c #1B1508",
"b  c #2B220D",
"n  c #30260F",
"m  c #20190A",
"M  c #2C230E",
"N  c #342911",
"B  c #312710",
"V  c #2B220E",
"C  c #302610",
"Z  c #372C13",
"A  c #362B13",
"S  c #332912",
"D  c #372C14",
"F  c #29210F",
"G  c #040301",
"H  c #110D05",
"J  c #0D0A04",
"K  c #30250F",
"L  c #322710",
"P  c #161107",
"I  c #332811",
"U  c #2F2510",
"Y  c #342912",
"T  c #3B2E15",
"R  c #352A13",
"E  c #372B14",
"W  c #2B2210",
"Q  c #050402",
"!  c #3D2E13",
"~  c #3A2C12",
"^  c #392B12",
"/  c #362911",
"(  c #3C2D13",
")  c #3B2D13",
"_  c #3F3016",
"`  c #3C2E15",
"'  c #392C14",
"]  c #332712",
"[  c #3A2D15",
"{  c #3B2E16",
"}  c #3A2D16",
"|  c #3A2B12",
" . c #483517",
".. c #3F2F14",
"X. c #413015",
"o. c #423116",
"O. c #0C0904",
"+. c #413116",
"@. c #433217",
"#. c #392B14",
"$. c #362913",
"%. c #413118",
"&. c #3E2F17",
"*. c #3F3018",
"=. c #433115",
"-. c #473417",
";. c #443216",
":. c #4D3819",
">. c #4C3719",
",. c #463317",
"<. c #402F15",
"1. c #4D381A",
"2. c #4A3619",
"3. c #4F3A1B",
"4. c #493619",
"5. c #4E391B",
"6. c #483519",
"7. c #473419",
"8. c #49361A",
"9. c #48351A",
"0. c #453319",
"q. c #433219",
"w. c #403018",
"e. c #3D2E17",
"r. c #44331A",
"t. c #3F2F18",
"y. c #4E3819",
"u. c #533B1B",
"i. c #4A3518",
"p. c #573E1D",
"a. c #513A1B",
"s. c #533C1C",
"d. c #50391B",
"f. c #443117",
"g. c #523B1C",
"h. c #4C371A",
"j. c #463218",
"k. c #513A1C",
"l. c #4B361A",
"z. c #4F391C",
"x. c #463319",
"c. c #4D381C",
"v. c #47341A",
"b. c #583E1D",
"n. c #553C1C",
"m. c #52391B",
"M. c #5C401F",
"N. c #593E1E",
"B. c #563D1D",
"V. c #5B401F",
"C. c #5D4120",
"Z. c #5A3F1F",
"A. c #573E1E",
"S. c #50391C",
"D. c #5B4020",
"F. c #543C1E",
"G. c #533B1E",
"H. c #4A351B",
"J. c #4C371C",
"K. c #634421",
"L. c #543A1C",
"P. c #634422",
"I. c #604221",
"U. c #5F4221",
"Y. c #614322",
"T. c #5E4121",
"R. c #5C4020",
"E. c #5A3F20",
"W. c #573D1F",
"Q. c #553C1F",
"!. c #6F4A25",
"~. c #6C4824",
"^. c #694723",
"/. c #704B26",
"(. c #6B4824",
"). c #674623",
"_. c #624322",
"`. c #784E29",
"'. c #84522D",
"]. c None",
"[. c black",
"{. c black",
"}. c black",
"|. c black",
" X c black",
".X c black",
"XX c black",
"oX c black",
"OX c black",
"+X c black",
"@X c black",
"#X c black",
"$X c black",
"%X c black",
"&X c black",
"*X c black",
"=X c black",
"-X c black",
";X c black",
":X c black",
">X c black",
",X c black",
"<X c black",
"1X c black",
"2X c black",
"3X c black",
"4X c black",
"5X c black",
"6X c black",
"7X c black",
"8X c black",
"9X c black",
"0X c black",
"qX c black",
"wX c black",
"eX c black",
"rX c black",
"tX c black",
"yX c black",
"uX c black",
"iX c black",
"pX c black",
"aX c black",
"sX c black",
"dX c black",
"fX c black",
"gX c black",
"hX c black",
"jX c black",
"kX c black",
"lX c black",
"zX c black",
"xX c black",
"cX c black",
"vX c black",
"bX c black",
"nX c black",
"mX c black",
"MX c black",
"NX c black",
"BX c black",
"VX c black",
"CX c black",
"ZX c black",
"AX c black",
"SX c black",
"DX c black",
"FX c black",
"GX c black",
"HX c black",
"JX c black",
"KX c black",
"LX c black",
"PX c black",
"IX c black",
"UX c black",
/* pixels */
"O O O O O O O O O O O O   O O O O O O O O O O O O O O O O O O O O   O O O O O O O O O O O O O O O O O O O O   O O O O O O O O O ",
"] X.j. .j.j.j.j.j.j.=.O   O B X.X.=.=.=.=.=.=.=.=.=.=.=.=.X.X.$.O   O ;.=.j.j.j.;.j.X.j.j.j.j. .j.j.j.X.B O   O =.j.j.j.;.;.j.;.",
"8.N.I.E.I.I.I.I.I.I.X O   O [ N.N.s.X X X X X s.s.s.X s.X N.N.%.O   O g.s.U.I.I.P.I.N.I.I.I.I.E.I.I.I.N.[ O   O X I.I.I._.P.I.P.",
"D.X X w.X n.X X X X %.O   O o X X w.%.%.%.%.%.w.w.w.%.w.%.n.n.o O   O ' w.X X X C.X X X X X X w.X X X X o O   O %.n.X X R.C.n.C.",
"b.X u.h.u.q.X X u.X [ O   O o p.p.3.t.' t.t.e.3.1.3.e.1.e.7.v.o O   O A G.Z.u.X v.X B.X X B.u.h.X u.X s.D O   O [ 7.X B.R.v.@.v.",
"s.X A.B.A.0.X X A.X D O   O o 2.2.3.w.[ t.t.9.3.p.d.9.p.9.&.} o O   O o C.Z.A.X q.n.1.n.X h.A.B.n.A.X A.{ O   O D e.s.h.C.q.9.0.",
"X X R.X R.n.X X R.X o O   O o E E t.w.w.%.%.X t.u.t.X u.X w.o o O   O o u.X R.X n.u.t.u.X w.R.X u.R.X R.w.O   O o %.X w.R.n.C.X ",
"X X B.s.B.n.X X B.B.o O   O o D D *.w.&.g.g.0.w.q.' 0.0.0.[ &.o O   O o q.X b.B.p.%.e.%.B.3.B.B.q.B.X B.[ O   O o g.D.a.b.n.b.q.",
"B.X Z.Z.B.B.B.B.B.l.o O   O o o o %.%.h.1.1.t.` t.D t.} } D %.o O   O o t.B.2.h.l.8.h.8.h.B.B.h.&.n.B.B.D O   O D h.V.l.2.X 2.9.",
"3.n.N.N.3.k.3.k.3.t.o O   O o o o *.*.u.&.&.*.o *.o *.o o o *.o O   O o *.k.&.&.t.s.u.s.&.n.3.&.w.k.3.3.o O   O [ t.a.%.t.n.t.p.",
"` p.r.r.` q.` q.` %.[ O   O [ [ [ [ [ ` [ [ [ [ [ [ [ [ [ [ [ [ O   O [ [ q.[ [ %.q.` q.[ p.` [ %.q.` ` [ O   O %.%.q.B.%.p.%.p.",
"B ..Y Y B Y B Y B A I s   s I I I t t B t t t I t I t I I I t I s   s I t Y t t A Y B Y t ..B t A Y B B I s   s A A Y ..A ..A ..",
"6 w p p 3 p 3 p 3 p 3 6   6 3 3 6 3 3 3 3 3 3 6 3 3 3 3 3 3 3 3 6   6 3 3 p 3 3 p p 3 p 3 p 3 3 p p 3 3 3 6   6 p p p w p w p w ",
"                                                                                                                                ",
"  v 4 - - - - - - - 4 p w - - 4   v p - - 4 v   v 4 4 - - - - - - w 4 p p 4 4 4 4 4 4 p v   v 4 - - - - 4 p p 4 4 - - - - - 4 v ",
"  s ! X.X.X.X.X.X.X.! A X.X.X.! : s A X.X...s   s ....X.X.X.o.X.X.X.! I A ! ..! ! ....A s   s ..X.X.X.X.! A ! ....X.X.X.X.X...s ",
"  O b.U.U.U.U.U.U.U.p.%.U.U.U.p.b O %.U.U.B.O   O X B.U.U.U.C.U.U.U.p.' %.p.X p.p.X B.%.O   O B.U.U.U.U.b.%.p.B.B.U.U.U.U.U.B.O ",
"  O U.I.T.T.C.B.b.Y.b.%.T.T.B.X a 7 [ p.p.0.O   O &.q.p.p.B.q.b.I.p.p.o { N.` X n.[ %.[ O   O 0.p.T.b.p.C.t.n.0.q.p.C.C.T.p.0.O ",
"  O 2.c.Z.A.C.b.8.2.-.{ b.b.b.N.O C Z s.s.} O   O A 9.s.s.Z.8.7.c.s.2.} l ( E b.X 9.c.D O   O } n.b.7.s.J.2.s.&.6.s.C.C.b.s.} O ",
"  O R e.3.n.Z.D.&.R R o s.s.R.D.O [ [ X n.D O   O o B.X X W.g.%.e.n.&.0.a 7 x.C.n.C.C.o O   O D 3.s.q.X q.B.B.w.b.X Z.V.X X D O ",
"  O o t.w.D.X X w.A A &.X X B.n.O o *.X n.o O   O o n.X X %.w.u.w.n.t.u.Z A Z.R.B.n.X o O   O o %.X Z.X E.X R.w.R.X X B.n.X o O ",
"  O o 3.h.C.Z.N.%.1.2.G.Z.Z.0.B.O &.%.B.0.D O   O o 0.X Z.2.h.n.&.7.d.b.[ { U.N.@.s.Z.o O   O o E X T.Z.N.X Z.&.A.B.N.0.0.B.o O ",
"  O o 3.B.Z.Z.C.&.3.b.M.Z.Z.0.5.O &.&.5.0.T O   O o q.n.M.N.B.X x.e.1.2.E H.Z.h.S n.R.o O   O o _ X R.Z.s.X h.7.s.1.C.q.q.1.o O ",
"  O o w.X X X R.o E X X X X X w.O o o *.X w.O   O o X X s.R.X X n.w.o o ' R.X w.' X s.o O   O o n.X R.X X X w.X X w.R.X X w.o O ",
"  O o a.p.B.p.U.` a x.C.p.p.x.w.O [ [ o v.[ O   O o b.x.0.N.p.p.C.a.3.3.3.Z.B.k.3.0._ [ O   O D b.p.b.p.p.B.k.p.p.a.b.p.p.a.o O ",
"  O [ z.4.1.4.G.1.k e.G.4.4.w.&.O B Y &.e.o O   s [ 4.e.w.4.4.4.G.z.1.1.1.4.1.h.1.w.A B O   O &.4.4.1.4.4.1.h.1.4.z.1.1.1.z.[ O ",
"  c Z ` R ` R { a.o A { R R &.A c h d &.A Z c   < Z R A &.R R R { ` R R R R ` R R &.Z h c   c &.R R ` R R ` R ` R ` ` ` ` ` Z c ",
"  s j l j l j l g j j l j j k j s b 1 k j j s   Q j j j k j j j l l j j j j l j j k j b s   s k j j l j j l j l j l l l l l j s ",
"  x > > > > > > $ > > > H > > > x x   > > > x     > > > > > > > > % > > > > > $ > > > x x   x > > > > > > > H > > > > > > > > x ",
"& @ @ @ @ @ @ @ @ @ @ 1   1 G @ @ @ & @ G 1 G & ; @ @ @ @ @ @ G 1   1 @ @ @ @ ; @ @ @ @ @ & @ @ @ @ @ G 1 1   @ @ @ @ @ @ @ @ @ ",
"7 q q q q q q q q q q 7   7 7 q q q q q 7 7 7 7 q q q q q q q 7 7   7 q q q q R q q q q q q q q q q q 7 7 7   q q q q q q q q q ",
"E  .5.d.5.5.5.5.5.5.2.b   b Y -.-.2.>.:.Z b Z o 5.5.5.5.5.5. .R b   b >.2.5.2.A.5.5.2.5.2. .2.2.2.2.2.R b b 8 :.2.5.5.5.1.1.5.1.",
"c.N.U.W.U.I.U.U.U.U.g.O   O &.M.M.s.k.i.Y O S 8.U.I.U.U.I.I.V.[ O   O 3.k.U.g.W.I.I.g.I.g.V.g.g.g.g.g.T O O 8 i.g.Y.Y.U.P.P.I.P.",
"C.X X w.X u.X X X X t.O   O w.R.R.&.A 7 e O O n.X u.X X u.u.u.o O   O E w.X t.&.u.u.*.u.t.u.t.t.t.t.t.E O O   7 t.u.u.X R.D.u.D.",
"p.X u.3.u.%.X X u.X ' O   O %.C.V.M b 7 e O S U.V.%.u.V.0.v.%.o O   O E a.B.e.' 0.0.w.q.' 0.e.o o e.o M O s   7 ' &.&.B.R.q.%.q.",
"s.X b.B.b.7.X X b.X D O   O ` b...7 7 7 7 7 *.h.Z.7.b.M.` ] 8.o O   O o 1.h.h.D [ } ` w.Z &.h.` ` h.` 7 O -   O D S S 8.C.7.J.6.",
"X X D.X R.B.X X R.X o O   O D X < h h a a a e.A X B.R.3.R 7 u.o O   O o e.e.u.o ' D o ` [ w.u.w.w.u.w.O O     O o ` ` %.V.B.C.g.",
"X X X s.n.X X X n.n.o O   O o n.q q < S R R b %.B.X B.` O 7 %.o O   O o o ' q.D w.o [ b *.w.T [ ' q.' O O     O o u.u.B.B.X p.%.",
"p.X V.M.B.B.p.B.B.9.o O   O o 9.;.i.m.M.1.1.5 I @.B.9.V C B t.o O   O o e.D [ &.` [ k 7 %.q.o M D [ D O O w   O D 2.2.| 6.X 6.2.",
"1.B.W.W.1.3.1.3.1.t.' O   O ' t.B.D.!.).3.u.j q A 3.e.V T &.&.' O   O ' *.' o *.o A O a %.[ Y V ' o ' O O l   O { t.t.O t.B.t.b.",
"' X %.%.' %.' %.' w.o O   O o w.%.%.n.%.' %.o O o %.o o o w.o o O   O o o o o o o a O O w.O O o o o o O O O   O w.w.w.o w.X w.n.",
"n ~ L L n I n I n I B 9   9 B I I L ^ B n I t 9 B I g t B N g B 9   9 B g B B g B $ O.O.I s s t B B B 9 9 O.  9 N I I t I ~ I ~ ",
"w % , , f , f , f , f 4   4 f , , , % , f , f p f , f f f , f f 4   4 f f , f f f       , p 4 f f f f 4 4     4 , , , f , % , % ",
"  + + + +               G + + + + + +     + +   +                 @       #       @ @ @ +   +             @ @ +               + ",
"  m 2 2 2 6 6 6 6 6 0 0 V 2 2 m m 2 2 6 6 2 m   m 6 6 6 0 0 0 0 0 6 0 * * u * * 0 6 2 8 m   m 6 0 0 0 0 6 8 2 2 6 0 0 0 0 0 6 m ",
"  s #.N R ;.o.o.o.o.-.-.k.N N s s [ R ;.;.#.s   s ;.;.o.-.-. .-.,.,.,.y.L.P.L.y.-.-.o.#.s   s ;.-.,.,.-.X.#.;.#.;.-.,.,.,.-.;.s ",
"  O %.[ A X b.b.N.N.Y.I.U.{ [ O O &.Z s.B.%.O   O s.X b.I.U.R.I._.Y._./.`.'.`./.I.U.b.%.O   O B.I.Y.Y.I.V.%.X %.X I.Y.Y.Y.I.B.O ",
"  O ' o O %.X X B.p.p.p.B.w.o h O a a [ %.' O   O [ %.X n.X %.B.T.C.T.T.I.!.I.T.n.X X o O   O %.n.C.C.n.C.' T ' %.n.R.R.C.n.%.O ",
"  O D D $.h.X B.@.^ / +.7.T &.Y O q q R ' D O   O A h.X s.V.1.0.9.B.9.B.v.M.v.B.u.Z.Z.&.O   O [ B.A.A.u.9.D V D 2.s.C.C.A.s.[ O ",
"  O o T q.B.X 1.R d e A e.o &.Y h j j [ [ o O   O o p.X X F.3.q.@.B.@.B.@.u.@.u.p.V.Z.&.O   O D 3.s.s.B.0.E b o N.X Z.V.X X D O ",
"  O o w.w.X X w.o O o w.w.w.o O O o o w.w.o O   O o X X X w.w.X X R.X R.X X X X R.X X o O   O o w.X X R.R.o o o R.X X X X X o O ",
"  O o [ w.B.p.k.o Y *.k.a.k.o S Y ' j g.%.o O   O o q.X V.1.5.n.p.B.R.C.p.q.n.Z.B.X Z.o O   O o A X s.C.T.2.` D B.B.Z.@.q.B.o O ",
"  O o Z %.h.6.1.D [ e.h.5.5.o [ o [ 7 >.` o O   O o 7.B.V.Z.B.X h.n.Z.N.2.9.B.C.A.B.M.o O   O o @.X b.N.N.K.J.{ s.2.C.7.7.2.o O ",
"  O o ' *.t.A R ' ' o %.t.t.o ' T A O A o o O   O o B.g.a.R.X X &.a.X X %.u.g.D.R.g.a.o O   O o B.X R.X X (.T.%.X %.D.B.B.%.o O ",
"  O o w.[ w.D a w.w.*.g.w.w.o w.g.b O D *.o O   O o p.q.q.b.B.B.[ &.b.b.u._ 0.b.b.q.` [ O   O D p.B.p.B.B.Z.I.%.B.g.p.B.B.g.o O ",
"  O [ &.' &.[ 7 &.&.&.1.&.&.[ &.4.b s [ &.[ O   O [ 6.` %.-.6.6.I B X.X.1.B R -.-.%.D k O   O _ 6.6.h.6.6.2.2.&.6.1.h.h.h.1.[ O ",
"  a A R A R A a R R R [ R R A R S z z A R A a   a A S R ` S S S 2 2 0 0 F 2 2 S S ` A O a   a e.S S [ S S [ I R I #.#.#.#.#.Y a ",
"  a b b b b b a b b b b b b b b b # # b b b a   a b b b b b b b # # # # @ # # b b b b a a   a b b b b b b b b b a a a a a a a a ",
"  & & & & & & & & & & & J & & & &     & & & &   & & & & & & & &               & & & & & &   & & & & & & & & J & h 7 7 7 7 7 h & ",
"$ y y y y ; & ; & y ; &   & & = = $ $ = = = = $ = = = = = = = y J     $ $ $ $ y y y = = = $ y ; y = = = y &   & h q q q q q q ; ",
"b b b b b b a b a b b a   a a b b b b b b b b b b b b b b b b b a   + b b b b b b b b b b b b b b b b b b a   a c a a a a a a b ",
"g.>.y.y.y.e.a e.Z y.e.a   a R g.g.g.g.g.g.g.g.g.g.g.g.g.g.g.g.y.a   8 1.y.>.>.>.y.>.g.g.g.g.y.&.1.g.g.g.y.a   a Y >.>.>.>.2.>.' ",
"P.V.S.S.S._ O _ I k._ O   O &.Y.P.Y.C.U.C.C.C.Y.C.C.C.Y.C.C.U.k.O   s 1.1.b.b.b.k.b.C.C.C.C.k.E 1.C.C.C.k.O   O [ k.k.S.c.V.S.k.",
"V.a.&.&.&.D O D 7 &.o O   O w.R.V.R.s.3.s.s.s.R.X s.s.R.s.X 3.e.O   O A %.B.X X e.X X s.s.X e.q R s.s.s.e.O   O o e.e.&.%.a.&.E.",
"n.%.&.w.&.o O o O [ [ O   O [ C.n.T.X %.X X s.R.V.X s.C.s.n.%.' O   O o N.R.s.X ' X n.X X n.E q A s.X s.o O   O o ' o w.a.%.&.%.",
"s.&.1.w.1.o O o O j k O   O D A.B.h.B.2.s.s.V.U.I.p.V.A.Z.8.2.D O   O o M.b.Z.X D B.8.B.X 7. .X.2.Z.X Z.e.O   O o D } w.b.t.1.h.",
"X w.a.*.a.o O o O b 7 O   O o X 5.&.3.B.B.B.B.W.X 5.W.n.C.&.B.o O   O o 1.s.R.n.' 3.e.5.n.q.p.Z.g.V.X V.&.O   O o o v.w.3.&.a.a.",
"X w.w.w.w.o O o O o O O   O o n.' %.w.X R.R.%.%.' ' %.n.n.w.X o O   O o w.X n.X o w.w.w.X X X X %.X X X o O   O o o X w.%.o w.w.",
"X w.1.5.t.&.O o O ' S O   O o _ M U %.Z.C.p.*.I k M l N N [ X &.O   O o 1.X x.7.j e.5.1.7.n.X v.t.X X B.o O   O o o 7.[ [ &.t.1.",
"B.%.b.b.%.%.O o O o [ O   O o E 7 q E C.R.n.&.4 - 7 q < d R X &.O   O o b.n.&.&.q 7.b.b.&.B.B.{ w.n.p.1.[ O   O o D &.D D %.w.B.",
"u.w.u.u.w.w.O o O o o O   O o %.O O 7 a.a.u.Z   + O O O a [ X o O   O o u.u.w.w.a n.u.u.w.u.u.o w.u.a.&.Z O   O o ' w.o o w.w.X ",
"_ { _ v.{ { O [ O [ [ O   O [ B.O O e K K _ k   < O O O Z u.b.[ O   O [ _ v.{ { &.N._ v.{ _ _ [ q.v.K T b O   O [ %.{ [ [ { q.b.",
"t N t A N N s N s N N s   s N ;.s s s O O t i   w s s s R 3.o.N s   s N t A N N [ o.t A N t t N o A O N a s   s N #.N N N N o o.",
"z 8 8 2 8 8 r 8 r 8 8 r   r 8 6 r r r r r 8       r r r 8 W 6 8 r   r 8 8 2 8 8 2 6 8 2 8 z 8 8 2 2 r 8 r r   r 8 2 8 8 8 8 2 6 ",
"@ + + + + + + + + + + +   + + + + + + + + +       + + + + # + + +   + + + + + + + + + + + @ + + + + + + + +   + + + + + + + + + ",
"  P H % % % % % % % % % , % % % H H % % % H p   p H % % % : % H H f % % % % % % % % % H P   P H % H , H % % , % % % % % % H f P ",
"  9 ~ ( ( ( ( ) ) ) ( ) ) ) ( ( ~ ~ ( ( ( ~ 9   9 ~ ) ) ) ~ ) ~ ^ ~ ( ( ! ( ( ( ( ( ( ~ 9   9 ~ ( ^ L ^ ) ( ( ( ! ( ) ) ) ^ B 9 ",
"  O X R.R.R.R.R.R.R.R.R.R.R.R.R.X X R.R.R.X O   O X R.R.R.R.R.X X X R.R.R.R.R.R.R.R.R.X O   O X R.X w.X R.R.R.R.R.R.R.R.R.X o O ",
"  O 9.V.b.b.b.T.T.U.b.U.U.U.b.b.0.0.b.b.b.9.O   O 9.U.U.U.~.U.9.N.9.C.C.J.C.M.b.b.b.b.v.O   O 9.b.C.W.B.Y.b.b.b.9.b.T.T.U.B.' O ",
"  O { h.n.u.p.C.R.N.s.N.N.N.p.p.7.0.u.s.s.{ O   O { N.N.N.^.Z.' -.} X.<.S X. .s.u.p.p.&.O   O { n.Z.V.X z.s.u.u.0.s.C.C.N.X o O ",
"  O D &.g.n.R.D.R.s.X s.s.s.R.R.n.B.n.X X D O   O D X s.s.N.a.[ ' o q 7 7 q A X n.R.R.*.O   O D g.s.X X %.X n.n.B.X D.D.X X o O ",
"  O o &.%.V.n.n.R.X X s.s.s.p.B.X V.D.s.B.o O   O o B.X s.%.%.3.3.&.< B 5 q R s.D.B.n.[ O   O o q.X V.s.N.X D.D.R.X n.p.B.X o O ",
"  O o h.8.C.b.A.C.X X b.N.N.7.n.N.C.N.V.9.D O   O o 9.X N.7.8.B.B.%.f.A...] -.b.b.s.b.D O   O o E X C.N.Z.X Z.N.N.B.A.7.9.B.o O ",
"  O o a.B.Z.D.C.Z.n.X C.D.D.q.3.V.R.s.W.q.[ O   O o %.n.R.b.B.X X w.I.~.b.9.N.C.B.n.R.o O   O o ` X R.D.s.X 3.s.s.3.C.%.%.3.o O ",
"  O o w.X X X R.X n.X R.X X X w.X R.X %.X w.O   O o u.n.n.R.X X X w.n.B.X D.R.R.R.n.B.o O   O o g.X R.X X X w.X X w.R.u.u.w.o O ",
"  O o 5.p.B.p.Z.M.9.p.U.p.p.9.3.M.Z.p.&.8.{ O   O o b.9.7.Z.p.p.p.%.p.B.M.M.Z.Z.Z.7.+.[ O   O D b.p.N.p.p.B.3.B.p.5.N.p.p.5.o O ",
"  O ' k.1.3.1.>.Q.e.1.F.1.1.*.5.Q.>.1.%.e.o O   O ' 1.e.*.>.1.1.1.&.1.1.Q.>.5.>.>.*.A I O   O ` 1.1.5.1.1.3.5.3.1.k.5.3.3.k.' O ",
"  O o t.E t.E E &.D E &.E E *.E &.E E *.D o O   O o E D *.E E E E D E E &.E t.E E *.o O O   O w.E E t.E E t.E t.E t.t.t.t.t.o O ",
"  s n B k B k k B n k B k k L k B k k L n n s   s n k n L k k k k n k k B k B k k L n s s   s L k k B k k B k B k B B B B B n s ",
"  4 - f - f - - f - - f - - f - f - - f - - 4   4 - - - f - - - - - - - f - f - - f - 4 4   4 f - - f - - f - f - f f f f f - 4 ",
"                                                                                                                                "
};
