/* XPM */
static char *Free_Converter_com_brownbrickdgrille_73743844[] = {
/* columns rows colors chars-per-pixel */
"64 91 256 2 ",
"   c black",
".  c gray100",
"X  c #010100",
"o  c #030301",
"O  c #020201",
"+  c #0A0903",
"@  c #100E04",
"#  c #080702",
"$  c #151206",
"%  c #070602",
"&  c #0F0D05",
"*  c #0C0A03",
"=  c #131005",
"-  c #231D0A",
";  c #1E1808",
":  c #1A1507",
">  c #161206",
",  c #241D0A",
"<  c #1C1708",
"1  c #151106",
"2  c #261F0B",
"3  c #1F1909",
"4  c #2C240D",
"5  c #1B1608",
"6  c #251E0B",
"7  c #171307",
"8  c #201A0A",
"9  c #161207",
"0  c #312810",
"q  c #060502",
"w  c #130F05",
"e  c #191407",
"r  c #29210C",
"t  c #2C230D",
"y  c #28200C",
"u  c #141006",
"i  c #271F0C",
"p  c #2D240E",
"a  c #2F260F",
"s  c #2E250F",
"d  c #201909",
"f  c #0E0B04",
"g  c #29200C",
"h  c #1B1508",
"j  c #2B220D",
"k  c #30260F",
"l  c #20190A",
"z  c #342911",
"x  c #312710",
"c  c #302610",
"v  c #372C13",
"b  c #362B13",
"n  c #332912",
"m  c #372C14",
"M  c #110D05",
"N  c #322710",
"B  c #161107",
"V  c #483818",
"C  c #332811",
"Z  c #342912",
"A  c #3B2E15",
"S  c #382C14",
"D  c #352A13",
"F  c #372B14",
"G  c #2B2210",
"H  c #3D2E13",
"J  c #3A2C12",
"K  c #392B12",
"L  c #3C2D13",
"P  c #3B2D13",
"I  c #3F3016",
"U  c #3C2E15",
"Y  c #392C14",
"T  c #332712",
"R  c #3A2D15",
"E  c #3B2E16",
"W  c #3A2D16",
"Q  c #3A2B12",
"!  c #483517",
"~  c #3F2F14",
"^  c #413015",
"/  c #423116",
"(  c #302410",
")  c #413116",
"_  c #433217",
"`  c #392B14",
"'  c #362913",
"]  c #413118",
"[  c #3E2F17",
"{  c #3F3018",
"}  c #433115",
"|  c #473417",
" . c #443216",
".. c #4C3719",
"X. c #463317",
"o. c #402F15",
"O. c #4D381A",
"+. c #4A3619",
"@. c #4F3A1B",
"#. c #493619",
"$. c #4E391B",
"%. c #483519",
"&. c #473419",
"*. c #49361A",
"=. c #48351A",
"-. c #453319",
";. c #433219",
":. c #403018",
">. c #3D2E17",
",. c #44331A",
"<. c #3F2F18",
"1. c #4E3819",
"2. c #533B1B",
"3. c #573E1D",
"4. c #543C1C",
"5. c #513A1B",
"6. c #533C1C",
"7. c #50391B",
"8. c #443117",
"9. c #523B1C",
"0. c #4C371A",
"q. c #463218",
"w. c #513A1C",
"e. c #4B361A",
"r. c #4F391C",
"t. c #463319",
"y. c #4D381C",
"u. c #47341A",
"i. c #583E1D",
"p. c #553C1C",
"a. c #5C401F",
"s. c #593E1E",
"d. c #563D1D",
"f. c #5B401F",
"g. c #5D4120",
"h. c #5A3F1F",
"j. c #573E1E",
"k. c #50391C",
"l. c #5B4020",
"z. c #543C1E",
"x. c #533B1E",
"c. c #4C371C",
"v. c #634422",
"b. c #604221",
"n. c #5F4221",
"m. c #614322",
"M. c #5E4121",
"N. c #5C4020",
"B. c #5A3F20",
"V. c #573D1F",
"C. c #553C1F",
"Z. c #6C4824",
"A. c #694723",
"S. c #624322",
"D. c #744C28",
"F. c #885830",
"G. c #80502C",
"H. c #905C34",
"J. c #9C6038",
"K. c #A0643C",
"L. c #BC7848",
"P. c #B47044",
"I. c #DC8854",
"U. c #A86840",
"Y. c #D08050",
"T. c #202020",
"R. c gray11",
"E. c black",
"W. c black",
"Q. c black",
"!. c black",
"~. c black",
"^. c black",
"/. c black",
"(. c black",
"). c black",
"_. c black",
"`. c black",
"'. c black",
"]. c black",
"[. c black",
"{. c black",
"}. c black",
"|. c black",
" X c black",
".X c black",
"XX c black",
"oX c black",
"OX c black",
"+X c black",
"@X c black",
"#X c black",
"$X c black",
"%X c black",
"&X c black",
"*X c black",
"=X c black",
"-X c black",
";X c black",
":X c black",
">X c black",
",X c black",
"<X c black",
"1X c black",
"2X c black",
"3X c black",
"4X c black",
"5X c black",
"6X c black",
"7X c black",
"8X c black",
"9X c black",
"0X c black",
"qX c black",
"wX c black",
"eX c black",
"rX c black",
"tX c black",
"yX c black",
"uX c black",
"iX c black",
"pX c black",
"aX c black",
"sX c black",
"dX c black",
"fX c black",
"gX c black",
"hX c black",
"jX c black",
"kX c black",
"lX c black",
"zX c black",
"xX c black",
"cX c black",
"vX c black",
"bX c black",
"nX c black",
"mX c black",
"MX c black",
"NX c black",
"BX c black",
"VX c black",
"CX c black",
"ZX c black",
"AX c black",
"SX c black",
"DX c black",
"FX c black",
"GX c black",
"HX c black",
"JX c black",
"KX c black",
"LX c black",
"PX c black",
"IX c black",
"UX c black",
/* pixels */
"y y y y y y y y y y y y   y y y y y y y y y y y y y y y y y y y y   y y y y y y y y y y y y y y y y y y y y   y y y y y y y y y ",
"T ^ q.! q.q.q.q.q.q.} y   y x ^ ^ } } } } } } } } } } } } ^ ^ ' y   y  .} q.q.q. .q.^ q.q.q.q.! q.q.q.^ x y   y } q.q.q. . .q. .",
"*.s.b.B.b.b.b.b.b.b.4.y   y R s.s.6.4.4.4.4.4.6.6.6.4.6.4.s.s.] y   y 9.6.n.b.b.v.b.s.b.b.b.b.B.b.b.b.s.R y   y 4.b.b.b.S.v.b.v.",
"l.4.4.:.4.p.4.4.4.4.] y   y S 4.4.:.] ] ] ] ] :.:.:.] :.] p.p.S y   y Y :.4.4.4.g.4.4.4.4.4.4.:.4.4.4.4.S y   y ] p.4.4.N.g.p.g.",
"i.4.2.0.2.;.4.4.2.4.R y   y S 3.3.@.<.Y <.<.>.@.O.@.>.O.>.&.u.S y   y b x.h.2.4.u.4.d.4.4.d.2.0.4.2.4.6.m y   y R &.4.d.N.u._ u.",
"6.4.j.d.j.-.4.4.j.4.m y   y S +.+.@.:.R <.<.=.@.3.7.=.3.=.[ W S y   y S g.h.j.4.;.p.O.p.4.0.j.d.p.j.4.j.E y   y m >.6.0.g.;.=.-.",
"4.4.N.4.N.p.4.4.N.4.S y   y S F F <.:.:.] ] 4.<.2.<.4.2.4.:.S S y   y S 2.4.N.4.p.2.<.2.4.:.N.4.2.N.4.N.:.y   y S ] 4.:.N.p.g.4.",
"4.4.d.6.d.p.4.4.d.d.S y   y S m m { :.[ 9.9.-.:.;.Y -.-.-.R [ S y   y S ;.4.i.d.3.] >.] d.@.d.d.;.d.4.d.R y   y S 9.l.5.i.p.i.;.",
"d.4.h.h.d.d.d.d.d.e.S y   y S S S ] ] 0.O.O.<.U <.m <.W W m ] S y   y S <.d.+.0.e.*.0.*.0.d.d.0.[ p.d.d.m y   y m 0.f.e.+.4.+.=.",
"@.p.s.s.@.w.@.w.@.<.S y   y S S S { { 2.[ [ { S { S { S S S { S y   y S { w.[ [ <.6.2.6.[ p.@.[ :.w.@.@.S y   y R <.5.] <.p.<.3.",
"U 3.,.,.U ;.U ;.U ] R y   y R R R R R U R R R R R R R R R R R R y   y R R ;.R R ] ;.U ;.R 3.U R ] ;.U U R y   y ] ] ;.d.] 3.] 3.",
"x ~ Z Z x Z x Z x b C t   t C C C 0 0 x 0 0 0 C 0 C 0 C C C 0 C t   t C 0 Z 0 0 b Z x Z 0 ~ x 0 b Z x x C t   t b b Z ~ b ~ b ~ ",
"< 7 e e : e : e : e : <   < : : < : : : : : : < : : : : : : : : <   < : : e : : e e : e : e : : e e : : : <   < e e e 7 e 7 e 7 ",
"                                                                                                                                ",
"  h > $ $ $ $ $ $ $ > e 7 $ $ >   h e $ $ > h   h > > $ $ $ $ $ $ 7 > e e > > > > > > e h   h > $ $ $ $ > e e > > $ $ $ $ $ > h ",
"  t H ^ ^ ^ ^ ^ ^ ^ H b ^ ^ ^ H & t b ^ ^ ~ t   t ~ ~ ^ ^ ^ / ^ ^ ^ H C b H ~ H H ~ ~ b t   t ~ ^ ^ ^ ^ H b H ~ ~ ^ ^ ^ ^ ^ ~ t ",
"  y i.n.n.n.n.n.n.n.3.] n.n.n.3.j y ] n.n.d.y   y 4.d.n.n.n.g.n.n.n.3.Y ] 3.4.3.3.4.d.] y   y d.n.n.n.n.i.] 3.d.d.n.n.n.n.n.d.y ",
"  y n.b.M.M.g.d.i.m.i.] M.M.d.4.r 2 R 3.3.-.y   y [ ;.3.3.d.;.i.b.3.3.S E s.U 4.p.R ] R y   y -.3.M.i.3.g.<.p.-.;.3.g.g.M.3.-.y ",
"  y +.y.h.j.g.i.*.+.| E i.i.i.s.y c v 6.6.W y   y b =.6.6.h.*.&.y.6.+.W s L F i.4.=.y.m y   y W p.i.&.6.c.+.6.[ %.6.g.g.i.6.W y ",
"  y D >.@.p.h.l.[ D D S 6.6.N.l.y R R 4.p.m y   y S d.4.4.V.9.] >.p.[ -.r 2 t.g.p.g.g.S y   y m @.6.;.4.;.d.d.:.i.4.h.f.4.4.m y ",
"  y S <.:.l.u u 9 1 1 1 u 1 1 1 1 1 1 1 u 1 u   1 u 1 9 9 9 1 1 1 u 1 1 1 9 1 1 1 u 1 1 1   1 1 1 u 1 u 1 1 u 1 u u 4.d.p.4.S y ",
"  y S @.0.g.9                                                                                                     9 s.-.-.d.S y ",
"  y S @.d.h.9   :.y y R.y y ( 4.S R.y y y R.y V S R.y y y y y S :.y ( ( y y y S S R.y y R.y ( N.V y ( ( y ( y :.  1 g.;.;.O.S y ",
"  y S :.4.4.1   y             V R.            V y             :.y             S R.            :.y             :.  u N.4.4.:.S y ",
"  y S 5.3.d.u   y             N.y             N.(             Z.y             N.y             V R.            N.  1 i.3.3.5.S y ",
"  y R r.#.O.1   R.            V R.            N.y             Z.(             N.y             N.y             V   1 O.O.O.r.R y ",
"  g v U D U u   y             N.y             N.y             Z.R.            Z.y             Z.y             4.  1 U U U U v g ",
"  t p s p s 1   y             N.y             Z.(             4.y             Z.(             N.y             N.  1 s s s s p t ",
"  f * * * * *   (             D.(             F.(             F.(             G.S             H.(             Z.  u * * * * * f ",
"# o o o o o o o 4.U.P.L.Y.Y.Y.N.4.U.Y.Y.L.Y.L.N.N.P.Y.Y.Y.Y.L.4.:.L.Y.L.Y.Y.L.N.4.P.Y.Y.Y.Y.L.Z.N.P.Y.L.L.L.L.:.    o o o o o o ",
"2 6 6 6 6 6 1   S R.R.R.R.R.y V S R.R.y R.y R.V :.R.R.y y y y V V R.R.R.R.y y 4.S R.y y R.y R.S S R.R.R.R.R.R.(   1 6 6 6 6 6 6 ",
"F ! $.7.$.$.u   R.            :.R.            V y             V R.            4.y             S y             S   u $.$.O.O.$.O.",
"y.s.n.V.n.b.1   y             N.y             N.y             N.R.            N.(             4.R.            4.  u m.n.v.v.b.v.",
"g.4.4.:.4.2.1   y             Z.y             N.y             Z.y             Z.y             N.R.            N.  u 2.4.N.l.2.l.",
"3.4.2.@.2.] 1   y             N.y             N.y             4.y             Z.(             N.(             N.  1 [ d.N.;.] ;.",
"6.4.i.d.i.&.1   R.            V R.            N.y             4.y             N.y             N.(             N.  1 n *.g.&.c.%.",
"4.4.l.4.N.d.1   y             D.(             H.(             D.S             F.S             D.(             F.  u U ] f.d.g.9.",
"4.4.4.6.p.4.1   V K.L.L.Y.Y.I.S ( U.L.Y.Y.Y.L.4.N.L.Y.Y.Y.Y.I.4.:.K.L.Y.Y.Y.L.4.4.L.Y.L.Y.Y.I.N.4.K.L.Y.Y.Y.I.V   1 2.d.d.4.3.] ",
"3.4.f.a.d.d.1   S T.R.R.R.R.y :.S R.R.R.R.y R.V V R.R.R.y y y S :.R.y R.y y y 4.:.y y y R.R.R.V S R.R.R.y R.R.S   9 +.Q %.4.%.+.",
"O.d.V.V.O.@.u   R.            V R.            V y             :.y             V y             V y             (   9 <.y <.d.<.i.",
"Y 4.] ] Y ] 1   y             Z.(             Z.y             N.(             Z.(             N.y             4.  9 :.S :.4.:.p.",
"k J N N k C 1   y             Z.y             Z.y             Z.(             N.y             N.y             4.  1 C 0 C J C J ",
"7 @ = = u = u   y             N.y             N.y             Z.y             Z.(             Z.y             4.  1 = u = @ = @ ",
"  X X X X       y             N.y             N.(             N.y             Z.(             N.y             N.              X ",
"  l ; ; ; < <   y             D.(             H.(             F.(             F.(             G.S             G.  u 5 5 5 5 < l ",
"  t ` z D  .1   S K.L.L.L.P.L.V N.P.Y.Y.Y.Y.L.N.:.L.Y.Y.Y.L.L.N.V H.L.Y.Y.L.L.N.4.L.L.Y.Y.Y.U.N.4.L.Y.Y.Y.Y.I.N.  1 X.X.X.|  .t ",
"  y ] R b 4.1   :.R.R.R.R.R.R.:.V R.y R.R.R.R.V :.y y y y R.R.S S R.R.R.R.R.y V :.R.R.R.R.R.y :.S R.y y y y y V   1 m.m.m.b.d.y ",
"  y Y S y ] u   y             :.y             4.y             S y             V y             S R.            :.  u N.N.g.p.] y ",
"  y m m ' 0.1   (             N.y             N.(             N.(             N.(             4.y             4.  u g.g.j.6.R y ",
"  y S A ;.d.1   (             N.y             N.y             N.(             N.y             N.y             N.  u h.f.4.4.m y ",
"  y S :.:.4.1   y             N.y             N.y             4.y             N.(             N.y             N.  1 4.4.4.4.S y ",
"  y S R :.d.9   y             N.y             N.y             N.R.            N.y             N.y             N.  1 h._ ;.d.S y ",
"  y S v ] 0.9   y             G.(             F.y             Z.y             D.(             D.(             Z.  u g.&.&.+.S y ",
"  y S Y { <.9   S K.L.Y.Y.Y.L.N.S P.Y.Y.Y.Y.U.4.4.P.L.L.Y.Y.I.:.:.U.L.L.Y.Y.Y.4.V L.Y.L.L.L.Y.4.4.K.L.L.L.Y.Y.S   1 l.d.d.] S y ",
"  y S :.R :.1   S R.R.R.R.y R.V S   R.R.R.y y V V R.R.R.y R.y V :.R.R.R.R.R.R.:.V y R.R.R.R.R.( S R.R.  R.R.R.(   1 3.d.d.9.S y ",
"  y R [ Y [ u   R.            V R.            4.y             V y             V y             S R.            (   1 0.0.0.O.R y ",
"  r b D b D 1   y             Z.y             4.y             4.(             N.y             N.y             N.  1 ` ` ` ` Z r ",
"  r j j j j 1   y             Z.(             4.y             V y             N.R.            N.y             N.  1 r r r r r r ",
"  # # # # # # # R.            N.(             4.R.            :.y             V y             4.R.            N.  1 2 2 2 2 i # ",
"+ q q q q % # % y             N.(             4.y             N.y             N.y             :.R.            N.  1 6 6 6 6 6 % ",
"j j j j j j u   (             F.y             D.S             F.S             F.(             D.(             Z.  u r r r r r j ",
"9...1.1.1.>.1   N.L.Y.Y.Y.Y.Y.N.4.P.Y.Y.Y.L.L.N.4.P.Y.Y.Y.L.L.N.N.L.Y.Y.L.L.U.N.S U.L.L.L.P.L.:.4.P.L.L.L.P.L.:.  1 ......+...Y ",
"v.f.k.k.k.I 1   V R.R.R.R.y y 4.:.R.y R.y R.y :.:.R.y R.R.R.R.V S   R.R.R.R.R.:.S R.R.R.R.R.R.( :.R.R.R.R.R.R.V   u w.k.y.f.k.w.",
"f.5.[ [ [ m 1   y             V y             :.y             V R.            V y             S R.            V   u >.[ ] 5.[ B.",
"p.] [ :.[ S 1   (             Z.(             4.(             4.R.            N.y             4.y             4.  1 S :.5.] [ ] ",
"6.[ O.:.O.S 1   (             Z.(             N.y             N.y             N.y             N.(             N.  u W :.i.<.O.0.",
"4.:.5.{ 5.S 1   y             Z.(             Z.(             4.y             N.y             N.R.            V   1 u.:.@.[ 5.5.",
"4.:.:.:.:.S 1   (             N.y             N.y             Z.y             4.R.            N.y             4.  u 4.:.] S :.:.",
"4.:.O.$.<.[ u   y             F.y             D.y             F.(             D.y             F.y             Z.  1 &.R R [ <.O.",
"d.] i.i.] ] 1   :.U.L.Y.Y.U.L.N.S K.L.Y.Y.Y.U.4.:.U.L.L.L.L.Y.V 4.P.Y.Y.Y.Y.U.Z.4.U.L.L.L.Y.Y.:.:.J.L.L.L.L.L.4.  9 [ m m ] :.d.",
"2.:.2.2.:.:.9                                                                                                     9 :.S S :.:.4.",
"I E I u.E E u u 9 9 1 u   1 u 1 u 1 1 1 1 1 1   u 1 1 1 9 1 1 1 u   1 1 9 9 9 1 u 1 1 u 1 u 1 1 1 1 1 1 1 u   1 u u E R R E ;.i.",
"0 z 0 b z z t z t z z t   t z  .t t t y y 0 w   7 t t t D @./ z t   t z 0 b z z R / 0 b z 0 0 z S b y z r t   t z ` z z z z S / ",
"d 3 3 ; 3 3 8 3 8 3 3 8   8 3 < 8 8 8 8 8 3 u   u 8 8 8 3 G < 3 8   8 3 3 ; 3 3 ; < 3 ; 3 d 3 3 ; ; 8 3 8 8   8 3 ; 3 3 3 3 ; < ",
"o X X X X X X X X X X X   X X X X X X X X X       X X X X O X X X   X X X X X X X X X X X o X X X X X X X X   X X X X X X X X X ",
"  B M @ @ @ @ @ @ @ @ @ = @ @ @ M M @ @ @ M e   e M @ @ @ & @ M M u @ @ @ @ @ @ @ @ @ M B   B M @ M = M @ @ = @ @ @ @ @ @ M u B ",
"  4 J L L L L P P P L P P P L L J J L L L J 4   4 J P P P J P J K J L L H L L L L L L J 4   4 J L K N K P L L L H L P P P K x 4 ",
"  y 4.N.N.N.N.N.N.N.N.N.N.N.N.N.4.4.N.N.N.4.y   y 4.N.N.N.N.N.4.4.4.N.N.N.N.N.N.N.N.N.4.y   y 4.N.4.:.4.N.N.N.N.N.N.N.N.N.4.S y ",
"  y =.f.i.i.i.M.M.n.i.n.n.n.i.i.-.-.i.i.i.=.y   y =.n.n.n.Z.n.=.s.=.g.g.c.g.a.i.i.i.i.u.y   y =.i.g.V.d.m.i.i.i.=.i.M.M.n.d.Y y ",
"  y E 0.p.2.3.g.N.s.6.s.s.s.3.3.&.-.2.6.6.E y   y E s.s.s.A.h.Y | W ^ o.n ^ ! 6.2.3.3.[ y   y E p.h.f.4.r.6.2.2.-.6.g.g.s.4.S y ",
"  y m [ 9.p.N.l.N.6.4.6.6.6.N.N.p.d.p.4.4.m y   y m 4.6.6.s.5.R Y S 6 2 2 6 b 4.p.N.N.{ y   y m 9.6.4.4.] 4.p.p.d.4.l.l.4.4.S y ",
"  y S [ ] f.p.p.N.4.4.6.6.6.3.d.4.f.l.6.d.S y   y S d.4.6.] ] @.@.[ - x , 6 D 6.l.d.p.R y   y S ;.4.f.6.s.4.l.l.N.4.p.3.d.4.S y ",
"  y S 0.*.g.i.j.g.4.4.i.s.s.&.p.s.g.s.f.=.m y   y S =.4.s.&.*.d.d.] 8.j.~ T | i.i.6.i.m y   y S F 4.g.s.h.4.h.s.s.d.j.&.=.d.S y ",
"  y S 5.d.h.l.g.h.p.4.g.l.l.;.@.f.N.6.V.;.R y   y S ] p.N.i.d.4.4.:.b.Z.i.=.s.g.d.p.N.S y   y S U 4.N.l.6.4.@.6.6.@.g.] ] @.S y ",
"  y S :.4.4.4.N.4.p.4.N.4.4.4.:.4.N.4.] 4.:.y   y S 2.p.p.N.4.4.4.:.p.d.4.l.N.N.N.p.d.S y   y S 9.4.N.4.4.4.:.4.4.:.N.2.2.:.S y ",
"  y S $.3.d.3.h.a.=.3.n.3.3.=.@.a.h.3.[ *.E y   y S i.=.&.h.3.3.3.] 3.d.a.a.h.h.h.&.) R y   y m i.3.s.3.3.d.@.d.3.$.s.3.3.$.S y ",
"  y Y w.O.@.O...C.>.O.z.O.O.{ $.C...O.] >.S y   y Y O.>.{ ..O.O.O.[ O.O.C...$.....{ b C y   y U O.O.$.O.O.@.$.@.O.w.$.@.@.w.Y y ",
"  y S <.F <.F F [ m F [ F F { F [ F F { m S y   y S F m { F F F F m F F [ F <.F F { S y y   y :.F F <.F F <.F <.F <.<.<.<.<.S y ",
"  t k x a x a a x k a x a a N a x a a N k k t   t k a k N a a a a k a a x a x a a N k t t   t N a a x a a x a x a x x x x x k t ",
"  > $ u $ u $ $ u $ $ u $ $ u $ u $ $ u $ $ >   > $ $ $ u $ $ $ $ $ $ $ u $ u $ $ u $ > >   > u $ $ u $ $ u $ u $ u u u u u $ > ",
"                                                                                                                                "
};
