/* XPM */
static char *_f6981b132f24e9adeae5267444e449f[] = {
/* columns rows colors chars-per-pixel */
"64 91 256 2 ",
"   c black",
".  c gray100",
"X  c #B4B4B4",
"o  c gray66",
"O  c #A86840",
"+  c #980000",
"@  c #905C34",
"#  c #885830",
"$  c #880000",
"%  c #7C0000",
"&  c #744C28",
"*  c #543C1C",
"=  c #2C2C2C",
"-  c #28200C",
";  c #111214",
":  c #131416",
">  c #191A1C",
",  c #27282A",
"<  c #151719",
"1  c #1C1D1E",
"2  c #141617",
"3  c #1D211C",
"4  c #20271E",
"5  c #232A20",
"6  c #3A402F",
"7  c #414633",
"8  c #4A4C3A",
"9  c #FCFCD8",
"0  c #1D1D19",
"q  c #191916",
"w  c #1A1A18",
"e  c #232321",
"r  c #20201F",
"t  c #292928",
"y  c #FCF400",
"u  c #24231E",
"i  c #1E1A08",
"p  c #070602",
"a  c #6E684E",
"s  c #70694F",
"d  c #706950",
"f  c #3F3B2D",
"g  c #716A51",
"h  c #625C47",
"j  c #746C52",
"k  c #726A51",
"l  c #736B52",
"z  c #68614A",
"x  c #7A7157",
"c  c #776E55",
"v  c #21201D",
"b  c #201F1C",
"n  c #22211E",
"m  c #23221F",
"M  c #242320",
"N  c #29210C",
"B  c #3E3215",
"V  c #655D4A",
"C  c #353127",
"Z  c #292722",
"A  c #2A210D",
"S  c #473818",
"D  c #453516",
"F  c #2D230F",
"G  c #120E06",
"H  c #372B14",
"J  c #8C7E63",
"K  c #716650",
"L  c #6C624D",
"P  c #4A4335",
"I  c #81755E",
"U  c #383329",
"Y  c #392C14",
"T  c #2E2310",
"R  c #746852",
"E  c #4F4738",
"W  c #4C4436",
"Q  c #8E8066",
"!  c #8A7C63",
"~  c #6E634F",
"^  c #94856B",
"/  c #4B3819",
"(  c #302411",
")  c #3D2F18",
"_  c #594F3F",
"`  c #776A55",
"'  c #544B3C",
"]  c #93836A",
"[  c #8B7C64",
"{  c #887A62",
"}  c #7F725C",
"|  c #645A49",
" . c #463F33",
".. c #867862",
"X. c #887A64",
"o. c #534C40",
"O. c #2E2B26",
"+. c #312E29",
"@. c #533D1B",
"#. c #493518",
"$. c #573F1D",
"%. c #4D381A",
"&. c #4A3619",
"*. c #473418",
"=. c #523C1C",
"-. c #493619",
";. c #403018",
":. c #3E2F18",
">. c #8D7D65",
",. c #6B5F4D",
"<. c #918169",
"1. c #9B8A71",
"2. c #695E4D",
"3. c #685D4C",
"4. c #A09078",
"5. c #564E42",
"6. c #22201D",
"7. c #262421",
"8. c #553D1C",
"9. c #402E15",
"0. c #50391B",
"q. c #0D0A06",
"w. c #99876F",
"e. c #94836B",
"r. c #8F7E68",
"t. c #6E6150",
"y. c #8A7A65",
"u. c #635849",
"i. c #A79883",
"p. c #988A77",
"a. c #573C1B",
"s. c #5C411F",
"d. c #563D1D",
"f. c #50391C",
"g. c #7A6A57",
"h. c #746553",
"j. c #97856E",
"k. c #887763",
"l. c #857561",
"z. c #8B7A66",
"x. c #8A7965",
"c. c #82725F",
"v. c #7C6D5B",
"b. c #8D7C68",
"n. c #8C7B67",
"m. c #897965",
"M. c #8F7E6A",
"N. c #8E7D69",
"B. c #5E5346",
"V. c #36322D",
"C. c #624421",
"Z. c #624321",
"A. c #5F4120",
"S. c #593D1E",
"D. c #716251",
"F. c #605446",
"G. c #95826D",
"H. c #93816C",
"J. c #907E6A",
"K. c #8A7966",
"L. c #5C5145",
"P. c #76695A",
"I. c #726557",
"U. c #524A41",
"Y. c #504A43",
"T. c #664522",
"R. c #6E4925",
"E. c #726251",
"W. c #776655",
"Q. c #736352",
"!. c #716151",
"~. c #655749",
"^. c #695B4D",
"/. c #8D7B68",
"(. c #756759",
"). c #524940",
"_. c #564D44",
"`. c #514941",
"'. c #524A42",
"]. c #524C46",
"[. c #413D39",
"{. c #222120",
"}. c #CC6000",
"|. c #9C4C00",
" X c #FC8820",
".X c #6A4624",
"XX c #654222",
"oX c #7E522B",
"OX c #82552D",
"+X c #774E29",
"@X c #754D29",
"#X c #734C28",
"$X c #FCA85C",
"%X c #6E5E4F",
"&X c #544B43",
"*X c #784D29",
"=X c #7A4E2A",
"-X c #895930",
";X c #87572F",
":X c #8A5931",
">X c #774E2A",
",X c #875830",
"<X c #81532E",
"1X c #8B5A32",
"2X c #514942",
"3X c #514A44",
"4X c #554E48",
"5X c #47413C",
"6X c #58514B",
"7X c #89572F",
"8X c #86552E",
"9X c #82522D",
"0X c #82512D",
"qX c #80502C",
"wX c #7D4F2B",
"eX c #84542E",
"rX c #83532E",
"tX c #915C34",
"yX c #8E5B33",
"uX c #935E35",
"iX c #925D35",
"pX c #905B34",
"aX c #8B5932",
"sX c #8F5C34",
"dX c #804F2C",
"fX c #7F4F2C",
"gX c #895530",
"hX c #84522E",
"jX c #9D6138",
"kX c #955C35",
"lX c #995F37",
"zX c #A2653D",
"xX c #AA6941",
"cX c #AC6A42",
"vX c #AB6A42",
"bX c #700000",
"nX c #D0D0D0",
"mX c #C0C0C0",
"MX c #989898",
"NX c gray55",
"BX c #7C7C7C",
"VX c gray44",
"CX c #646464",
"ZX c gray36",
"AX c gray33",
"SX c #4C4C4C",
"DX c #484848",
"FX c gray25",
"GX c gray22",
"HX c gray19",
"JX c gray17",
"KX c gray15",
"LX c #202020",
"PX c gray12",
"IX c gray11",
"UX c None",
/* pixels */
"jXjX@ # # & qXqX# qXzX# # jXO qXjX# qXqXqXqX@ qX& qX# qXqXqXqX& qX& & # qXjXqX# qXqX# @ qXqXqXR.qX& qX& qX& qX# jXqX@ # qXqXjX& ",
"8X8X>X#XR.s..X.XR..XoXT.T.wXpXR.8X#X.X.XC..X>X.Xs.Z.R..X.X.XR.T.*XT.s.T.C.R..XR..XC.R.>XZ..XR.Z.*XT.R.s..Xs..XR.wXZ.#XR..XR.wXZ.",
"S.s.%.f.&.S -.#.#.&.0.B B / Z.f.A.%./ &.B #.f.-.B B &./ -.#.f.-.A./ D B B B / *.&.B #.f.B #.f./ Z.&.=.B &.B &.-.%.B *./ *.f.%./ ",
"Y ;.Y ;.;./ :.Y ;.;.S ;.;.Y ;.Y D ;.S ;.H Y ;.;.;.;.;.Y :.Y ;.Y ;.;.S Y Y Y Y :.;.H ;.;.;.Y ;.Y D :.S Y ;.Y ;.;.;.;.Y ;.H ;.;.S ",
"D %.*.%.( G XX*.S.-.s.&.S.* S.F q.XXs.-.d.*.-.S.f.&.( q.XX*.-.D S.%./ *.D T q.XX#.%.S.*.&.*.S.F q.XXs.*.-.*.#.#.-.&.F q.XX*.S.s.",
"Z.R.Z.R.Y p kXZ.oXZ.oXZ.oXoXoXY p kXoXZ.oXZ.Z.oXR.Z.Y p kXZ.Z.T.oXR.T.Z.T.Y p kXT.R.oXT.Z.Z.oXY p kXoXZ.Z.Z.T.T.Z.Z.Y p kXT.oXoX",
"@X:X@X:Xd.A xX@XiX@XiX@XiXiXiXd.A xXiX@XiX@X@XiX0X@Xd.A xX@X@X0XiX0X0X@X0Xd.A xX0X0XiX0X@X@XiXd.A xXiX@X@X@X0X0X@X@Xd.A xX0XiXiX",
"& -X& -X8.N $Xy 9     y y y y y y y y y y y y y y y y y y y y y y y y y y y y y y y y y y y y y y y y y y     9 y $X8.N xXqXtX:X",
"& # & # * - }.}.y &       |.|.|.|.|.|.|.|.|.|.|.|.|.|.|.|.|.|.|.|.|.|.|.|.|.|.|.|.|.|.|.|.|.|.|.|.|.|.      rX$X}.}.* - O rX@ # ",
"& # & # * - O &  X& + $ $     = = = = = = = = = = = = = = = = = = = = = = = = = = = = = = = = = =     + $ $ :X}.:XqX* - O :X@ ;X",
"& # & # * - O & @ & + $ $ $ % % VXbXbXbXbX% % % $ $ $ + + + + $ $ $ $ % % % bXbXbXbX% % % $ $ BX+ + + + $ $ sX@ sXdX* - O sX@ qX",
"& # & # * - O & @ & + $ $ $ % ZXX NXIXbXbX% % % $ $ $ + + + + $ $ $ $ % % % bXbXbXbX% % % HXMXmXBX+ + + $ $ tX@ tXeX* - O tX@ fX",
"& # & # * - O & @ & + $ $ $ % LXX o NXIXbX% % % $ $ $ + + + + $ $ $ $ % % % bXbXbXbX% % LXo mXmXFX+ + + $ $ @ @ @ 1X* - O @ @ qX",
"& # & # * - O & @ & + $ $ $ ZXIXFXo o o HX% % % $ $ $ + + + + $ $ $ $ % % % bXbXbXbX% GXX mXmXSXGXBX+ + $ $ @ @ @ @ * - O @ @ qX",
"& # & # * - O & @ & + $ $ $ NXX ZXGXo o o FX% % $ $ $ + + + + $ $ $ $ % % % bXbXbXbXFXX X mXSXVXnXo + + $ $ @ @ @ @ * - O @ tXqX",
"& # & # * - O & @ & + $ $ HXFXX X MXAXNXo X ZX% $ $ $ + + + + $ $ $ $ % % % bXbXbXAXX X NXVXX mXnXZXFX+ $ $ @ @ @ @ * - O @ yX=X",
"& # & # * - O & @ & + $ $ MXNXZXo o o NXCXX X NXHX$ $ + + + + $ $ $ $ % % % bXIXNXo X VXMXmXmXX BXo o + $ $ @ @ @ @ * - O @ # #X",
"& # & # * - O & @ & + $ $ VXX X o NXNXo o o X X mXSX$ + + + + $ $ $ $ % % % GXo o o o X X MXMXX nXnXBX+ $ $ @ @ @ @ * - O @ # & ",
"& # & # * - O & @ & + $ BXSXZXX X o o NXAXX X X mXmXMX+ + + + $ $ $ $ % % NXo o o o X ZXNXmXmXmXnXBXZXNX$ $ @ iX@ @ * - O @ -X& ",
"& # & # * - O & @ & + $ mXmXX NXNXVXNXo o X X X mXmXmXNX+ + + SXVXVXGX% VXX o o o o X X X o NXMXo nXnXnX$ $ @ yX@ @ * - O @ ;X& ",
"& # & # * - O & @ & + $ GXMXX X X o MXCXAXX X X mXmXmXo + + NXmXmXmXMX% NXX o o o o X ZXVXX mXmXnXnXo DX$ $ tX0XtX@ * - O @ qX& ",
"& # & # * - O & @ & + $ BXCXFXZXNXMXo o o X X X mXmXmXZX+ DXnXmXmXBX$ % FXX o o o o X X X mXX MXBXZXVXNX$ $ 8X+X8XtX* - O @ fX& ",
"#X# & # * - O & @ & + $ mXmXX X o NXCXAXNXX X X mXmXo + + VXnXmXmXCX$ % % MXo o o o X NXZXBXMXX nXnXnXnX$ $ wX#XfXyX* - O @ qX& ",
"& # & # * - O & @ & + $ GXMXo o o MXNXNXAXX X X mXmXVX+ + BXnXmXmXCX$ % % ZXo o o o X ZXNXMXX X mXmXo DX$ $ qX& qX# * - O @ qX& ",
"wX# & # * - O & @ & + $ BXVXVXNXo o o o o X X X mXmXmXDXDXnXnXmXmXmXGX% = X o o o o X X X mXmXX o NXBXNX$ $ qX& +X9X* - O tXqX& ",
"qX# & # * - O & @ & + $ MXmXX X X MXNXCXNXX X X mXmXmXnXnXnXX FXX mXmXX X X o o o o X NXVXMXX mXnXnXnXo $ $ =X& #XdX* - O yX=X& ",
"qX# & # * - O & @ & + $ $ SXVXZXZXAXVXMXo X X X mXmXmXnXnXmXGXBXo o mXX X X o o o o X X o NXVXVXBXNXZX+ $ $ #X& & qX* - O ,X#X& ",
"qX# & # * - O & @ & + $ $ GXNXX X o o NXHXNXX X mXmXmXnXX X GXCXHXHXo X X X o o o o NXGXNXmXmXmXnXo DX+ $ $ & & & @X* - O -X& & ",
"qX# & # * - O & @ & + $ $ $ ZXMXMXCXGXAXMXX X X mXmXmXnXGXNXVXt CXBXGXX X X o o o o X o ZXSXBXo X BX+ + $ $ & & & #X* - O eX& & ",
"qX# & # * - O & @ & + $ $ $ % % LXCXo o o VXX o o MXCXnXX GXGXCXGXo o X X AXNXNXMXo VXX X mXBXHX+ + + + $ $ & & & & * - O fX& & ",
"qX# & # * - O & @ & + $ $ $ % % NXo NXAXNXX o LXLXSXMXnXnXX X BXHXo mXX X NXGX  IXMXX NXZXo mXMX+ + + + $ $ & & & & * - O qX& & ",
"fXrX& # * - O & @ & + $ $ $ % % % bXHXMXo MX= IXDXmXmXnXnXnXX t o mXmXX X X o HX  LXMXX o DX$ $ + + + + $ $ & & & & * - O qX& & ",
"rXfX& # * - O & @ & + $ $ $ % % % IXNXMXCXVXLXIXo mXmXnXnXo nXmXmXmXX X X X o NX  IXVXVXo MXt $ + + + + $ $ & & & & * - O wX& & ",
"# qX& # * - O & @ & + $ $ $ % % % bXbXbXGXX FXLXmXmXmXnXnXZXnXmXmXBXt X X X o o IXGXX FX% $ $ $ + + + + $ $ & & & & * - O & & & ",
",XqX& # * - O & @ & + $ $ $ % % % bXAXo SXNXVXIXo mXmXnXX ZXnXmXmXo LXMXX X o NXIXCXNXAXX VX$ $ + + + + $ $ & & & & * - O & & #X",
"1X=X& # * - O & @ & + $ $ $ % % % LXo o o VXMXIXHXVXmXnXAXNXnXmXmXmXHXFXX X AXIXIXNXVXX X mXGX$ + + + + $ $ & #X#X& * - O & & =X",
"tX#X& # * - O & @ & + $ $ $ % % % bXbXSXGXMXX X X mXmXZX+ X nXmXmXmXSX% FXX o MXo o MXFXAX$ $ $ + + + + $ $ & @X@X& * - O & & qX",
"@ & & # * - O & @ & + $ $ $ % % % bXLXMXo NXNXX SXSX$ + + mXnXmXmXmXVX% % % GXGXo NXNXX o GX$ $ + + + + $ $ #XqXqX#X* - O & & qX",
"@ & & # * - O & @ & + $ $ $ % % % bXIXMXNX% FXX VX$ $ + + NXnXmXmXo SX% % % bXAXo GX% NXo HX$ $ + + + + $ $ =XdXdX=X* - O & & fX",
"@ & & # * - O & @ & + $ $ $ % % % bXbXbXbX% % ZX$ $ $ + + + AXBXDX$ $ % % % bXbXAXbX% % % $ $ $ + + + + $ $ qX9X9XqX* - O & & 9X",
"@ & & # * - O & @ & + $ $ $ % % % bXbXbXbX% % % $ $ $ + + + + $ $ $ $ % % % bXbXbXbX% % % $ $ $ + + + + $ $ qX# # qX* - O & & # ",
"tX& #X# * - O & 9 & + $ $     = = = = = = = = = = = = = = = = = = = = = = = = = = = = = = = = = =     + $ $ fX9 yXqX* - O & #X# ",
"yX& =X# * - $Xy 9 $X      y y y y y y y y y y y y y y y y y y y y y y y y y y y y y y y y y y y y y y       y 9 y $X* - O & =X1X",
"# & qX# * - }.}.y     |.|.|.|.|.|.|.|.|.|.|.|.|.|.|.|.|.|.|.|.|.|.|.|.|.|.|.|.|.|.|.|.|.|.|.|.|.|.|.|.|.|.    $X}.}.* - O & qX@ ",
"-X& qX# * - O & @ #X& -X@ ,XfX* - O & #X@ & & @ tXqX* - O & & @ & @ # & ;X* - O # @ & @ & & @ * - O # qX& #X,X@ @ ;X* - O #XqX@ ",
"eX& qX# * - O & @ =X& eX@ 1XeX* - O & =X@ & & @ 1X=X* - O & & @ & @ -X& -X* - O -X@ & @ & & @ * - O # qX& =X1X@ @ # * - O =XfX@ ",
"fX& qX# * - O & @ qX& fX@ tX-X* - O & qX@ & & @ ,X#X* - O & & @ & @ ;X& # * - O ;X@ & @ & & @ * - O # wX& qXtX@ @ -X* - O qX9X@ ",
"qX& qX# * - O & @ qX& qX@ @ # * - O & qX@ & & @ # & * - O & & @ & @ qX& # * - O qX@ & @ & & @ * - O # & & qX@ @ @ sX* - O qXyX@ ",
"qX& fX# * - O & @ qX& qX@ @ yX* - O & qX@ & & @ rX& * - O & & @ & @ fX& yX* - O fX@ & @ & & @ * - O # #X& qX@ @ @ tX* - O wXiX@ ",
"wX& 9X# * - O & @ qX& qX@ @ tX* - O & qX@ & & @ fX& * - O & & @ & @ qX& tX* - O qX@ & @ & & @ * - O # & & qX@ @ @ @ * - O eX@ @ ",
"& & # # * - O & @ qX& qX@ @ @ * - O & qX@ & & @ qX& * - O & & @ & @ qX& @ * - O qX@ & @ & & @ * - O # & & qX@ @ @ @ * - O @ @ @ ",
"#X& ,X# * - O & @ qX& qXtX@ @ * - O & qX@ & & :XqX& * - O & & @ & @ qX& @ * - O qX@ & @ & & @ * - O # & & ;X@ @ @ @ * - O tX@ :X",
"& & 1X# * - O & @ fX& =XyX@ @ * - O & fX@ & & # qX& * - O & & @ & @ qX& @ * - O qX@ & @ & & @ * - O # & & -X@ @ @ @ * - O @ @ # ",
"& & tX# * - O & @ qX& #X# @ @ * - O & qX@ & & ;XqX& * - O & & @ & @ qX& @ * - O qX@ & @ & & @ * - O # & & # @ @ @ @ * - O @ @ ;X",
"& & @ -X* - O & tX;X& & -X@ @ * - O & ;XtX& & 0XqX& * - O & & @ & @ qX#X@ * - O qX@ & @ & & @ * - O # & #X,X@ @ tX@ * - O @ @ 0X",
"#X#XiXeX0.i cX& 1X-XR.#XrXiXiX0.i cX#X-XyX#X& fX=X#X0.i vXR.#X@ #XiX*X*XuX%.i xX*XtX& iX#X#XiX/ i vX;XR.=X1XtXiXyXiX0.i cXuXiXfX",
"*X*XyXqXs.Y jX@X-X# qX*X9XyXyXZ.9.zX*X;XOX+X@XqX& *Xs.Y zXoX+XiX=XyX@XgXaXT.9.zX=X@ @XyX*X=XyXT.9.zXyX<X0XuX@ yX;XyXA.9.zXaXyXrX",
"qXqX0XqX& wX=X@X:X0XjXqX:X0X9X# yXhXqX0XR.qX@XqX@XqX& wX1XjX0XiX-X0XqXjX+XlXlXuX# :X@X0XqX-X0XzX;X1XjXO 0XjX:X0X0X9XqXyXhX+X9X:X",
"T.T.T..XT.wXA.$.C.s..XT..XXXs.R.>XS.T..XA.+XZ..XS.T.s..XT.=Xs.R..XT.R.>XA.;X7XR.R.T.$.XXT..XXX=XT.s.>XyXR.9XR.Z.T.s..X>XZ.$.s..X",
"D &.D 0.D s./ D B B Y D #.&.B #.%.B D 0.#.s./ @.B &.B &.#.%.B D #.D 0.%.%.a.S./ 0.#.D &.D #.&.0.B B &.A.%.S.0.%.&.B D %.&.D B #.",
"H :.H :.H :.:.S H H H H :.:.H :.:.:.H :.H :.:.S H :.H :.:.:.:.H :.H :.:.S H :.H :.:.S :.H :.:.S :.:.H ) H :.:.S :.H H :.:.:.:.:.",
"M n v 6.v v n u v v m u 7.7.Z O.O.7.u 7.m v n u v n v n n 6.n M 7.v 6.6.u b v b 6.n 7.7.u 7.O.O.O.7.u M m v 6.u n v v 6.n n n 7.",
"6X4X4X4X4X4X4X4X4X4X5X[.[.[., , , [.[.[.5X4X4X].4X].4X4X4X4X4X6X6X4X].].4X].].].4X4X5X[.[.[., , , [.[.[.5X].].].].3X].].].].Y.4X",
"<.J.J.J.<.<.J.b.J.r.W.t.t.F.KX= = F.~ ~ g.J.<.G.<.G.<.r.J.<.<.J.J.J.G.e.<.e.j.G.<.J.g.~ ~ F.KX= = F.h.~ g.e.e.e.e.w.j.G.e.G.w.H.",
"c W.t.g.c c t.~.t.,.F.Q.3.E {.= = &Xl d h.W.c N.c r.c t.t.c c W.W.W.N.b.j b.j.r.x g.j l l E {.= = &XK.l x.n.] n.n.i.j.^ b.^ i.n.",
"~ !.| ,.,.K | F.| v.~.,.t.P PX= = 2Xg ..K K a x a v.g ,.V R k K ~ K x N.} n.I g.u.~.L ` R P PX= = 2XI g J.r.4.r.<.4.} ^ n.H.p.<.",
"g.Q.2.| ,.!.,.L ,.y.g.2.D.W LX= = '.x m.x j x c x ~ R h.V %Xg k x k c ..J.n.j W.F.L.2.%XQ.W LX= = '.s x l.1.i.1.] <.c ] n.l.m.e.",
"z.Q.E.B.l 3.l l Q.j z.l 3.W LX= = '.z.j z.l z.z.] k Q.Q.B.B.2.l z.Q.n.j n.n.z.n.k V Q.B.Q.W LX= = '.l z.l i.i.i.n.^ ] n.n.j n.b.",
"J.Q.k.~ L t.j h.R K J.j ,.W LX= = '.b.a b.l e.J.H...Q.Q.L.u._.X.J.k.x k x N.b.x Q l.Q.`.h.W LX= = '.l.n.I i.i.i.4.r.H.n.n.k N.c ",
"I K ..d V h.R h.g Q.I g g.W LX= = '.z.I b.l e.I } ..h.R u.t.L.c.l.l.d R d I z.a J ..h.B.t.W LX= = '.] r.H.4.i.i.i.m.} b.b.l I x ",
"k j k 3.3.D.Q.l j Q.k j M.W LX= = '.b.^ y.l x.k j k l k 2.Q.V | t.E.l Q.l j b.j g l l h.3.W LX= = '.^ ^ ^ x.i.i.i.N.j y.y.l j n.",
"k y.s %X| L.Q.Q.k.K s ..i.W LX= = '.j.N.j l W.k y.k l 2.3.2.E '.&Xl W.R Q.m.] Q a ..g d | W LX= = '.N.J.j.z.G.w.j.i.Q j c d m.j ",
"g.k.! x.l.} c g.1.Q { G.i.W LX= = &X{ J.l.x ` x k.x x h.~ h.~.u.u.j ^.x g.{ w.4.Q j.{ ..} W LX= = &XJ.c.! G.I 1.i.i.4.{ x ! ! { ",
"~.F.v.v.v.{ z z I ..} c.} W LX= = U.z c.} z z z ~.V V ~.L.~.^.B.B.L.5XV V V v.I ..v.} l.l.W LX= = U.c.2.V v.V I p.} } v.V v.h v.",
"e m 7.7.7.U C C U U 6 ' ' E LX= = E ' ' 6 C C C C e e e {.e e {.{.{.r e e C U U U U 6 ' ' E LX= = E ' ' 6 U C U U 7.7.7.e 7.m 7.",
"2 2 : : : w 0 0 w w 3 Z Z O.IX= = O.Z Z 3 0 0 0 0 2 2 2 2 2 2 2 2 2 < 2 2 0 0 w w 0 3 Z Z O.IX= = O.Z Z 3 0 0 w q ; ; : 2 : 2 : ",
"PX1 1 1 1 > > > > > > < < < > , , < < < > > > > > IX1 1 1 1 PXPXPX1 1 1 1 > > > > > > < < < > , , < < < > > > > > IX1 1 1 1 PXPX",
"t t t t t t t t t t t t t t t = = t t t t t t t t t t t t t t t t t t t t t t t t t t t t t t = = t t t t t t t t t t t t t t t ",
"JX).5.5.L.(.I.I.I.I.I.I.I.I.(.P.I.I.I.(.P.P.(.P.(.(.B.o.o.).t JXJX).o.5.L.(.(.(.(.I.I.I.I.I.I.P.P.I.I.(.(.(.(.P.(.I.L.5.o.).t JX",
"= B.R R l.[ w.G.w.e.e.G.1.w.>.>.j.j.w.[ ..c.z...>.[ g.v.v.L.KX= = B.} R l.z.>.>.>.1.w.w.G.w.j.! >.j.w.>.>.>.z...>.w.l.K } L.KX= ",
"= 2Xj j z.j x.b.^ M.M.b.<.m.g g y.n.y.j V L.!.V g j j r.N.P PX= = 2Xz.j z.!.g g g <.^ ^ b.^ n.j g n.x.g g g !.V d x.z.c j.P PX= ",
"= '.j j c k.W.] ^ i.i.] c h.l j c N.c y.a | Q.a d k.l ] b.W LX= = '.~ l W.Q.Q.l l x ^ J.] b.N.y.l N.g.l l l Q.!.D.W.c X.w.W LX= ",
"= '.R K K H.~ ^ ^ 4.4.^ d } h.L K } K I l.,.,.l.} N.d ^ N.W LX= = '.L.l K Q.R h.j K ] } <.z.} I j c.3.h.h.K R h.} ~ g N.I W LX= ",
"= '.%Xu.Q.c.x ] ^ <.j.] k m.!.2.!.d Q.s m.g.2.m.N.n.x ^ ..W LX= = '.u.l l Q.g !.g !...g z./.s d R ^.2.!.Q.g.k Q.N.c l b.c W LX= ",
"= '.B.'.Q.F.^ n.^ ^ i.] k h.3.h.2.l l k j z.E.j n.n.] ^ j W LX= = '.l l Q.Q.2.3.2.3.j j n.b.k Q.Q.&Xl 3.j z.k k n.y.l b.n.W LX= ",
"= '.^._.h.2.I N.r.^ 4.i...K t.L.F.h.h.I g N.K g N.n.e.r.a W LX= = '.| R R h.B.,.V V L L N.x I K Q.&Xh.t.L J.I I ] j.d g.` W LX= ",
"= '.W.u.%Xc j { J.j.J i.n.c ` B.u.W.W.G.c J.I c { J...N.} W LX= = '.~.%XR t.^.u.,.D.^.,.{ j G.I ` ,.h.` t.{ j.G.w.Q I g.V W LX= ",
"= '.E.3.L.!.g d m.m.d k.d d d D.V !.!.m.d m.x.g d m.d K.z.W LX= = '.E.L.V L.D.`.V !.L.V d !.m.m.d g | d !.d <.m.m.d K.z.V W LX= ",
"= ' _ _ 6 f f f  .V.O.V.O.+.+.+.O.+.+.V.+. . .f f  .7 F.F.E LX= = ' _ ' 7 U f U f +.t O.O.+.V.V.+.+.O.+.+.f P  . .f 8 F._ E LX= ",
"= U +.C 5 0 0 0 0 ; : ; : : : : 2 : : ; : 0 0 0 0 0 4 O.O.V.PX= = U +.C 5 v 0 6.b : < 2 : : ; ; : : 2 : : 0 0 0 0 0 4 O.C V.PX= ",
"= IXIXIXIXIXIXIXIXIXIXIXIXIXIXIXIXIXIXIXIXIXIXIXIXIXIXIXIXIXIX= = IXIXIXIXIXIXIXIXIXIXIXIXIXIXIXIXIXIXIXIXIXIXIXIXIXIXIXIXIXIX= "
};
