/* XPM */
static char *_76ae3f0a40540799dfb1f1cd7d02377[] = {
/* columns rows colors chars-per-pixel */
"64 91 256 2 ",
"   c black",
".  c gray100",
"X  c #111214",
"o  c #131416",
"O  c #191A1C",
"+  c #27282A",
"@  c #151719",
"#  c #1C1D1E",
"$  c #141617",
"%  c #1D211C",
"&  c #20271E",
"*  c #232A20",
"=  c #3A402F",
"-  c #414633",
";  c #4A4C3A",
":  c #1C1C18",
">  c #191916",
",  c #1A1A18",
"<  c #232321",
"1  c #20201F",
"2  c #292928",
"3  c #E4D800",
"4  c #070602",
"5  c #6E684E",
"6  c #1F1E1A",
"7  c #70694F",
"8  c #706950",
"9  c #3F3B2D",
"0  c #716A51",
"q  c #625C47",
"w  c #645E49",
"e  c #746C52",
"r  c #726A51",
"t  c #736B52",
"y  c #68614A",
"u  c #756C53",
"i  c #7A7157",
"p  c #776E55",
"a  c #746B53",
"s  c #716951",
"d  c #2F2D27",
"f  c #21201D",
"g  c #201F1C",
"h  c #23221F",
"j  c #28200C",
"k  c #3E3215",
"l  c #353127",
"z  c #292722",
"x  c #473818",
"c  c #80755C",
"v  c #7E735B",
"b  c #483818",
"n  c #2D230F",
"m  c #120E06",
"M  c #372B14",
"N  c #8C7E63",
"B  c #716650",
"V  c #6C624D",
"C  c #4A4335",
"Z  c #383329",
"A  c #1D1C1A",
"S  c #443416",
"D  c #392C14",
"F  c #2E2310",
"G  c #746852",
"H  c #4F4738",
"J  c #4C4436",
"K  c #8E8066",
"L  c #8A7C63",
"P  c #6E634F",
"I  c #94856B",
"U  c #4B3819",
"Y  c #302410",
"T  c #302411",
"R  c #594F3F",
"E  c #776A55",
"W  c #544B3C",
"Q  c #93836A",
"!  c #8B7C64",
"~  c #887A62",
"^  c #645A49",
"/  c #463F33",
"(  c #867862",
")  c #82755F",
"_  c #887A64",
"`  c #665C4B",
"'  c #534C40",
"]  c #2D2A25",
"[  c #312E29",
"{  c #493518",
"}  c #4A3619",
"|  c #473418",
" . c #523C1C",
".. c #493619",
"X. c #403018",
"o. c #3E2F18",
"O. c #8D7D65",
"+. c #6B5F4D",
"@. c #92826A",
"#. c #918169",
"$. c #9B8A71",
"%. c #695E4D",
"&. c #685D4C",
"*. c #A09078",
"=. c #564E42",
"-. c #22201D",
";. c #262421",
":. c #543C1C",
">. c #50391B",
",. c #4D381B",
"<. c #0D0A06",
"1. c #7B6C57",
"2. c #746653",
"3. c #99876F",
"4. c #94836B",
"5. c #8F7E68",
"6. c #80715D",
"7. c #6E6150",
"8. c #8A7A65",
"9. c #635849",
"0. c #A59681",
"q. c #988A77",
"w. c #A99A85",
"e. c #5C411F",
"r. c #563D1D",
"t. c #50391C",
"y. c #97856E",
"u. c #887763",
"i. c #857561",
"p. c #8B7A66",
"a. c #8A7965",
"s. c #82725F",
"d. c #7C6D5B",
"f. c #8D7C68",
"g. c #8C7B67",
"h. c #897965",
"j. c #8F7E6A",
"k. c #8E7D69",
"l. c #5E5346",
"z. c #36322D",
"x. c #5A3E1E",
"c. c #624321",
"v. c #624421",
"b. c #5F4120",
"n. c #664723",
"m. c #583D1E",
"M. c #5C4020",
"N. c #716251",
"B. c #605446",
"V. c #95826D",
"C. c #93816C",
"Z. c #907E6A",
"A. c #8A7966",
"S. c #5C5145",
"D. c #76695A",
"F. c #726557",
"G. c #524A41",
"H. c #6C4824",
"J. c #664422",
"K. c #6D4925",
"L. c #6F4A26",
"P. c #796856",
"I. c #726251",
"U. c #776655",
"Y. c #736352",
"T. c #746453",
"R. c #716151",
"E. c #655749",
"W. c #685A4C",
"Q. c #8D7B68",
"!. c #756759",
"~. c #524940",
"^. c #564D44",
"/. c #514941",
"(. c #524A42",
"). c #222120",
"_. c #E46C00",
"`. c #9C4C00",
"'. c #6A4624",
"]. c #654222",
"[. c #7E522B",
"{. c #744C28",
"}. c #734C28",
"|. c #6E5E4F",
" X c #695B4E",
".X c #544B43",
"XX c #794E29",
"oX c #885830",
"OX c #774E2A",
"+X c #514942",
"@X c #47413C",
"#X c #86552E",
"$X c #80502C",
"%X c #7D4F2B",
"&X c #905B34",
"*X c #905C34",
"=X c #9D6138",
"-X c #9C6038",
";X c #955C35",
":X c #BC7848",
">X c #B47044",
",X c #A2653D",
"<X c #DC8854",
"1X c #C87C4C",
"2X c #A86840",
"3X c #D08050",
"4X c #FCE0D0",
"5X c #FC0000",
"6X c #EC0000",
"7X c #E00000",
"8X c #D40000",
"9X c #C80000",
"0X c #BC0000",
"qX c #FC4040",
"wX c #FC5C5C",
"eX c #FC7C7C",
"rX c #FC9C9C",
"tX c gainsboro",
"yX c #D0D0D0",
"uX c #C0C0C0",
"iX c #B4B4B4",
"pX c gray66",
"aX c #989898",
"sX c gray22",
"dX c #2C2C2C",
"fX c gray17",
"gX c #282828",
"hX c gray15",
"jX c #202020",
"kX c gray12",
"lX c gray11",
"zX c black",
"xX c black",
"cX c black",
"vX c black",
"bX c black",
"nX c black",
"mX c black",
"MX c black",
"NX c black",
"BX c black",
"VX c black",
"CX c black",
"ZX c black",
"AX c black",
"SX c black",
"DX c black",
"FX c black",
"GX c black",
"HX c black",
"JX c black",
"KX c black",
"LX c black",
"PX c black",
"IX c black",
"UX c black",
/* pixels */
"=X=X*XoXoX{.$X$XoX$X,XoXoX=X2X$X=XoX$X$X$X$X*X$X{.$XoX$X$X$X$X{.$X{.{.oX$X=X$XoX$X$XoX*X$X$X$XK.$X{.$X{.$X{.$XoX=X$X*XoX$X$X=X{.",
"#X#XOX}.K.e.'.'.K.'.[.n.n.%X&XL.#X}.'.'.v.'.OX'.e.c.K.'.'.'.L.J.XXJ.e.n.v.L.'.K.'.v.K.OXc.'.L.c.XXJ.K.e.'.e.'.K.%Xc.}.K.'.L.%Xc.",
"x.e.,.t.} x ..{ { } >.k k U c.t.b.,.U } k { t...k k } U ..{ t...b.U S k k k U | } k { t.k { t.U c.}  .k } k } ..,.k | U | t.,.U ",
"D X.D X.X.U o.D X.X.x X.X.D X.D S X.x X.M D X.X.X.X.X.D o.D X.D X.X.x D D D D o.X.M X.X.X.D X.D S o.x D X.D X.X.X.X.D X.M X.X.x ",
"S ,.| ,.T m ].| m...e.} x.:.m.n <.].e...r.| ..m.t.} T <.].| ..S m.,.U | S F <.].{ ,.m.| } | m.n <.].e.| ..| { { ..} n <.].| m.e.",
"c.L.c.L.D 4 ;Xc.[.c.[.c.[.[.[.D 4 ;X[.c.[.c.c.[.K.c.D 4 ;Xc.c.J.[.K.J.c.J.D 4 ;XJ.K.[.J.c.c.[.D 4 ;X[.c.c.c.J.J.c.c.D 4 ;XJ.[.[.",
"4XlXlXlXlXlXlXlXlXlXlXlXlXlXlXlXlXlXlXlXlXlXlXlXlXlXlXlXlXlXlXlXlXlXlXlXlXlXlXlXlXlXlXlXlXlXlXlXlXlXlXlXlXlXlXlXlXlXlXlXlXlXlXlX",
"4X_.    3 3 3 3 3 3 3 3 3 3 3 3 3 3 3 3 3 3 3 3 3 3 3 3 3 3 3 3 3 3 3 3 3 3 3 3 3 3 3 3 3 3 3 3 3 3 3 3 3 3 3 3 3 3 3 3 3 3 3 3 ",
"3 `.aX      `.`.`.`.`.`.`.`.`.`.`.`.`.`.`.`.`.`.`.`.`.`.`.`.`.`.`.`.`.`.`.`.`.`.`.`.`.`.`.`.`.`.`.`.`.`.`.`.`.`.`.`.`.`.`.`.`.`.",
"_.    pXaXaX                                                                                                                    ",
"uXyXuXuXiXiX{.oXsXsXgXlX    lXgXsXsXgXlX    lXgXsXsXgXlX    lXgXsXsXgXlX    lXgXsXsXgXlX    lXgXsXsXgXlX    lXgXsXsXgXlX    lXgX",
"yXtXyXuXiXiX{.{.-XsXgXlX    lXgXsXsXgXlX    lXgXsXsXgXlX    lXgXsXsXgXlX    lXgXsXsXgXlX    lXgXsXsXgXlX    lXgXsXsXgXlX    lXgX",
"yXtXyXuXiXiXuX$X1X-XoX{.    lXgXsXsXgXlX    lXgXsXsXgXlX    lXgXsXsXgXlX    lXgXsXsXgXlX    lXgXsXsXgXlX    lXgXsXsXgXlX    lXgX",
"yXtXyXuXiXiXuXoX:X3X>X*XH.M.{.gXsXsXgXlX    lXgXsXsXgXlX    lXgXsXsXgXlX    lXgXsXsXgXlX    lXgXsXsXgXlX    lXgXsXsXgXlX    lXgX",
"yXtXyXuXiXiXuXyX:X:X>X2X*XoX*XoX>X-XoX{.M.  lXgXsXsXgXlX    lXgXsXsXgXlX    lXgXsXsXgXlX    lXgXsXsXgXlX    lXgXsXsXgXlX    lXgX",
"yXtXyXuXiXiXuXyXtX-X$X{.{.oX-X1X1X:X2X*X{.H.*XoX-X-XgXlX    lXgXsXsXgXlX    lXgXsXsXgXlX    lXgXsXsXgXlX    lXgXsXsXgXlX    lXgX",
"yXtXyXuXiXiXuXyXtXtXoX*XH.H.oXoX*X>X2X-XoX*X-X2X>X2X*X*X*XM.{.oX-X-XgXlX    lXgXsXsXgXlX    lXgXsXsXgXlX    lXgXsXsXgXlX    lXgX",
"yXtXyXuXiXiXuXyXtXtXoXoX*X*X2X>X:X-X$XM.b M.oX2X:X1X>X-X*X{.$X-XoX$X{.M.M.H.$XoX-XsXgXlX    lXgXsXsXgXlX    lXgXsXsXgXlX    lXgX",
"yXtXyXuXiXiXuXyXtXtXyX*XoX*X2X:X3X3X>X>XoXoX*X*X2X>X*X{.oXoXM.2X:X:X-XoX{.H.{.$X>X:XoXb     lXgXsXsXgXlX    lXgXsXsXgXlX    lXgX",
"yXtXyXuXiXiXuXyXtXtXyXuXM.:.{.2X1X1X:X>X:.b M.{.oXoXoX$X{.oX*XH.>X1X:X2X*X*X>X2X*XoX-X-XoXM.Y gXsXsXgXlX    lXgXsXsXgXlX    lXgX",
"yXtXyXuXiXiXuXyXtXtXyXuXiXiX{.-X>X2X$XM.:.M.$X-X:X:X2X*XoXoX*X-X>X-X$XM.M.H.{.>X3X1X-X{.M.oX2X2X{.sXgXlX    lXgXsXsXgXlX    lXgX",
"yXtXyXuXiXiXuXyXtXtXyXuXiXiXuX-X3X3X>X-XoXoXoX*X*XoX$XM.:.M.{.-X>X>X-XM.H.{.oX>X1X1X:X-XoX:.oX>X1XH.gXlX    lXgXsXsXgXlX    lXgX",
"yXtXyXuXiXiXuXyXtXtXyXuXiXiXuXoX-X:X>X2X*X*X2X:X3X2X$XH.:.:.M.{.oXoXH.b X.:.M.H.oX2X:X2X-XoXoXoX:X1X$X{.    lXgXsXsXgXlX    lXgX",
"yXtXyXuXiXiXuXyXtXtXyXuXiXiXuXyXtX-X2X{.oX{.oX-X>X>X-XoXH.H.{.oXoXoXH.b b {.*X$X:X1X:X2X*X*X2X2X*X:X>XH.M.  lXgXsXsXgXlX    lXgX",
"yXtXyXuXiXiXuXyXtXtXyXuXiXiXuXyXtXtXyX{.H.oX-X>X1X1X>X-XoX{.H.{.oX*XoXM.X.X.M.oX-XoXoX{.M.oX2X:X<X*X-X>XoXM.lXgXsXsXgXlX    Y 2X",
"yXtXyXuXiXiXuXyXtXtXyXuXiXiXuXyXtXtXyXuXiXoX$X2X:X:X2XoX{.M.{.-X>X-XM.b :.M.H.$X>X:X$X{.:.oX2X:X3X3XoX{.oXoXM.oXsXsXgXlX  j -X:X",
"yXtXyXuXiXiXuXyXtXtXyXuXiXiXuXyXtXtXyXuXiXiXuXoX-X-XoX{.X.M.*X>X3X*X*X*XoXM.H.-XoXoX>X{.oXX.M.oX*X*XoXM.Y oX2X>XoX-XgXlXj oX2X:X",
"yXtXyXuXiXiXuXyXtXtXyXuXiXiXuXyXtXtXyXuXiXiXuXyXtXtXyXuXiXM.{.oX-X-XoXM.{.oX*X-X:X-XoX$X:.:.*X>X:X2X{.{.oX{.*X-X>X-XM.Y oX*X2X:X",
"yXtXyXuXiXiXuXyXtXtXyXuXiXiXuXyXtXtXyXuXiXiXuXyXtXtXyXuXiXiXuXyXtXtXyX{.H.H.$XoXoX>X2XoXb H.2X-XoX>X2X*XoXb *X-X>X>X2X-X*X*X2X:X",
"yXtXyXuXiXiXuXyXtXtXyXuXiXiXuXyXtXtXyXuXiXiXuXyXtXtXyXuXiXiXuXyXtXtXyXuXiXiXuXyX-X-XoX{.M.H.b {.oXoX$X{.{.oX2X:X3X3X:X2X*X*X2X2X",
"yXtXyXuXiXiXuXyXtXtXyXuXiXiXuXyXtXtXyXuXiXiXuXyXtXtXyXuXiXiXuXyXtXtXyXuXiXiXuXyXtXtXyXuXM.oX*X2X:X1X>X2X*X*X2X:X3X3X:X2X*X*X-X>X",
"yXtXyXuXiXiXuXyXtXtXyXuXiXiXuXyXtXtXyXuXiXiXuXyXtXtXyXuXiXiXuXyXtXtXyXuXiXiXuXyXtXtXyX{.oX*X2X:X3X3X:X2X*X*X2X:X3X3X:X-X*X*X-XoX",
"yXtXyXuXiXiXuXyXtXtXyXuXiXiXuXyXtXtXyXuXiXiXuXyXtXtXyXuXiXiXuXyXtXtXyXuXiXiXuXyXtXtXoXoX:.*X2X:X3X3X:X2X*X*X2X:X3X3X2X$XM.oX2X*X",
"yXtXyXuXiXiXuXyXtXtXyXuXiXiXuXyXtXtXyXuXiXiXuXyXtXtXyXuXiXiXuXyXtXtXyXuXiXiXuXyXtXtX{.oX{.H.{.oX2X:X>X2X*X*X2X:X3X3X:X2XoXX.-XoX",
"yXtXyXuXiXiXuXyXtXtXyXuXiXiXuXyXtXtXyXuXiXiXuXyXtXtXyXuXiXiXuXyXtXtXyXuXiXiXuXyXtXtXoXoXM.M.uXyXtX-XoX{.M.H.-X:X3X3X:X2XoXoX*X2X",
"yXtXyXuXiXiXuXyXtXtXyXuXiXiXuXyXtXtXyXuXiXiXuXyXtXtXyXuXiXiXuXyXtXtXyXuXiXiXuXyXtXtXoX{.iXiXuXyXtXtXyXuXiXM.{.oX:X1X:X2X*X*X2X>X",
"yXtXyXuXiXiXuXyXtXtXyXuXiXiXuXyXtXtXyXuXiXiXuXyXtXtXyXuXiXiXuXyXtXtXyXuXiXiXuXyXtXtXyXuXiXiXuXyXtXtXyXuXiXiXuXyX-X-X*X*XoXoXoXoX",
"yXtXyXuXiXiXuXyXtXtXyXuXiXiXuXyXtXtXyXuXiXiXuXyXtXtXyXuXiXiXuXyXtXtXyXuXiXiXuXyXtXtXyXuXiXiXuXyXtXtXyXuXiXiXuXyXtXtXoX{.b b {.2X",
"yXtXyXuXiXiXuXyXtXtXyXuXiXiXuXyXtXtXyXuXiXiXuXyXtXtXyXuXiXiXuXyXtXtXyXuXiXiXuXyXtXtXyXuXiXiXuXyXtXtXyXuXiXiXuXyXtXtXyXuXM.oX-X{.",
"yXtXyXuXiXiXuXyXtXtXyXuXiXiXuXyXtXtXyXuXiXiXuXyXtXtXyXuXiXiXuXyXtXtXyXuXiXiXuXyXtXtXyXuXiXiXuXyXtXtXyXuXiXiXuXyXtXtXyXH.M.:.H.6X",
"yXtXyXuXiXiXuXyXtXtXyXuXiXiXuXyXtXtXyXuXiXiXuXyXtXtXyXuXiXiXuXyXtXtXyXuXiXiXuXyXtXtXyXuXiXiXuXyXtXtXyXuXiXiXuXyXtXtXrX:.8XM.7X6X",
"yXtXyXuXiXiXuXyXtXtXyXuXiXiXuXyXtXtXyXuXiXiXuXyXtXtXyXuXiXiXuXyXtXtXyXuXiXiXuXyXtXtXyXuXiXiXuXyXtXtXyXuXiXiXuXyXrXwX6X7X8X8X7X6X",
"yXtXyXuXiXiXuXyXtXtXyXuXiXiXuXyXtXtXyXuXiXiXuXyXtXtXyXuXiXiXuXyXtXtXyXuXiXiXuXyXtXtXyXuXiXiXuXyXtXtXyXuXiXiXrXqX5X5X6X7X8X8X7XoX",
"yXtXyXuXiXiXuXyXtXtXyXuXiXiXuXyXtXtXyXuXiXiXuXyXtXtXyXuXiXiXuXyXtXtXyXuXiXiXuXyXtXtXyXuXiXiXuXyXtXtXyXuXeXqX7X6X5X5X6X7X8X8X7X:.",
"yXtXyXuXiXiXuXyXtXtXyXuXiXiXuXyXtXtXyXuXiXiXuXyXtXtXyXuXiXiXuXyXtXtXyXuXiXiXuXyXtXtXyXuXiXiXuXyXtXtXrXqX8X8X7X6X5X5X6X7X8X8X7XoX",
"yXtXyXuXiXiXuXyXtXtXyXuXiXiXuXyXtXtXyXuXiXiXuXyXtXtXyXuXiXiXuXyXtXtXyXuXiXiXuXyXtXtXyXuXiXiXuXyXrXwX6X7X8X8X7X6X5X5X6X7X8X8X{.-X",
"yXtXyXuXiXiXuXyXtXtXyXuXiXiXuXyXtXtXyXuXiXiXuXyXtXtXyXuXiXiXuXyXtXtXyXuXiXiXuXyXtXtXyXuXiXiXrXqX5X5X6X7X8X8X7X6X5X5X6X7X8X8X:.*X",
"yXtXyXuXiXiXuXyXtXtXyXuXiXiXuXyXtXtXyXuXiXiXuXyXtXtXyXuXiXiXuXyXtXtXyXuXiXiXuXyXtXtXyXuXeXqX7X6X5X5X6X7X8X8X7X6X5X5X6X7X8XM.oXoX",
"yXtXyXuXiXiXuXyXtXtXyXuXiXiXuXyXtXtXyXuXiXiXuXyXtXtXyXuXiXiXuXyXtXtXyXuXiXiXuXyXtXtXrXqX8X8X7X6X5X5X6X7X8X8X7X6X5X5X6X{.M.:.*XoX",
"yXtXyXuXiXiXuXyXtXtXyXuXiXiXuXyXtXtXyXuXiXiXuXyXtXtXyXuXiXiXuXyXtXtXyXuXiXiXuXyXrXwX6X7X8X8X7X6X5X5X6X7X8X8X7X6X5X5XoX$XoXX.H.2X",
"yXtXyXuXiXiXuXyXtXtXyXuXiXiXuXyXtXtXyXuXiXiXuXyXtXtXyXuXiXiXuXyXtXtXyXuXiXiXrXqX5X5X6X7X8X8X7X6X5X5X6X7X8X8X7X6X5X-XoXH.b oXM.$X",
"yXtXyXuXiXiXuXyXtXtXyXuXiXiXuXyXtXtXyXuXiXiXuXyXtXtXyXuXiXiXuXyXtXtXyXuXeXqX7X6X5X5X6X7X8X8X7X6X5X5X6X7X8X8X7X6X5X-X$X{.b *Xb oX",
"yXtXyXuXiXiXuXyXtXtXyXuXiXiXuXyXtXtXyXuXiXiXuXyXtXtXyXuXiXiXuXyXtXtXrXqX8X8X7X6X5X5X6X7X8X8X7X6X5X5X6X7X8X8X7X6X5X{.{.-X*XoX{.6X",
"yXtXyXuXiXiXuXyXtXtXyXuXiXiXuXyXtXtXyXuXiXiXuXyXtXtXyXuXiXiXuXyXrXwX6X7X8X8X7X6X5X5X6X7X8X8X7X6X5X5X6X7X8X8X7X6X-X:X:X2XoXM.7X6X",
"yXtXyXuXiXiXuXyXtXtXyXuXiXiXuXyXtXtXyXuXiXiXuXyXtXtXyXuXiXiXrXqX5X5X6X7X8X8X7X6X5X5X6X7X8X8X7X6X5X5X6X7X8X8X7XoX>X3X:X-XM.8X7X6X",
"yXtXyXuXiXiXuXyXtXtXyXuXiXiXuXyXtXtXyXuXiXiXuXyXtXtXyXuXeXqX7X6X5X5X6X7X8X8X7X6X5X5X6X7X8X8X7X6X5X5X6X7X8X8X7X6X-X1X:X2XH.M.7XoX",
"yXtXyXuXiXiXuXyXtXtXyXuXiXiXuXyXtXtXyXuXiXiXuXyXtXtXrXqX8X8X7X6X5X5X6X7X8X8X7X6X5X5X6X7X8X8X7X6X5X5X6X7X8XM.7X6X5X-X:X2X*X{.H.:X",
"yXtXyXuXiXiXuXyXtXtXyXuXiXiXuXyXtXtXyXuXiXiXuXyXrXwX6X7X8X8X7X6X5X5X6X7X8X8X7X6X5X5X6X7X8X8X7X6X5X5X6X7XM.*X{.6X5X5XoX-X*X*X2X:X",
"yXtXyXuXiXiXuXyXtXtXyXuXiXiXuXyXtXtXyXuXiXiXrXqX5X5X6X7X8X8X7X6X5X5X6X7X8X8X7X6X5X5X6X7X8X8X7X6X5X5X6X{.oX*X2XoX5X5X6X{.oX*X2X:X",
"yXtXyXuXiXiXuXyXtXtXyXuXiXiXuXyXtXtXyXuXeXqX7X6X5X5X6X7X8X8X7X6X5X5X6X7X8X8X7X6X5X5X6X7X8X8X7X6X5X5X6X7XM.*X-X:X-X5X6X{.*X*X2X:X",
"yXtXyXuXiXiXuXyXtXtXyXuXiXiXuXyXtXtXrXqX8X8X7X6X5X5X6X7X8X8X7X6X5X5X6X7X8X8X7X6X5X5X6X7X8X8X7X6X5X5X6X7X8XM.2X:X3X-XoX2X*X*X2X:X",
"yXtXyXuXiXiXuXyXtXtXyXuXiXiXuXyXrXwX6X7X8X8X7X6X5X5X6X7X8X8X7X6X5X5X6X7X8X8X7X6X5X5X6X7X8X8X7X6X5X5X6X7X8X8X{.:X1X3X:X2X*XM.H.:X",
"yXtXyXuXiXiXuXyXtXtXyXuXiXiXrXqX5X5X6X7X8X8X7X6X5X5X6X7X8X8X7X6X5X5X6X7X8X8X7X6X5X5X6X7X8X8X7X6X5X5X6X7X8X8X7XoX3X3X:X2XM.8X7X$X",
"yXtXyXuXiXiXuXyXtXtXyXuXeXqX7X6X5X5X6X7X8X8X7X6X5X5X6X7X8X8X7X6X5X5X6X7X8X8X7X6X5X5X6X7X8X8X7X6X5X5X6X7X8X8X7X6X-X1X:X{.8X8X7XoX",
"yXtXyXuXiXiXuXyXtXtXrXqX8X8X7X6X5X5X6X7X8X8X7X6X5X5X6X7X8X8X7X6X5X5X6X7X8X8X7X6X5X5X6X7X8X8X7X6X5X5X6X7X8X8X7X6X5X-XoX7X8X8X{.>X",
"yXtXyXuXiXiXuXyXrXwX6X7X8X8X7X6X5X5X6X7X8X8X7X6X5X5X6X7X8X8X7X6X5X5X6X7X8X8X7X6X5X5X6X7X8X8X7X6X5X5X6X7X8X8X7X6X5X5X6X7X8XM.2X:X",
"yXtXyXuXiXiXrXqX5X5X6X7X8X8X7X6X5X5X6X7X8X8X7X6X5X5X6X7X8X8X7X6X5X5X6X7X8X8X7X6X5X5X6X7X8X8X7X6X5X5X6X7X8X8X7X6X5X5X6X7XM.oX2X:X",
"yXtXyXuXeXqX7X6X5X5X6X7X8X8X7X6X5X5X6X7X8X8X7X6X5X5X6X7X8X8X7X6X5X5X6X7X8X8X7X6X5X5X6X7X8X8X7X6X5X5X6X7X8X8X7X6X5X5X6X7Xb *X2XoX",
"yXtXrXqX6X8X7X6X5X5X6X7X8X8X7X6X5X5X6X7X8X8X7X6X5X5X6X7X8X8X7X6X5X5X6X7X8X8X7X6X5X5X6X7X8X8X7X6X5X5X6X7X8X8X7X6X5X5X6X7X8XM.{.6X",
"rXqX8X9X0X0X9X8X7X7X8X9X0X0X9X8X7X7X8X9X0X0X9X8X7X7X8X9X0X0X9X8X7X7X8X9X0X0X9X8X7X7X8X9X0X0X9X8X7X7X8X9X0X0X9X8X7X7X8X9X0X0X9X8X",
"r u r &.&.N.Y.t u Y.r u j.J jXdXdX(.f.I 8.t a.r e r t r %.Y.` ^ 7.I.t Y.t e f.u 0 t t 2.&.J jXdXdX(.I I I a.0.0.0.k.e 8.8.t e g.",
"r 8.7 |.^ S.Y.Y.u.B 7 ( 0.J jXdXdX(.y.k.u t U.r 8.r t %.&.%.H (..Xt U.G Y.h.Q K 5 ( 0 8 ^ J jXdXdX(.k.Z.y.p.V.3.y.0.K u p 8 h.u ",
"1.u.L a.i.6.p 1.$.K ~ V.0.J jXdXdX.X~ Z.i.i E i u.i i 2.P 2.E.9.9.u  Xi 1.~ 3.*.K y.~ ( 6.J jXdXdX.XZ.s.L V.) $.0.w.*.~ i L L ~ ",
"E.B.d.d.d.~ y y ) ( 6.s.6.J jXdXdXG.y s.6.y y y E.w w E.S.E.W.l.l.S.@Xw w w d.) ( d.6.i.i.J jXdXdXG.s.%.w d.w ) q.v 6.d.w d.q d.",
"< h ;.;.;.Z l l Z Z = W W H jXdXdXH W W = l l l l < < < ).< < ).).).1 < < l Z Z Z Z = W W H jXdXdXH W W = Z l Z Z ;.;.;.< ;.h ;.",
"$ $ o o o , A A , , % z z ] lXdXdX] z z % A A A A $ $ $ $ $ $ $ $ $ @ $ $ A : , , : % z z ] lXdXdX] z z % : A , > X X o $ o $ o ",
"kX# # # # O O O O O O @ @ @ O + + @ @ @ O O O O O lX# # # # kXkXkX# # # # O O O O O O @ @ @ O + + @ @ @ O O O O O lX# # # # kXkX",
"2 2 2 2 2 2 2 2 2 2 2 2 2 2 2 dXdX2 2 2 2 2 2 2 2 2 2 2 2 2 2 2 2 2 2 2 2 2 2 2 2 2 2 2 2 2 2 dXdX2 2 2 2 2 2 2 2 2 2 2 2 2 2 2 ",
"fX~.=.=.S.!.F.F.F.F.F.F.F.F.!.D.F.F.F.!.D.D.!.D.!.!.l.' ' ~.2 fXfX~.' =.S.!.!.!.!.F.F.F.F.F.F.D.D.F.F.!.!.!.!.D.!.F.S.=.' ~.2 fX",
"dXl.G G i.! 3.V.3.4.4.V.$.3.O.O.y.y.3.! ( s.p.( O.! 1.d.d.S.hXdXdXl.6.G i.p.O.O.O.$.3.3.V.3.y.L O.y.3.O.O.O.p.( O.3.i.B 6.S.hXdX",
"dX+Xe e p.a a.f.I j.j.f.#.h.0 0 8.g.8.e ` S.R.` 0 a e 5.k.C kXdXdX+Xp.e p.R.s 0 0 #.I I f.I g.e 0 g.a.0 0 0 R.` 8 a.p.p y.C kXdX",
"dX(.e e p u.U.Q I 0.0.Q p 2.t e p k.p 8.5 ^ Y.5 8 u.t Q f.J jXdXdX(.P t U.Y.Y.t t i I Z.Q f.k.8.t k.P.t t t Y.R.N.U.p _ 3.J jXdX",
"dX(.G B B C.P I I *.*.I 8 6.2.V B v B ) i.+.+.i.6.k.8 I k.J jXdXdX(.S.t B Y.G 2.e B @.v #.p.v ) e s.&.2.2.B G T.6.P 0 k.c J jXdX",
"dX(.|.9.Y.s.i @.I #.y.Q r h.R.%.R.8 Y.7 h.P.%.h.k.g.i I ( J jXdXdX(.9.t t Y.s R.s R.( 0 p.Q.7 8 G  X%.R.Y.P.r Y.k.p t f.p J jXdX",
"dX(.l.(.Y.B.I g.I I w.Q r T.&.T.%.t t r e p.I.e g.g.Q I e J jXdXdX(.t t Y.Y.%.&.%.&.u e g.f.r Y.Y..Xt &.e p.r r g.8.t f.g.J jXdX",
"dX(. X^.2.%.c k.5.I *.0.( B 7.S.B.2.2.) 0 k.B 0 k.g.4.5.5 J jXdXdX(.^ G G 2.l.+.` ` V V k.i ) B Y..X2.7.V Z.) ) @.y.8 P.E J jXdX",
"dX(.U.9.|.p e ~ Z.y.N w.g.p E l.9.U.U.V.p Z.c p ~ Z.( k.v J jXdXdX(.E.|.G 7.W.9.+.N.W.+.~ u V.c E +.T.E 7.~ y.V.3.K c 1.` J jXdX",
"dX(.I.&.S.R.s 8 h.h.8 u.8 8 8 N.` R.R.h.8 h.a.s 8 h.8 A.p.J jXdXdX(.I.S.` S.N./.` R.S.` 8 R.h.h.8 s ^ 8 R.8 #.h.h.8 A.p.` J jXdX",
"dXW R R = 9 9 9 / z.d z.d [ [ [ d [ [ z.[ / / 9 9 / - B.B.H jXdXdXW R W - Z 9 Z 9 [ 2 d d [ z.z.[ [ ] [ [ 9 C / / 9 ; B.R H jXdX",
"dXZ [ l * 6 6 6 : X o X o o o o $ o o X o : : 6 6 : & d d z.kXdXdXZ [ l * f 6 -.g o @ $ o o X X o o $ o o 6 : : : 6 & d l z.kXdX",
"dXlXlXlXlXlXlXlXlXlXlXlXlXlXlXlXlXlXlXlXlXlXlXlXlXlXlXlXlXlXlXdXdXlXlXlXlXlXlXlXlXlXlXlXlXlXlXlXlXlXlXlXlXlXlXlXlXlXlXlXlXlXlXdX"
};
