/* XPM */
static char *b22faec437ce4ffbc70f4066d7079e66[] = {
/* columns rows colors chars-per-pixel */
"64 91 256 2 ",
"   c black",
".  c gray100",
"X  c #111214",
"o  c #131416",
"O  c #191A1C",
"+  c #27282A",
"@  c #151719",
"#  c #1C1D1E",
"$  c #141617",
"%  c #1D211C",
"&  c #20271E",
"*  c #232A20",
"=  c #3A402F",
"-  c #414633",
";  c #4A4C3A",
":  c #1C1C18",
">  c #191916",
",  c #1A1A18",
"<  c #232321",
"1  c #20201F",
"2  c #292928",
"3  c #E4D800",
"4  c #070602",
"5  c #6E684E",
"6  c #1F1E1A",
"7  c #70694F",
"8  c #706950",
"9  c #3F3B2D",
"0  c #716A51",
"q  c #625C47",
"w  c #645E49",
"e  c #746C52",
"r  c #726A51",
"t  c #736B52",
"y  c #68614A",
"u  c #756C53",
"i  c #7A7157",
"p  c #776E55",
"a  c #746B53",
"s  c #716951",
"d  c #2F2D27",
"f  c #21201D",
"g  c #201F1C",
"h  c #23221F",
"j  c #28200C",
"k  c #3E3215",
"l  c #353127",
"z  c #292722",
"x  c #473818",
"c  c #80755C",
"v  c #7E735B",
"b  c #483818",
"n  c #2D230F",
"m  c #120E06",
"M  c #372B14",
"N  c #8C7E63",
"B  c #716650",
"V  c #6C624D",
"C  c #4A4335",
"Z  c #383329",
"A  c #1D1C1A",
"S  c #443416",
"D  c #392C14",
"F  c #2E2310",
"G  c #746852",
"H  c #4F4738",
"J  c #4C4436",
"K  c #8E8066",
"L  c #8A7C63",
"P  c #6E634F",
"I  c #94856B",
"U  c #4B3819",
"Y  c #302410",
"T  c #302411",
"R  c #594F3F",
"E  c #776A55",
"W  c #544B3C",
"Q  c #93836A",
"!  c #8B7C64",
"~  c #887A62",
"^  c #645A49",
"/  c #463F33",
"(  c #867862",
")  c #82755F",
"_  c #887A64",
"`  c #665C4B",
"'  c #534C40",
"]  c #2D2A25",
"[  c #312E29",
"{  c #493518",
"}  c #4A3619",
"|  c #473418",
" . c #523C1C",
".. c #493619",
"X. c #403018",
"o. c #3E2F18",
"O. c #8D7D65",
"+. c #6B5F4D",
"@. c #92826A",
"#. c #918169",
"$. c #9B8A71",
"%. c #695E4D",
"&. c #685D4C",
"*. c #A09078",
"=. c #564E42",
"-. c #22201D",
";. c #262421",
":. c #543C1C",
">. c #50391B",
",. c #4D381B",
"<. c #0D0A06",
"1. c #7B6C57",
"2. c #746653",
"3. c #99876F",
"4. c #94836B",
"5. c #8F7E68",
"6. c #80715D",
"7. c #6E6150",
"8. c #8A7A65",
"9. c #635849",
"0. c #A59681",
"q. c #988A77",
"w. c #A99A85",
"e. c #5C411F",
"r. c #563D1D",
"t. c #50391C",
"y. c #97856E",
"u. c #887763",
"i. c #857561",
"p. c #8B7A66",
"a. c #8A7965",
"s. c #82725F",
"d. c #7C6D5B",
"f. c #8D7C68",
"g. c #8C7B67",
"h. c #897965",
"j. c #8F7E6A",
"k. c #8E7D69",
"l. c #5E5346",
"z. c #36322D",
"x. c #5A3E1E",
"c. c #624321",
"v. c #624421",
"b. c #5F4120",
"n. c #664723",
"m. c #583D1E",
"M. c #5C4020",
"N. c #716251",
"B. c #605446",
"V. c #95826D",
"C. c #93816C",
"Z. c #907E6A",
"A. c #8A7966",
"S. c #5C5145",
"D. c #76695A",
"F. c #726557",
"G. c #524A41",
"H. c #6C4824",
"J. c #664422",
"K. c #6D4925",
"L. c #6F4A26",
"P. c #796856",
"I. c #726251",
"U. c #776655",
"Y. c #736352",
"T. c #746453",
"R. c #716151",
"E. c #655749",
"W. c #685A4C",
"Q. c #8D7B68",
"!. c #756759",
"~. c #524940",
"^. c #564D44",
"/. c #514941",
"(. c #524A42",
"). c #222120",
"_. c #9C4C00",
"`. c #6A4624",
"'. c #654222",
"]. c #7E522B",
"[. c #744C28",
"{. c #734C28",
"}. c #6E5E4F",
"|. c #695B4E",
" X c #544B43",
".X c #B45400",
"XX c #794E29",
"oX c #885830",
"OX c #774E2A",
"+X c #514942",
"@X c #47413C",
"#X c #86552E",
"$X c #80502C",
"%X c #7D4F2B",
"&X c #905B34",
"*X c #905C34",
"=X c #9D6138",
"-X c #9C6038",
";X c #955C35",
":X c #BC7848",
">X c #B47044",
",X c #A2653D",
"<X c #DC8854",
"1X c #C87C4C",
"2X c #A86840",
"3X c #F0945C",
"4X c #D08050",
"5X c #FCC4A4",
"6X c #FCE0D0",
"7X c #FC0000",
"8X c #EC0000",
"9X c #E00000",
"0X c #D40000",
"qX c #C80000",
"wX c #BC0000",
"eX c #FC4040",
"rX c #FC5C5C",
"tX c #FC7C7C",
"yX c #FC9C9C",
"uX c gainsboro",
"iX c #D0D0D0",
"pX c #C0C0C0",
"aX c #B4B4B4",
"sX c gray66",
"dX c #989898",
"fX c gray22",
"gX c #2C2C2C",
"hX c gray17",
"jX c #282828",
"kX c gray15",
"lX c #202020",
"zX c gray12",
"xX c gray11",
"cX c black",
"vX c black",
"bX c black",
"nX c black",
"mX c black",
"MX c black",
"NX c black",
"BX c black",
"VX c black",
"CX c black",
"ZX c black",
"AX c black",
"SX c black",
"DX c black",
"FX c black",
"GX c black",
"HX c black",
"JX c black",
"KX c black",
"LX c black",
"PX c black",
"IX c black",
"UX c black",
/* pixels */
"=X=X*XoXoX[.$X$XoX$X,XoXoX=X2X$X=XoX$X$X$X$X*X$X[.$XoX$X$X$X$X[.$X[.[.oX$X=X$XoX$X$XoX*X$X$X$XK.$X[.$X[.$X[.$XoX=X$X*XoX$X$X=X[.",
"#X#XOX{.K.e.`.`.K.`.].n.n.%X&XL.#X{.`.`.v.`.OX`.e.c.K.`.`.`.L.J.XXJ.e.n.v.L.`.K.`.v.K.OXc.`.L.c.XXJ.K.e.`.e.`.K.%Xc.{.K.`.L.%Xc.",
"x.e.,.t.} x ..{ { } >.k k U c.t.b.,.U } k { t...k k } U ..{ t...b.U S k k k U | } k { t.k { t.U c.}  .k } k } ..,.k | U | t.,.U ",
"D X.D X.X.U o.D X.X.x X.X.D X.D S X.x X.M D X.X.X.X.X.D o.D X.D X.X.x D D D D o.X.M X.X.X.D X.D S o.x D X.D X.X.X.X.D X.M X.X.x ",
"S ,.| ,.T m '.| m...e.} x.:.m.n <.'.e...r.| ..m.t.} T <.'.| ..S m.,.U | S F <.'.{ ,.m.| } | m.n <.'.e.| ..| { { ..} n <.'.| m.e.",
"c.L.c.L.D 4 ;Xc.].c.].c.].].].D 4 ;X].c.].c.c.].K.c.D 4 ;Xc.c.J.].K.J.c.J.D 4 ;XJ.K.].J.c.c.].D 4 ;X].c.c.c.J.J.c.c.D 4 ;XJ.].].",
"xXxXxXxXxXxXxXxXxXxXxXxXxXxXxXxXxXxXxXxXxXxXxXxXxXxXxXxXxXxXxXxXxXxXxXxXxXxXxXxXxXxXxXxXxXxXxXxXxXxXxXxXxXxXxXxXxXxXxXxXxXxXxX6X",
"3 3 3 3 3 3 3 3 3 3 3 3 3 3 3 3 3 3 3 3 3 3 3 3 3 3 3 3 3 3 3 3 3 3 3 3 3 3 3 3 3 3 3 3 3 3 3 3 3 3 3 3 3 3 3 3 3 3 3 3     6X6X",
"_._._._._._._._._._._._._._._._._._._._._._._._._._._._._._._._._._._._._._._._._._._._._._._._._._._._._._._._._._._.    dX_.3X",
"                                                                                                                      :.dX    .X",
"fXfXjXxX    xXjXfXfXjXxX    xXjXfXfXjXxX    xXjXfXfXjXxX    xXjXfXfXjXxX    xXjXfXfXjXxX    xXjXfXfXjXxX    xXjX-X-XoX[.aXsXaXpX",
"fXfXjXxX    xXjXfXfXjXxX    xXjXfXfXjXxX    xXjXfXfXjXxX    xXjXfXfXjXxX    xXjXfXfXjXxX    xXjXfXfXjXxX  M.[.2X:X1X2XpXaXaXpXiX",
"fXfXjXxX    xXjXfXfXjXxX    xXjXfXfXjXxX    xXjXfXfXjXxX    xXjXfXfXjXxX    xXjXfXfXjXxX    xXjXfXfXoX[.M.oX>X:X<X-XoXpXaXaXpXiX",
"fXfXjXxX    xXjXfXfXjXxX    xXjXfXfXjXxX    xXjXfXfXjXxX    xXjXfXfXjXxX    xXjXfXfXjXxX    [.oX-X:X>X-X*X*X2X>X-X-XiXpXaXaXpXiX",
"fXfXjXxX    xXjXfXfXjXxX    xXjXfXfXjXxX    xXjXfXfXjXxX    xXjXfXfXjXxX    xXjXfXfXjX[.H.H.*X>X4X4X:X2X*X*X-X2X-XuXiXpXaXaXpXiX",
"fXfXjXxX    xXjXfXfXjXxX    xXjXfXfXjXxX    xXjXfXfXjXxX    xXjXfXfXjXxX  M.[.oX-X-X>X*XoX*X2X:X4X4X:X2X*XoX[.oXuXuXiXpXaXaXpXiX",
"fXfXjXxX    xXjXfXfXjXxX    xXjXfXfXjXxX    xXjXfXfXjXxX    xXjXfXb :.M.M.[.*X>X1X1X2XoXH.M.$X>X4X4X>X-X*X[.[.iXuXuXiXpXaXaXpXiX",
"fXfXjXxX    xXjXfXfXjXxX    xXjXfXfXjXxX    xXjXfXfXjXxXj b H.oX-X-XoX[.:.:.M.[.oXoXoX[.[.oX-X>X:X2X$XM.M.M.pXiXuXuXiXpXaXaXpXiX",
"fXfXjXxX    xXjXfXfXjXxX    xXjXfXfXjXX.Y :.[.oX>X:X>X2X*X*XH.oX>X>X2X*XoXoX*X2X:X-XoXH.b :.[.*X>X2X>X*XM.aXpXiXuXuXiXpXaXaXpXiX",
"fXfXjXxX    xXjXM.$XoX$X[.oX*X>X<X<X1X2X*X*X2X>X1X1X>X-XoXb M.oX*X-XoX[.M.M.[.*X>X:X2X*XoX-X2X:X4X4X:X[.aXaXpXiXuXuXiXpXaXaXpXiX",
"fXfXjXxX  b oX>X4X1X:X-X*X*X2X:X4X4X:X2X*X*XoXoX2X2XoX[.M.M.[.oXoXoX$XH.:.:.M.$XoXoXoX$X[.oX2X:X1X:XoXpXaXaXpXiXuXuXiXpXaXaXpXiX",
"fXfXjXM.oX*X2X:X4X4X:X2X*X*X2X:X4X4X:X2X*X*X-X:X<XoX*X*XoXoX[.oX>X>X2XoX[.oX*X>X1X1X>X-XoXoXoXoX-X-XiXpXaXaXpXiXuXuXiXpXaXaXpXiX",
"fXoX>X2X*X*X2X:X4X4X:X2X*X*X2X:X1X:X2X-XoXoX*X-XoXoXoXH.M.:.H.$XoXoX$XM.X.Y M.$XoXoX$XH.:.:.$X*X-XuXiXpXaXaXpXiXuXuXiXpXaXaXpXiX",
"-X1X:X2X*X*X2X:X4X4X:X2X*X*X2X:X4X*XM.X.Y b H.M.*X*X$XH.M.H.oX2X>X>X2XoX[.H.-X1X1X1X>X-X*XoX*XoXuXuXiXpXaXaXpXiXuXuXiXpXaXaXpXiX",
"<X4X:X2X*X*X2X:X4X4X:X-XoXoX-X:X1X<X2Xb X.b [.2X1X:XoXM.M.[.*X2X>X-XoXH.b M.[.-X:X:X>X-XM.M.pXiXuXuXiXpXaXaXpXiXuXuXiXpXaXaXpXiX",
"4X4X:X2X*X*X2X:X4X4X2XH.b j M.oX-X$X[.H.M.M.[.[.oX2X*XoX[.M.[.$X*X1X:X2X-XoX*X*X*XoXM.[.M.aXpXiXuXuXiXpXaXaXpXiXuXuXiXpXaXaXpXiX",
"4X4X:X2X*X*X2X:X4X4X:X2X[.H.H.*X<X-X$X-XM.M.*XoXoXoX-XoX:.b H.oX:X1X1X>X-X*X-X>X>X>XoXpXaXaXpXiXuXuXiXpXaXaXpXiXuXuXiXpXaXaXpXiX",
"4X4X:X*XM.M.[.oX-XoX$XH.X.H.-X2XoX:X2X[.M.oX$X$X>X:X2X2X*X*X-X2X:XoXoX[.H.oX[.oXuXuXiXpXaXaXpXiXuXuXiXpXaXaXpXiXuXuXiXpXaXaXpXiX",
"4X4X:X-XoXoX*X-XoX2X$X*XoX[.[.>X:X*X2X*XoX*X2X2XoXoX*X*XoXoX*X*X>X-XiXpXaXaXpXiXuXuXiXpXaXaXpXiXuXuXiXpXaXaXpXiXuXuXiXpXaXaXpXiX",
"*X:X2X*XoX[.[.[.-X-XoXoXM.M.*X2X1X>XoX[.oXH.[.*X-XuXiXpXaXaXpXiXuXuXiXpXaXaXpXiXuXuXiXpXaXaXpXiXuXuXiXpXaXaXpXiXuXuXiXpXaXaXpXiX",
":X*X$XH.M.X.[.2XoX1X>X2XoX[.M.oX>X-XiXpXaXaXpXiXuXuXiXpXaXaXpXiXuXuXiXpXaXaXpXiXuXuXiXpXaXaXpXiXuXuXiXpXaXaXpXiXuXuXiXpXaXaXpXiX",
"4X4X:X2XoXoX*X:X1X[.oX[.H.M.[.iXuXuXiXpXaXaXpXiXuXuXiXpXaXaXpXiXuXuXiXpXaXaXpXiXuXuXiXpXaXaXpXiXuXuXiXpXaXaXpXiXuXuXiXpXaXaXpXiX",
"1X4X:X2XoX:.[.*X:X-XoX[.aXaXpXiXuXuXiXpXaXaXpXiXuXuXiXpXaXaXpXiXuXuXiXpXaXaXpXiXuXuXiXpXaXaXpXiXuXuXiXpXaXaXpXiXuXuXiXpXaXaXpXiX",
":X4X:X2XoXoXoXoX-X-XiXpXaXaXpXiXuXuXiXpXaXaXpXiXuXuXiXpXaXaXpXiXuXuXiXpXaXaXpXiXuXuXiXpXaXaXpXiXuXuXiXpXaXaXpXiXuXuXiXpXaXaXpXiX",
"*X4X:X2XoXM.-X-X-XuXiXpXaXaXpXiXuXuXiXpXaXaXpXiXuXuXiXpXaXaXpXiXuXuXiXpXaXaXpXiXuXuXiXpXaXaXpXiXuXuXiXpXaXaXpXiXuXuXiXpXaXaXpXiX",
"oX>X2X-X*X[.[.:X>X-XiXpXaXaXpXiXuXuXiXpXaXaXpXiXuXuXiXpXaXaXpXiXuXuXiXpXaXaXpXiXuXuXiXpXaXaXpXiXuXuXiXpXaXaXpXiXuXuXiXpXaXaXpXiX",
"2XoX[.H.oXoX[.*X1X>XoXpXaXaXpXiXuXuXiXpXaXaXpXiXuXuXiXpXaXaXpXiXuXuXiXpXaXaXpXiXuXuXiXpXaXaXpXiXuXuXiXpXaXaXpXiXuXuXiXpXaXaXpXiX",
">XoXoXoXb X.M.M.1X<XoX[.M.aXpXiXuXuXiXpXaXaXpXiXuXuXiXpXaXaXpXiXuXuXiXpXaXaXpXiXuXuXiXpXaXaXpXiXuXuXiXpXaXaXpXiXuXuXiXpXaXaXpXiX",
"-X-X[.>X*X[.[.1X4X4XoX*XoXM.pXiXuXuXiXpXaXaXpXiXuXuXiXpXaXaXpXiXuXuXiXpXaXaXpXiXuXuXiXpXaXaXpXiXuXuXiXpXaXaXpXiXuXuXiXpXaXaXpXiX",
":X4XoX$X*X*XoXoX1X4XoX*XoX:.[.iXuXuXiXpXaXaXpXiXuXuXiXpXaXaXpXiXuXuXiXpXaXaXpXiXuXuXiXpXaXaXpXiXuXuXiXpXaXaXpXiXuXuXiXpXaXaXpXiX",
">X4X1X[.oX*XoX-XoXoX$Xb M.*XoXoXuXuXiXpXaXaXpXiXuXuXiXpXaXaXpXiXuXuXiXpXaXaXpXiXuXuXiXpXaXaXpXiXuXuXiXpXaXaXpXiXuXuXiXpXaXaXpXiX",
">X:X$XM.H.oXH.-X2X1X-X*X[.M.-X>X-X-XiXpXaXaXpXiXuXuXiXpXaXaXpXiXuXuXiXpXaXaXpXiXuXuXiXpXaXaXpXiXuXuXiXpXaXaXpXiXuXuXiXpXaXaXpXiX",
"H.H.b [.:.b $X>XoX4X-XH.oXoXH.2X1X:X*X[.aXaXpXiXuXuXiXpXaXaXpXiXuXuXiXpXaXaXpXiXuXuXiXpXaXaXpXiXuXuXiXpXaXaXpXiXuXuXiXpXaXaXpXiX",
"oX[.*XoXoXoX[.>X:X>X:X[.M.oX-XoX>X:X>X$XM.aXpXiXuXuXiXpXaXaXpXiXuXuXiXpXaXaXpXiXuXuXiXpXaXaXpXiXuXuXiXpXaXaXpXiXuXuXiXpXaXaXpXiX",
">X$X[.oXoXoX*X-X1XoXoX2X[.M.-X:X:XoXoX[.M.aXpXiXuXuXiXpXaXaXpXiXuXuXiXpXaXaXpXiXuXuXiXpXaXaXpXiXuXuXiXpXaXaXpXiXuXuXiXpXaXaXpXiX",
"oX-XoX[.M.X.H.oX:X1X:.*X-X[.[.*XoX-XoXpXaXaXpXiXuXuXiXpXaXaXpXiXuXuXiXpXaXaXpXiXuXuXiXpXaXaXpXiXuXuXiXpXaXaXpXiXuXuXiXpXaXaXpXiX",
"-X7X8X9X0X0X9XoX-X-XoX[.M.M.[.oXrXyXiXpXaXaXpXiXuXuXiXpXaXaXpXiXuXuXiXpXaXaXpXiXuXuXiXpXaXaXpXiXuXuXiXpXaXaXpXiXuXuXiXpXaXaXpXiX",
"7X7X8X9X0X0X9X8X7X7X8X9X0X0X9X8X7X7XeXyXaXaXpXiXuXuXiXpXaXaXpXiXuXuXiXpXaXaXpXiXuXuXiXpXaXaXpXiXuXuXiXpXaXaXpXiXuXuXiXpXaXaXpXiX",
"-X7X8X9X0X0X9X8X7X7X8X9X0X0X9X8X7X7X8X9XeXtXpXiXuXuXiXpXaXaXpXiXuXuXiXpXaXaXpXiXuXuXiXpXaXaXpXiXuXuXiXpXaXaXpXiXuXuXiXpXaXaXpXiX",
">X-X8X9X0X0X9X8X7X7X8X9X0X0X9X8X7X7X8X9X0X0XeXyXuXuXiXpXaXaXpXiXuXuXiXpXaXaXpXiXuXuXiXpXaXaXpXiXuXuXiXpXaXaXpXiXuXuXiXpXaXaXpXiX",
":X-X8X9X0X0X9X8X7X7X8X9X0X0X9X8X7X7X8X9X0X0X9X8XrX5XiXpXaXaXpXiXuXuXiXpXaXaXpXiXuXuXiXpXaXaXpXiXuXuXiXpXaXaXpXiXuXuXiXpXaXaXpXiX",
"H.-X8X9X0X0X9X8X7X7X8X9X0X0X9X8X7X7X8X9X0X0X9X8X7X7XeXyXaXaXpXiXuXuXiXpXaXaXpXiXuXuXiXpXaXaXpXiXuXuXiXpXaXaXpXiXuXuXiXpXaXaXpXiX",
"7X7XoX9X0X0X9X8X7X7X8X9X0X0X9X8X7X7X8X9X0X0X9X8X7X7X8X9XeXtXpXiXuXuXiXpXaXaXpXiXuXuXiXpXaXaXpXiXuXuXiXpXaXaXpXiXuXuXiXpXaXaXpXiX",
"7X-X:X[.0X0X9X8X7X7X8X9X0X0X9X8X7X7X8X9X0X0X9X8X7X7X8X9X0X0XeXyXuXuXiXpXaXaXpXiXuXuXiXpXaXaXpXiXuXuXiXpXaXaXpXiXuXuXiXpXaXaXpXiX",
"-X4X:X2XM.0X9X8X7X7X8X9X0X0X9X8X7X7X8X9X0X0X9X8X7X7X8X9X0X0X9X8XrXyXiXpXaXaXpXiXuXuXiXpXaXaXpXiXuXuXiXpXaXaXpXiXuXuXiXpXaXaXpXiX",
"1X4X:X2X*XM.9X8X7X7X8X9X0X0X9X8X7X7X8X9X0X0X9X8X7X7X8X9X0X0X9X8X7X7XeXyXaXaXpXiXuXuXiXpXaXaXpXiXuXuXiXpXaXaXpXiXuXuXiXpXaXaXpXiX",
"4X1XoX2X*X*X[.8X7X7X8X9X0X0X9X8X7X7X8X9X0X0X9X8X7X7X8X9X0X0X9X8X7X7X8X9XeXtXpXiXuXuXiXpXaXaXpXiXuXuXiXpXaXaXpXiXuXuXiXpXaXaXpXiX",
"1X-X8X[.oX*X2XoX7X7X8X9X0X0X9X8X7X7X8X9X0X0X9X8X7X7X8X9X0X0X9X8X7X7X8X9X0X0XeXyXuXuXiXpXaXaXpXiXuXuXiXpXaXaXpXiXuXuXiXpXaXaXpXiX",
"*X7X8X9XM.*X2X:X-X7X8X9X0X0X9X8X7X7X8X9X0X0X9X8X7X7X8X9X0X0X9X8X7X7X8X9X0X0X9X8XrXyXiXpXaXaXpXiXuXuXiXpXaXaXpXiXuXuXiXpXaXaXpXiX",
"-X-X8X9X0XM.-XoX7X7X8X9X0X0X9X8X7X7X8X9X0X0X9X8X7X7X8X9X0X0X9X8X7X7X8X9X0X0X9X8X7X7XeXyXaXaXpXiXuXuXiXpXaXaXpXiXuXuXiXpXaXaXpXiX",
"4X>XoX9X0X0XH.8X7X7X8X9X0X0X9X8X7X7X8X9X0X0X9X8X7X7X8X9X0X0X9X8X7X7X8X9X0X0X9X8X7X7X8X9XeXtXpXiXuXuXiXpXaXaXpXiXuXuXiXpXaXaXpXiX",
"4X4X-X[.0X0X9X8X7X7X8X9X0X0X9X8X7X7X8X9X0X0X9X8X7X7X8X9X0X0X9X8X7X7X8X9X0X0X9X8X7X7X8X9X0X0XeXyXuXuXiXpXaXaXpXiXuXuXiXpXaXaXpXiX",
"4X4X:XoXM.0X9X8X7X7X8X9X0X0X9X8X7X7X8X9X0X0X9X8X7X7X8X9X0X0X9X8X7X7X8X9X0X0X9X8X7X7X8X9X0X0X9X8XrX5XiXpXaXaXpXiXuXuXiXpXaXaXpXiX",
"4X4X:X[.0X0X9X8X7X7X8X9X0X0X9X8X7X7X8X9X0X0X9X8X7X7X8X9X0X0X9X8X7X7X8X9X0X0X9X8X7X7X8X9X0X0X9X8X7X7XeXyXaXaXpXiXuXuXiXpXaXaXpXiX",
"4X4XoX9X0X0X9X8X7X7X8X9X0X0X9X8X7X7X8X9X0X0X9X8X7X7X8X9X0X0X9X8X7X7X8X9X0X0X9X8X7X7X8X9X0X0X9X8X7X7X8X9XeXtXpXiXuXuXiXpXaXaXpXiX",
"4X-X8X9X0X0X9X8X7X7X8X9X0X0X9X8X7X7X8X9X0X0X9X8X7X7X8X9X0X0X9X8X7X7X8X9X0X0X9X8X7X7X8X9X0X0X9X8X7X7X8X9X0X0XeXyXuXuXiXpXaXaXpXiX",
"-X7X8X9X0X0X9X8X7X7X8X9X0X0X9X8X7X7X8X9X0X0X9X8X7X7X8X9X0X0X9X8X7X7X8X9X0X0X9X8X7X7X8X9X0X0X9X8X7X7X8X9X0X0X9X8XrXyXiXpXaXaXpXiX",
"7X7X8X9X0X0X9X8X7X7X8X9X0X0X9X8X7X7X8X9X0X0X9X8X7X7X8X9X0X0X9X8X7X7X8X9X0X0X9X8X7X7X8X9X0X0X9X8X7X7X8X9X0X0X9X8X7X7XeXyXaXaXpXiX",
"7X7X8X9X0X0X9X8X7X7X8X9X0X0X9X8X7X7X8X9X0X0X9X8X7X7X8X9X0X0X9X8X7X7X8X9X0X0X9X8X7X7X8X9X0X0X9X8X7X7X8X9X0X0X9X8X7X7X8X9XeXtXpXiX",
"9X9X0XqXwXwXqX0X9X9X0XqXwXwXqX0X9X9X0XqXwXwXqX0X9X9X0XqXwXwXqX0X9X9X0XqXwXwXqX0X9X9X0XqXwXwXqX0X9X9X0XqXwXwXqX0X9X9X0XqXwXwX8XtX",
"r u r &.&.N.Y.t u Y.r u j.J lXgXgX(.f.I 8.t a.r e r t r %.Y.` ^ 7.I.t Y.t e f.u 0 t t 2.&.J lXgXgX(.I I I a.0.0.0.k.e 8.8.t e g.",
"r 8.7 }.^ S.Y.Y.u.B 7 ( 0.J lXgXgX(.y.k.u t U.r 8.r t %.&.%.H (. Xt U.G Y.h.Q K 5 ( 0 8 ^ J lXgXgX(.k.Z.y.p.V.3.y.0.K u p 8 h.u ",
"1.u.L a.i.6.p 1.$.K ~ V.0.J lXgXgX X~ Z.i.i E i u.i i 2.P 2.E.9.9.u |.i 1.~ 3.*.K y.~ ( 6.J lXgXgX XZ.s.L V.) $.0.w.*.~ i L L ~ ",
"E.B.d.d.d.~ y y ) ( 6.s.6.J lXgXgXG.y s.6.y y y E.w w E.S.E.W.l.l.S.@Xw w w d.) ( d.6.i.i.J lXgXgXG.s.%.w d.w ) q.v 6.d.w d.q d.",
"< h ;.;.;.Z l l Z Z = W W H lXgXgXH W W = l l l l < < < ).< < ).).).1 < < l Z Z Z Z = W W H lXgXgXH W W = Z l Z Z ;.;.;.< ;.h ;.",
"$ $ o o o , A A , , % z z ] xXgXgX] z z % A A A A $ $ $ $ $ $ $ $ $ @ $ $ A : , , : % z z ] xXgXgX] z z % : A , > X X o $ o $ o ",
"zX# # # # O O O O O O @ @ @ O + + @ @ @ O O O O O xX# # # # zXzXzX# # # # O O O O O O @ @ @ O + + @ @ @ O O O O O xX# # # # zXzX",
"2 2 2 2 2 2 2 2 2 2 2 2 2 2 2 gXgX2 2 2 2 2 2 2 2 2 2 2 2 2 2 2 2 2 2 2 2 2 2 2 2 2 2 2 2 2 2 gXgX2 2 2 2 2 2 2 2 2 2 2 2 2 2 2 ",
"hX~.=.=.S.!.F.F.F.F.F.F.F.F.!.D.F.F.F.!.D.D.!.D.!.!.l.' ' ~.2 hXhX~.' =.S.!.!.!.!.F.F.F.F.F.F.D.D.F.F.!.!.!.!.D.!.F.S.=.' ~.2 hX",
"gXl.G G i.! 3.V.3.4.4.V.$.3.O.O.y.y.3.! ( s.p.( O.! 1.d.d.S.kXgXgXl.6.G i.p.O.O.O.$.3.3.V.3.y.L O.y.3.O.O.O.p.( O.3.i.B 6.S.kXgX",
"gX+Xe e p.a a.f.I j.j.f.#.h.0 0 8.g.8.e ` S.R.` 0 a e 5.k.C zXgXgX+Xp.e p.R.s 0 0 #.I I f.I g.e 0 g.a.0 0 0 R.` 8 a.p.p y.C zXgX",
"gX(.e e p u.U.Q I 0.0.Q p 2.t e p k.p 8.5 ^ Y.5 8 u.t Q f.J lXgXgX(.P t U.Y.Y.t t i I Z.Q f.k.8.t k.P.t t t Y.R.N.U.p _ 3.J lXgX",
"gX(.G B B C.P I I *.*.I 8 6.2.V B v B ) i.+.+.i.6.k.8 I k.J lXgXgX(.S.t B Y.G 2.e B @.v #.p.v ) e s.&.2.2.B G T.6.P 0 k.c J lXgX",
"gX(.}.9.Y.s.i @.I #.y.Q r h.R.%.R.8 Y.7 h.P.%.h.k.g.i I ( J lXgXgX(.9.t t Y.s R.s R.( 0 p.Q.7 8 G |.%.R.Y.P.r Y.k.p t f.p J lXgX",
"gX(.l.(.Y.B.I g.I I w.Q r T.&.T.%.t t r e p.I.e g.g.Q I e J lXgXgX(.t t Y.Y.%.&.%.&.u e g.f.r Y.Y. Xt &.e p.r r g.8.t f.g.J lXgX",
"gX(.|.^.2.%.c k.5.I *.0.( B 7.S.B.2.2.) 0 k.B 0 k.g.4.5.5 J lXgXgX(.^ G G 2.l.+.` ` V V k.i ) B Y. X2.7.V Z.) ) @.y.8 P.E J lXgX",
"gX(.U.9.}.p e ~ Z.y.N w.g.p E l.9.U.U.V.p Z.c p ~ Z.( k.v J lXgXgX(.E.}.G 7.W.9.+.N.W.+.~ u V.c E +.T.E 7.~ y.V.3.K c 1.` J lXgX",
"gX(.I.&.S.R.s 8 h.h.8 u.8 8 8 N.` R.R.h.8 h.a.s 8 h.8 A.p.J lXgXgX(.I.S.` S.N./.` R.S.` 8 R.h.h.8 s ^ 8 R.8 #.h.h.8 A.p.` J lXgX",
"gXW R R = 9 9 9 / z.d z.d [ [ [ d [ [ z.[ / / 9 9 / - B.B.H lXgXgXW R W - Z 9 Z 9 [ 2 d d [ z.z.[ [ ] [ [ 9 C / / 9 ; B.R H lXgX",
"gXZ [ l * 6 6 6 : X o X o o o o $ o o X o : : 6 6 : & d d z.zXgXgXZ [ l * f 6 -.g o @ $ o o X X o o $ o o 6 : : : 6 & d l z.zXgX",
"gXxXxXxXxXxXxXxXxXxXxXxXxXxXxXxXxXxXxXxXxXxXxXxXxXxXxXxXxXxXxXgXgXxXxXxXxXxXxXxXxXxXxXxXxXxXxXxXxXxXxXxXxXxXxXxXxXxXxXxXxXxXxXgX"
};
