/* XPM */
static char *_e798df90ba042f0e24401692014e4ed[] = {
/* columns rows colors chars-per-pixel */
"64 91 256 2 ",
"   c black",
".  c gray100",
"X  c #880000",
"o  c gray11",
"O  c #046400",
"+  c #044000",
"@  c #580506",
"#  c #965152",
"$  c #632A2E",
"%  c #B15660",
"&  c #945664",
"*  c #ABA3A6",
"=  c #8A8688",
"-  c #7A4B65",
";  c #6B3A5B",
":  c #771E5C",
">  c #801C67",
",  c #840085",
"<  c #1E181E",
"1  c #5C535C",
"2  c #4E014F",
"3  c #6A006F",
"4  c #7B267E",
"5  c #270B36",
"6  c #510085",
"7  c #42016E",
"8  c #340256",
"9  c #4E1E6C",
"0  c #633780",
"q  c #4E345F",
"w  c #3C0077",
"e  c #6A528C",
"r  c #1E1827",
"t  c #31256D",
"y  c #17161F",
"u  c #4A4858",
"i  c #2A2686",
"p  c #0002DF",
"a  c #0000AE",
"s  c #00009E",
"d  c #000098",
"f  c #000096",
"g  c #000088",
"h  c #000084",
"j  c #000064",
"k  c #010179",
"l  c #070752",
"z  c #191986",
"x  c #0D0D34",
"c  c #7B7BA8",
"v  c #19191A",
"b  c #5D60DF",
"n  c #131417",
"m  c #18191C",
"M  c #191A1C",
"N  c #11161B",
"B  c #16191C",
"V  c #1A1B1C",
"C  c #0B1317",
"Z  c #14181A",
"A  c #131E1F",
"S  c #06585A",
"D  c #0E1B1B",
"F  c #171E1E",
"G  c #1B1C1C",
"H  c #2C642F",
"J  c #0B310C",
"K  c #172517",
"L  c #016F00",
"P  c #016400",
"I  c #016000",
"U  c #015300",
"Y  c #024B00",
"T  c #014400",
"R  c #024300",
"E  c #436842",
"W  c #047C00",
"Q  c #046600",
"!  c #046500",
"~  c #046000",
"^  c #035800",
"/  c #064703",
"(  c #11580E",
")  c #0E410C",
"_  c #384A37",
"`  c #1C4F15",
"'  c #495646",
"]  c #2B6317",
"[  c #171D15",
"{  c #737C70",
"}  c #41533A",
"|  c #1B1F18",
" . c #325612",
".. c #525B4A",
"X. c #232422",
"o. c #1D1F13",
"O. c #575D07",
"+. c #848400",
"@. c #414101",
"#. c #353531",
"$. c #3A390B",
"%. c #706B00",
"&. c #7B7300",
"*. c #836E11",
"=. c #817031",
"-. c #735D13",
";. c #362D19",
":. c #6B6454",
">. c #4A3918",
",. c #473718",
"<. c #8D7136",
"1. c #2F281A",
"2. c #4A4335",
"3. c #6B542A",
"4. c #4F4739",
"5. c #553F1A",
"6. c #523D1A",
"7. c #413017",
"8. c #403018",
"9. c #523B1B",
"0. c #543C1C",
"q. c #503A1C",
"w. c #3A2D1C",
"e. c #8B7B66",
"r. c #9A8C79",
"t. c #5D411E",
"y. c #624420",
"u. c #583E1F",
"i. c #4B361C",
"p. c #40301D",
"a. c #675A4A",
"s. c #27221C",
"d. c #674622",
"f. c #5D4020",
"g. c #714B25",
"h. c #6B4723",
"j. c #6D4924",
"k. c #6F4A25",
"l. c #6C4824",
"z. c #6E4925",
"x. c #6D4925",
"c. c #6B4824",
"v. c #6F4A26",
"b. c #5E5246",
"n. c #535251",
"m. c #764D26",
"M. c #7A5028",
"N. c #704925",
"B. c #724A26",
"V. c #734C27",
"C. c #714A26",
"Z. c #724B27",
"A. c #6F4926",
"S. c #7D522B",
"D. c #774E29",
"F. c #744C28",
"G. c #734C28",
"H. c #543D28",
"J. c #6B523B",
"K. c #544B43",
"L. c #B04F00",
"P. c #CE8142",
"I. c #D38645",
"U. c #C47E41",
"Y. c #764B28",
"T. c #744A27",
"R. c #714926",
"E. c #82542D",
"W. c #80522C",
"Q. c #7A4E2A",
"!. c #764C29",
"~. c #895930",
"^. c #86562F",
"/. c #734B28",
"(. c #885830",
"). c #615449",
"_. c #974200",
"`. c #794C29",
"'. c #83522D",
"]. c #82512D",
"[. c #80502C",
"{. c #7D4F2B",
"}. c #84532E",
"|. c #8B5931",
" X c #895731",
".X c #905C34",
"XX c #8D5B33",
"oX c #945E36",
"OX c #8E5B35",
"+X c #825431",
"@X c #CC8651",
"#X c #C4824F",
"$X c #A96739",
"%X c #804F2C",
"&X c #7F4F2C",
"*X c #B06E3F",
"=X c #B77242",
"-X c #9D6339",
";X c #A16E4B",
":X c #BE865F",
">X c #BF7243",
",X c #C47A4A",
"<X c #C87C4C",
"1X c #A86840",
"2X c #D68653",
"3X c #BE784A",
"4X c #B0754E",
"5X c #69452F",
"6X c #61412C",
"7X c #9E755C",
"8X c #DE8754",
"9X c #D07F4F",
"0X c #CB7C50",
"qX c #905D3F",
"wX c #CB774D",
"eX c #86563E",
"rX c #9A6348",
"tX c #962E00",
"yX c #C47149",
"uX c #6D3119",
"iX c #A35132",
"pX c #974C30",
"aX c #463129",
"sX c #BE5838",
"dX c #B1492E",
"fX c #821905",
"gX c #651D12",
"hX c #70130A",
"jX c #A65A54",
"kX c #8A0900",
"lX c #6F0D07",
"zX c #93130A",
"xX c #941A17",
"cX c #980000",
"vX c #940000",
"bX c #8A0000",
"nX c #890000",
"mX c #850000",
"MX c #700000",
"NX c #6C0000",
"BX c #640000",
"VX c #4A0000",
"CX c #7B0101",
"ZX c #720303",
"AX c #890404",
"SX c #660303",
"DX c #840B09",
"FX c #6D0A0A",
"GX c #880D0D",
"HX c #891917",
"JX c #381010",
"KX c #913030",
"LX c #834343",
"PX c #281818",
"IX c #A57474",
"UX c None",
/* pixels */
"[.[.(.[.(..X.X[.[.[.F.l.F.(.(..X.X(.(.(.(.[.[.[.[.[.(..X(.[.F.l.F.[.(.(.[.F.F.F.[.(.(.[.F.l.l.F.[.[.[.F.F.[.(.[.F.l.l.F.[.[.[.l.",
"].[.S.Q.S.W.W.Q.Q.Q.Q.Y.Q.}.}. XXX}.}.}.~. X X|.|.^.|.oXoXoXoX XE.^.|.^.'.{.{.E.^.^.W.Y.g.j.j.g.Y.Y.Y.!.!.{.W.Y.g.j.j.g.Y.Y.V.Y.",
"Q.{.!.F./.Z.Z.F.F.F.'.'.'.[.{.{.}.{.{.[.(..X.X.X.X^.E.|.-X1X1X-X(.^.^.Q.D.Q.Q.^.^.`.x.d.d.d.d.d.d.d.d.v.v.z.x.d.d.d.d.d.d.d.z.].",
"j.F.[.F.F.F.F.F.F.F.[.[.W.W.!.!.!.F.F.W.W.~.~.].].!.z.!.|..X.X|.!.!.!.j.f.f.f.z.z.f.f.f.f.f.f.f.f.f.f.f.f.f.f.f.f.f.f.f.f.f.&X[.",
"c.f.k.h.y.y.y.t.t.y.k.k.d.d.t.t.y.y.y.d.j.g.g.j.d.t.5.y.g.V.V.h.t.t.y.y.6.6.6.5.5.i.6.6.t.t.6.6.6.6.6.i.i.i.6.6.t.t.6.6.6.6.}.[.",
"l.q.p.p.w.w.w.;.;.w.p.p.w.w.;.;.w.w.w.w.p.p.p.p.w.;.;.w.p.p.p.w.;.;.w.p.;.;.;.;.;.1.;.;.p.p.;.;.;.;.;.1.1.1.;.;.p.p.;.;.;.;.*X{.",
"l.0.M M M M M M V M M M M M V V M M M M M M M M M V V M M M M M M M M M V V V V V V V V M M V V V V V V V V M V M M V V V V 8XG.",
"l.0.V V V V V N y y V V V V V V V V V V V V V V V V V V V V V V C n n n V V V V V A A A F V V V V V o.o.o.| C N N N V V V V 2Xx.",
"l.0.o < < < < $.$.$.V A A A F [ | | | < < < < F F F F v v v V o 4.2.2.#.o A A A F JXJXJXJX< < < < o l l l x 6XH.H.p.< < < < 9Xh.",
"l.0.o K K K K &.O.O.s.PXPXPXPXr r r < K K K K PXPXPX< X.X.X.o o r.e.e.b.o PXPXPXPXCXNXNXVXK K K K o f h h l =X.X.Xm.K K K K 9Xx.",
"l.0.o U / / + +.%.%.@.CXZXZXVX7 8 8 5 ^ / / + SX@ @ VX2.#.#.1.o r.e.e.b.o CXZXZXVXmXNXNXVXU / / + o d h h j ,Xf.f.[.^ / / + 9XZ.",
"c.0.o P U U R +.H H @.cXmXmXBX6 7 7 8 W I I R mXMXMXVXb.#.#.w.o r.e.e.b.o cXmXmXBXbXtXtXVXP U U R o d b b j <X^.^.].W ^ ^ R 2XQ.",
"z.9.o ! H H + +.S S @.cXKXKXBX6 9 9 8 W ~ ~ + bXhXhXVX).:.:.7.o r.e.e.b.o cXKXKXBXX _._.VX! H H + o d b b j <X*X*X[.W H H + 8X}.",
"F.,.o O = = + +.S S @.cX* * BX6 n.n.8 W Y Y + X l.l.VXb.r.r.8.o r.r.r.b.o cX* * BXX MXMXVXO = = + o d g g j <X1X1X[.W = = + 9X(.",
"k.,.o O H H + +.O.O.@.cXKXKXBX6 7 7 8 W Y Y + X 3.3.VXb.:.:.8.o r.e.e.b.o cXKXKXBXX uXuXVXO H H + o d p p j <X1X1X[.W = = + <X}.",
"c.,.o O U U + +.&.&.@.cXKXKXBX6 0 0 8 W ^ ^ + X uXuXVXb.H.H.8.o r.e.e.b.o cXKXKXBXX uXuXVXO U U + o d p p j <X1X1X[.W E E + <XQ.",
"l.,.o O ^ ^ + +.%.%.@.cX= = BX6 = = 8 W ! ! + X MXMXVXb.c.c.8.o r.e.e.b.o cX= = BXX MXMXVXO ^ ^ + o d h h j <X1X1X[.W P P + 9XG.",
"l.,.o O ^ ^ + +.%.%.@.cXHXHXBX6 9 9 8 W ! ! + X MXMXVXb.4.4.8.o r.e.e.b.o cXHXHXBXX MXMXVXO ^ ^ + o d h h j <X1X1X[.W P P + 9XG.",
"l.q.o O ^ ^ + +.%.%.@.cXX X BX6 7 7 8 W O O + X MXMXVXb.2.2.8.o r.e.e.b.o cXX X BXX MXMXVXO ^ ^ + o d g g j <X1X1X[.W O O + <XQ.",
"l.0.o O ^ ^ + +.%.%.@.cXX X BX6 7 7 8 W O O + X MXMXVXb.2.2.8.o r.e.e.b.o cXX X BXX MXMXVXO ^ ^ + o d g g j <X1X1X[.W O O + 0X[.",
"l.0.o O ^ ^ + +.%.%.@.cXX X BX6 7 7 8 W O O + X MXMXVXb.2.2.8.o r.e.e.b.o cXX X BXX MXMXVXO ^ ^ + o d g g j <X1X1X[.W O O + 8X[.",
"l.0.o O ^ ^ + +.%.%.@.cXX X BX6 7 7 8 W O O + X MXMXVXb.2.2.8.o r.e.e.b.o cXX X BXX MXMXVXO ^ ^ + o d g g j <X$X$X[.W O O + 8X[.",
"l.0.o O ^ ^ + +.%.%.@.cXX X BX6 7 7 8 W O O + X MXMXVXb.2.2.8.o r.e.e.b.o cXX X BXX MXMXVXO ^ ^ + o d g g j <X7X7X[.W O O + 8X{.",
"l.0.o O ^ ^ + +.%.%.@.cXX X BX6 7 7 8 W O O + X MXMXVXb.2.2.8.o r.e.e.b.o cXX X BXX MXMXVXO ^ ^ + o d g g j <X= = [.W O O + 8XF.",
"l.0.o O ' ' + +.%.%.@.cXmXmXBX6 7 7 8 W O O + X MXMXVXb.2.2.8.o r.e.e.b.o cXmXmXBXX MXMXVXO ' ' + o d h h j <X7X7X[.W O O + 9Xx.",
"l.0.o ! } } R +.%.%.@.cXtXtXBX6 6 6 8 W Q Q + bX$ $ VXb.b.b.7.o r.:.:.b.o cXtXtXBXbX$ $ VX! } } R o d s s j 0X$X$X'.W Q Q + 9Xh.",
"l.0.V P U U + +.%.%.$.vXL.L.BX6 6 6 8 W I I + mXn.n.VXb.a.a.w.V r.).).b.V vX_._.BXmXn.n.VXP U U + V d a a j ,X1X1XQ.W I I + 9Xj.",
"l.0.C U Y Y D %.O.O.[ mXCXCXVXw w w 5 P Y Y + NX@ @ VX2.2.2.s.C r.e.e.K.C mXCXCXVXNX@ @ VXU Y Y D C f g g l 1XXXXXu.P Y Y + 9XZ.",
"c.0.qX=.=.=.eX*X$X$XeXdXdXdXiX& # & # =.=.=.=.iXdXdXpXrX;X;XqXeX:X:X:X;XqXdXdXdXiXdXdXdXpX=.=.=.qXqX- - - LX,X,X3X1X=.=.=.=.2XQ.",
"x.y.8X8X8X8X2X0X0X0X,X3X3X2X2XI.I.P.8X8XwXwXwX#X2X@X@X9X2X2X,X,X=X>X>X,X8X#X#X@X2X2X@X2X@XwXwX8X8X8XP.P.P.P.,X9X,X,XwX8X8X2X*X'.",
"G./.|.}.|.oXoX}.}.}.D.k.D.|.|.oXoX|.|.|.|.].'.'.}.'.|.oX|.'.D.v.D.'.|.|.'.D.D.D.}.|.|.}.D.v.v.D.}.}.'.D.D.'.|.}.D.v.v.D.}.v.k.(.",
"{.'.V.R.V.S.S.B.D.!.V.N.{.(.XX.X.X~.(.XXXX|.}.^.&X%X'.|.(.^.Z.d.z.D.'.~.^.Q.Z.B.%X'.Q.N.l.d.d.h.N.N.R.j.j.B.{.N.l.d.d.h.N.d.B.~.",
"].B.y.y.t.d.d.y.d.h.l.j.m.S.E.E.E.S.S.E.~.~.E.S.D.T.B.S.S.S.v.d.y.h.Y.S.S.`.l.l.T.B.h.d.d.d.d.d.d.d.d.y.y.y.d.d.d.d.d.d.d.y.'.^.",
"[.9.q.,.,.,.,.,.,.q.q.q.q.u.u.u.u.u.u.u.d.d.d.u.u.q.q.u.u.u.u.q.,.q.u.u.u.u.q.q.q.q.q.q.q.q.q.q.q.q.q.,.,.,.,.q.q.q.q.q.q.,.oX&X",
"D.9.s.s.s.s.s.s.s.s.s.s.s.s.s.s.s.s.s.s.1.1.1.s.s.s.s.s.s.s.s.s.s.s.s.s.s.s.s.s.s.s.s.s.s.s.s.s.s.s.s.s.s.s.s.s.s.s.s.s.s.s.9X!.",
"Z.0.B C C C N m m B B B B B B B [ [ [ [ Z Z Z B B B B B B B B B m B B D D D A B B B B B B B B B y y y y m m m B B B B B B m 8XG.",
"!.0.o 1.1.1.s.G G G G o G G G G r r r y o V V V G o o o o o o o o o o PXPXPX< V V V o G G G G o K K K | o V V V o o o o o o 9XF.",
"{.f.o oX+X+Xy.A F F F o [ [ [ | k k k l o B m m V o < < < < < < < < o SX@ @ VXv v v V A F F F o U / / + o y m m o o.o.o.| o 9XG.",
"^.f.o ,X*X*X{.@ @ @ JXo 2 2 2 5 d g g j o i.p.p.1.o ) J J J ) J J J o mXMXMXVX#.X.X.X.@ @ @ JXo P U U R o @.$.$.< l l l x o 2XQ.",
"~.f.o 0XoXoX].cXX X @ o , 3 3 2 d i i j o m.d.d.7.o L ^ ^ T P U U T o bXhXhXVXK.#.#.w.cXX X @ o ! H H + o &.%.%.1.d g g l o 2X'.",
"(.f.o <Xf.f.[.cXX X BXo , 3 3 2 d * * j o F.c.c.,.o W O O + O ^ ^ + o X l.l.VXb.2.2.8.cXX X BXo O = = + o +.%.%.@.d g g j o <X(.",
"}.f.o <XOXOX[.cX* * BXo , * * 2 d i i j o F..X.X>.o W U U + ! { { + o X 3.3.VXb.* * 7.cX* * BXo O H H + o +.S S @.d * * j o <X~.",
"Q.u.o <X*X*X[.cXIXIXBXo , * * 2 d i i j o F.1X1X,.o W Y Y + O { { + o X uXuXVXb.r.r.8.cXIXIXBXo O U U + o +.H H @.d c c j o <X^.",
"V.9.o <X1X1X[.cXAXAXBXo , 3 3 2 d { { j o F.-X-X,.o W Y Y + O U U + o X MXMXVXb.4.4.8.cXmXmXBXo O ^ ^ + o +.%.%.@.d g g j o <X&X",
"x.>.o <X1X1X[.cX* * BXo , 3 3 2 d z z j o F.F.F.,.o W ~ ~ + O ^ ^ + o X MXMXVXb.* * 8.cX= = BXo O ^ ^ + o +.%.%.@.d = = j o <XD.",
"h.>.o <X1X1X[.cXIXIXBXo , 3 3 2 d g g j o F.d.d.,.o W Q Q + O ^ ^ + o X MXMXVXb.r.r.8.cX# # BXo O ^ ^ + o +.%.%.@.d e e j o <Xz.",
"x.u.o <X1X1X[.cXmXmXBXo , 3 3 2 d g g j o F.l.l.,.o W O O + O ^ ^ + o X MXMXVXb.aXaX8.cXX X BXo O ^ ^ + o +.%.%.@.d g g j o <Xl.",
"Z.f.o <X1X1X[.cXX X BXo , 3 3 2 d g g j o F.l.l.,.o W O O + O ^ ^ + o X MXMXVXb.2.2.8.cXX X BXo O ^ ^ + o +.%.%.@.d g g j o <XV.",
"E.f.o <X1X1X[.cXX X BXo , 3 3 2 d g g j o F.l.l.,.o W O O + O ^ ^ + o X MXMXVXb.2.2.8.cXX X BXo O ^ ^ + o +.%.%.@.d g g j o 2XQ.",
"|.f.o <X$X$X[.cXX X BXo , 3 3 2 d g g j o F.l.l.,.o W O O + O ^ ^ + o X MXMXVXb.2.2.8.cXX X BXo O ^ ^ + o +.%.%.@.d g g j o 8X'.",
"(.f.o <X1X1X[.cXX X BXo , 3 3 2 d g g j o F.l.l.,.o W O O + O ^ ^ + o X MXMXVXb.2.2.8.cXX X BXo O ^ ^ + o +.%.%.@.d g g j o 8X(.",
"~.f.o <X= = [.cXX X BXo , 3 3 2 d g g j o F.l.l.,.o W O O + O ^ ^ + o X MXMXVXb.2.2.8.cXX X BXo O ^ ^ + o +.%.%.@.d g g j o 9X.X",
"^.u.o <Xr.r.[.cXmXmXBXo , 3 3 2 d h h j o F.d.d.,.o W O O + O H H + o X MXMXVXb.2.2.8.cXbXbXBXo O H H + o +.%.%.@.d h h j o 9XXX",
"&X0.o <X$X$X[.cXkXkXBXo , 3 3 2 d g g j o F.v.v.,.o W O O + O n.n.+ o X FXFXVXb.4.4.8.cXDXDXBXo O n.n.+ o +.%.%.@.d g g j o 9X^.",
"[.0.o 0X1X1X'.cX_._.BXo , , , 2 d a a j o F..X.X>.o W Q Q + ! ( ( R o bXn.n.VXb.a.a.7.cXa.a.BXo ! ( ( R o +.%.%.@.d a a j o 9X].",
"&Xu.C *XoXoXy.X fXfXVXC 3 , , 8 f s s l C d.x.x.1.C L U U + ^ Y Y J C MXaXaXVX2.4.4.s.X $ $ VXC ^ Y Y J C &.O.O.o.f s s l C 2X&X",
"'.f.aX*X-X-XG.xXHXHXgXaX> : : $ i t t 8 aXE.Z.Z.f.aX]  . . .]  . .aXaXHXfXfXgXJ.J.J.H.xXzXzXgXaX]  . .aXaX*.-.-.aXi t t 8 aX8X[.",
"(.f.2X8X8X8X0X9X9X9X,X,XwX2X2X0X0X0X2X2X,X,X,X,X2X0X<X<X2X2X,X,X,X,X,X,X2X9X0X2X2X2X0X8X9X9X0X2X2X2X,X0X0X<X9X2X0X0X0X2X2X2X9X[.",
"(.c.=X$X*X*X*X1X1X1X-XoXoX*X*X*X*X*X*X*X$X-X-X-X1X$X1X*X*X1X-XoX-X$X1X1X1X-X-X-X$X*X*X1X-XoX-X$X1X*X1X-X-X-X1X1X-X-X-X$X*X-X(.[.",
"|.{.D.R.D.E.E.B.Y.T.x.d.R.E.^.|.|.E.E.^.^.[.{.{.`.`.W. XE.Q.l.y.h.Y.W.E.Q.N.l.h.`.W.S.N.d.y.y.d.N.N.B.d.d.T.S.N.d.y.y.d.N.y.d.[.",
".X&Xh.h.h.Z.Z.h.Z.V./.G.&X^.XXXXXX^.^.XX.X.X(.(.&X{.{.^.^.(.G.c.h.V.&X^.(.[././.{.{.Z.h.h.c.c.h.h.h.h.h.h.h.Z.h.h.c.c.h.h.h.].[.",
".Xf.t.5.5.5.5.5.5.y.y.y.y.j.k.k.k.j.j.k.S.S.M.j.h.y.y.j.j.j.d.t.5.y.h.j.j.h.y.y.y.y.y.t.t.t.t.t.t.t.t.5.5.5.5.t.t.t.t.t.t.5.^.^.",
".X0.w.1.1.1.1.1.1.w.w.w.;.w.w.w.w.w.w.w.p.p.p.w.w.;.;.w.w.w.p.w.1.w.w.w.w.w.w.w.;.;.w.w.w.w.w.w.w.w.w.1.1.1.1.w.w.w.w.w.w.1.=X~.",
".Xf.m m m m m m m B B B m m m m m B B B B Z Z m m m m m m m m m m m B B B m m m m m v m m m Z B B B m m m m m m m m v m m M 8X(.",
"~.f.G G G G G G n n n v G G G G G F F F F V V G G G G G G G G G G G y y y V G G G G o.o.o.| N N N Z G G G G G G G G o.o.o.| 8X(.",
"^.f.o v v v M o b.4.4.#.o A A A F VXJXJXJXo v v v v [ | | | < < < < @.$.$.< A A A F l l l x 5X6X6Xi.< < < < [ [ [ | l l l x 2X(.",
"|.f.o X.X.X.o o r.e.e.b.o JXJXJXPXCXMXMXVXo X.X.X.X.r r r r K K K K &.%.%.s.JXJXJXPXd g g l 3X|.|.M.K K K K 5 5 5 r d h h l 9X|.",
".Xf.o 2.#.#.1.o r.e.e.b.o mXCXCXVXX MXMXVXo } _ _ #.7 8 8 5 O Y Y + +.%.%.@.mXCXCXVXd g g j <Xf.f.[.O Y Y + 3 3 3 2 d h h j 9X.X",
".Xf.o b.#.#.w.o r.* * b.o cXmXmXBXnXuXuXVXo .._ _ _ 6 7 7 8 W O O R +.H H @.cXmXmXBXd * * j <XOXOX[.W I I R , 3 3 2 d b b j 9X.X",
".Xf.o ).e.e.7.o r.* * b.o cX# # BXX 3.3.VXo ..{ { _ 6 9 9 8 W ~ ~ + +.S S @.cX# # BXd c c j <X*X*X[.W ] ] + , e e 2 d b b j 2XXX",
".Xf.o b.* * 8.o r.e.e.b.o cX* * BXX h.h.VXo ..* * _ 6 n.n.8 W Y Y + +.S S @.cX* * BXd g g j <X1X1X[.W 1 1 + , * * 2 d g g j 8X(.",
"|.f.o b.b.b.8.o r.= = b.o cXxXxXBXX lXlXVXo ......_ 6 7 7 8 W Y Y + +.O.O.@.cXxXxXBXd = = j <X1X1X[.W 1 1 + , 4 4 2 d b b j 8X|.",
"}.u.o b.{ { 8.o r.= = b.o cXLXLXBXX MXMXVXo ..:.:._ 6 e e 8 W ^ ^ + +.&.&.@.cXLXLXBXd e e j <X1X1X[.W H H + , 3 3 2 d b b j 9XW.",
"{.0.o b.* * 8.o r.e.e.b.o cX= = BXX MXMXVXo ..= = _ 6 = = 8 W Q Q + +.%.%.@.cX= = BXd g g j <X1X1X[.W P P + , 3 3 2 d k k j ,XC.",
"F.0.o b.K.K.8.o r.e.e.b.o cXGXGXBXX MXMXVXo ..' ' _ 6 7 7 8 W O O + +.%.%.@.cXGXGXBXd g g j <X1X1X[.W O O + , 3 3 2 d g g j <Xl.",
"G.0.o b.2.2.8.o r.e.e.b.o cXX X BXX MXMXVXo .._ _ _ 6 7 7 8 W O O + +.%.%.@.cXX X BXd g g j <X1X1X[.W O O + , 3 3 2 d g g j <Xv.",
"F.0.o b.2.2.8.o r.e.e.b.o cXX X BXX MXMXVXo ..} } _ 6 7 7 8 W O O + +.%.%.@.cXX X BXd g g j <X1X1X[.W O O + , 3 3 2 d g g j <XD.",
"F.0.o b.2.2.8.o r.e.e.b.o cXX X BXX MXMXVXo ..} } _ 6 7 7 8 W O O + +.%.%.@.cXX X BXd g g j <X1X1X[.W O O + , 3 3 2 d g g j 9X[.",
"F.>.o b.2.2.8.o r.e.e.b.o cXX X BXX MXMXVXo ..} } _ 6 7 7 8 W O O + +.%.%.@.cXX X BXd g g j <X$X$X[.W O O + , 3 3 2 d g g j 9X[.",
"v.,.o b.2.2.8.o r.e.e.b.o cXX X BXX MXMXVXo ..} } _ 6 7 7 8 W O O + +.%.%.@.cXX X BXd g g j <X7X7X[.W O O + , 3 3 2 d g g j 9X&X",
"l.,.o b.2.2.8.o r.e.e.b.o cXX X BXX MXMXVXo ..} } _ 6 7 7 8 W O O + +.%.%.@.cXX X BXd g g j <X= = [.W O O + , 3 3 2 d g g j 9X].",
"V.,.o b.2.2.8.o r.e.e.b.o cXmXmXBXX MXMXVXo ..} } _ 6 7 7 8 W O O + +.%.%.@.cXmXmXBXd g g j <X;X;X[.W O O + , 3 3 2 d h h j 9XXX",
"!.,.o ).b.b.7.o r.:.:.b.o cXtXtXBXbX$ $ VXo ..` ` _ 6 q q 8 W Q Q + +.%.%.@.cXtXtXBXd t t j 0X$X$X'.W Q Q + , ; ; 2 d s s j 2X.X",
"Z.,.B K.).).;.v r.).).b.m vX_._.@ mXK.K.VXm ' / / _ 6 u u 8 L I I + +.%.%.$.vX_._.@ f u u j 3X-X-XY.L I I + , ).).2 f a a j 8X.X",
"l.,.Z 2.2.2.s.Z r.e.e.b.Z mXCXCXVXNXBXBXVXZ } _ _ #.w 7 7 5 P Y Y + %.O.O.G mXCXCXVXg k k l 1XXXXXu.P Y Y + 3 3 3 8 g h h l 8X~.",
"c.M.1X4X4X4XrXrX:X:X:X4XqXsXsXsXiXsXsXsXiXqX;X;X4X;XjX% % jX<.<.<.<.*X$X=XrXsXsXsX$X& & & # 0X0X<X=X<.<.<.<.% % % jX& & & rX8XW.",
"l.oX2X9X9X9X9X<X>X>X*X=X3X@X@X#X@X#X@X@X,X,X>X>X9X,XP.P.I.I.yXyXyXwX3X3X0X,X3X#X@X2XP.I.P.U.=X,X<X9XyXwXwXwXU.I.U.U.U.I.I.I.3X}.",
"l.&X^.{.^.XXXX{.{.{.Z.h.Z.^.^.XXXX^.^.^.^.&X{.{.{.{.^.XX^.{.Z.h.Z.{.^.^.{.Z.Z.C.{.^.^.{.C.d.d.C.{.{.{.C.C.{.^.{.C.d.d.C.{.{.{.(.",
"k.B.B.C.V.{.S.B.`.D.F.Z.&X~..XoXoX|.~..X.XXX^.(.[.].}.|.~.^./.h.k.D.'.|.^.{.F.F.[.'.Q.N.j.h.h.j.N.N.C.z.z.B.Q.N.j.h.h.j.N.N.N.F.",
"y.f.t.u.u.f.f.u.y.d.d.d.z.!.Q.M.M.!.!.Q.E.E.S.D.A.l.l.F.!.D.h.y.t.d.A.!.D.R.d.d.l.l.y.f.y.y.y.y.f.f.f.t.t.u.f.f.y.y.y.y.f.f.f.t.",
"0.0.0.,.,.,.,.,.,.0.0.0.0.f.f.f.f.f.f.f.l.l.l.f.f.0.0.f.f.f.f.0.,.0.f.f.f.f.0.0.0.0.0.0.0.0.0.0.0.0.0.,.,.,.,.0.0.0.0.0.0.0.0.0."
};
