/* XPM */
static char *_c32d0388e9f447fbc9ebb8a343c1a8b[] = {
/* columns rows colors chars-per-pixel */
"64 91 256 2 ",
"   c black",
".  c gray100",
"X  c #040405",
"o  c #0A0A0B",
"O  c #262628",
"+  c #141415",
"@  c #020306",
"#  c #141518",
"$  c #000103",
"%  c #07080A",
"&  c #161719",
"*  c #38393B",
"=  c #353638",
"-  c #030508",
";  c #323437",
":  c #323539",
">  c #0D0E0F",
",  c #101112",
"<  c #1A1B1C",
"1  c #191A1B",
"2  c #303132",
"3  c #2D2E2F",
"4  c #343536",
"5  c #323334",
"6  c #313930",
"7  c #323C2A",
"8  c #303728",
"9  c #404232",
"0  c #010100",
"q  c #373735",
"w  c #1E1E1D",
"e  c #232322",
"r  c #30302F",
"t  c #353534",
"y  c #2C2B23",
"u  c #2B2A24",
"i  c #070602",
"p  c #29271F",
"a  c #2E2C24",
"s  c #2F2E2A",
"d  c #2C291F",
"f  c #2E2B21",
"g  c #0A0802",
"h  c #29220F",
"j  c #251F0F",
"k  c #2B2514",
"l  c #1A1812",
"z  c #2D2A21",
"x  c #2E2B22",
"c  c #2A2822",
"v  c #2F2D27",
"b  c #1E1706",
"n  c #2A210B",
"m  c #211A09",
"M  c #29210C",
"N  c #2C230D",
"B  c #28200C",
"V  c #271F0C",
"C  c #2B230E",
"Z  c #2A2311",
"A  c #1F1A0D",
"S  c #221D10",
"D  c #282317",
"F  c #2C271A",
"G  c #302C22",
"H  c #332F25",
"J  c #24221D",
"K  c #413F3A",
"L  c #0D0A03",
"P  c #281F0A",
"I  c #1A1407",
"U  c #120E05",
"Y  c #251D0B",
"T  c #2E240E",
"R  c #2B220D",
"E  c #2A210D",
"W  c #1D1709",
"Q  c #413417",
"!  c #2D2410",
"~  c #29210F",
"^  c #41351B",
"/  c #483B1F",
"(  c #302817",
")  c #2B2517",
"_  c #241F14",
"`  c #211D14",
"'  c #332D20",
"]  c #2E291E",
"[  c #2D220B",
"{  c #463514",
"}  c #423213",
"|  c #453618",
" . c #302611",
".. c #382C14",
"X. c #47381A",
"o. c #48391B",
"O. c #2F2613",
"+. c #4B3D21",
"@. c #342B19",
"#. c #362E1E",
"$. c #322B1D",
"%. c #3E3729",
"&. c #4E4636",
"*. c #4A4335",
"=. c #4B4436",
"-. c #39342A",
";. c #4A4438",
":. c #393630",
">. c #1B1A18",
",. c #1C1B19",
"<. c #353432",
"1. c #3D3C3A",
"2. c #31240D",
"3. c #453313",
"4. c #4B3815",
"5. c #392B11",
"6. c #483717",
"7. c #352811",
"8. c #493818",
"9. c #2C220F",
"0. c #2E2310",
"q. c #443418",
"w. c #332712",
"e. c #352913",
"r. c #4C3B1D",
"t. c #45371E",
"y. c #42351E",
"u. c #372D1B",
"i. c #2E2617",
"p. c #4B3E26",
"a. c #302819",
"s. c #3B311F",
"d. c #403623",
"f. c #31291B",
"g. c #4A3F2B",
"h. c #4C412E",
"j. c #3B3325",
"k. c #4C4333",
"l. c #494132",
"z. c #373126",
"x. c #4C4435",
"c. c #4F4738",
"v. c #4C4436",
"b. c #4D4537",
"n. c #4E4638",
"m. c #4D4639",
"M. c #4B453A",
"N. c #4C463B",
"B. c #4E483D",
"V. c #251B0A",
"C. c #3D2D13",
"Z. c #453316",
"A. c #322510",
"S. c #4E3A19",
"D. c #473517",
"F. c #332611",
"G. c #302410",
"H. c #3B2D15",
"J. c #3D2E16",
"K. c #372A14",
"L. c #413118",
"P. c #302513",
"I. c #3F311A",
"U. c #41331C",
"Y. c #302615",
"T. c #463A27",
"R. c #4E4434",
"E. c #4E4536",
"W. c #463F33",
"Q. c #3D372D",
"!. c #4C4539",
"~. c #4E473B",
"^. c #474137",
"/. c #423D35",
"(. c #050300",
"). c #4F3816",
"_. c #513A17",
"`. c #412F14",
"'. c #433218",
"]. c #403018",
"[. c #43331C",
"{. c #3C2F1B",
"}. c #3E311E",
"|. c #4F4029",
" X c #504330",
".X c #453C2E",
"XX c #51483A",
"oX c #675C4C",
"OX c #534A3D",
"+X c #35312B",
"@X c #353330",
"#X c #563C18",
"$X c #4B3516",
"%X c #533B1A",
"&X c #513A1A",
"*X c #543C1C",
"=X c #4B361A",
"-X c #423017",
";X c #513B1D",
":X c #533C1E",
">X c #553E20",
",X c #533E22",
"<X c #4C3A22",
"1X c #53422C",
"2X c #574D40",
"3X c #1D1A16",
"4X c #201D19",
"5X c #3C3935",
"6X c #553B1A",
"7X c #5A3E1C",
"8X c #573D1D",
"9X c #4E371A",
"0X c #5A4123",
"qX c #564127",
"wX c #604B32",
"eX c #574836",
"rX c #544634",
"tX c #50483E",
"yX c #4D4842",
"uX c #5D401F",
"iX c #5F462A",
"pX c #58452F",
"aX c #594A39",
"sX c #726352",
"dX c #5B4F42",
"fX c #4F453A",
"gX c #5C5145",
"hX c #544B41",
"jX c #514940",
"kX c #554D44",
"lX c #575048",
"zX c #684521",
"xX c #030201",
"cX c #6F4A26",
"vX c #604F3E",
"bX c #5F5143",
"nX c #60554A",
"mX c #524A42",
"MX c #534D47",
"NX c #45423F",
"BX c #5E5247",
"VX c #784F2C",
"CX c #534B44",
"ZX c #584E46",
"AX c #010000",
"SX c gray22",
"DX c #343434",
"FX c gray20",
"GX c #202020",
"HX c gray11",
"JX c #1B1B1B",
"KX c #191919",
"LX c #181818",
"PX c #070707",
"IX c #020202",
"UX c None",
/* pixels */
"  B B B B B G.G.....G.G.G.].]...G.].x ..DX].].].G.].].G.B B LX  B B G.G.G.].G.].]...].].].G.G.B B     B B G...].DXDXG.G.G.B     ",
"  B D D 5.5.'.d.Q Q H H 5.=X&X$Xd.T.Q.=X<XT.&X$Xj.T.T.d.D R &   B R z 5.d.T.=X&X.X*X9X XT.%.K.D V >   P  .z z.T.T.1.d.C.H D I   ",
"  B z.z.+.S.8X~.8.6.1.= {.,X0X>X~.m.c.uXiXOXuXqX2XtXtXOXz.F.3X  B w.q t.OXm.uXuXR.cXiXoXtXrXD.+XN ,.  Z H.q 1.m.>XrXtX+.1.z.N g ",
"  B *.*.*.*X*Xv.8.].v.SXf v.x.x.v.v.v.uXBXBXuXgXoXgXBXgX*.].G.  B ].=.x.BXv.*XuX:XcXgXoXBXuX%X*...B   x ].=.=.v.x.cXmXx.=.*XB V ",
"  w.dXnXdX X X+.8.`.t.* <.qXb.1.qX,XqX8XiXiXzXsXoXoXgXoX2Xl.A.  N 4.E.M.OX/ 4. XzXcXBXnXBX1X X~.H.n , {..X0Xb.jXyXcXBXtX*.|...R ",
"  H.nXoXBXg.K Z.| j.J.Q.* uXK = uX#XuX*X7XqXcXsXaXsXoXsXoXnX0.  I d.x.1Xl./ / ;.VXzXBXgXnX;.;.g.e.B JX`.rXiX=.jXeXzX2XZXOXjXL.n ",
"  ..BXoXjX].5 ].].DX].].SXuXq SX0X0XuX*X*Xx.cXsXuXsXsXsXsXsXG.    4 v.uXb.b.b.b.VXuXgXBXoXv.v.8.G.B LXL.uXBXx.k.uX0X*.BXBXBXK.B ",
"  A.BXBX>X@X; | | s.`.-X= 8X{.^. X X6X*X8.:XrXOXuXOXOXVXsXsXK.  m ^.jXvXgXgXgXgXzXuXc.nXlXjXtXh.K.B LXl. XCX0X,X X X=.c.B.CXA.>.",
"  ) BXgXd.%.d.8.S.{ %.#.s S.T.n.;.;.|.6X6.|. X^.1Xp.qXiXoXsXe.  N E.tX2X2X2X2X2X|.1X*.wX1XCXgX!.e.B HXm.;.kXuX_.N.K v.*.|.ZXw.3X",
"  H BXBXt X.X.8.*X6.= G ' o.R.R.v.v.M.:Xt.R.7Xk.l.;X>XR.BXsX0.  j n.*.*.k.*.*.*.;.;.v.>X:XjXgXv.0.B GXv.v.BX0Xt.l.SXv.v.:XgXH.n ",
"  *.BXnX;X5X<.*X*XL.a ].6.k.*XuXv.;.;.k.5XuX*X:X8.5X5XcXoXoXG.  LXkX*.*.0Xv.v.v.v.;.;.5Xk.!.m.v.G.B GX!.;.nXR.@XL.*.v.;.x.n.L.R ",
"  |.hXg._.: ; $XS.-Xs #.s.N.1X.X!.qX|.~.: .X%X6X%.: : uXwX2XG.  ` 5XgXgXuXv.E.M.v.qX,XK ;.p.qXv.0.B i.p.qXpX1.K .Xm.!.qX1Xx.K.L ",
"  } g.`.| -.5 s.| {.r y u h.l.:.h.7X_..XQ.* 8X*X1.-.Q.S.>Xl.G.  [ D aXaXuXv.^.h.v.7X:X Xv.#X7Xb.F.B V.} &X).:.^.k. Xh.7X7XW.0.i ",
"  G.8.8.].].r r ].x x x x 8.8.8.8.*X8.].*Xv.uX*Xv.8.*X8.v.v.G.  B B ].].uXv.SX*Xv.*Xv.*Xv.uX8.v...B   G.].].8.DX8.*X8.8.*XDXG.B ",
"  B -.-.-XC.}.v w.}.{.x x -.8.%X%XS.l.Z. X!.8X*X!.%X7X-./ !.G.  i w.J J.Q.v.d.7X!.7XM. X;.Q.-.+...n > B ! ' #.v #.s.#.' z.DXG.R ",
"  R ; ; u.@.{.x G.5.C.x x ; D.9X9X|  XS.h.1X*X*X1X%X9X; S.g.G.  L J.GXJ.; v._.uXg.7X1Xg.1X: : Z.e.S HXR B y u f u c u u ] FXG.B ",
"  G.DXDXy y y f 0.Y 0.x x FXI.I.{.I.%X*X6.%X;X;X%XX.J.DX*X6.G.  ~ L.G ..FXv.0X0X6.:X%XX.uXSX<.].G.& + G.G.f f f x x f x ..r G.B ",
"  E 5 5 G a a w.>.LXM a a v G <.G G q.q.} Z.q.q.q.:.f = S.'.A.  3XL.| `.a !.R.R.4.R.8.k.uX; {.].A.1 X T G.O...O.a a O.a G v n N ",
"  N ' ] c ) ) ` & ` B ) ) ( a r a $.K.#.z.#.#.H.K.; r ' Q H._   1 K.%.-.z p.pX|.%.1.{ d.=XT.).J.` o   U G.2.2.[ ( ( 2.@.a.( ` U ",
"  m V.b KXP P >.KXm M P P 9.] ] ] 5.0.c s d d Y 0.s O T e.Y ,   + 0.r r x q.7X;X<.@X/ @.L.>X0Xy.>.IX    m m j j 9.9.m Y 9.m +   ",
"  xXxXxXIXR R ~ KXxXR R R >.C C C N R JXC h h xXR C IXR R xXIX  IXR Z Z a G '.t X.X.x.SX;XR.E.=.0.+     xXxX>.>.>.>.xXxX>.xXIX  ",
"          L L U o   g g g - g g g L L PXL g g   g g o g i         L L L k a ' s s.s.-.d.#X1.d.+.G.1         % % - @     -       ",
"g g g g L X         i i i i i i i   @     i i g (.i 3Xi i g g           j p F a.d d u r.,X:.`.y.w.3X    PXL     X o PXL i L g PX",
"M M M M M KX    0 0 M M M M M M M 0 KX0 0 M E E E M M A.A.M M 0 0 0 0   & LXB G.G.G.r v.=.6.8.DX..B   0 KXM 0 0 KXa KXA.R A.M KX",
"5.K...w.0.&     , W 0.7.F d w.w.V W j W b 7.} D.D.H.5.} $X5.5.b , , ,   IXIX3X4XT 7.4 K 1.4.'.= T 4X  , S F N W w 8 1 3..X=X7.j ",
"T.8X9XZ.e.` o   ` T 7.d.5X#.Z.Z.7.e.N N i.z.pXzXzX9Xg.1XwX Xg.' ` D D L PX% # % U I z.H <.y.L.z.` >   ` F.:.pX6XO 7 e |.mXuXz.[ ",
"n.cXiX0X'.n LXIXN F.[.XXZXS.>X>Xr.L.A.M G * BXVXVX*XhXnXoXBXCX1.n t.t.T e J ,.xX0 $ P m J J  .P +   IXh '.E.nXVX<.8 G *.OX0X4 P.",
"E.bXbXbX;XB $ LXJ.J.k.BXBXzXjXhXk.].5.0.| ;.~.2XBX'.,XnXB.c.N.;.P dXdXC.W.9XQ J m + i xXxXIX(.0 0   + d | uXkX2X=.v {.U.0X5X8 d ",
"K CXkX2X8X9.U o #.-.~.wXiXzXpX1X!.`.$.e.#X,XT.B.pX].7XOX,Xl.,X&.) nXnXQ.&.|.*X<.F `   > + , , W o   HX#._.pX~.B.9 Z *XJ.8XK 9 U.",
"@Xh..XW.&XA.T IXG :.h.6Xr.qXiX>Xv.}.y ..<X:X4.W.).].7Xc.iXXX:X^.a BXvXq XXOXzX1.H T   + ' Q.Q.p.4XX , -X,XlX*.W.8 ~ 8X-X8X*.h.| ",
"..*XL.DX-XG.M LX].8.8.-X<.x.oXbXv.SXx ..SXx.*XSX-X].%XBXbXBXx.DXz BXuX].BXoXVX=.8...    G.jXjXmXG.&   ].x.oXv.DX..z L.6.uXt L.G ",
"f.s.J.d.+X3XL HX#.Q.g.+X5 =.nXBXjX= x ..^.1. X^.+X:.aXOXOXOX1.d..XXX1Xs.K 2XvXqX#.f   I H.gXgXT.G.j > ].!.oXv./.9Xy.$.h. X5 $.i.",
"y ] ].4.: l   , u * !.: DXb.ZXBXjXr x ..b.1.M.|.Q.1.nX*.=.*.1._.XX*.M.6 z.*.yXzXG '   N '.BXBXC.w.n HX'.=.oXv.&.&X6.y N.;.q ' 2.",
"x L.].8.<.M xX  f q v.SXDX*.jXgX*.x x ..x.x.v.6.*Xv.bXx.*.=.x.*X*.x.x.DX8.x.v.cXL.L.  B ].BXBX]...B LX8.x.gXv.v.].].x x.R.SXL.G.",
"G 8.6.L.I.0.m   @.s.v.^.DX[.c.XX[.3 x ..0X:Xv.{ #Xv.VX,X[.1.y.q.y.:X,Xv 8.,X!.rX{ L.  B ' BXMX].G B X '.0XtX&.&.f G 2 ,XiX2 L.e.",
"e s.q.'.j.G.N   C.$XE.n.; j./.5Xz.z.y ..9X|.!.p.|.v.zX6X' 5 C.J.J.|.#X@.8.#Xp.p.p.L.  B y 2XpX-XF n   H.#Xp././.u.#.%.7XcXq ].H.",
"GXf L.8.5XG.M   L.*X^.k.:.* SXt <.'.G ..].*.k.R.R.v.0X*Xr r U.'.'.k.;X5.6.;Xq.| R.].  B x *.>X{. .j   K.Q q.5 5 I.-X| 8XzXrX'.[.",
"d J.6.4.o.A.R   -X8.* o.X.SX!.=.X.8.I...6.o.o.8X*X!.x.6X| 2 k.&X;X8.5XG.-X5Xf <.>X..  B x b.5Xx f HX  f G f DXDX<.-XG '.7XcX%Xk.",
"+Xg.%.-.{.` U   #.q.d.4.4.DX%.%.D.H.K...-.3.4.%.%.+.qX1X|.mXXX1X7Xj.; F z.: 2 d.=X.., N a K * s.a._ > a 2 2 s 5 ; #.y $.%. X.XK ",
"4 W.2 3 u &     p H.t.^ ^ s c c H.R 0...:.s.^ 2 ; Q =X^.k.2X^./.<X; s ' : DX* t.H...+ W ] = = J.A.j HXF +X+Xf v v y x y 2 5 ; = ",
"r x x x x LX    B G.DXx x x x x G.B G...8.r x x r x x DX8.x r x DXr x ].DXDXDXr A.A.    G.DXr G.G.LXLXB G.G.x G.G.x x x x x x DX",
"v y O.Z Z JX    P E F a a Y.Z Z E B N T 5.a.y f a.i.i.v #.d a.Y.f.a.Z G.f.f.f.D L L     [ f.a.n g PXPXP n n Z n n Z Y.a a Z O.s ",
"a.f.2.P n >     R n P f.f.2.n n n R S M N 2.f.G 2.2.2.f y G [ 2.[ A.n B [ [ [ n         S [ [ S %     R n n P B n P 2.$.f.P 2.a.",
"0.0.0.V Y       Y Y Y Y Y Y Y Y Y Y # Y Y 0.0.z 0.Y Y z z z V Y Y 9.Y Y Y Y Y Y         # V V # LX    Y Y Y V V Y B Y 9.Y B 0.0.",
"3X3X>.>.(.      i i i (.(.(.xXxXxXxX$ (.(.>.>.,.>.(.(.,.w ,.>.(.(.(.(.(.i (.i i         X >.>.X IX    (.(.(.>.>.i ,.i i i ,.>.3X",
"# # # # %             % % - L U U U L % % # l + # % % + - # # - - - - -   %               # #   %     - - % # #   o       % # # ",
"3X3X3X4X4XPXi X X X i 4Xc J ( u...5.A.4Xw >.h >.>.w w >.i 3X3XJ e GXe J i 4Xi       i i i 3X3XPX4XPXPXJ J 4X,.,.X     X PXX 4X4X",
"H.H.H.H.J.p R + # KXY H.W.l.*.*.| &X{ J.d p d p p d c p A.H.H.W.^.2 ^.8Xn 0.Y       Y m ~ H.9.p H.p p l.W.e.d d #     + p p H.H.",
"rXrXeXR.).y.H.KXD a n g.dXhXqXqX8.eXaX&X/.B.M.~.~..XI.fXeXrXaXgX,X^.,XvX+Xa.[     > 5.8X7XaXl.W.g.{.s.hXgXT.s s D W   @.W.W.R.g.",
"nXnXgXmX,XS.q.1 b 4X) m.BXjX,X<XS.mXgX%X XvXnXBXBXc.+.nXBXoXvXdX0X&.0XBX5Xs f.L   JXt.cXcXvXXXh.m.t.q.jXgXtXK K 2.m   I.^.c.mXB.",
"BXBXv.v.v.*X8.GX    r v.mXv.v.SX*Xv.v.8.*XuXBXv.v.v.v.mXv.oX*Xv.BXv.BXmX8.DXDXB   LXv.*X*X*X].].v.v.8.v.v.mXBXBXB     x DXv.v.mX",
"nXkX;.!.&.6X6.k     s.;.m.x.v.* 8Xm.E.4.).#XkX*.*.v.*.m.x.nX7X*.nXv.nXmX%X= : E   LX~.*X*X4.`.].jXb.8.;.,Xm.oXBX9.    y ; v.x.kX",
"2XB.1Xg./.|.p.2.    -X1X*.v.v.-.S.T./.%.d.|.B.~.v.!.hXb.K 2XpXv.eXv.2XmX8Xs j.n   LXT.&XS.%.j.].jX;.q.|._.b.oXBX7.U   $.z.;.v.NX",
"k.k.%X6.@Xx.x.P.    J.0Xv.v.v.-X6.`.@XFXFX;.x.mXv.k.dXk.q l.tXv.%Xv.k.jX*XG I.V   LXJ.| 6.SXt L.k.k.L.*X| k.gXgX..R   ..-Xk.v.SX",
">X:X8.6.t.>X>Xf     A.5Xv.;.m.6.4.6.X.}.}.v.!.N.m.o.r.L.I.[.[.v.8Xv.:Xm.8.W.q LX  LX].].8.,Xt.8.8X:X&XR.-XU.~.XX .M   ..6.:Xv.=.",
"_.#X| 8._._.$XF     7.K E.1XT.q.%.%.%.`.`.&.p.p.T.3.{ T.u.u.-.v.$X&.6Xp.'.XX%.`   LX].=Xq._.Z.q.%.|.|.1.z.J.p.T.T B   ..q.1XE./.",
"t.,XS.8.&Xy.s.F.    K.h.^.7XJ.].: @X<.}.}.^.{ { C.{.D.c.y y 5Xb.s.^.*X{ ].^.4.n   LXL.8X].| ].].:.R.M.r 3 '.{ `.P.B   e.].l.^.5 ",
"<.x.uX8.-XDXDX].    A.L.SX*X].].SX].X.DX<.t ].]...x -Xb.x x o.b.DX4 *X-X].4 8.n   LXL.8X-X].].].0XuXb.x x 6.-X].f B   G.].L.SX4 ",
"; 1..X-.+Xd.j.e.    N J.d.S.].-.q -.3.j.; 5 ].].$.u -.5Xi.( 5.t.d.d.Q.-.-.d.'.L   LX' s.+X| ].].7X7Xt.s r -.-.-.x B   G.H.$.s $.",
"; ; : : : 4.`.0.    S -X4.q.].; 5 : j.Z.; ; ].-Xy #.: ; 2.N 0.`.4.4.; ; : 4.].    LXy c 3 8.L.].*X&XC.2 = : : : x B   G...c d P ",
"<.t DXDXDXX.].G.    LXI.X.].].DX<.<.DX8.<.<.].].x ].DXDXG.B G.].X.X.DXDXDXX.].0   LXx f f 6.].].*X6.L.t DX<.DXDXf B   G...a a M ",
"^ ^.: u.{.-.<.K.    S +X:.-X-XDXt.t.t.4.o.o.`.@Xx ' v u.n P n F.:.:.FXFXv :.' ,   LXa ....C.F.C.S.'.7X*.}.t.}.v w.N   0.f W.W..X",
"|.1X.X8XT.: -.e.    T 3 r #.#.5 6.{ d.j.d.d.j.: x y x @.k ) ) F 2 3 O O k 2 a `   LXa.u.u.$.F F s.u.<X/.u.I.u.z _ I   7.' |.c.hX",
"hXuXuXzXx.5X`.0.    G.] ] z z s J.{.3 3 3 3 5 FXx x f f a f f f ] w + + Y ] d n   LXT z z f f w d y c 3 y y y x &     ..'.{ v.mX",
">XuX8XS.o.X.`.G.    N F.F.P.P.Y.F.G a Y.w.v v v a a P.P.a P.w.! ! JXIX& LXR h N   1 n h h w.P.j P.a y a a a a G 1     ..6.].E.c.",
"|.7X8.{ ).Q.-.N     U _ _ 2.2.2.T ( ( 2._ ( @.@.( @.2.2.@.2._ U U o   _ _ ` ` U   o ` ` ` _ 2.N 2.( @.@.@.@.( J o     $.%.| 1.5X",
"M.&X8./ qX5X@Xj       , , W W W W Z Z W , b V.V.b V.W W V.W ,         b b , ,       , , , , W W W b V.m m m b >       y ; 6.SXSX",
"v.8.*Xx.jX:X].LX      0 0 0 0 0 0 KXKX0 0 0 0 0 0 0 0 0 0 0 0                                       AX                x DX].=.jX",
";.4. Xv.BX7X`.&                   @ @                               W I I I I W W W I I I I I I I > > I I I I I ,     x DX| tXnX",
"pXd.M.~.dX9Xs.`     % L L U , > L L L       L L L L L L %         L [ n M n n n n n R n n M M n M 3X3Xn n M R R 1   o x DX8.kXsX",
"zX5 v.mX*.].r G.    >.! ! J.SXH N R R     xXN T T Z Z N >.xX      R ~ R R h C h h R E ~ h R R R R N N h C R E E LX  LXx DX6.jXoX",
"Q.a &.XXSXG v [     j W.W.{ yXN.} 0.M     Y } $X$Xr r } Z m       0.r } $X.X.Xr r } ..r r $X$X} $X$X$XW..X$XH.H.j   X a 4 '.SX1.",
"3 s 5XQ.r a ( `     N |.1Xp.MXnXp.7.B   U f.|.wXpXMXMXpX5.T     U K.T.p.wXpXc.NXyXp.&XMXyXpX1X XwXwXpX1X~.wX9XZ.N U   i.r #.s s ",
"] s s p p c 9.+     G.o.:XtXXXvX~.H.M   N ' !.BXMXoXoXnXy.F.X   ~ L.>X~.BX0Xm.kXBX~.iXoXBXmX;.CXnXBXCX6Xv.BX>X/ G.~   j ] d F F ",
"w.Z w.C JXJX>.IX    G.*.k.gX:X>XmXJ.0.  B | !.m.BXnXkXnXk.J.#   LX].x.mXkXhXmXCXCXCXhXkXCXv.v.b.BXCX&.*Xb.kXk.k.G.LX  >.C M M M ",
"L g L g X % %       e.qXN.ZX6XS.B.g.C.  B { ,X,XpXOXp.pXjXg.j   S -XqXtXp.qXpXK 1X|.g.N.tXtXv.!.OXXX5XZ.y.p.N.~.e.S   % L ` 3X3X",
"@ @ @ @ X           K.<Xh.tX%X| h.~.{.  B s.<X).).*.4._.jXc.j   j {.).g.3.<X7X5X).^ 4. Xg.jXb.h././.2 y.U.^ h.g.K.j       > & & ",
"LXLXLXLXLX          G.DX8.v.8.].*Xv.x   B DXSX].8.v.*X*Xv.v.LX  LXx ].8.].SX*Xv.].DXuXuX].v.v.8.DXr r v.v.DX8.].G.LX        LXLX",
"m A A A S ,         M ; @X!.@X] 6Xt.a   B ; : @X%X!. X*XE.5X@   @ z +X4.f 4 -.c.+X5 zX7X-X5X5X{ 5 3 a c.c.; 4.{ P @       > A A ",
"s.u.{.`.5.GX, %     n %.-.g.Q.-.S.C.F   B %.j.%.9Xp.K S./.5 L   L v ; d.#.DX1./.= /.wXt.a.e s p.DX2 v /./.%.d.d.k U   o U ) C.3.",
"kXXXm.0X>XH H ,.    P.X.X.D.6XR.6.K.P   B 6.X.X.{.| 5 o.@XDX~   R 2 DX<.o.DXl.3 2 l./.c < ,.G ;.DXq SX5 5 %X* ; y V   1 C U.0XcX",
"kXBX1.:.x.l.J.9.    ] @X@X} 4.r.4. .B   B -X<.<.<.<.; k.t.DX>.  N r = X.:.FXe & < ,.X & HXW.W.SX4 ^.jXSXDXZ.4 DX,.i   LX] @XrX2X",
"NX2X= ; 1XXXp.f.    a K K +X-.j.%.0.B > B ].-.d.j.j.T.g.{ DX`   L 2 ^.T.r e A v /.@XJ +X:.g.~./.NXm.NX= ; z.4 DX&     LXr K 1.K ",
":..X1.1._.^.;.f     ] h.h.:.@X@X@XG.B 1 B ].`.X.I.I.#X{ s.DXn   (.+X*.= p l h XXgXjXn.R. X`. X&.hX X+X-.@X5 FXDXLX    LXr *.5 2 ",
"I.I.v.v.-Xt t  .     .L.L.X.I.I.].G.n LXB ].-Xt r <.8.].DXDXn   B I.q a LXY z b.FXa a L.8.8.:Xb.b.:XX.8.].a a 2 LX    & x t DXDX",
"`.Z.5X5X+X5 v n     ` @.@.j.`.-X#.[ ` LXB ].' s v r #.-Xj.DX`   U 7.e 4XJ } <Xd.u c H.`.-.Z.$Xd.5XD.4.%.z.4XJ f.LX    S f 5 d.d.",
"s.4.5 5 : 4 f M     & s s 3 q.L.] S > KXn L.y z f F p {.C.4 >     I o # +XzXzX`.v #.}.j.; j.s.} ; ].| ; 2 # > j LX    N f 4 _._.",
"DXX.DXDXDXDXf V     LXr r f 6.].G.LX  LXB ].f x f B B x G.DXAX      AXLXDXcXuX].DX].DXDXDXDXDX8.DX].].DXr LXAXLXLX    G.x DX*X*X",
"= Q.= = +Xu.O.g     JX@.( Y.e.7.n 1 + PX,.7.Y.H Y.B N Y.7.u.m       m j s ;X=X7.s ' s a.s a.a.q.@...'.= 2 j b ~ JX    7.r a.L.z.",
"x O x x l I U       > I j [ E R B > ,   > _ [ l [ B I [ I I I       I n )  .w.R ) F ) [ ) [ [ e.j I i.x G n _ I >     I O [ ! D ",
"B LXB B                 LXB B B B         LXB   B B   B               B B B B B B B B B B B B B LX  LXB G.B LX          LXB B B "
};
