/* XPM */
static char *_008f84ccd97470fcf32b28109145473[] = {
/* columns rows colors chars-per-pixel */
"64 91 256 2 ",
"   c black",
".  c gray100",
"X  c #FC0000",
"o  c #ECECEC",
"O  c #EC0000",
"+  c #E00000",
"@  c #D40000",
"#  c #C80000",
"$  c #BC0000",
"%  c #B00000",
"&  c #A80000",
"*  c #040405",
"=  c #0A0A0B",
"-  c #262628",
";  c #2D2D2E",
":  c #020306",
">  c #000103",
",  c #07080A",
"<  c #141517",
"1  c #161719",
"2  c #38393B",
"3  c #353638",
"4  c #030508",
"5  c #323437",
"6  c #323539",
"7  c #0D0E0F",
"8  c #101112",
"9  c #1A1B1C",
"0  c #191A1B",
"q  c #303132",
"w  c #343536",
"e  c #323334",
"r  c #323C2A",
"t  c #303728",
"y  c #404232",
"u  c #010100",
"i  c #FCFCD8",
"p  c #373735",
"a  c #222221",
"s  c #30302F",
"d  c #FCF400",
"f  c #2C2B23",
"g  c #2B2A24",
"h  c #070602",
"j  c #2E2C24",
"k  c #2F2E2A",
"l  c #2A271D",
"z  c #2E2B21",
"x  c #0A0802",
"c  c #29220F",
"v  c #251F0F",
"b  c #2D291E",
"n  c #2D2A21",
"m  c #2E2B22",
"M  c #2A2822",
"N  c #2F2D27",
"B  c #1E1706",
"V  c #2A210B",
"C  c #211A09",
"Z  c #2C230D",
"A  c #28200C",
"S  c #2B230E",
"D  c #2A2311",
"F  c #1F1A0D",
"G  c #2B2516",
"H  c #282317",
"J  c #332F25",
"K  c #24221D",
"L  c #413F3A",
"P  c #0D0A03",
"I  c #281F0A",
"U  c #1A1407",
"Y  c #120E05",
"T  c #251D0B",
"R  c #2E240E",
"E  c #2B220D",
"W  c #2A210D",
"Q  c #1D1709",
"!  c #413417",
"~  c #29210F",
"^  c #41351B",
"/  c #483B1F",
"(  c #302817",
")  c #312C21",
"_  c #2D220B",
"`  c #423213",
"'  c #302611",
"]  c #382C14",
"[  c #47381A",
"{  c #48391B",
"}  c #2F2613",
"|  c #342B19",
" . c #362E1E",
".. c #221D13",
"X. c #322B1D",
"o. c #3E3729",
"O. c #4E4636",
"+. c #4A4335",
"@. c #4B4436",
"#. c #39342A",
"$. c #4A4438",
"%. c #393630",
"&. c #1B1A18",
"*. c #1C1B19",
"=. c #353432",
"-. c #3D3C3A",
";. c #31240D",
":. c #453313",
">. c #4B3815",
",. c #463515",
"<. c #392B11",
"1. c #493717",
"2. c #493818",
"3. c #2C220F",
"4. c #453518",
"5. c #2E2310",
"6. c #332712",
"7. c #4C3B1D",
"8. c #45371E",
"9. c #42351E",
"0. c #4B3D24",
"q. c #372D1B",
"w. c #2E2617",
"e. c #3B311F",
"r. c #30281A",
"t. c #403623",
"y. c #4A3F2B",
"u. c #3B3325",
"i. c #4C4333",
"p. c #494132",
"a. c #373126",
"s. c #4C4435",
"d. c #4F4738",
"f. c #4C4436",
"g. c #4D4639",
"h. c #4C463B",
"j. c #4E483D",
"k. c #251B0A",
"l. c #3D2D13",
"z. c #453316",
"x. c #322510",
"c. c #4E3A19",
"v. c #332611",
"b. c #302410",
"n. c #352812",
"m. c #3B2D15",
"M. c #3D2E16",
"N. c #372A14",
"B. c #302513",
"V. c #3F311A",
"C. c #302615",
"Z. c #463A27",
"A. c #4E412C",
"S. c #4E4434",
"D. c #463F33",
"F. c #3D372D",
"G. c #4C4539",
"H. c #4E473B",
"J. c #474137",
"K. c #423D35",
"L. c #050300",
"P. c #513A17",
"I. c #412F14",
"U. c #433218",
"Y. c #403018",
"T. c #42331C",
"R. c #3C2F1B",
"E. c #3E311E",
"W. c #504330",
"Q. c #453C2E",
"!. c #4E4537",
"~. c #51483A",
"^. c #675C4C",
"/. c #35312B",
"(. c #353330",
"). c #563C18",
"_. c #523A1A",
"`. c #543C1C",
"'. c #4D371A",
"]. c #423017",
"[. c #513B1D",
"{. c #533C1E",
"}. c #543E21",
"|. c #53422C",
" X c #574D40",
".X c #52493D",
"XX c #1C1915",
"oX c #201D19",
"OX c #3C3935",
"+X c #553B1A",
"@X c #5A3E1C",
"#X c #573D1D",
"$X c #5A4123",
"%X c #564127",
"&X c #604B32",
"*X c #574836",
"=X c #544634",
"-X c #5D401F",
";X c #5F462A",
":X c #58452F",
">X c #726352",
",X c #5B4F42",
"<X c #5C5145",
"1X c #544B41",
"2X c #554D44",
"3X c #575048",
"4X c #684521",
"5X c #030201",
"6X c #6F4A26",
"7X c #604F3E",
"8X c #5F5143",
"9X c #60554A",
"0X c #514941",
"qX c #45423F",
"wX c #CC6000",
"eX c #9C4C00",
"rX c #FC8820",
"tX c #FCA85C",
"yX c #5E5247",
"uX c #784F2C",
"iX c #534B44",
"pX c #584E46",
"aX c #A40000",
"sX c #980000",
"dX c #880000",
"fX c #7C0000",
"gX c #700000",
"hX c #640000",
"jX c #580000",
"kX c #450000",
"lX c #FC2020",
"zX c gray99",
"xX c gainsboro",
"cX c #D0D0D0",
"vX c #C0C0C0",
"bX c #B4B4B4",
"nX c gray66",
"mX c #989898",
"MX c gray55",
"NX c #7C7C7C",
"BX c gray44",
"VX c #646464",
"CX c gray36",
"ZX c gray33",
"AX c #4C4C4C",
"SX c #484848",
"DX c gray25",
"FX c gray22",
"GX c #343434",
"HX c #282828",
"JX c gray11",
"KX c #1B1B1B",
"LX c #181818",
"PX c #070707",
"IX c #020202",
"UX c None",
/* pixels */
"  A A A A A b.b.] ] b.b.b.Y.Y.] b.Y.m ] GXY.Y.Y.b.Y.Y.b.A A LX  A A b.b.b.Y.b.Y.Y.] Y.Y.Y.b.b.A A     A A b.] Y.GXGXb.b.b.A     ",
"  A H H <.<.U.t.! ! J J <.'._.1.t.Z.F.'.0.Z._.1.u.Z.Z.t.H E 1   A E n <.t.Z.'._.Q.`.'.W.Z.o.N.H A 7   I ' n a.Z.Z.-.t.l.J H U   ",
"  A a.a.0.c.#XH.2.1.-.3 R.}.$X}.H.g.d.-X;X.X-X%X Xj.j..Xa.v.XX  A 6.p 8..Xg.-X-XS.6X;X^.j.=X,./.Z *.  D m.p -.g.}.=Xj.0.-.a.Z x ",
"  A +.+.+.`.`.f.2.Y.f.FXz f.s.s.f.f.f.-XyXyX-X<X^.<XyX<X+.Y.b.  A Y.@.s.yXf.`.-X{.6X<X^.yX-X_.+.] A   m Y.@.@.f.s.6X0Xs.@.`.A A ",
"  6.,X9X,XW.i 0.2.I.8.2 =.%X!.-.%X}.%X#X;X;X4X>X^.^.<X^. Xp.x.  Z >.O.G..X/ >.W.4X6XyX9XyX|.W.H.m.V 8 R.Q.$X!.0Xi 6XyXj.+.A.] E ",
"  m.9XtXd i i rX    d d d d d d d d d d d d d d d d d d d d d d d d d d d d d d d d d d d d d d d d d d d     i i d d tX.X0XY.V ",
"  ] yXwXwXwXd eX6X      eXeXeXeXeXeXeXeXeXeXeXeXeXeXeXeXeXeXeXeXeXeXeXeXeXeXeXeXeXeXeXeXeXeXeXeXeXeXeXeX    6XeXtXwXwXwXyXyXN.A ",
"  x.yXyX}.(.rX4.4.# @ +     R.J.W.W.+X`.2.{.=X.X-X.X.XuX>X>XN.  C J.0X7X<X<X<X<X4X-Xd.9X3X0Xj.A.N.A     dXdX$X}.wXW.@.d.j.iXx.&.",
"  G yX<Xt.o.t.2.c.O X X O $ % sXfXjXkXkXkXkXkXkXjXfXsXvX  vX      MX  MXgXjXkXkXkXkXhXfX& # @ $ $ sXfXjXjXgX-XP.h.L f.+.A.pX6.XX",
"  J yXyXGX[ [ 2.`.O X X O + @ # & sXfXgXgXfXfXsXaX% # o   o       cX  vX& sXfXfXdXsX& $   zX      cX  sXfXgX$X8.p.FXf.f.{.<Xm.V ",
"  +.yX9X[.OX=.`.`.O X X O + @ # & sXfXgXfXdXdXsX& $ @ o   o       cX  cX% sXdXdXsXaX$   O   zX  o   %   fXhXS.(.Y.+.f.$.s.d.Y.E ",
"  A.1Xy.P.6 5 1.c.O X X O + + # % sXdXfXdXsXsX& % # @ o   o       xX  cX$ & sXsXsX% $ xX  X NX  BX#   mXgXhX-.L Q.g.G.%X|.s.N.P ",
"  ` y.I.4.#.e e.4.O X X O + + # % aXsXdXsXsXaX% $ # @ o   o       xX  cX$ % aXaX& % $   o BXBX  BXDXvX  gXhX%.J.i.W.A.@X@XD.5.h ",
"  b.2.2.Y.Y.s s Y.O X X O + + @ $ & sXsXsXaX& % $ # @ o   o       xX  cX$ % & & % % $                   fXhX2.GX2.`.2.2.`.GXb.A ",
"  A #.#.].l.E.N 6.O X X O + + @ # % & aXaX& & % $ # @ o   o       xX  cX$ % & & & % %   xXSXZX  AX; vX  fXgX .N  .e. .) a.GXb.E ",
"  E 5 5 q.| R.m b.O X X O + + @ # $ % & & & & % $ $ # o   o       xX  cX$ % & & & & % cX  X SX  SX#   mXfXhXg z g M g g b e b.A ",
"  b.GXGXf f f z 5.O X X O + + @ # $ % & & & & % % $ # o   o       xX  cX$ % & & & & %   +   zX  o   %   fXhXz z m m z m ] s b.A ",
"  W e e ) j j 6.&.O X X O + + @ # $ % & & & & & % % $ xX  xX      xX  cX$ % & & & % % $   zX      cX  aXdXjX] } j j } j ) N V Z ",
"  Z ) b M G G ..1 + X X O + + @ # $ % & & & & & & % $ xX  xX      xX  cX$ % & & % % $ # + X X O O @ $ & dXjX;._ ( ( ;.| r.( ..Y ",
"  C k.B LXI I &.LX+ X O O + + @ # $ % & & & & & & % $ xX  xX      xX  cX$ % & & % $ $ # O X X O O @ # % dXjXv v 3.3.C T 3.C <   ",
"  5X5X5XIXE E ~ LX+ X O O + + @ # $ % & & & & & & % $ xX  xX      xX  cX$ % & & % $ $ # O X X O O @ # % dXjX&.&.&.&.5X5X&.5XIX  ",
"          P P Y = + X X O + + @ # $ % & & & & & & % $ xX  xX      xX  cX$ % & & % % $ # + X X O O @ $ & dXjX, , 4 :     4       ",
"x x x x P *       + X O O + + @ # $ % & & & & & & % $ xX  xX      xX  cX$ % & & % $ $ # O X X O O @ # % dXjX    * = PXP h P x PX",
"V V V V V LX    u + X O O + + @ # $ % & & & & & & % $ xX  xX      xX  cX$ % & & % $ $ # O X X O O @ # % dXjXu u LXj LXx.E x.V LX",
"<.N.] 6.5.1     8 + X X O + + @ # $ % & & & & & & % $ xX  xX      xX  cX$ % & & % % $ # + X X O O @ $ & dXjXZ Q JXt 0 :.Q.'.n.v ",
"Z.#X'.z.n...=   ..+ X O O + + @ # $ % & & & & & & % $ xX  xX      xX  cX$ % & & % $ $ # O X X O O @ # % dXjX:X+X- r a A.0X-Xa._ ",
"d.6X;X$XU.V LXIXZ + X O O + + @ # $ % & & & & & & % $ xX  xX      xX  cX$ % & & % $ $ # O X X O O @ # % dXjX9XuX=.t ) +..X$Xw B.",
"O.8X8X8X[.A > LXM.+ O O O + + @ # $ % & & & & & % % $ xX  xXo o o xX  cX$ % & & % % $ # O X X O O @ $ & dXjX2X X@.N R.T.$XOXt b ",
"L iX2X X#X3.Y =  .@ O O O + + @ # $ % & & & & % % $ cXo o           xXcXvX% & aX& % $ # O X X O O @ $ aXdXhXH.j.y D `.M.#XL y T.",
"(.A.Q.D._.x.R IX) # + + O + + @ # $ % & & & & % vXcX                      nXnXsXsXaX% # O X X O O @ $ aXdXhX+.D.t ~ #X].#X+.A.4.",
"] `.Y.GX].b.V LXY.& + @ O + + @ # $ % & & & nXnX        o o o o o xXxX        mXMXsX& $ + X X O O @ $ aXdXhXf.GX] n Y.1.-XGXY.) ",
"r.e.M.t./.XXP JX .sX# @ + + + @ # $ % & & nX        xXo               cXvX        mXaX$ + X X O O @ $ aXdXhXf.K.'.9.X.A.W.e X.w.",
"f b Y.>.6 XX  8 g sX$ @ + + + @ # $ % & nX      vXcX    o o o o o xXxX    nXmX      bX$ + X X O O @ $ & dXhXf.O._.1.f h.$.p ) ;.",
"m Y.Y.2.=.V 5X  z aX$ @ O + + @ # % & nX      nX    xXo o o o mXo xXxXcXvX    mX      cX+ X X O O @ # % dXgXf.f.Y.Y.m s.S.FXY.b.",
") 2.1.Y.V.5.C   | & $ + O + + @ $ & sXmX    nX    cXxXo o o BX  VXxXxXcXvXnX    mX    cXO X X O O @ # % sXfXO.O.z ) q }.;Xq Y.n.",
"a e.4.U.u.b.Z   l.$ # + O + + # % aXmX    mX    vXcXxXo o BX      MXxXcXvXnXnX    bX    o X X O O @ # % sXdXK.K.q. .o.@X6Xp Y.m.",
"a z Y.2.OXb.V   Y.# @ X O + + # % sXMX    mX  nXvXcXxXo BX      FXxXxXcXvXnXnXnX  vX    o lXX O O @ # $ aXdXe e V.].4.#X4X=XU.T.",
"b M.1.>.{ x.E   ].@ X X O + @ # & mX    MX  mXnXvXcXxXBX      FXo xXHXSXvXnXnXnXnX  cX    zXX O O @ # $ & sXGXGX=.].) U.@X6X_.i.",
"/.y.o.#.R...Y    .xXzXzXo o o o bXmX    MX  mXnXvXcXZX      DXo o ZX    FXnXnXnXnX  cX    zXzXo o xXcXvXnXmXk e 5  .f X.o.W.Q.L ",
"w D.q ; g 1     l                 mX  NX  mXnXnXvXcXHX      NXo CX        ; nXnXnXvX  xX  zX                z N N f m f q e 5 3 ",
"s m m m m LX    A cXzXzXo o o o vX    MX  mXnXnXVXcXxXVX      s             HXnXnXvX  xX    zXo o xXcXvXnXnXm b.b.m m m m m m GX",
"N f } D D KX    I               vX    mX  nXnX;   JXxXo VX          VXJX      HXnXvX  xX    zX              D V V D C.j j D } k ",
"r.r.;.I V 7     E               cX    nX  nXZX      HXo o FX      ; xXcX        CXvX  xX    zX              I A V I ;.X.r.I ;.r.",
"5.5.5.A T       T               cX    nX  nXnX;       DXNX          AXcXvX    HXnXvX  xX    zX              A A T A T 3.T A 5.5.",
"XXXX&.&.L.      h o zXzXo o o o cX    mX  nXnXnXFX            s       DXvXnXZXnXnXvX  xX    zXo o cXvXnXNXNX&.&.h *.h h h *.&.XX",
"< < < < ,                         bX  mX  mXnXnXvXSX        VXo NX        nXnXnXnXvX  xX  zX                < <   =       , < < ",
"XXXXXXoXoXPXh * * o zXzXo o o o vXnX    MX  mXnXvXcXZX    VXo o FX      FXnXnXnXnX  cX    zXzXo o cXvXmXBXBX*.*.*     * PX* oXoX",
"m.m.m.m.M.l E < < O X X O + + # % nX    NX  mXnXvXcXxXBXDXo o FX      SXvXnXnXnXnX  cX    zXX O O # % sXdXgXb b <     < l l m.m.",
"=X=X*XS.P.9.m.LXH O X X O + + # % sXNX    MX  MXvXcXxXo o o DX      ZXcXvXnXnXnX  nX    o lXX O O @ $ aXdXfXk k H Q   | D.D.S.y.",
"9X9X<X0X}.c.4.0 B O X X O + + # % sXNX    MX    vXcXxXo o mX      CXxXcXvXnXnX    vX    o X X O O @ $ % sXdXL L ;.C   V.J.d.0Xj.",
"yXyXf.f.f.`.2.a   O X X O + + # % sXdXNX    mX    cXxXo o o BX  VXxXxXcXvXmX    nX    xXO X X O O @ # $ aXdXyXyXA     m GXf.f.0X",
"9X2X$.G.O.+X1.G   O X X O + + @ $ aXsXMX      nX    xXo o o o mXo xXxXcXvX    nX      xXO X X O O @ # $ & sX^.yX3.    f 5 f.s.2X",
" Xj.|.y.K.A.0.;.  O X X O + + @ $ % sXsXmX      vXcX    o o o o o xXxX    nXnX      cX@ O X X O O @ # $ & dX^.yXn.Y   X.a.$.f.qX",
"i.i._.1.(.s.s.B.  O X X O + + @ # $ & aXaXnX        xXo               cXvX        vX# @ O X X O O @ # $ aXfX<X<X] E   ] ].i.f.FX",
"}.{.2.1.8.}.}.z   + X X O + + @ # $ % & & & nXnX        o o o o o xXxX        nXnX$ # @ O X X O O @ # % sXfXH.~.' V   ] 1.{.f.@.",
"P.).4.2.P.P.1.l   + X X O + + @ # $ % & & & & % vXcX                      mXmXaX% $ # @ O X X O O @ # % sXfX0.Z.R A   ] 4.|.O.K.",
"8.}.c.2._.9.e.v.  + X X O + + @ # $ % & & & & % $ # xXo o           cXvXnXsXsXsX% $ # @ O X X O O @ # & sXgX,.I.B.A   n.Y.p.J.e ",
"=.s.-X2.].GXGXY.  + X X O + + @ # $ % & & & & % $ # @ o   o o o o cX  bXsXdXdXsX& $ # @ O X X O O @ # & dXgX].Y.z A   b.Y.Y.FXw ",
"5 -.Q.#./.t.u.n.  + X X O + + @ # $ % & & & & % $ # @ o   o       cX  bXsXdXdXsX& $ # @ O X X O O @ # % sXgX#.#.m A   b.m.X.k X.",
"5 5 6 6 6 >.I.5.  + X X O + + @ # $ % & & & & % $ # @ o   o       cX  nXdXfXfXsX& $ # @ O X X O O @ # % sXgX6 6 m A   b.] M b I ",
"=.GXGXGXGX[ Y.b.  + X X O + + @ # $ % & & & & % $ # @ o   o       cX  nXdXfXfXsX& $ # @ O X X O O @ # % sXgXGXGXz A   b.] j j V ",
"^ J.6 q.R.#.=.N.  + X X O + + @ # $ % & & & & % $ # @ o   o       cX  bXsXdXdXsX& $ # @ O X X O O @ # % sXgXE.N 6.Z   5.z D.D.Q.",
"A.|.Q.#XZ.6 #.n.  + X X O + + @ # $ % & & & & % $ # @ o   o       cX  nXdXfXfXsX& $ # @ O X X O O @ # % sXgXq.n ..U   n.) A.d.1X",
"1X-X-X4Xs.OXI.5.  + X X O + + @ # $ % & & & & % $ # @ o   o       cX  nXdXfXfXsX& $ # @ O X X O O @ # % sXgXf m 1     ] U.,.f.0X",
"}.-X#Xc.{ [ I.b.  + X X O + + @ # $ % & & & & % $ # @ o   o       cX  bXsXdXdXsX& $ # @ O X X O O @ # % sXgXj ) 0     ] 1.Y.O.d.",
"A.@X2.,.P.F.#.Z   + X X O + + @ # $ % & & & & % $ # @ o   o       cX  nXdXfXfXsX& $ # @ O X X O O @ # % sXgX( K =     X.o.4.-.OX",
"G._.2./ %XOX(.v   + X X O + + @ # $ % & & & & % $ # @ o   o       cX  nXdXfXfXsX& $ # @ O X X O O @ # % sXgXB 7       f 5 1.FXFX",
"f.2.`.s.0X{.Y.LX  O O X O + + @ # $ % & & & & % $ # @ o   o       cX  nXfXgXgXdXaX$ # @ O X X O O @ # % sXfX          m GXY.@.0X",
"$.>.W.f.yX@XI.1   O + O O + + @ # $ % & & & & % $ # @ o   o       cX  nXfXhXgXdXaX$ # @ O X X O O # $ & sXfXU U 8     m GX4.j.9X",
":Xt.G.H.,X'.e...  @ + + + + + @ # $ % & & & & % $ # @ o   o       cX  nXfXhXgXfXaX$ # @ O X X O O # % aXdXfXE E 0   = m GX2.2X>X",
"4Xe f.0X+.Y.s b.  # @ # + + + @ # $ % & & & & % $ # @ o   o       cX  nXdXgXgXdXsX% # @ O X X O O $ & sXdXfXW W LX  LXm GX1.0X^.",
"F.j O.~.FX) N _   $ # # @ + + @ # $ % & & & & % $ # @ o   o       cX  bXdXgXgXdXsX% # @ O X X O + $ aXsXdXfXm.m.v   * j w U.FX-.",
"; k OXF.s j ( ..  aX$ $ # @ + @ # % & aX& & aX& % # @ o   o       cX  nXfXhXgXfXsX% # @ O X X O + $ sXdXfXfX'.z.Z Y   w.s  .k k ",
"b k k l l M 3.<   dX& % $ $ + # $ & aXsXaXaXsXaX& $ # o   o       cX  nXfXhXhXfXdX& $ # O X X O + % sXfXgXfX}./ b.~   v b b l l ",
"6.D 6.S KXKX&.IX  fXaX& % $ @ # % aXsXsXsXsXsXsXaX% # o   o       cX  nXfXhXjXgXdXaX% # O X X O + % sXfXgXfXi.i.b.LX  &.S V V V ",
"P x P x * , ,     dXaX& % $ % $ & sXdXdXdXdXdXdXsX& $ o   o       cX  nXdXgXjXhXfXsX& $ O X X O + % sXfXgXfXh.H.n...  , P ..XXXX",
": : : : *         gXsXfXfXfXsXsXfXgXjXgXgXgXgXjXgXfXsXcX  xX      nX  mXhXkXkXkXkXgXfXsX# @ + # $ dXgXhXkXkXA.y.N.v       7 1 1 ",
"LXLXLXLXLX          b.GX2.f.2.Y.`.f.m   A GXFXY.2.f.`.`.f.f.LX  LXm Y.2.Y.FX`.f.Y.GX-X-XY.f.f.2.GXs s f.f.GX2.Y.b.LX        LXLX",
"C F F F ..8         V 5 (.G.(.b +X8.j   A 5 6 (._.G.W.`.O.OX:   : n /.>.z w #.d./.e 4X@X].OXOX,.e ; j d.d.5 >.,.I :       7 F F ",
"e.q.R.I.<.a 8 ,     V o.#.y.F.#.c.l.l   A o.u.o.'.0.L c.K.e P   P N 5 t. .GX-.K.3 K.&X8.r.a k 0.GXq N K.K.o.t.t.G Y   = Y G l.:.",
"2X~.g.$X}.J J *.    B.[ [ ,.+XS.1.N.I   A 1.[ [ R.4.e { (.GX~   E q GX=.{ GXp.; q p.K.M 9 *.) $.GXp FXe e _.2 5 f A   0 S T.$X6X",
"2XyX-.%.s.p.M.3.    b (.(.` >.7.>.' A   A ].=.=.=.=.5 i.8.GX&.  Z s 3 [ %.e a 1 9 *.* 1 JXD.D.FXw J.0XFXGXz.w GX*.h   LXb (.=X X",
"qX X3 5 |.~.0.r.    j L L /.#.u.o.5.A 7 A Y.#.t.u.u.Z.y.,.GX..  P q J.Z.s a F N K.(.K /.%.y.H.K.qXg.qX3 5 a.w GX1     LXs L -.L ",
"%.Q.-.-.P.J.$.z     b A.A.%.(.(.(.b.A 0 A Y.I.[ V.V.).,.e.GXV   L./.+.3 l XXc ~.<X0Xd.S.W.I.W.O.1XW./.#.(.e e GXLX    LXs +.e q ",
"V.V.f.f.].GXGX'     ' Y.Y.[ V.V.Y.b.V LXA Y.].GXs =.2.Y.GXGXV   A V.p j LXT n !.e j j Y.2.2.{.!.!.{.[ 2.Y.j j q LX    1 m GXGXGX",
"I.z.OXOX/.e N V     ..| | u.I.]. ._ ..LXA Y.) k N s  .].u.GX..  Y n.a oXK ` 0.t.g M m.I.#.z.1.t.OX,.>.o.a.oXK r.LX    ..z e t.t.",
"e.>.e e 6 w z V     1 k k ; 4.Y.b ..7 LXV Y.f n z l l R.l.w 7     U = < /.4X4XI.N  .E.u.5 u.e.` 5 Y.4.5 q < 7 v LX    Z z w P.P.",
"GX[ GXGXGXGXz A     LXs s z 1.Y.b.LX  LXA Y.z m z A A m b.GX          LXGX6X-XY.GXY.GXGXGXGXGX2.GXY.Y.GXs LX  LXLX    b.m GX`.`.",
"3 F.3 3 /.q.} x     KX| ( C.n.n.V 0 < PX*.n.C.J C.A Z C.n.q.C       C v k [.'.n.k ) k r.k r.r.4.| ] U.3 q v B ~ KX    n.s r.Y.a.",
"m - m m XXU Y       7 U v _ W E A 7 8   7 .._ XX_ A U _ U U U       U V G ' 6.E G l G _ G _ _ n.v U w.m ) V ..U 7     U - _ 5.H ",
"A LXA A                 LXA A A A         LXA   A A   A               A A A A A A A A A A A A A LX  LXA b.A LX          LXA A A "
};
