/* XPM */
static char *Free_Converter_com_stoneuwleagle_36403845[] = {
/* columns rows colors chars-per-pixel */
"64 91 256 2 ",
"   c black",
".  c gray100",
"X  c #FC0000",
"o  c #EC0000",
"O  c #E00000",
"+  c gainsboro",
"@  c #D40000",
"#  c #D0D0D0",
"$  c #C0C0C0",
"%  c #B4B4B4",
"&  c #885830",
"*  c #282828",
"=  c gray11",
"-  c #040405",
";  c #0A0A0B",
":  c #262628",
">  c #141415",
",  c #020306",
"<  c #141518",
"1  c #07080A",
"2  c #161719",
"3  c #38393B",
"4  c #353638",
"5  c #323437",
"6  c #323539",
"7  c #0D0E0F",
"8  c #101112",
"9  c #1A1B1C",
"0  c #191A1B",
"q  c #303132",
"w  c #2D2E2F",
"e  c #343536",
"r  c #323334",
"t  c #373735",
"y  c #232322",
"u  c #30302F",
"i  c #E4D800",
"p  c #2C2B23",
"a  c #2B2A24",
"s  c #070602",
"d  c #2E2C24",
"f  c #2F2E2A",
"g  c #2C291F",
"h  c #2E2B21",
"j  c #0A0802",
"k  c #29220F",
"l  c #251F0F",
"z  c #2B2514",
"x  c #2B271C",
"c  c #2D2A21",
"v  c #2E2B22",
"b  c #2A2822",
"n  c #2F2D27",
"m  c #1E1706",
"M  c #2A210B",
"N  c #211A09",
"B  c #2C230D",
"V  c #28200C",
"C  c #271F0C",
"Z  c #2B230E",
"A  c #2A2311",
"S  c #1F1A0D",
"D  c #221D10",
"F  c #282317",
"G  c #322D21",
"H  c #332F25",
"J  c #24221D",
"K  c #413F3A",
"L  c #0D0A03",
"P  c #281F0A",
"I  c #1A1407",
"U  c #120E05",
"Y  c #251D0B",
"T  c #2E240E",
"R  c #2B220D",
"E  c #2A210D",
"W  c #413417",
"Q  c #2D2410",
"!  c #29210F",
"~  c #41351B",
"^  c #483B1F",
"/  c #302817",
"(  c #2B2517",
")  c #241F14",
"_  c #211D14",
"`  c #2E291E",
"'  c #2D220B",
"]  c #423213",
"[  c #483818",
"{  c #302611",
"}  c #382C14",
"|  c #47381A",
" . c #48391B",
".. c #2F2613",
"X. c #4B3D21",
"o. c #342B19",
"O. c #362E1E",
"+. c #3E3729",
"@. c #4E4636",
"#. c #4A4335",
"$. c #4B4436",
"%. c #39342A",
"&. c #4A4438",
"*. c #393630",
"=. c #1B1A18",
"-. c #1C1B19",
";. c #353432",
":. c #3D3C3A",
">. c #453313",
",. c #4B3815",
"<. c #463515",
"1. c #392B11",
"2. c #483717",
"3. c #352811",
"4. c #2C220F",
"5. c #453518",
"6. c #2E2310",
"7. c #332712",
"8. c #352913",
"9. c #4C3B1D",
"0. c #45371E",
"q. c #42351E",
"w. c #372D1B",
"e. c #2E2617",
"r. c #4B3E26",
"t. c #3B311F",
"y. c #30281A",
"u. c #403623",
"i. c #4A3F2B",
"p. c #4C412E",
"a. c #3B3325",
"s. c #4C4333",
"d. c #494132",
"f. c #373126",
"g. c #4C4435",
"h. c #4F4738",
"j. c #4C4436",
"k. c #4D4639",
"l. c #4C463B",
"z. c #4E483D",
"x. c #3D2D13",
"c. c #453316",
"v. c #322510",
"b. c #4E3A19",
"n. c #332611",
"m. c #302410",
"M. c #3B2D15",
"N. c #3D2E16",
"B. c #372A14",
"V. c #302513",
"C. c #3F311A",
"Z. c #41331C",
"A. c #302615",
"S. c #463A27",
"D. c #4E4434",
"F. c #4E4536",
"G. c #1C1914",
"H. c #463F33",
"J. c #3D372D",
"K. c #4C4539",
"L. c #4E473B",
"P. c #474137",
"I. c #423D35",
"U. c #050300",
"Y. c #4F3816",
"T. c #513A17",
"R. c #412F14",
"E. c #523B1A",
"W. c #433218",
"Q. c #403018",
"!. c #3C2F1B",
"~. c #3E311E",
"^. c #4F4029",
"/. c #504330",
"(. c #453C2E",
"). c #51483A",
"_. c #675C4C",
"`. c #534A3D",
"'. c #35312B",
"]. c #353330",
"[. c #563C18",
"{. c #4B3516",
"}. c #543C1C",
"|. c #423017",
" X c #513B1D",
".X c #533C1E",
"XX c #553E20",
"oX c #533E22",
"OX c #4C3A22",
"+X c #53422C",
"@X c #574D40",
"#X c #201D19",
"$X c #3C3935",
"%X c #553B1A",
"&X c #5A3E1C",
"*X c #573D1D",
"=X c #4C361A",
"-X c #5A4123",
";X c #564127",
":X c #604B32",
">X c #574836",
",X c #544634",
"<X c #50483E",
"1X c #4D4842",
"2X c #5D401F",
"3X c #5C4020",
"4X c #5F462A",
"5X c #58452F",
"6X c #594A39",
"7X c #726352",
"8X c #5C5145",
"9X c #544B41",
"0X c #514940",
"qX c #554D44",
"wX c #684521",
"eX c #6C4824",
"rX c #030201",
"tX c #6F4A26",
"yX c #604F3E",
"uX c #5A4F44",
"iX c #60554A",
"pX c #524A42",
"aX c #534D47",
"sX c #45423F",
"dX c #E46C00",
"fX c #9C4C00",
"gX c #744C28",
"hX c #5E5247",
"jX c #784F2C",
"kX c #534B44",
"lX c #80502C",
"zX c #905C34",
"xX c #9C6038",
"cX c #BC7848",
"vX c #B47044",
"bX c #DC8854",
"nX c #C87C4C",
"mX c #A86840",
"MX c #D08050",
"NX c #FCE0D0",
"BX c #C80000",
"VX c #BC0000",
"CX c #010000",
"ZX c #FC4040",
"AX c #FC5C5C",
"SX c #FC7C7C",
"DX c #FC9C9C",
"FX c gray66",
"GX c #989898",
"HX c gray22",
"JX c #343434",
"KX c #202020",
"LX c #1B1B1B",
"PX c #181818",
"IX c #070707",
"UX c #020202",
/* pixels */
"  V V V V V m.m.} } m.m.m.Q.Q.} m.Q.v } JXQ.Q.Q.m.Q.Q.m.V V PX  V V m.m.m.Q.m.Q.Q.} Q.Q.Q.m.m.V V     V V m.} Q.JXJXm.m.m.V     ",
"  V F F 1.1.W.u.W W H H 1.=XE.{.u.S.J.=XOXS.E.{.a.S.S.u.F R 2   V R c 1.u.S.=XE.(.}.=X/.S.+.B.F C 7   P { c f.S.S.:.u.x.H F I   ",
"  V f.f.X.b.*XL.[ 2.:.4 !.oX-XXXL.k.h.2X4X`.2X;X@X<X<X`.f.n.G.  V 7.t 0.`.k.2X2XD.tX4X_.<X,X<.'.B -.  A M.t :.k.XX,X<XX.:.f.B j ",
"  V #.#.#.}.}.j.[ Q.j.HXh j.g.g.j.j.j.2XhXhX2X8X_.8XhX8X#.Q.m.  V Q.$.g.hXj.}.2X.XtX8X_.hX2XE.#.} V   v Q.$.$.j.g.tXpXg.$.}.V C ",
"  7.uXiXuX/./.X.[ R.0.3 ;.;XF.:.;XoX;X*X4X4XwX7X_._.8X_.@Xd.v.  B ,.F.K.`.^ ,./.wXtXhXiXhX+X/.L.M.M 8 !.(.-XF.0X1XtXhX<X#.^.} R ",
"  M.iX_.hXi.K c.5.a.N.J.3 2XK 4 2X[.2X}.&X;XtX7X6X7X_.7X_.iX6.  I u.g.+Xd.^ ^ &.jXwXhX8XiX&.&.i.8.V LXR.,X4X$.0X>XwX@XuX`.0XQ.M ",
"NX= = = = = = = = = = = = = = = = = = = = = = = = = = = = = = = = = = = = = = = = = = = = = = = = = = = = = = = = = = = = = = = ",
"NXdX    i i i i i i i i i i i i i i i i i i i i i i i i i i i i i i i i i i i i i i i i i i i i i i i i i i i i i i i i i i i i ",
"i fXGX      fXfXfXfXfXfXfXfXfXfXfXfXfXfXfXfXfXfXfXfXfXfXfXfXfXfXfXfXfXfXfXfXfXfXfXfXfXfXfXfXfXfXfXfXfXfXfXfXfXfXfXfXfXfXfXfXfXfX",
"dX    FXGXGX                                                                                                                    ",
"$ # $ $ % % gX& HXHX* =     = * HXHX* =     = * HXHX* =     = * HXHX* =     = * HXHX* =     = * HXHX* =     = * HXHX* =     = * ",
"# + # $ % % gXgXxXHX* =     = * HXHX* =     = * HXHX* =     = * HXHX* =     = * HXHX* =     = * HXHX* =     = * HXHX* =     = * ",
"# + # $ % % $ lXnXxX& gX    = * HXHX* =     = * HXHX* =     = * HXHX* =     = * HXHX* =     = * HXHX* =     = * HXHX* =     = * ",
"# + # $ % % $ & cXMXvXzXeX3XgX* HXHX* =     = * HXHX* =     = * HXHX* =     = * HXHX* =     = * HXHX* =     = * HXHX* =     = * ",
"# + # $ % % $ # cXcXvXmXzX& zX& vXxX& gX3X  = * HXHX* =     = * HXHX* =     = * HXHX* =     = * HXHX* =     = * HXHX* =     = * ",
"# + # $ % % $ # + xXlXgXgX& xXnXnXcXmXzXgXeXzX& xXxX* =     = * HXHX* =     = * HXHX* =     = * HXHX* =     = * HXHX* =     = * ",
"# + # $ % % $ # + + & zXeXeX& & zXvXmXxX& zXxXmXvXmXzXzXzX3XgX& xXxX* =     = * HXHX* =     = * HXHX* =     = * HXHX* =     = * ",
"# + # $ % % $ # + + & & zXzXmXvXcXxXlX3X[ 3X& mXcXnXvXxXzXgXlXxX& lXgX3X3XeXlX& xXHX* =     = * HXHX* =     = * HXHX* =     = * ",
"# + # $ % % $ # + + # zX& zXmXcXMXMXvXvX& & zXzXmXvXzXgX& & 3XmXcXcXxX& gXeXgXlXvXcX& [     = * HXHX* =     = * HXHX* =     = * ",
"# + # $ % % $ # + + # $ 3X}.gXmXnXnXcXvX}.[ 3XgX& & & lXgX& zXeXvXnXcXmXzXzXvXmXzX& xXxX& 3Xm.* HXHX* =     = * HXHX* =     = * ",
"# + # $ % % $ # + + # $ % % gXxXvXmXlX3X}.3XlXxXcXcXmXzX& & zXxXvXxXlX3X3XeXgXvXMXnXxXgX3X& mXmXgXHX* =     = * HXHX* =     = * ",
"# + # $ % % $ # + + # $ % % $ xXMXMXvXxX& & & zXzX& lX3X}.3XgXxXvXvXxX3XeXgX& vXnXnXcXxX& }.& vXnXeX* =     = * HXHX* =     = * ",
"# + # $ % % $ # + + # $ % % $ & xXcXvXmXzXzXmXcXMXmXlXeX}.}.3XgX& & eX[ Q.}.3XeX& mXcXmXxX& & & cXnXlXgX    = * HXHX* =     = * ",
"# + # $ % % $ # + + # $ % % $ # + xXmXgX& gX& xXvXvXxX& eXeXgX& & & eX[ [ gXzXlXcXnXcXmXzXzXmXmXzXcXvXeX3X  = * HXHX* =     = * ",
"# + # $ % % $ # + + # $ % % $ # + + # gXeX& xXvXnXnXvXxX& gXeXgX& zX& 3XQ.Q.3X& xX& & gX3X& mXcXbXzXxXvX& 3X= * HXHX* =     m.mX",
"# + # $ % % $ # + + # $ % % $ # + + # $ % & lXmXcXcXmX& gX3XgXxXvXxX3X[ }.3XeXlXvXcXlXgX}.& mXcXMXMX& gX& & 3X& HXHX* =   V xXcX",
"# + # $ % % $ # + + # $ % % $ # + + # $ % % $ & xXxX& gXQ.3XzXvXMXzXzXzX& 3XeXxX& & vXgX& Q.3X& zXzX& 3Xm.& mXvX& xX* = V & mXcX",
"# + # $ % % $ # + + # $ % % $ # + + # $ % % $ # + + # $ % 3XgX& xXxX& 3XgX& zXxXcXxX& lX}.}.zXvXcXmXgXgX& gXzXxXvXxX3Xm.& zXmXcX",
"# + # $ % % $ # + + # $ % % $ # + + # $ % % $ # + + # $ % % $ # + + # gXeXeXlX& & vXmX& [ eXmXxX& vXmXzX& [ zXxXvXvXmXxXzXzXmXcX",
"# + # $ % % $ # + + # $ % % $ # + + # $ % % $ # + + # $ % % $ # + + # $ % % $ # xXxX& gX3XeX[ gX& & lXgXgX& mXcXMXMXcXmXzXzXmXmX",
"# + # $ % % $ # + + # $ % % $ # + + # $ % % $ # + + # $ % % $ # + + # $ % % $ # + + # $ 3X& zXmXcXnXvXmXzXzXmXcXMXMXcXmXzXzXxXvX",
"# + # $ % % $ # + + # $ % % $ # + + # $ % % $ # + + # $ % % $ # + + # $ % % $ # + + # gX& zXmXcXMXMXcXmXzXzXmXcXMXMXcXxXzXzXxX& ",
"# + # $ % % $ # + + # $ % % $ # + + # $ % % $ # + + # $ % % $ # + + # $ % % $ # + + & & }.zXmXcXMXMXcXmXzXzXmXcXMXMXmXlX3X& mXzX",
"# + # $ % % $ # + + # $ % % $ # + + # $ % % $ # + + # $ % % $ # + + # $ % % $ # + + gX& gXeXgX& mXcXvXmXzXzXmXcXMXMXcXmX& Q.xX& ",
"# + # $ % % $ # + + # $ % % $ # + + # $ % % $ # + + # $ % % $ # + + # $ % % $ # + + & & 3X3X$ # + xX& gX3XeXxXcXMXMXcXmX& & zXmX",
"# + # $ % % $ # + + # $ % % $ # + + # $ % % $ # + + # $ % % $ # + + # $ % % $ # + + & gX% % $ # + + # $ % 3XgX& cXnXcXmXzXzXmXvX",
"# + # $ % % $ # + + # $ % % $ # + + # $ % % $ # + + # $ % % $ # + + # $ % % $ # + + # $ % % $ # + + # $ % % $ # xXxXzXzX& & & & ",
"# + # $ % % $ # + + # $ % % $ # + + # $ % % $ # + + # $ % % $ # + + # $ % % $ # + + # $ % % $ # + + # $ % % $ # + + & gX[ [ gXmX",
"# + # $ % % $ # + + # $ % % $ # + + # $ % % $ # + + # $ % % $ # + + # $ % % $ # + + # $ % % $ # + + # $ % % $ # + + # $ 3X& xXgX",
"# + # $ % % $ # + + # $ % % $ # + + # $ % % $ # + + # $ % % $ # + + # $ % % $ # + + # $ % % $ # + + # $ % % $ # + + # eX3X}.eXo ",
"# + # $ % % $ # + + # $ % % $ # + + # $ % % $ # + + # $ % % $ # + + # $ % % $ # + + # $ % % $ # + + # $ % % $ # + + DX}.@ 3XO o ",
"# + # $ % % $ # + + # $ % % $ # + + # $ % % $ # + + # $ % % $ # + + # $ % % $ # + + # $ % % $ # + + # $ % % $ # DXAXo O @ @ O o ",
"# + # $ % % $ # + + # $ % % $ # + + # $ % % $ # + + # $ % % $ # + + # $ % % $ # + + # $ % % $ # + + # $ % % DXZXX X o O @ @ O & ",
"# + # $ % % $ # + + # $ % % $ # + + # $ % % $ # + + # $ % % $ # + + # $ % % $ # + + # $ % % $ # + + # $ SXZXO o X X o O @ @ O }.",
"# + # $ % % $ # + + # $ % % $ # + + # $ % % $ # + + # $ % % $ # + + # $ % % $ # + + # $ % % $ # + + DXZX@ @ O o X X o O @ @ O & ",
"# + # $ % % $ # + + # $ % % $ # + + # $ % % $ # + + # $ % % $ # + + # $ % % $ # + + # $ % % $ # DXAXo O @ @ O o X X o O @ @ gXxX",
"# + # $ % % $ # + + # $ % % $ # + + # $ % % $ # + + # $ % % $ # + + # $ % % $ # + + # $ % % DXZXX X o O @ @ O o X X o O @ @ }.zX",
"# + # $ % % $ # + + # $ % % $ # + + # $ % % $ # + + # $ % % $ # + + # $ % % $ # + + # $ SXZXO o X X o O @ @ O o X X o O @ 3X& & ",
"# + # $ % % $ # + + # $ % % $ # + + # $ % % $ # + + # $ % % $ # + + # $ % % $ # + + DXZX@ @ O o X X o O @ @ O o X X o gX3X}.zX& ",
"# + # $ % % $ # + + # $ % % $ # + + # $ % % $ # + + # $ % % $ # + + # $ % % $ # DXAXo O @ @ O o X X o O @ @ O o X X & lX& Q.eXmX",
"# + # $ % % $ # + + # $ % % $ # + + # $ % % $ # + + # $ % % $ # + + # $ % % DXZXX X o O @ @ O o X X o O @ @ O o X xX& eX[ & 3XlX",
"# + # $ % % $ # + + # $ % % $ # + + # $ % % $ # + + # $ % % $ # + + # $ SXZXO o X X o O @ @ O o X X o O @ @ O o X xXlXgX[ zX[ & ",
"# + # $ % % $ # + + # $ % % $ # + + # $ % % $ # + + # $ % % $ # + + DXZX@ @ O o X X o O @ @ O o X X o O @ @ O o X gXgXxXzX& gXo ",
"# + # $ % % $ # + + # $ % % $ # + + # $ % % $ # + + # $ % % $ # DXAXo O @ @ O o X X o O @ @ O o X X o O @ @ O o xXcXcXmX& 3XO o ",
"# + # $ % % $ # + + # $ % % $ # + + # $ % % $ # + + # $ % % DXZXX X o O @ @ O o X X o O @ @ O o X X o O @ @ O & vXMXcXxX3X@ O o ",
"# + # $ % % $ # + + # $ % % $ # + + # $ % % $ # + + # $ SXZXO o X X o O @ @ O o X X o O @ @ O o X X o O @ @ O o xXnXcXmXeX3XO & ",
"# + # $ % % $ # + + # $ % % $ # + + # $ % % $ # + + DXZX@ @ O o X X o O @ @ O o X X o O @ @ O o X X o O @ 3XO o X xXcXmXzXgXeXcX",
"# + # $ % % $ # + + # $ % % $ # + + # $ % % $ # DXAXo O @ @ O o X X o O @ @ O o X X o O @ @ O o X X o O 3XzXgXo X X & xXzXzXmXcX",
"# + # $ % % $ # + + # $ % % $ # + + # $ % % DXZXX X o O @ @ O o X X o O @ @ O o X X o O @ @ O o X X o gX& zXmX& X X o gX& zXmXcX",
"# + # $ % % $ # + + # $ % % $ # + + # $ SXZXO o X X o O @ @ O o X X o O @ @ O o X X o O @ @ O o X X o O 3XzXxXcXxXX o gXzXzXmXcX",
"# + # $ % % $ # + + # $ % % $ # + + DXZX@ @ O o X X o O @ @ O o X X o O @ @ O o X X o O @ @ O o X X o O @ 3XmXcXMXxX& mXzXzXmXcX",
"# + # $ % % $ # + + # $ % % $ # DXAXo O @ @ O o X X o O @ @ O o X X o O @ @ O o X X o O @ @ O o X X o O @ @ gXcXnXMXcXmXzX3XeXcX",
"# + # $ % % $ # + + # $ % % DXZXX X o O @ @ O o X X o O @ @ O o X X o O @ @ O o X X o O @ @ O o X X o O @ @ O & MXMXcXmX3X@ O lX",
"# + # $ % % $ # + + # $ SXZXO o X X o O @ @ O o X X o O @ @ O o X X o O @ @ O o X X o O @ @ O o X X o O @ @ O o xXnXcXgX@ @ O & ",
"# + # $ % % $ # + + DXZX@ @ O o X X o O @ @ O o X X o O @ @ O o X X o O @ @ O o X X o O @ @ O o X X o O @ @ O o X xX& O @ @ gXvX",
"# + # $ % % $ # DXAXo O @ @ O o X X o O @ @ O o X X o O @ @ O o X X o O @ @ O o X X o O @ @ O o X X o O @ @ O o X X o O @ 3XmXcX",
"# + # $ % % DXZXX X o O @ @ O o X X o O @ @ O o X X o O @ @ O o X X o O @ @ O o X X o O @ @ O o X X o O @ @ O o X X o O 3X& mXcX",
"# + # $ SXZXO o X X o O @ @ O o X X o O @ @ O o X X o O @ @ O o X X o O @ @ O o X X o O @ @ O o X X o O @ @ O o X X o O [ zXmX& ",
"# + DXZXo @ O o X X o O @ @ O o X X o O @ @ O o X X o O @ @ O o X X o O @ @ O o X X o O @ @ O o X X o O @ @ O o X X o O @ 3XgXo ",
"DXZX@ BXVXVXBX@ O O @ BXVXVXBX@ O O @ BXVXVXBX@ O O @ BXVXVXBX@ O O @ BXVXVXBX@ O O @ BXVXVXBX@ O O @ BXVXVXBX@ O O @ BXVXVXBX@ ",
"wXr j.pX#.Q.u m.    =.Q Q N.HXH B R R     rXB T T A A B =.rX      R ! R R k Z k k R E ! k R R R R B B k Z R E E PX  PXv JX2.0X_.",
"J.d @.).HXv n '     l H.H.<.1Xl.] 6.M     Y ] {.{.u u ] A N       6.u ] {.(.(.u u ] } u u {.{.] {.{.{.H.(.{.M.M.l   - d e W.HX:.",
"w f $XJ.u d / _     B ^.+Xr.aXiXr.3.V   U y.^.:X5XaXaX5X1.T     U B.S.r.:X5Xh.sX1Xr.E.aX1X5X+X/.:X:X5X+XL.:X=Xc.B U   e.u O.f f ",
"` f f b b b 4.>     m. ..X<X).yXL.M.M   B G K.hXaX_._.iXq.n.-   ! Q.XXL.hX-Xk.qXhXL.4X_.hXpX&.kXiXhXkX%Xj.hXXX^ m.!   l ` g x x ",
"7.A 7.Z LXLX=.UX    m.#.s.8X.XXXpXN.6.  V 5.K.k.hXiXqXiXs.N.<   PXQ.g.pXqX9XpXkXkXkX9XqXkXj.j.F.hXkX@.}.F.qXs.s.m.PX  =.Z M M M ",
"L j L j - 1 1       8.;Xl.uX%Xb.z.i.x.  V <.oXoX5X`.r.5X0Xi.l   D |.;X<Xr.;X5XK +X^.i.l.<X<Xj.K.`.).$Xc.q.r.l.L.8.D   1 L _ G.G.",
", , , , -           B.OXp.<XE.5.p.L.!.  V t.OXY.Y.#.,.T.0Xh.l   l !.Y.i.>.OX&X$XY.~ ,./.i.0XF.p.I.I.q q.Z.~ p.i.B.l       7 2 2 ",
"PXPXPXPXPX          m.JX[ j.[ Q.}.j.v   V JXHXQ.[ j.}.}.j.j.PX  PXv Q.[ Q.HX}.j.Q.JX2X2XQ.j.j.[ JXu u j.j.JX[ Q.m.PX        PXPX",
"N S S S D 8         M 5 ].K.].` %X0.d   V 5 6 ].E.K./.}.F.$X,   , c '.,.h e %.h.'.r wX&X|.$X$X<.r w d h.h.5 ,.<.P ,       7 S S ",
"t.w.!.R.1.KX8 1     M +.%.i.J.%.b.x.x   V +.a.+.=Xr.K b.I.r L   L n 5 u.O.JX:.I.4 I.:X0.y.y f r.JXq n I.I.+.u.u.z U   ; U ( x.>.",
"qX).k.-XXXH H -.    V.| | <.%XD.2.B.P   V 2.| | !.5.r  .].JX!   R q JX;. .JXd.w q d.I.b 9 -.v &.JXt HXr r E.3 5 p C   0 Z Z.-XtX",
"qXhX:.*.g.d.N.4.    ` ].].] ,.9.,.{ V   V |.;.;.;.;.5 s.0.JX=.  B u 4 | *.r y 2 9 -.- 2 = H.H.HXe P.0XHXJXc.e JX-.s   PX` ].,X@X",
"sX@X4 5 +X).r.y.    d K K '.%.a.+.6.V 7 V Q.%.u.a.a.S.i.<.JX_   L q P.S.u y S n I.].J '.*.i.L.I.sXk.sX4 5 f.e JX2     PXu K :.K ",
"*.(.:.:.T.P.&.h     ` p.p.*.].].].m.V 0 V Q.R.| C.C.[.<.t.JXM   U.'.#.4 b G.k ).8X0Xh.D./.R./.@.9X/.'.%.].r r JXPX    PXu #.r q ",
"C.C.j.j.|.JXJX{     { Q.Q.| C.C.Q.m.M PXV Q.|.JXu ;.[ Q.JXJXM   V C.t d PXY c F.r d d Q.[ [ .XF.F..X| [ Q.d d q PX    2 v JXJXJX",
"R.c.$X$X'.r n M     _ o.o.a.R.|.O.' _ PXV Q.G f n u O.|.a.JX_   U 3.y #XJ ] OXu.a b M.R.%.c.{.u.$X<.,.+.f.#XJ y.PX    D h r u.u.",
"t.,.r r 6 e h M     2 f f w 5.Q.` D 7 PXM Q.p c h x b !.x.e 7     I ; < '.wXwXR.n O.~.a.5 a.t.] 5 Q.5.5 q < 7 l PX    B h e T.T.",
"JX| JXJXJXJXh C     PXu u h 2.Q.m.PX  PXV Q.h v h V V v m.JXCX      CXPXJXtX2XQ.JXQ.JXJXJXJXJX[ JXQ.Q.JXu PXCXPXPX    m.v JX}.}.",
"4 J.4 4 '.w...j     LXo./ A.8.3.M 0 > IX-.3.A.H A.V B A.3.w.N       N l f  X=X3.f G f y.f y.y.5.o.} W.4 q l m ! LX    3.u y.Q.f.",
"v : v v G.I U       7 I l ' E R V 7 8   7 ) ' G.' V I ' I I I       I M ( { 7.R ( x ( ' ( ' ' 8.l I e.v v M ) I 7     I : ' Q F ",
"V PXV V                 PXV V V V         PXV   V V   V               V V V V V V V V V V V V V PX  PXV m.V PX          PXV V V "
};
